<svg width="17" height="17" viewBox="0 0 17 17" fill="none" xmlns="http://www.w3.org/2000/svg">
    <path fill-rule="evenodd" clip-rule="evenodd" d="M3.63964 0.674967C3.46814 0.846013 3.46429 0.874877 3.46429 1.98383C3.46429 3.02308 3.47664 3.13341 3.61236 3.30552C3.7545 3.48584 3.7885 3.49332 4.4695 3.49332C5.48893 3.49332 5.46457 3.52952 5.46321 2.01448C5.46257 1.35787 5.4385 0.785434 5.40964 0.742316C5.29343 0.568704 5.01564 0.5 4.43 0.5C3.87221 0.5 3.79864 0.516321 3.63964 0.674967ZM11.7857 0.585167C11.7071 0.629639 11.6192 0.700837 11.5904 0.743385C11.5615 0.785933 11.5374 1.35787 11.5368 2.01448C11.5354 3.52952 11.5111 3.49332 12.5305 3.49332C13.2115 3.49332 13.2455 3.48584 13.3876 3.30552C13.5234 3.13341 13.5357 3.02308 13.5357 1.98383C13.5357 0.874877 13.5319 0.846013 13.3604 0.674967C13.2004 0.515323 13.1301 0.500214 12.5568 0.502138C12.2113 0.50335 11.8643 0.540695 11.7857 0.585167ZM1.83607 2.63053C1.33479 2.80329 0.991857 3.09136 0.721786 3.56637L0.5 3.95657V9.51559V15.0746L0.711 15.4547C0.9415 15.8698 1.18271 16.1019 1.63457 16.3431L1.92857 16.5H8.5H15.0714L15.3654 16.3431C15.8173 16.1019 16.0585 15.8698 16.289 15.4547L16.5 15.0746V9.51559V3.95657L16.2784 3.56459C15.8981 2.89188 15.1943 2.49555 14.3799 2.49555H14.0357V2.85546C14.0357 3.25784 13.9268 3.51456 13.6441 3.7784C13.4665 3.94417 13.3944 3.95821 12.6093 3.98016C11.3984 4.01408 11.1073 3.82572 11.0357 2.96222L11 2.53118H8.5H6L5.96429 2.96222C5.89271 3.82572 5.60164 4.01408 4.39071 3.98016C3.60557 3.95821 3.5335 3.94417 3.35593 3.7784C3.07321 3.51456 2.96429 3.25784 2.96429 2.85546V2.49555L2.58929 2.4979C2.383 2.49918 2.04407 2.55883 1.83607 2.63053ZM15.1283 5.72234C15.2904 5.84571 15.4174 6.02011 15.4657 6.1856C15.5186 6.3669 15.5364 7.78723 15.5216 10.6685C15.5004 14.8048 15.4971 14.89 15.3521 15.0872C15.2707 15.1979 15.0939 15.3445 14.9592 15.413C14.7316 15.5288 14.2753 15.5376 8.5 15.5376C2.72471 15.5376 2.26843 15.5288 2.04079 15.413C1.90607 15.3445 1.72929 15.1979 1.64793 15.0872C1.50286 14.89 1.49957 14.8048 1.47843 10.6685C1.46364 7.78723 1.48136 6.3669 1.53429 6.1856C1.6125 5.91769 1.93886 5.60753 2.21429 5.53925C2.29286 5.5198 5.17214 5.50853 8.61271 5.51417L14.8684 5.5245L15.1283 5.72234ZM3.70714 7.6102C3.5375 7.72323 3.46429 7.99691 3.46429 8.51782C3.46429 9.03873 3.5375 9.3124 3.70714 9.42544C3.75036 9.45423 4.11021 9.47825 4.50679 9.47889C5.45164 9.48031 5.46429 9.46748 5.46429 8.50542C5.46429 7.56965 5.44957 7.55532 4.49436 7.55675C4.10464 7.55739 3.75036 7.58141 3.70714 7.6102ZM7.65393 7.68603C7.47279 7.88573 7.4825 9.19602 7.66636 9.36201C7.8665 9.54274 9.17972 9.53305 9.34607 9.3496C9.52722 9.14991 9.5175 7.83962 9.33364 7.67363C9.1335 7.49289 7.82029 7.50258 7.65393 7.68603ZM11.6539 7.68603C11.5605 7.78902 11.5357 7.96598 11.5357 8.53022C11.5357 9.46599 11.5504 9.48031 12.5056 9.47889C12.8954 9.47825 13.2496 9.45423 13.2929 9.42544C13.4625 9.3124 13.5357 9.03873 13.5357 8.51782C13.5357 7.99691 13.4625 7.72323 13.2929 7.6102C13.2496 7.58141 12.8898 7.55739 12.4932 7.55675C11.8845 7.55582 11.7537 7.57599 11.6539 7.68603ZM3.61236 11.7346C3.48771 11.8926 3.46429 12.0229 3.46429 12.5574C3.46429 13.1367 3.47971 13.2078 3.63964 13.3673C3.7995 13.5269 3.87086 13.5423 4.45143 13.5423C4.98714 13.5423 5.11764 13.5189 5.27607 13.3946C5.45679 13.2527 5.46429 13.2188 5.46429 12.5393C5.46429 11.9269 5.44507 11.8127 5.32143 11.6893C5.19779 11.5659 5.08336 11.5468 4.4695 11.5468C3.7885 11.5468 3.7545 11.5543 3.61236 11.7346ZM7.65393 11.6771C7.5605 11.7802 7.53593 11.9555 7.53679 12.5145C7.53743 12.9034 7.5615 13.2569 7.59036 13.3C7.70364 13.4693 7.97793 13.5423 8.5 13.5423C9.02207 13.5423 9.29636 13.4693 9.40964 13.3C9.4385 13.2569 9.46257 12.8978 9.46321 12.5021C9.46464 11.5594 9.45179 11.5468 8.48757 11.5468C7.88521 11.5468 7.75343 11.5674 7.65393 11.6771ZM11.6786 11.6893C11.5549 11.8127 11.5357 11.9269 11.5357 12.5393C11.5357 13.2188 11.5432 13.2527 11.7239 13.3946C11.8824 13.5189 12.0129 13.5423 12.5486 13.5423C13.1291 13.5423 13.2005 13.5269 13.3604 13.3673C13.5203 13.2078 13.5357 13.1367 13.5357 12.5574C13.5357 12.0229 13.5123 11.8926 13.3876 11.7346C13.2455 11.5543 13.2115 11.5468 12.5305 11.5468C11.9166 11.5468 11.8022 11.5659 11.6786 11.6893Z" fill="#646977"/>
</svg>
