<svg width="16" height="16" viewBox="0 0 16 16" fill="none" xmlns="http://www.w3.org/2000/svg">
    <circle cx="8" cy="8" r="8" fill="#FF7A00"/>
    <path d="M7.99699 7.99987L11.6893 6.32782C11.5846 6.09467 11.4056 5.89504 11.1749 5.75442C10.9443 5.6138 10.6727 5.53857 10.3946 5.53833H5.59941C5.32134 5.53857 5.04965 5.6138 4.81904 5.75442C4.58843 5.89504 4.40936 6.09467 4.30469 6.32782L7.99699 7.99987Z" fill="white"/>
    <path d="M8.14704 8.6004C8.10045 8.62442 8.04908 8.63692 7.997 8.63692C7.94491 8.63692 7.89354 8.62442 7.84695 8.6004L4.30469 6.76929V9.67386C4.30504 10.0459 4.44845 10.4026 4.70345 10.6656C4.95844 10.9287 5.30418 11.0766 5.6648 11.077H10.3305C10.6909 11.0762 11.0363 10.9281 11.291 10.6651C11.5457 10.4021 11.6889 10.0456 11.6893 9.67386V6.76929L8.14704 8.6004Z" fill="white"/>
</svg>