<svg width="16" height="16" viewBox="0 0 16 16" fill="none" xmlns="http://www.w3.org/2000/svg">
    <circle cx="8" cy="8" r="8" fill="#1CA0F1"/>
    <path d="M7.98831 4.30762C8.33196 4.30762 8.6679 4.40867 8.95364 4.59801C9.23938 4.78734 9.46209 5.05645 9.5936 5.3713C9.72511 5.68615 9.75952 6.0326 9.69248 6.36684C9.62543 6.70109 9.45995 7.00811 9.21694 7.24909C8.97394 7.49006 8.66434 7.65417 8.32729 7.72065C7.99023 7.78714 7.64087 7.75302 7.32337 7.6226C7.00588 7.49219 6.73451 7.27133 6.54358 6.98798C6.35266 6.70462 6.25075 6.37148 6.25075 6.03069C6.25075 5.5737 6.43381 5.13543 6.75967 4.81229C7.08552 4.48915 7.52748 4.30762 7.98831 4.30762ZM7.98831 12.923C7.28422 12.9226 6.5889 12.768 5.9521 12.4701C5.3153 12.1723 4.75275 11.7385 4.30469 11.1999C4.57149 10.4396 5.07032 9.78057 5.73196 9.31419C6.3936 8.8478 7.18523 8.59722 7.997 8.59722C8.80876 8.59722 9.60039 8.8478 10.262 9.31419C10.9237 9.78057 11.4225 10.4396 11.6893 11.1999C11.2394 11.7408 10.674 12.1758 10.034 12.4738C9.39403 12.7718 8.69533 12.9252 7.98831 12.923Z" fill="white"/>
</svg>
