<svg width="17" height="16" viewBox="0 0 17 16" fill="none" xmlns="http://www.w3.org/2000/svg">
<path d="M7.76263 0C4.03922 0 0.998047 3.03996 0.998047 6.76201C0.998047 10.484 4.0392 13.524 7.76263 13.524C9.24324 13.524 10.6163 13.0429 11.7328 12.2297L15.1955 15.6906C15.6082 16.1031 16.2757 16.1032 16.6885 15.6906C17.1012 15.278 17.1012 14.6042 16.6885 14.1916L13.2324 10.7373C14.0478 9.62046 14.5272 8.24396 14.5272 6.76201C14.5272 3.03996 11.486 0 7.76263 0ZM7.76263 2.11312C10.3436 2.11312 12.4133 4.182 12.4133 6.76201C12.4133 9.34199 10.3436 11.4109 7.76263 11.4109C5.18168 11.4109 3.11197 9.34199 3.11197 6.76201C3.11197 4.182 5.18166 2.11312 7.76263 2.11312Z" fill="white"/>
</svg>
