<svg width="341" height="190" viewBox="0 0 341 190" fill="none" xmlns="http://www.w3.org/2000/svg">
<path d="M259.68 9.5H258.535C258.467 9.17069 258.349 8.88139 258.179 8.6321C258.013 8.38281 257.81 8.17353 257.57 8.00426C257.333 7.83191 257.07 7.70265 256.78 7.61648C256.491 7.5303 256.19 7.48722 255.876 7.48722C255.303 7.48722 254.785 7.63187 254.32 7.92116C253.858 8.21046 253.49 8.63672 253.217 9.19993C252.946 9.76314 252.81 10.4541 252.81 11.2727C252.81 12.0914 252.946 12.7823 253.217 13.3455C253.49 13.9087 253.858 14.335 254.32 14.6243C254.785 14.9136 255.303 15.0582 255.876 15.0582C256.19 15.0582 256.491 15.0152 256.78 14.929C257.07 14.8428 257.333 14.7151 257.57 14.5458C257.81 14.3735 258.013 14.1626 258.179 13.9134C258.349 13.661 258.467 13.3717 258.535 13.0455H259.68C259.593 13.5286 259.436 13.9611 259.209 14.3427C258.981 14.7243 258.698 15.049 258.359 15.3168C258.021 15.5814 257.641 15.783 257.219 15.9215C256.8 16.06 256.353 16.1293 255.876 16.1293C255.069 16.1293 254.352 15.9323 253.724 15.5384C253.097 15.1444 252.603 14.5843 252.242 13.858C251.882 13.1316 251.702 12.2699 251.702 11.2727C251.702 10.2756 251.882 9.41383 252.242 8.6875C252.603 7.96117 253.097 7.40104 253.724 7.0071C254.352 6.61316 255.069 6.41619 255.876 6.41619C256.353 6.41619 256.8 6.48544 257.219 6.62393C257.641 6.76243 258.021 6.96555 258.359 7.23331C258.698 7.49799 258.981 7.82114 259.209 8.20277C259.436 8.58132 259.593 9.01373 259.68 9.5ZM265.201 13.1009V8.90909H266.29V16H265.201V14.7997H265.127C264.961 15.1598 264.702 15.466 264.351 15.7184C264 15.9677 263.557 16.0923 263.022 16.0923C262.579 16.0923 262.185 15.9954 261.84 15.8015C261.495 15.6045 261.224 15.3091 261.027 14.9151C260.83 14.5181 260.732 14.018 260.732 13.4148V8.90909H261.821V13.3409C261.821 13.858 261.966 14.2704 262.255 14.5781C262.548 14.8859 262.92 15.0398 263.373 15.0398C263.643 15.0398 263.919 14.9705 264.199 14.832C264.482 14.6935 264.719 14.4812 264.91 14.195C265.104 13.9087 265.201 13.544 265.201 13.1009ZM267.636 16V8.90909H268.688V10.017H268.781C268.928 9.63849 269.167 9.34458 269.496 9.1353C269.825 8.92294 270.221 8.81676 270.683 8.81676C271.15 8.81676 271.54 8.92294 271.85 9.1353C272.164 9.34458 272.409 9.63849 272.585 10.017H272.658C272.84 9.6508 273.112 9.35997 273.475 9.14453C273.839 8.92602 274.274 8.81676 274.782 8.81676C275.416 8.81676 275.935 9.01527 276.338 9.41229C276.741 9.80623 276.942 10.4202 276.942 11.2543V16H275.853V11.2543C275.853 10.7311 275.71 10.3571 275.424 10.1325C275.137 9.90779 274.8 9.79545 274.413 9.79545C273.914 9.79545 273.528 9.94626 273.254 10.2479C272.98 10.5464 272.843 10.925 272.843 11.3835V16H271.735V11.1435C271.735 10.7403 271.604 10.4156 271.343 10.1694C271.081 9.9201 270.744 9.79545 270.332 9.79545C270.049 9.79545 269.784 9.87086 269.538 10.0217C269.294 10.1725 269.098 10.3817 268.947 10.6495C268.799 10.9142 268.725 11.2204 268.725 11.5682V16H267.636ZM282.753 13.1009V8.90909H283.843V16H282.753V14.7997H282.679C282.513 15.1598 282.255 15.466 281.904 15.7184C281.553 15.9677 281.11 16.0923 280.574 16.0923C280.131 16.0923 279.737 15.9954 279.392 15.8015C279.048 15.6045 278.777 15.3091 278.58 14.9151C278.383 14.5181 278.284 14.018 278.284 13.4148V8.90909H279.374V13.3409C279.374 13.858 279.519 14.2704 279.808 14.5781C280.1 14.8859 280.473 15.0398 280.925 15.0398C281.196 15.0398 281.471 14.9705 281.751 14.832C282.035 14.6935 282.272 14.4812 282.462 14.195C282.656 13.9087 282.753 13.544 282.753 13.1009ZM286.278 6.54545V16H285.188V6.54545H286.278ZM289.71 16.1662C289.26 16.1662 288.853 16.0816 288.486 15.9123C288.12 15.7399 287.829 15.4922 287.614 15.169C287.398 14.8428 287.291 14.4489 287.291 13.9872C287.291 13.581 287.371 13.2517 287.531 12.9993C287.691 12.7438 287.905 12.5438 288.172 12.3991C288.44 12.2545 288.736 12.1468 289.059 12.076C289.385 12.0021 289.713 11.9437 290.042 11.9006C290.473 11.8452 290.822 11.8036 291.09 11.7759C291.361 11.7451 291.558 11.6944 291.681 11.6236C291.807 11.5528 291.87 11.4297 291.87 11.2543V11.2173C291.87 10.7618 291.746 10.4079 291.496 10.1555C291.25 9.90317 290.876 9.77699 290.375 9.77699C289.854 9.77699 289.447 9.89086 289.151 10.1186C288.856 10.3464 288.648 10.5895 288.528 10.848L287.494 10.4787C287.679 10.0478 287.925 9.71236 288.233 9.4723C288.543 9.22917 288.882 9.0599 289.248 8.96449C289.617 8.866 289.981 8.81676 290.338 8.81676C290.565 8.81676 290.827 8.84446 291.122 8.89986C291.421 8.95218 291.709 9.06143 291.986 9.22763C292.266 9.39382 292.498 9.64465 292.683 9.98011C292.867 10.3156 292.96 10.7649 292.96 11.3281V16H291.87V15.0398H291.815C291.741 15.1937 291.618 15.3583 291.446 15.5337C291.273 15.7092 291.044 15.8584 290.758 15.9815C290.472 16.1046 290.122 16.1662 289.71 16.1662ZM289.876 15.1875C290.307 15.1875 290.67 15.1029 290.965 14.9336C291.264 14.7643 291.489 14.5458 291.639 14.2781C291.793 14.0103 291.87 13.7287 291.87 13.4332V12.4361C291.824 12.4915 291.723 12.5423 291.566 12.5884C291.412 12.6315 291.233 12.67 291.03 12.7038C290.83 12.7346 290.635 12.7623 290.444 12.7869C290.256 12.8085 290.104 12.8269 289.987 12.8423C289.704 12.8793 289.439 12.9393 289.193 13.0224C288.95 13.1024 288.753 13.224 288.602 13.3871C288.454 13.5471 288.38 13.7656 288.38 14.0426C288.38 14.4212 288.52 14.7074 288.8 14.9013C289.083 15.0921 289.442 15.1875 289.876 15.1875ZM297.382 8.90909V9.83239H293.707V8.90909H297.382ZM294.778 7.21023H295.868V13.9688C295.868 14.2765 295.913 14.5073 296.002 14.6612C296.094 14.812 296.211 14.9136 296.353 14.9659C296.497 15.0152 296.65 15.0398 296.81 15.0398C296.93 15.0398 297.028 15.0336 297.105 15.0213C297.182 15.0059 297.244 14.9936 297.29 14.9844L297.511 15.9631C297.438 15.9908 297.334 16.0185 297.202 16.0462C297.07 16.0769 296.902 16.0923 296.699 16.0923C296.391 16.0923 296.09 16.0262 295.794 15.8938C295.502 15.7615 295.259 15.5599 295.065 15.2891C294.874 15.0182 294.778 14.6766 294.778 14.2642V7.21023ZM298.371 16V8.90909H299.46V16H298.371ZM298.925 7.72727C298.713 7.72727 298.529 7.65495 298.376 7.5103C298.225 7.36565 298.149 7.19176 298.149 6.98864C298.149 6.78551 298.225 6.61162 298.376 6.46697C298.529 6.32232 298.713 6.25 298.925 6.25C299.137 6.25 299.319 6.32232 299.47 6.46697C299.624 6.61162 299.701 6.78551 299.701 6.98864C299.701 7.19176 299.624 7.36565 299.47 7.5103C299.319 7.65495 299.137 7.72727 298.925 7.72727ZM306.604 8.90909L303.982 16H302.874L300.252 8.90909H301.434L303.391 14.5597H303.465L305.422 8.90909H306.604ZM310.111 16.1477C309.428 16.1477 308.839 15.9969 308.343 15.6953C307.851 15.3906 307.471 14.9659 307.203 14.4212C306.938 13.8733 306.806 13.2363 306.806 12.5099C306.806 11.7836 306.938 11.1435 307.203 10.5895C307.471 10.0324 307.843 9.59848 308.32 9.28764C308.8 8.97372 309.36 8.81676 310.001 8.81676C310.37 8.81676 310.735 8.87831 311.095 9.00142C311.455 9.12453 311.783 9.32457 312.078 9.60156C312.373 9.87547 312.609 10.2386 312.784 10.6911C312.96 11.1435 313.047 11.7005 313.047 12.3622V12.8239H307.582V11.8821H311.94C311.94 11.482 311.859 11.125 311.699 10.8111C311.542 10.4972 311.318 10.2494 311.025 10.0678C310.736 9.88625 310.395 9.79545 310.001 9.79545C309.567 9.79545 309.191 9.90317 308.874 10.1186C308.56 10.331 308.319 10.608 308.149 10.9496C307.98 11.2912 307.895 11.6574 307.895 12.0483V12.6761C307.895 13.2116 307.988 13.6656 308.172 14.038C308.36 14.4073 308.62 14.6889 308.953 14.8828C309.285 15.0736 309.671 15.169 310.111 15.169C310.398 15.169 310.656 15.129 310.887 15.049C311.121 14.9659 311.322 14.8428 311.492 14.6797C311.661 14.5135 311.792 14.3073 311.884 14.0611L312.937 14.3565C312.826 14.7135 312.64 15.0275 312.378 15.2983C312.116 15.5661 311.793 15.7753 311.409 15.9261C311.024 16.0739 310.591 16.1477 310.111 16.1477ZM320.145 8.90909V9.83239H316.47V8.90909H320.145ZM317.541 7.21023H318.631V13.9688C318.631 14.2765 318.675 14.5073 318.765 14.6612C318.857 14.812 318.974 14.9136 319.115 14.9659C319.26 15.0152 319.412 15.0398 319.572 15.0398C319.692 15.0398 319.791 15.0336 319.868 15.0213C319.945 15.0059 320.006 14.9936 320.053 14.9844L320.274 15.9631C320.2 15.9908 320.097 16.0185 319.965 16.0462C319.832 16.0769 319.665 16.0923 319.462 16.0923C319.154 16.0923 318.852 16.0262 318.557 15.8938C318.264 15.7615 318.021 15.5599 317.827 15.2891C317.637 15.0182 317.541 14.6766 317.541 14.2642V7.21023ZM323.938 16.1477C323.298 16.1477 322.736 15.9954 322.253 15.6907C321.773 15.386 321.398 14.9598 321.127 14.4119C320.859 13.8641 320.725 13.224 320.725 12.4915C320.725 11.7528 320.859 11.1081 321.127 10.5572C321.398 10.0063 321.773 9.57848 322.253 9.27379C322.736 8.96911 323.298 8.81676 323.938 8.81676C324.578 8.81676 325.138 8.96911 325.619 9.27379C326.102 9.57848 326.477 10.0063 326.745 10.5572C327.016 11.1081 327.151 11.7528 327.151 12.4915C327.151 13.224 327.016 13.8641 326.745 14.4119C326.477 14.9598 326.102 15.386 325.619 15.6907C325.138 15.9954 324.578 16.1477 323.938 16.1477ZM323.938 15.169C324.424 15.169 324.825 15.0444 325.138 14.7951C325.452 14.5458 325.685 14.218 325.836 13.8118C325.986 13.4055 326.062 12.9654 326.062 12.4915C326.062 12.0175 325.986 11.5759 325.836 11.1665C325.685 10.7572 325.452 10.4264 325.138 10.174C324.825 9.92164 324.424 9.79545 323.938 9.79545C323.452 9.79545 323.052 9.92164 322.738 10.174C322.424 10.4264 322.192 10.7572 322.041 11.1665C321.89 11.5759 321.815 12.0175 321.815 12.4915C321.815 12.9654 321.89 13.4055 322.041 13.8118C322.192 14.218 322.424 14.5458 322.738 14.7951C323.052 15.0444 323.452 15.169 323.938 15.169ZM331.248 8.90909V9.83239H327.573V8.90909H331.248ZM328.644 7.21023H329.734V13.9688C329.734 14.2765 329.779 14.5073 329.868 14.6612C329.96 14.812 330.077 14.9136 330.219 14.9659C330.363 15.0152 330.516 15.0398 330.676 15.0398C330.796 15.0398 330.894 15.0336 330.971 15.0213C331.048 15.0059 331.11 14.9936 331.156 14.9844L331.377 15.9631C331.304 15.9908 331.2 16.0185 331.068 16.0462C330.936 16.0769 330.768 16.0923 330.565 16.0923C330.257 16.0923 329.956 16.0262 329.66 15.8938C329.368 15.7615 329.125 15.5599 328.931 15.2891C328.74 15.0182 328.644 14.6766 328.644 14.2642V7.21023ZM334.324 16.1662C333.874 16.1662 333.467 16.0816 333.1 15.9123C332.734 15.7399 332.443 15.4922 332.228 15.169C332.012 14.8428 331.905 14.4489 331.905 13.9872C331.905 13.581 331.985 13.2517 332.145 12.9993C332.305 12.7438 332.519 12.5438 332.786 12.3991C333.054 12.2545 333.35 12.1468 333.673 12.076C333.999 12.0021 334.327 11.9437 334.656 11.9006C335.087 11.8452 335.436 11.8036 335.704 11.7759C335.975 11.7451 336.172 11.6944 336.295 11.6236C336.421 11.5528 336.484 11.4297 336.484 11.2543V11.2173C336.484 10.7618 336.36 10.4079 336.11 10.1555C335.864 9.90317 335.49 9.77699 334.988 9.77699C334.468 9.77699 334.061 9.89086 333.765 10.1186C333.47 10.3464 333.262 10.5895 333.142 10.848L332.108 10.4787C332.292 10.0478 332.539 9.71236 332.846 9.4723C333.157 9.22917 333.496 9.0599 333.862 8.96449C334.231 8.866 334.594 8.81676 334.951 8.81676C335.179 8.81676 335.441 8.84446 335.736 8.89986C336.035 8.95218 336.323 9.06143 336.6 9.22763C336.88 9.39382 337.112 9.64465 337.297 9.98011C337.481 10.3156 337.574 10.7649 337.574 11.3281V16H336.484V15.0398H336.429C336.355 15.1937 336.232 15.3583 336.059 15.5337C335.887 15.7092 335.658 15.8584 335.372 15.9815C335.085 16.1046 334.736 16.1662 334.324 16.1662ZM334.49 15.1875C334.921 15.1875 335.284 15.1029 335.579 14.9336C335.878 14.7643 336.103 14.5458 336.253 14.2781C336.407 14.0103 336.484 13.7287 336.484 13.4332V12.4361C336.438 12.4915 336.336 12.5423 336.179 12.5884C336.026 12.6315 335.847 12.67 335.644 12.7038C335.444 12.7346 335.248 12.7623 335.058 12.7869C334.87 12.8085 334.718 12.8269 334.601 12.8423C334.317 12.8793 334.053 12.9393 333.807 13.0224C333.563 13.1024 333.367 13.224 333.216 13.3871C333.068 13.5471 332.994 13.7656 332.994 14.0426C332.994 14.4212 333.134 14.7074 333.414 14.9013C333.697 15.0921 334.056 15.1875 334.49 15.1875ZM340.002 6.54545V16H338.912V6.54545H340.002Z" fill="white" fill-opacity="0.5"/>
<path d="M9.75284 9.5H8.60796C8.54025 9.17069 8.42176 8.88139 8.25249 8.6321C8.08629 8.38281 7.88317 8.17353 7.64311 8.00426C7.40613 7.83191 7.14299 7.70265 6.85369 7.61648C6.56439 7.5303 6.26278 7.48722 5.94886 7.48722C5.37642 7.48722 4.85784 7.63187 4.39311 7.92116C3.93146 8.21046 3.56368 8.63672 3.28977 9.19993C3.01894 9.76314 2.88352 10.4541 2.88352 11.2727C2.88352 12.0914 3.01894 12.7823 3.28977 13.3455C3.56368 13.9087 3.93146 14.335 4.39311 14.6243C4.85784 14.9136 5.37642 15.0582 5.94886 15.0582C6.26278 15.0582 6.56439 15.0152 6.85369 14.929C7.14299 14.8428 7.40613 14.7151 7.64311 14.5458C7.88317 14.3735 8.08629 14.1626 8.25249 13.9134C8.42176 13.661 8.54025 13.3717 8.60796 13.0455H9.75284C9.66667 13.5286 9.50971 13.9611 9.28196 14.3427C9.05421 14.7243 8.77107 15.049 8.43253 15.3168C8.09399 15.5814 7.7139 15.783 7.29226 15.9215C6.8737 16.06 6.4259 16.1293 5.94886 16.1293C5.14252 16.1293 4.42543 15.9323 3.79759 15.5384C3.16974 15.1444 2.67578 14.5843 2.3157 13.858C1.95561 13.1316 1.77557 12.2699 1.77557 11.2727C1.77557 10.2756 1.95561 9.41383 2.3157 8.6875C2.67578 7.96117 3.16974 7.40104 3.79759 7.0071C4.42543 6.61316 5.14252 6.41619 5.94886 6.41619C6.4259 6.41619 6.8737 6.48544 7.29226 6.62393C7.7139 6.76243 8.09399 6.96555 8.43253 7.23331C8.77107 7.49799 9.05421 7.82114 9.28196 8.20277C9.50971 8.58132 9.66667 9.01373 9.75284 9.5ZM15.2739 13.1009V8.90909H16.3634V16H15.2739V14.7997H15.2001C15.0339 15.1598 14.7753 15.466 14.4245 15.7184C14.0736 15.9677 13.6305 16.0923 13.0949 16.0923C12.6518 16.0923 12.2578 15.9954 11.9131 15.8015C11.5684 15.6045 11.2976 15.3091 11.1006 14.9151C10.9037 14.5181 10.8052 14.018 10.8052 13.4148V8.90909H11.8947V13.3409C11.8947 13.858 12.0393 14.2704 12.3286 14.5781C12.621 14.8859 12.9934 15.0398 13.4458 15.0398C13.7166 15.0398 13.9921 14.9705 14.2721 14.832C14.5553 14.6935 14.7923 14.4812 14.9831 14.195C15.177 13.9087 15.2739 13.544 15.2739 13.1009ZM17.7089 16V8.90909H18.7614V10.017H18.8538C19.0015 9.63849 19.24 9.34458 19.5693 9.1353C19.8986 8.92294 20.2941 8.81676 20.7558 8.81676C21.2236 8.81676 21.6129 8.92294 21.9237 9.1353C22.2376 9.34458 22.4823 9.63849 22.6577 10.017H22.7316C22.9132 9.6508 23.1856 9.35997 23.5487 9.14453C23.9119 8.92602 24.3474 8.81676 24.8552 8.81676C25.4892 8.81676 26.0078 9.01527 26.4109 9.41229C26.8141 9.80623 27.0157 10.4202 27.0157 11.2543V16H25.9262V11.2543C25.9262 10.7311 25.7831 10.3571 25.4969 10.1325C25.2107 9.90779 24.8737 9.79545 24.4859 9.79545C23.9873 9.79545 23.601 9.94626 23.3271 10.2479C23.0532 10.5464 22.9163 10.925 22.9163 11.3835V16H21.8083V11.1435C21.8083 10.7403 21.6775 10.4156 21.4159 10.1694C21.1543 9.9201 20.8173 9.79545 20.4049 9.79545C20.1218 9.79545 19.8571 9.87086 19.6109 10.0217C19.3677 10.1725 19.1708 10.3817 19.02 10.6495C18.8722 10.9142 18.7984 11.2204 18.7984 11.5682V16H17.7089ZM32.8265 13.1009V8.90909H33.9159V16H32.8265V14.7997H32.7526C32.5864 15.1598 32.3279 15.466 31.977 15.7184C31.6262 15.9677 31.183 16.0923 30.6475 16.0923C30.2043 16.0923 29.8104 15.9954 29.4657 15.8015C29.121 15.6045 28.8501 15.3091 28.6532 14.9151C28.4562 14.5181 28.3577 14.018 28.3577 13.4148V8.90909H29.4472V13.3409C29.4472 13.858 29.5918 14.2704 29.8811 14.5781C30.1735 14.8859 30.5459 15.0398 30.9983 15.0398C31.2692 15.0398 31.5446 14.9705 31.8247 14.832C32.1078 14.6935 32.3448 14.4812 32.5356 14.195C32.7295 13.9087 32.8265 13.544 32.8265 13.1009ZM36.3509 6.54545V16H35.2614V6.54545H36.3509ZM39.783 16.1662C39.3337 16.1662 38.9259 16.0816 38.5597 15.9123C38.1934 15.7399 37.9026 15.4922 37.6871 15.169C37.4717 14.8428 37.364 14.4489 37.364 13.9872C37.364 13.581 37.444 13.2517 37.604 12.9993C37.7641 12.7438 37.978 12.5438 38.2457 12.3991C38.5135 12.2545 38.8089 12.1468 39.1321 12.076C39.4583 12.0021 39.7861 11.9437 40.1154 11.9006C40.5463 11.8452 40.8956 11.8036 41.1634 11.7759C41.4342 11.7451 41.6312 11.6944 41.7543 11.6236C41.8804 11.5528 41.9435 11.4297 41.9435 11.2543V11.2173C41.9435 10.7618 41.8189 10.4079 41.5696 10.1555C41.3234 9.90317 40.9495 9.77699 40.4478 9.77699C39.9277 9.77699 39.5199 9.89086 39.2244 10.1186C38.929 10.3464 38.7212 10.5895 38.6012 10.848L37.5671 10.4787C37.7518 10.0478 37.998 9.71236 38.3058 9.4723C38.6166 9.22917 38.9551 9.0599 39.3214 8.96449C39.6907 8.866 40.0539 8.81676 40.4109 8.81676C40.6386 8.81676 40.9002 8.84446 41.1957 8.89986C41.4942 8.95218 41.782 9.06143 42.0589 9.22763C42.339 9.39382 42.5714 9.64465 42.756 9.98011C42.9407 10.3156 43.033 10.7649 43.033 11.3281V16H41.9435V15.0398H41.8881C41.8143 15.1937 41.6912 15.3583 41.5188 15.5337C41.3465 15.7092 41.1172 15.8584 40.831 15.9815C40.5447 16.1046 40.1954 16.1662 39.783 16.1662ZM39.9492 15.1875C40.3801 15.1875 40.7433 15.1029 41.0387 14.9336C41.3372 14.7643 41.5619 14.5458 41.7127 14.2781C41.8666 14.0103 41.9435 13.7287 41.9435 13.4332V12.4361C41.8974 12.4915 41.7958 12.5423 41.6388 12.5884C41.485 12.6315 41.3065 12.67 41.1033 12.7038C40.9033 12.7346 40.7079 12.7623 40.517 12.7869C40.3293 12.8085 40.177 12.8269 40.06 12.8423C39.7769 12.8793 39.5122 12.9393 39.266 13.0224C39.0228 13.1024 38.8259 13.224 38.6751 13.3871C38.5273 13.5471 38.4535 13.7656 38.4535 14.0426C38.4535 14.4212 38.5935 14.7074 38.8736 14.9013C39.1567 15.0921 39.5153 15.1875 39.9492 15.1875ZM47.4554 8.90909V9.83239H43.7807V8.90909H47.4554ZM44.8517 7.21023H45.9412V13.9688C45.9412 14.2765 45.9858 14.5073 46.0751 14.6612C46.1674 14.812 46.2843 14.9136 46.4259 14.9659C46.5706 15.0152 46.7229 15.0398 46.8829 15.0398C47.003 15.0398 47.1014 15.0336 47.1784 15.0213C47.2553 15.0059 47.3169 14.9936 47.363 14.9844L47.5846 15.9631C47.5108 15.9908 47.4077 16.0185 47.2753 16.0462C47.143 16.0769 46.9753 16.0923 46.7721 16.0923C46.4644 16.0923 46.1628 16.0262 45.8673 15.8938C45.5749 15.7615 45.3318 15.5599 45.1379 15.2891C44.9471 15.0182 44.8517 14.6766 44.8517 14.2642V7.21023ZM48.4442 16V8.90909H49.5337V16H48.4442ZM48.9982 7.72727C48.7858 7.72727 48.6027 7.65495 48.4488 7.5103C48.298 7.36565 48.2226 7.19176 48.2226 6.98864C48.2226 6.78551 48.298 6.61162 48.4488 6.46697C48.6027 6.32232 48.7858 6.25 48.9982 6.25C49.2106 6.25 49.3921 6.32232 49.543 6.46697C49.6968 6.61162 49.7738 6.78551 49.7738 6.98864C49.7738 7.19176 49.6968 7.36565 49.543 7.5103C49.3921 7.65495 49.2106 7.72727 48.9982 7.72727ZM56.6775 8.90909L54.0553 16H52.9474L50.3252 8.90909H51.507L53.4644 14.5597H53.5383L55.4957 8.90909H56.6775ZM60.1846 16.1477C59.5014 16.1477 58.912 15.9969 58.4165 15.6953C57.9241 15.3906 57.544 14.9659 57.2762 14.4212C57.0116 13.8733 56.8792 13.2363 56.8792 12.5099C56.8792 11.7836 57.0116 11.1435 57.2762 10.5895C57.544 10.0324 57.9164 9.59848 58.3934 9.28764C58.8735 8.97372 59.4337 8.81676 60.0738 8.81676C60.4431 8.81676 60.8078 8.87831 61.1679 9.00142C61.528 9.12453 61.8558 9.32457 62.1512 9.60156C62.4467 9.87547 62.6821 10.2386 62.8576 10.6911C63.033 11.1435 63.1207 11.7005 63.1207 12.3622V12.8239H57.6548V11.8821H62.0128C62.0128 11.482 61.9327 11.125 61.7727 10.8111C61.6157 10.4972 61.3911 10.2494 61.0987 10.0678C60.8094 9.88625 60.4678 9.79545 60.0738 9.79545C59.6399 9.79545 59.2644 9.90317 58.9474 10.1186C58.6335 10.331 58.3919 10.608 58.2226 10.9496C58.0534 11.2912 57.9687 11.6574 57.9687 12.0483V12.6761C57.9687 13.2116 58.061 13.6656 58.2457 14.038C58.4334 14.4073 58.6935 14.6889 59.0259 14.8828C59.3583 15.0736 59.7445 15.169 60.1846 15.169C60.4708 15.169 60.7294 15.129 60.9602 15.049C61.1941 14.9659 61.3957 14.8428 61.565 14.6797C61.7342 14.5135 61.865 14.3073 61.9574 14.0611L63.0099 14.3565C62.8991 14.7135 62.7129 15.0275 62.4513 15.2983C62.1897 15.5661 61.8666 15.7753 61.4819 15.9261C61.0971 16.0739 60.6647 16.1477 60.1846 16.1477ZM70.2181 8.90909V9.83239H66.5434V8.90909H70.2181ZM67.6144 7.21023H68.7039V13.9688C68.7039 14.2765 68.7485 14.5073 68.8377 14.6612C68.9301 14.812 69.047 14.9136 69.1886 14.9659C69.3332 15.0152 69.4856 15.0398 69.6456 15.0398C69.7657 15.0398 69.8641 15.0336 69.9411 15.0213C70.018 15.0059 70.0796 14.9936 70.1257 14.9844L70.3473 15.9631C70.2735 15.9908 70.1704 16.0185 70.038 16.0462C69.9057 16.0769 69.738 16.0923 69.5348 16.0923C69.2271 16.0923 68.9255 16.0262 68.63 15.8938C68.3376 15.7615 68.0945 15.5599 67.9006 15.2891C67.7098 15.0182 67.6144 14.6766 67.6144 14.2642V7.21023ZM74.0114 16.1477C73.3713 16.1477 72.8096 15.9954 72.3264 15.6907C71.8463 15.386 71.4708 14.9598 71.2 14.4119C70.9322 13.8641 70.7984 13.224 70.7984 12.4915C70.7984 11.7528 70.9322 11.1081 71.2 10.5572C71.4708 10.0063 71.8463 9.57848 72.3264 9.27379C72.8096 8.96911 73.3713 8.81676 74.0114 8.81676C74.6516 8.81676 75.2117 8.96911 75.6918 9.27379C76.175 9.57848 76.5505 10.0063 76.8183 10.5572C77.0891 11.1081 77.2245 11.7528 77.2245 12.4915C77.2245 13.224 77.0891 13.8641 76.8183 14.4119C76.5505 14.9598 76.175 15.386 75.6918 15.6907C75.2117 15.9954 74.6516 16.1477 74.0114 16.1477ZM74.0114 15.169C74.4977 15.169 74.8978 15.0444 75.2117 14.7951C75.5256 14.5458 75.758 14.218 75.9088 13.8118C76.0596 13.4055 76.135 12.9654 76.135 12.4915C76.135 12.0175 76.0596 11.5759 75.9088 11.1665C75.758 10.7572 75.5256 10.4264 75.2117 10.174C74.8978 9.92164 74.4977 9.79545 74.0114 9.79545C73.5252 9.79545 73.1251 9.92164 72.8111 10.174C72.4972 10.4264 72.2649 10.7572 72.1141 11.1665C71.9633 11.5759 71.8879 12.0175 71.8879 12.4915C71.8879 12.9654 71.9633 13.4055 72.1141 13.8118C72.2649 14.218 72.4972 14.5458 72.8111 14.7951C73.1251 15.0444 73.5252 15.169 74.0114 15.169ZM81.3214 8.90909V9.83239H77.6467V8.90909H81.3214ZM78.7177 7.21023H79.8072V13.9688C79.8072 14.2765 79.8518 14.5073 79.9411 14.6612C80.0334 14.812 80.1504 14.9136 80.2919 14.9659C80.4366 15.0152 80.5889 15.0398 80.749 15.0398C80.869 15.0398 80.9675 15.0336 81.0444 15.0213C81.1214 15.0059 81.1829 14.9936 81.2291 14.9844L81.4507 15.9631C81.3768 15.9908 81.2737 16.0185 81.1414 16.0462C81.009 16.0769 80.8413 16.0923 80.6382 16.0923C80.3304 16.0923 80.0288 16.0262 79.7333 15.8938C79.441 15.7615 79.1978 15.5599 79.0039 15.2891C78.8131 15.0182 78.7177 14.6766 78.7177 14.2642V7.21023ZM84.3969 16.1662C83.9476 16.1662 83.5398 16.0816 83.1735 15.9123C82.8073 15.7399 82.5164 15.4922 82.301 15.169C82.0856 14.8428 81.9779 14.4489 81.9779 13.9872C81.9779 13.581 82.0579 13.2517 82.2179 12.9993C82.378 12.7438 82.5919 12.5438 82.8596 12.3991C83.1274 12.2545 83.4228 12.1468 83.746 12.076C84.0722 12.0021 84.4 11.9437 84.7293 11.9006C85.1602 11.8452 85.5095 11.8036 85.7772 11.7759C86.0481 11.7451 86.245 11.6944 86.3681 11.6236C86.4943 11.5528 86.5574 11.4297 86.5574 11.2543V11.2173C86.5574 10.7618 86.4328 10.4079 86.1835 10.1555C85.9373 9.90317 85.5633 9.77699 85.0617 9.77699C84.5415 9.77699 84.1338 9.89086 83.8383 10.1186C83.5428 10.3464 83.3351 10.5895 83.2151 10.848L82.181 10.4787C82.3656 10.0478 82.6119 9.71236 82.9196 9.4723C83.2305 9.22917 83.569 9.0599 83.9352 8.96449C84.3046 8.866 84.6677 8.81676 85.0247 8.81676C85.2525 8.81676 85.5141 8.84446 85.8095 8.89986C86.1081 8.95218 86.3958 9.06143 86.6728 9.22763C86.9529 9.39382 87.1852 9.64465 87.3699 9.98011C87.5546 10.3156 87.6469 10.7649 87.6469 11.3281V16H86.5574V15.0398H86.502C86.4281 15.1937 86.305 15.3583 86.1327 15.5337C85.9603 15.7092 85.7311 15.8584 85.4448 15.9815C85.1586 16.1046 84.8093 16.1662 84.3969 16.1662ZM84.5631 15.1875C84.994 15.1875 85.3571 15.1029 85.6526 14.9336C85.9511 14.7643 86.1758 14.5458 86.3266 14.2781C86.4805 14.0103 86.5574 13.7287 86.5574 13.4332V12.4361C86.5112 12.4915 86.4097 12.5423 86.2527 12.5884C86.0988 12.6315 85.9203 12.67 85.7172 12.7038C85.5172 12.7346 85.3217 12.7623 85.1309 12.7869C84.9432 12.8085 84.7908 12.8269 84.6739 12.8423C84.3907 12.8793 84.1261 12.9393 83.8798 13.0224C83.6367 13.1024 83.4397 13.224 83.2889 13.3871C83.1412 13.5471 83.0673 13.7656 83.0673 14.0426C83.0673 14.4212 83.2074 14.7074 83.4874 14.9013C83.7706 15.0921 84.1291 15.1875 84.5631 15.1875ZM90.0749 6.54545V16H88.9854V6.54545H90.0749Z" fill="white" fill-opacity="0.5"/>
<path d="M136.743 16V6.54545H139.938C140.679 6.54545 141.286 6.67933 141.756 6.94709C142.23 7.21177 142.581 7.57031 142.809 8.02273C143.037 8.47514 143.151 8.97988 143.151 9.53693C143.151 10.094 143.037 10.6003 142.809 11.0558C142.584 11.5112 142.237 11.8744 141.766 12.1452C141.295 12.413 140.692 12.5469 139.956 12.5469H137.666V11.5312H139.919C140.427 11.5312 140.835 11.4435 141.142 11.2681C141.45 11.0927 141.673 10.8557 141.812 10.5572C141.953 10.2556 142.024 9.91548 142.024 9.53693C142.024 9.15838 141.953 8.81984 141.812 8.52131C141.673 8.22277 141.449 7.98887 141.138 7.8196C140.827 7.64725 140.415 7.56108 139.901 7.56108H137.888V16H136.743ZM144.197 16V8.90909H145.25V9.98011H145.324C145.453 9.62926 145.687 9.34458 146.025 9.12606C146.364 8.90755 146.745 8.79829 147.17 8.79829C147.25 8.79829 147.35 8.79983 147.47 8.80291C147.59 8.80599 147.681 8.81061 147.743 8.81676V9.92472C147.706 9.91548 147.621 9.90163 147.489 9.88317C147.359 9.86162 147.222 9.85085 147.078 9.85085C146.733 9.85085 146.425 9.92318 146.155 10.0678C145.887 10.2094 145.674 10.4064 145.517 10.6587C145.364 10.908 145.287 11.1927 145.287 11.5128V16H144.197ZM148.384 16V8.90909H149.474V16H148.384ZM148.938 7.72727C148.726 7.72727 148.543 7.65495 148.389 7.5103C148.238 7.36565 148.162 7.19176 148.162 6.98864C148.162 6.78551 148.238 6.61162 148.389 6.46697C148.543 6.32232 148.726 6.25 148.938 6.25C149.15 6.25 149.332 6.32232 149.483 6.46697C149.637 6.61162 149.714 6.78551 149.714 6.98864C149.714 7.19176 149.637 7.36565 149.483 7.5103C149.332 7.65495 149.15 7.72727 148.938 7.72727ZM153.7 16.1477C153.035 16.1477 152.463 15.9908 151.982 15.6768C151.502 15.3629 151.133 14.9305 150.874 14.3796C150.616 13.8287 150.487 13.1993 150.487 12.4915C150.487 11.7713 150.619 11.1358 150.884 10.5849C151.151 10.0309 151.524 9.59848 152.001 9.28764C152.481 8.97372 153.041 8.81676 153.681 8.81676C154.18 8.81676 154.629 8.90909 155.029 9.09375C155.429 9.27841 155.757 9.53693 156.013 9.86932C156.268 10.2017 156.427 10.5895 156.488 11.0327H155.399C155.315 10.7095 155.131 10.4233 154.845 10.174C154.561 9.92164 154.18 9.79545 153.7 9.79545C153.275 9.79545 152.903 9.90625 152.583 10.1278C152.266 10.3464 152.018 10.6557 151.839 11.0558C151.664 11.4528 151.576 11.919 151.576 12.4545C151.576 13.0024 151.662 13.4794 151.835 13.8857C152.01 14.2919 152.256 14.6074 152.573 14.832C152.893 15.0567 153.269 15.169 153.7 15.169C153.983 15.169 154.24 15.1198 154.471 15.0213C154.701 14.9228 154.897 14.7812 155.057 14.5966C155.217 14.4119 155.331 14.1903 155.399 13.9318H156.488C156.427 14.3504 156.274 14.7274 156.031 15.0629C155.791 15.3952 155.472 15.6599 155.075 15.8569C154.681 16.0508 154.223 16.1477 153.7 16.1477ZM160.404 16.1477C159.721 16.1477 159.131 15.9969 158.636 15.6953C158.143 15.3906 157.763 14.9659 157.495 14.4212C157.231 13.8733 157.098 13.2363 157.098 12.5099C157.098 11.7836 157.231 11.1435 157.495 10.5895C157.763 10.0324 158.136 9.59848 158.613 9.28764C159.093 8.97372 159.653 8.81676 160.293 8.81676C160.662 8.81676 161.027 8.87831 161.387 9.00142C161.747 9.12453 162.075 9.32457 162.37 9.60156C162.666 9.87547 162.901 10.2386 163.077 10.6911C163.252 11.1435 163.34 11.7005 163.34 12.3622V12.8239H157.874V11.8821H162.232C162.232 11.482 162.152 11.125 161.992 10.8111C161.835 10.4972 161.61 10.2494 161.318 10.0678C161.029 9.88625 160.687 9.79545 160.293 9.79545C159.859 9.79545 159.484 9.90317 159.167 10.1186C158.853 10.331 158.611 10.608 158.442 10.9496C158.272 11.2912 158.188 11.6574 158.188 12.0483V12.6761C158.188 13.2116 158.28 13.6656 158.465 14.038C158.653 14.4073 158.913 14.6889 159.245 14.8828C159.577 15.0736 159.964 15.169 160.404 15.169C160.69 15.169 160.949 15.129 161.179 15.049C161.413 14.9659 161.615 14.8428 161.784 14.6797C161.953 14.5135 162.084 14.3073 162.176 14.0611L163.229 14.3565C163.118 14.7135 162.932 15.0275 162.67 15.2983C162.409 15.5661 162.086 15.7753 161.701 15.9261C161.316 16.0739 160.884 16.1477 160.404 16.1477Z" fill="white" fill-opacity="0.5"/>
<path d="M175.743 16V6.54545H178.938C179.679 6.54545 180.286 6.67933 180.756 6.94709C181.23 7.21177 181.581 7.57031 181.809 8.02273C182.037 8.47514 182.151 8.97988 182.151 9.53693C182.151 10.094 182.037 10.6003 181.809 11.0558C181.584 11.5112 181.237 11.8744 180.766 12.1452C180.295 12.413 179.692 12.5469 178.956 12.5469H176.666V11.5312H178.919C179.427 11.5312 179.835 11.4435 180.142 11.2681C180.45 11.0927 180.673 10.8557 180.812 10.5572C180.953 10.2556 181.024 9.91548 181.024 9.53693C181.024 9.15838 180.953 8.81984 180.812 8.52131C180.673 8.22277 180.449 7.98887 180.138 7.8196C179.827 7.64725 179.415 7.56108 178.901 7.56108H176.888V16H175.743ZM183.197 16V8.90909H184.25V9.98011H184.324C184.453 9.62926 184.687 9.34458 185.025 9.12606C185.364 8.90755 185.745 8.79829 186.17 8.79829C186.25 8.79829 186.35 8.79983 186.47 8.80291C186.59 8.80599 186.681 8.81061 186.743 8.81676V9.92472C186.706 9.91548 186.621 9.90163 186.489 9.88317C186.359 9.86162 186.222 9.85085 186.078 9.85085C185.733 9.85085 185.425 9.92318 185.155 10.0678C184.887 10.2094 184.674 10.4064 184.517 10.6587C184.364 10.908 184.287 11.1927 184.287 11.5128V16H183.197ZM187.384 16V8.90909H188.474V16H187.384ZM187.938 7.72727C187.726 7.72727 187.543 7.65495 187.389 7.5103C187.238 7.36565 187.162 7.19176 187.162 6.98864C187.162 6.78551 187.238 6.61162 187.389 6.46697C187.543 6.32232 187.726 6.25 187.938 6.25C188.15 6.25 188.332 6.32232 188.483 6.46697C188.637 6.61162 188.714 6.78551 188.714 6.98864C188.714 7.19176 188.637 7.36565 188.483 7.5103C188.332 7.65495 188.15 7.72727 187.938 7.72727ZM192.7 16.1477C192.035 16.1477 191.463 15.9908 190.982 15.6768C190.502 15.3629 190.133 14.9305 189.874 14.3796C189.616 13.8287 189.487 13.1993 189.487 12.4915C189.487 11.7713 189.619 11.1358 189.884 10.5849C190.151 10.0309 190.524 9.59848 191.001 9.28764C191.481 8.97372 192.041 8.81676 192.681 8.81676C193.18 8.81676 193.629 8.90909 194.029 9.09375C194.429 9.27841 194.757 9.53693 195.013 9.86932C195.268 10.2017 195.427 10.5895 195.488 11.0327H194.399C194.315 10.7095 194.131 10.4233 193.845 10.174C193.561 9.92164 193.18 9.79545 192.7 9.79545C192.275 9.79545 191.903 9.90625 191.583 10.1278C191.266 10.3464 191.018 10.6557 190.839 11.0558C190.664 11.4528 190.576 11.919 190.576 12.4545C190.576 13.0024 190.662 13.4794 190.835 13.8857C191.01 14.2919 191.256 14.6074 191.573 14.832C191.893 15.0567 192.269 15.169 192.7 15.169C192.983 15.169 193.24 15.1198 193.471 15.0213C193.701 14.9228 193.897 14.7812 194.057 14.5966C194.217 14.4119 194.331 14.1903 194.399 13.9318H195.488C195.427 14.3504 195.274 14.7274 195.031 15.0629C194.791 15.3952 194.472 15.6599 194.075 15.8569C193.681 16.0508 193.223 16.1477 192.7 16.1477ZM199.404 16.1477C198.721 16.1477 198.131 15.9969 197.636 15.6953C197.143 15.3906 196.763 14.9659 196.495 14.4212C196.231 13.8733 196.098 13.2363 196.098 12.5099C196.098 11.7836 196.231 11.1435 196.495 10.5895C196.763 10.0324 197.136 9.59848 197.613 9.28764C198.093 8.97372 198.653 8.81676 199.293 8.81676C199.662 8.81676 200.027 8.87831 200.387 9.00142C200.747 9.12453 201.075 9.32457 201.37 9.60156C201.666 9.87547 201.901 10.2386 202.077 10.6911C202.252 11.1435 202.34 11.7005 202.34 12.3622V12.8239H196.874V11.8821H201.232C201.232 11.482 201.152 11.125 200.992 10.8111C200.835 10.4972 200.61 10.2494 200.318 10.0678C200.029 9.88625 199.687 9.79545 199.293 9.79545C198.859 9.79545 198.484 9.90317 198.167 10.1186C197.853 10.331 197.611 10.608 197.442 10.9496C197.272 11.2912 197.188 11.6574 197.188 12.0483V12.6761C197.188 13.2116 197.28 13.6656 197.465 14.038C197.653 14.4073 197.913 14.6889 198.245 14.8828C198.577 15.0736 198.964 15.169 199.404 15.169C199.69 15.169 199.949 15.129 200.179 15.049C200.413 14.9659 200.615 14.8428 200.784 14.6797C200.953 14.5135 201.084 14.3073 201.176 14.0611L202.229 14.3565C202.118 14.7135 201.932 15.0275 201.67 15.2983C201.409 15.5661 201.086 15.7753 200.701 15.9261C200.316 16.0739 199.884 16.1477 199.404 16.1477Z" fill="white" fill-opacity="0.5"/>
<rect x="166.801" y="23.7998" width="3.40001" height="23.8001" fill="#00C0AC" fill-opacity="0.15"/>
<rect x="163.4" y="47.5996" width="6.80002" height="23.8001" fill="#00C0AC" fill-opacity="0.15"/>
<rect x="148.668" y="71.4004" width="21.5334" height="23.8001" fill="#00C0AC" fill-opacity="0.15"/>
<rect x="137.334" y="95.2002" width="32.8668" height="22.6667" fill="#00C0AC" fill-opacity="0.15"/>
<rect x="113.533" y="117.867" width="56.6668" height="23.8001" fill="#00C0AC" fill-opacity="0.15"/>
<rect x="92" y="141.667" width="78.2002" height="23.8001" fill="#00C0AC" fill-opacity="0.15"/>
<rect x="75" y="165.467" width="95.2002" height="23.8001" fill="#00C0AC" fill-opacity="0.15"/>
<rect width="3.40001" height="23.8001" transform="matrix(-1 0 0 1 173.4 23.7998)" fill="#F6455D" fill-opacity="0.15"/>
<rect width="6.80002" height="23.8001" transform="matrix(-1 0 0 1 176.801 47.5996)" fill="#F6455D" fill-opacity="0.15"/>
<rect width="21.5334" height="23.8001" transform="matrix(-1 0 0 1 191.533 71.4004)" fill="#F6455D" fill-opacity="0.15"/>
<rect width="32.8668" height="22.6667" transform="matrix(-1 0 0 1 202.867 95.2002)" fill="#F6455D" fill-opacity="0.15"/>
<rect width="56.6668" height="23.8001" transform="matrix(-1 0 0 1 226.668 117.867)" fill="#F6455D" fill-opacity="0.15"/>
<rect width="78.2002" height="23.8001" transform="matrix(-1 0 0 1 248.201 141.667)" fill="#F6455D" fill-opacity="0.15"/>
<rect width="95.2002" height="23.8001" transform="matrix(-1 0 0 1 265.201 165.467)" fill="#F6455D" fill-opacity="0.15"/>
<rect x="1" y="30" width="48" height="9" fill="white" fill-opacity="0.05"/>
<rect width="48" height="9" transform="matrix(-1 0 0 1 339.201 30)" fill="white" fill-opacity="0.05"/>
<rect x="1" y="54" width="48" height="9" fill="white" fill-opacity="0.05"/>
<rect width="48" height="9" transform="matrix(-1 0 0 1 339.201 54)" fill="white" fill-opacity="0.05"/>
<rect x="1" y="78" width="48" height="9" fill="white" fill-opacity="0.05"/>
<rect width="48" height="9" transform="matrix(-1 0 0 1 339.201 78)" fill="white" fill-opacity="0.05"/>
<rect x="1" y="102" width="48" height="9" fill="white" fill-opacity="0.05"/>
<rect width="48" height="9" transform="matrix(-1 0 0 1 339.201 102)" fill="white" fill-opacity="0.05"/>
<rect x="1" y="126" width="48" height="9" fill="white" fill-opacity="0.05"/>
<rect width="48" height="9" transform="matrix(-1 0 0 1 339.201 126)" fill="white" fill-opacity="0.05"/>
<rect x="1" y="150" width="48" height="9" fill="white" fill-opacity="0.05"/>
<rect width="48" height="9" transform="matrix(-1 0 0 1 339.201 150)" fill="white" fill-opacity="0.05"/>
<rect x="1" y="174" width="48" height="9" fill="white" fill-opacity="0.05"/>
<rect width="48" height="9" transform="matrix(-1 0 0 1 339.201 174)" fill="white" fill-opacity="0.05"/>
</svg>