<svg width="16" height="16" viewBox="0 0 16 16" fill="none" xmlns="http://www.w3.org/2000/svg">
    <path fill-rule="evenodd" clip-rule="evenodd" d="M7.65296 0.0276146C7.48724 0.0686811 7.30942 0.15962 7.15096 0.284346C6.88144 0.496518 6.78427 0.669796 6.43966 1.55274C6.26635 1.99684 6.04615 2.55833 5.95033 2.8005C5.85454 3.04267 5.67619 3.49608 5.55401 3.80805C5.31819 4.41031 5.23957 4.54199 5.05834 4.63845C4.91941 4.7124 4.84234 4.72044 2.84149 4.87009C1.98251 4.93431 1.20373 5.00127 1.11086 5.01888C0.47011 5.14035 0 5.74816 0 6.45509C0 6.80784 0.114418 7.14421 0.315846 7.3836C0.391487 7.47351 1.10614 8.11501 2.2101 9.08397C3.24158 9.98934 3.27082 10.0174 3.33768 10.1672C3.37635 10.2538 3.40387 10.3707 3.40401 10.4491C3.40418 10.5227 3.30445 11.0048 3.18243 11.5205C2.7325 13.4219 2.53479 14.2814 2.51683 14.4139C2.49035 14.6095 2.549 14.9499 2.64555 15.1609C2.81033 15.521 3.15004 15.8223 3.52563 15.9413C3.68445 15.9916 3.76944 16.0003 3.99425 15.989C4.38897 15.9691 4.28499 16.0271 6.49971 14.591C7.57596 13.8932 7.96627 13.6469 7.99599 13.6469C8.01281 13.6469 8.47133 13.9337 9.01489 14.2843C11.8906 16.1389 11.6598 16.0138 12.1595 15.9887C12.4171 15.9758 12.457 15.9653 12.6751 15.8525C13.0648 15.6511 13.3296 15.317 13.4354 14.8932C13.5165 14.5682 13.5001 14.4562 13.1547 12.9855C12.5119 10.2477 12.5667 10.5103 12.6013 10.3353C12.6348 10.1654 12.734 10.0046 12.887 9.87177C13.6809 9.18274 15.4484 7.61077 15.5828 7.47421C16.0161 7.03396 16.1194 6.41183 15.8573 5.82022C15.7416 5.559 15.4832 5.27142 15.2565 5.15156C14.977 5.00379 14.9781 5.00394 11.382 4.73485C11.2582 4.72558 11.1126 4.70453 11.0584 4.68809C10.9203 4.64617 10.7584 4.52603 10.6946 4.41824C10.6649 4.36801 10.3405 3.56077 9.97368 2.62437C9.6069 1.68798 9.2715 0.849179 9.22838 0.760383C8.99389 0.277624 8.53321 -0.00640688 7.99522 0.00010975C7.86142 0.00175358 7.70741 0.0141117 7.65296 0.0276146Z" fill="white"/>
</svg>