<svg width="14" height="14" viewBox="0 0 14 14" fill="none" xmlns="http://www.w3.org/2000/svg">
    <path fill-rule="evenodd" clip-rule="evenodd" d="M2.13761 5.34694L4.27523 5.34694L4.27523 9.67347L4.27523 14L5.13762 14L6 14L6 7L6 -1.99824e-07L5.94622 0.0425651C5.83842 0.127853 -4.97679e-07 5.32529 -4.97067e-07 5.33596C-4.9672e-07 5.342 0.961926 5.34694 2.13761 5.34694Z" fill="#8F9BB3"/>
    <path fill-rule="evenodd" clip-rule="evenodd" d="M11.8624 8.65306L9.72477 8.65306L9.72477 4.32653L9.72477 1.86876e-07L8.86238 2.24572e-07L8 2.62268e-07L8 7L8 14L8.05378 13.9574C8.16158 13.8721 14 8.67471 14 8.66404C14 8.658 13.0381 8.65306 11.8624 8.65306Z" fill="#8F9BB3"/>
</svg>