<svg width="14" height="14" viewBox="0 0 14 14" fill="none" xmlns="http://www.w3.org/2000/svg">
    <path fill-rule="evenodd" clip-rule="evenodd"
        d="M7 14C10.866 14 14 10.866 14 7C14 3.13401 10.866 0 7 0C3.13401 0 0 3.13401 0 7C0 10.866 3.13401 14 7 14ZM6.16875 8.43295V8.5038H7.23516V8.43295C7.24013 8.14709 7.27244 7.90721 7.3321 7.71332C7.39176 7.51942 7.48622 7.35163 7.61548 7.20994C7.74723 7.06825 7.91875 6.93153 8.13004 6.79979C8.35376 6.66555 8.54517 6.51143 8.70426 6.33743C8.86584 6.16342 8.99013 5.9658 9.07713 5.74457C9.16413 5.52084 9.20763 5.26978 9.20763 4.99137C9.20763 4.58619 9.11193 4.23196 8.92053 3.92869C8.73161 3.62294 8.46562 3.38555 8.12259 3.21651C7.77955 3.04499 7.37933 2.95923 6.92195 2.95923C6.50433 2.95923 6.12276 3.03878 5.77724 3.19787C5.4342 3.35696 5.15827 3.59187 4.94947 3.90259C4.74066 4.21083 4.62756 4.58867 4.61016 5.03611H5.74368C5.76108 4.77262 5.82695 4.5576 5.9413 4.39105C6.05565 4.22202 6.19982 4.09773 6.37383 4.01818C6.54783 3.93864 6.73054 3.89886 6.92195 3.89886C7.13324 3.89886 7.32465 3.94361 7.49616 4.0331C7.67017 4.1201 7.80937 4.24439 7.91378 4.40597C8.01818 4.56754 8.07038 4.75895 8.07038 4.98018C8.07038 5.16413 8.03558 5.33192 7.96598 5.48356C7.89638 5.63519 7.80192 5.76942 7.6826 5.88626C7.56328 6.00309 7.42905 6.10874 7.2799 6.2032C7.04872 6.3424 6.8511 6.49652 6.68704 6.66555C6.52298 6.83459 6.3962 7.05582 6.30671 7.32926C6.21971 7.6027 6.17372 7.9706 6.16875 8.43295ZM6.20604 10.5546C6.3527 10.6988 6.52795 10.7708 6.73178 10.7708C6.8685 10.7708 6.99279 10.7373 7.10465 10.6702C7.21651 10.6031 7.306 10.5136 7.37312 10.4017C7.44272 10.2874 7.47752 10.1618 7.47752 10.0251C7.47752 9.82127 7.40295 9.64727 7.2538 9.50309C7.10714 9.35643 6.93313 9.2831 6.73178 9.2831C6.52795 9.2831 6.3527 9.35643 6.20604 9.50309C6.05937 9.64727 5.98604 9.82127 5.98604 10.0251C5.98604 10.2314 6.05937 10.4079 6.20604 10.5546Z"
        fill="white" fill-opacity="1.0" />
</svg>