<svg width="22" height="22" viewBox="0 0 22 22" fill="none" xmlns="http://www.w3.org/2000/svg">
<path d="M11.0039 3.38253e-08C8.77596 -0.00017461 6.60043 0.675933 4.7651 1.93889C2.92978 3.20185 1.52114 4.99215 0.725511 7.07297C-0.070115 9.1538 -0.215237 11.4271 0.30934 13.5922C0.833917 15.7573 2.00348 17.7121 3.66331 19.1982C3.93623 19.4439 4.2222 19.6747 4.51998 19.8897C6.40219 21.2611 8.67106 22 11 22C13.3289 22 15.5978 21.2611 17.48 19.8897C17.7779 19.6748 18.0638 19.444 18.3367 19.1982C19.996 17.7126 21.1654 15.7584 21.6902 13.5941C22.215 11.4298 22.0705 9.15712 21.2759 7.07664C20.4812 4.99616 19.0738 3.20579 17.2398 1.94223C15.4057 0.67867 13.2312 0.00141569 11.0039 3.38253e-08ZM11.0039 3.92922C11.6257 3.92922 12.2335 4.11357 12.7505 4.45897C13.2675 4.80437 13.6704 5.2953 13.9084 5.86967C14.1463 6.44405 14.2086 7.07608 14.0873 7.68583C13.966 8.29558 13.6665 8.85568 13.2269 9.29529C12.7872 9.7349 12.2271 10.0343 11.6172 10.1556C11.0074 10.2769 10.3753 10.2146 9.80087 9.97669C9.22643 9.73877 8.73545 9.33588 8.39001 8.81895C8.04457 8.30203 7.8602 7.69429 7.8602 7.07259C7.8602 6.23891 8.19141 5.43939 8.78097 4.84989C9.37054 4.26039 10.1702 3.92922 11.0039 3.92922ZM11.0039 19.6461C9.73003 19.6455 8.472 19.3634 7.31985 18.82C6.16769 18.2766 5.14988 17.4853 4.33922 16.5027C4.82194 15.1158 5.72447 13.9134 6.92156 13.0626C8.11866 12.2118 9.55094 11.7547 11.0196 11.7547C12.4884 11.7547 13.9206 12.2118 15.1177 13.0626C16.3148 13.9134 17.2174 15.1158 17.7001 16.5027C16.886 17.4894 15.8632 18.2831 14.7052 18.8267C13.5473 19.3702 12.2831 19.6501 11.0039 19.6461Z" fill="white"/>
</svg>
