<svg width="125" height="40" viewBox="0 0 125 40" fill="none" xmlns="http://www.w3.org/2000/svg">
<rect width="124.375" height="40" rx="8" fill="#222A33"/>
<path d="M29.6434 19.5311C29.6196 16.9527 31.8088 15.6983 31.9089 15.6399C30.6691 13.8775 28.7474 13.6367 28.0722 13.6175C26.4582 13.4519 24.8927 14.5591 24.0705 14.5591C23.2319 14.5591 21.9659 13.6335 20.6014 13.6607C18.8455 13.6871 17.2028 14.6783 16.3019 16.2175C14.4426 19.3559 15.8293 23.9679 17.6106 26.5047C18.5017 27.7471 19.5429 29.1343 20.9058 29.0855C22.2391 29.0319 22.7372 28.2567 24.3462 28.2567C25.9405 28.2567 26.4082 29.0855 27.7981 29.0543C29.2291 29.0319 30.13 27.8063 30.9899 26.5527C32.0196 25.1287 32.4332 23.7263 32.4496 23.6543C32.4159 23.6431 29.6705 22.6215 29.6434 19.5311Z" fill="white"/>
<path d="M27.0178 11.9487C27.7349 11.0743 28.2256 9.88472 28.0894 8.67752C27.0514 8.72232 25.7534 9.37752 25.0059 10.2327C24.3446 10.9863 23.7538 12.2215 23.9064 13.3831C25.0724 13.4679 26.2695 12.8095 27.0178 11.9487Z" fill="white"/>
<path d="M48.9397 28.9071H47.0763L46.0555 25.7799H42.5077L41.5353 28.9071H39.7212L43.2363 18.2607H45.4073L48.9397 28.9071ZM45.7479 24.4679L44.8248 21.6879C44.7271 21.4039 44.5442 20.7351 44.2742 19.6823H44.2414C44.1339 20.1351 43.9608 20.8039 43.7228 21.6879L42.8162 24.4679H45.7479Z" fill="white"/>
<path d="M57.9793 24.9744C57.9793 26.28 57.6175 27.312 56.8938 28.0696C56.2456 28.744 55.4407 29.0808 54.4798 29.0808C53.4427 29.0808 52.6977 28.7176 52.2439 27.9912H52.2111V32.0352H50.4618V23.7576C50.4618 22.9368 50.4396 22.0944 50.397 21.2304H51.9354L52.0331 22.4472H52.0659C52.6493 21.5304 53.5346 21.0728 54.7227 21.0728C55.6515 21.0728 56.4269 21.4304 57.0472 22.1464C57.6692 22.8632 57.9793 23.8056 57.9793 24.9744ZM56.1972 25.0368C56.1972 24.2896 56.0249 23.6736 55.6786 23.1888C55.3004 22.6832 54.7925 22.4304 54.1557 22.4304C53.7242 22.4304 53.3319 22.5712 52.9816 22.8488C52.6304 23.1288 52.4007 23.4944 52.2932 23.9472C52.239 24.1584 52.2119 24.3312 52.2119 24.4672V25.7472C52.2119 26.3056 52.3875 26.7768 52.7387 27.1616C53.0899 27.5464 53.5461 27.7384 54.1073 27.7384C54.7662 27.7384 55.279 27.4904 55.6458 26.996C56.0134 26.5008 56.1972 25.848 56.1972 25.0368Z" fill="white"/>
<path d="M67.0352 24.9744C67.0352 26.28 66.6733 27.312 65.9488 28.0696C65.3014 28.744 64.4965 29.0808 63.5357 29.0808C62.4985 29.0808 61.7535 28.7176 61.3006 27.9912H61.2678V32.0352H59.5184V23.7576C59.5184 22.9368 59.4963 22.0944 59.4536 21.2304H60.9921L61.0897 22.4472H61.1225C61.7051 21.5304 62.5904 21.0728 63.7794 21.0728C64.7074 21.0728 65.4827 21.4304 66.1047 22.1464C66.7242 22.8632 67.0352 23.8056 67.0352 24.9744ZM65.253 25.0368C65.253 24.2896 65.0799 23.6736 64.7336 23.1888C64.3554 22.6832 63.8491 22.4304 63.2116 22.4304C62.7792 22.4304 62.3878 22.5712 62.0366 22.8488C61.6854 23.1288 61.4565 23.4944 61.349 23.9472C61.2957 24.1584 61.2678 24.3312 61.2678 24.4672V25.7472C61.2678 26.3056 61.4434 26.7768 61.7929 27.1616C62.1441 27.5456 62.6003 27.7384 63.1632 27.7384C63.822 27.7384 64.3348 27.4904 64.7016 26.996C65.0692 26.5008 65.253 25.848 65.253 25.0368Z" fill="white"/>
<path d="M77.1604 25.9215C77.1604 26.8271 76.8379 27.5639 76.1905 28.1327C75.4792 28.7543 74.4888 29.0647 73.2162 29.0647C72.0412 29.0647 71.0993 28.8439 70.3862 28.4015L70.7916 26.9799C71.5596 27.4327 72.4022 27.6599 73.3204 27.6599C73.9793 27.6599 74.4921 27.5143 74.8605 27.2247C75.2273 26.9351 75.4102 26.5463 75.4102 26.0615C75.4102 25.6295 75.2593 25.2655 74.9565 24.9703C74.6554 24.6751 74.1524 24.4007 73.45 24.1471C71.5382 23.4519 70.5832 22.4335 70.5832 21.0943C70.5832 20.2191 70.9179 19.5015 71.5883 18.9431C72.2562 18.3839 73.1473 18.1047 74.2615 18.1047C75.2552 18.1047 76.0806 18.2735 76.7395 18.6103L76.3021 20.0007C75.6867 19.6743 74.9909 19.5111 74.2123 19.5111C73.5969 19.5111 73.1161 19.6591 72.7715 19.9535C72.4802 20.2167 72.3341 20.5375 72.3341 20.9175C72.3341 21.3383 72.5007 21.6863 72.8355 21.9599C73.1267 22.2127 73.656 22.4863 74.424 22.7815C75.3635 23.1503 76.0535 23.5815 76.4974 24.0759C76.9397 24.5687 77.1604 25.1855 77.1604 25.9215Z" fill="white"/>
<path d="M82.944 22.5103H81.0158V26.2375C81.0158 27.1855 81.3555 27.6591 82.0365 27.6591C82.3491 27.6591 82.6084 27.6327 82.8135 27.5799L82.8619 28.8751C82.5173 29.0007 82.0636 29.0639 81.5015 29.0639C80.8107 29.0639 80.2708 28.8583 79.881 28.4479C79.4929 28.0367 79.2976 27.3471 79.2976 26.3783V22.5087H78.1489V21.2287H79.2976V19.8231L81.0158 19.3175V21.2287H82.944V22.5103Z" fill="white"/>
<path d="M91.6441 25.0055C91.6441 26.1855 91.2979 27.1543 90.607 27.9119C89.8825 28.6919 88.9208 29.0807 87.7221 29.0807C86.5668 29.0807 85.647 28.7071 84.961 27.9599C84.2751 27.2127 83.9321 26.2695 83.9321 25.1327C83.9321 23.9431 84.2849 22.9687 84.9931 22.2111C85.6995 21.4527 86.6529 21.0735 87.8517 21.0735C89.007 21.0735 89.9366 21.4471 90.6382 22.1951C91.3094 22.9207 91.6441 23.8575 91.6441 25.0055ZM89.8291 25.0607C89.8291 24.3527 89.6741 23.7455 89.3598 23.2391C88.993 22.6263 88.4687 22.3207 87.7894 22.3207C87.0862 22.3207 86.552 22.6271 86.1853 23.2391C85.871 23.7463 85.7159 24.3631 85.7159 25.0927C85.7159 25.8007 85.871 26.4079 86.1853 26.9135C86.5635 27.5263 87.0919 27.8319 87.7738 27.8319C88.4417 27.8319 88.966 27.5199 89.3442 26.8975C89.6667 26.3815 89.8291 25.7679 89.8291 25.0607Z" fill="white"/>
<path d="M97.3302 22.7304C97.1571 22.6992 96.9725 22.6832 96.7788 22.6832C96.1634 22.6832 95.6875 22.9096 95.3528 23.3632C95.0615 23.7632 94.9154 24.2688 94.9154 24.8792V28.9072H93.1669L93.1833 23.648C93.1833 22.7632 93.1612 21.9576 93.1177 21.2312H94.6414L94.7054 22.7H94.7538C94.9384 22.1952 95.2297 21.7888 95.6285 21.484C96.0182 21.2096 96.4391 21.0728 96.8929 21.0728C97.0545 21.0728 97.2006 21.084 97.3302 21.104V22.7304Z" fill="white"/>
<path d="M105.154 24.7055C105.154 25.0111 105.133 25.2687 105.09 25.4791H99.8416C99.8621 26.2375 100.116 26.8175 100.603 27.2175C101.045 27.5751 101.617 27.7543 102.32 27.7543C103.097 27.7543 103.805 27.6335 104.443 27.3911L104.717 28.5751C103.972 28.8919 103.092 29.0495 102.077 29.0495C100.857 29.0495 99.8982 28.6991 99.2008 27.9991C98.505 27.2991 98.1562 26.3591 98.1562 25.1799C98.1562 24.0223 98.4804 23.0583 99.1294 22.2895C99.8088 21.4687 100.727 21.0583 101.882 21.0583C103.017 21.0583 103.876 21.4687 104.459 22.2895C104.921 22.9415 105.154 23.7479 105.154 24.7055ZM103.485 24.2631C103.497 23.7575 103.383 23.3207 103.146 22.9519C102.843 22.4775 102.378 22.2407 101.752 22.2407C101.18 22.2407 100.715 22.4719 100.359 22.9359C100.068 23.3047 99.8949 23.7471 99.8416 24.2623H103.485V24.2631Z" fill="white"/>
<path d="M45.1692 11.7112C45.1692 12.6528 44.8796 13.3616 44.3011 13.8376C43.7653 14.2768 43.0039 14.4968 42.0176 14.4968C41.5286 14.4968 41.1101 14.476 40.7598 14.4344V9.28956C41.2168 9.21756 41.7091 9.18076 42.2408 9.18076C43.1803 9.18076 43.8884 9.37996 44.3659 9.77836C44.9009 10.2288 45.1692 10.8728 45.1692 11.7112ZM44.2625 11.7344C44.2625 11.124 44.0968 10.656 43.7653 10.3296C43.4338 10.004 42.9497 9.84076 42.3122 9.84076C42.0414 9.84076 41.8108 9.85836 41.6197 9.89516V13.8064C41.7255 13.8224 41.9192 13.8296 42.2006 13.8296C42.8586 13.8296 43.3665 13.6512 43.7243 13.2944C44.082 12.9376 44.2625 12.4176 44.2625 11.7344Z" fill="white"/>
<path d="M49.9768 12.5335C49.9768 13.1135 49.8069 13.5887 49.4672 13.9615C49.1111 14.3447 48.6394 14.5359 48.0502 14.5359C47.4824 14.5359 47.0303 14.3527 46.6931 13.9847C46.3567 13.6175 46.1885 13.1543 46.1885 12.5959C46.1885 12.0119 46.3616 11.5327 46.7095 11.1607C47.0574 10.7887 47.5251 10.6023 48.1142 10.6023C48.682 10.6023 49.1382 10.7855 49.4837 11.1527C49.8119 11.5095 49.9768 11.9703 49.9768 12.5335ZM49.0849 12.5607C49.0849 12.2127 49.0078 11.9143 48.8543 11.6655C48.6738 11.3647 48.417 11.2143 48.083 11.2143C47.7376 11.2143 47.475 11.3647 47.2945 11.6655C47.1403 11.9143 47.064 12.2175 47.064 12.5759C47.064 12.9239 47.1411 13.2223 47.2945 13.4711C47.4808 13.7719 47.7401 13.9223 48.0748 13.9223C48.403 13.9223 48.6607 13.7695 48.8461 13.4631C49.0053 13.2095 49.0849 12.9087 49.0849 12.5607Z" fill="white"/>
<path d="M56.4225 10.6791L55.2122 14.4503H54.4245L53.9232 12.8127C53.796 12.4039 53.6926 11.9975 53.6122 11.5943H53.5966C53.5219 12.0087 53.4186 12.4143 53.2856 12.8127L52.7531 14.4503H51.9564L50.8184 10.6791H51.7021L52.1394 12.4719C52.2452 12.8959 52.3322 13.2999 52.4019 13.6823H52.4175C52.4815 13.3671 52.5874 12.9655 52.7367 12.4799L53.2856 10.6799H53.9864L54.5123 12.4415C54.6395 12.8711 54.7429 13.2847 54.8225 13.6831H54.8463C54.9045 13.2951 54.9923 12.8815 55.1088 12.4415L55.5782 10.6799H56.4225V10.6791Z" fill="white"/>
<path d="M60.8806 14.4503H60.0207V12.2903C60.0207 11.6247 59.7614 11.2919 59.2412 11.2919C58.986 11.2919 58.7801 11.3831 58.6201 11.5663C58.4617 11.7495 58.3813 11.9655 58.3813 12.2127V14.4495H57.5214V11.7567C57.5214 11.4255 57.5107 11.0663 57.4902 10.6775H58.2459L58.2861 11.2671H58.3099C58.41 11.0839 58.5594 10.9327 58.7555 10.8119C58.9885 10.6711 59.2494 10.5999 59.5349 10.5999C59.896 10.5999 60.1963 10.7135 60.435 10.9415C60.7321 11.2207 60.8806 11.6375 60.8806 12.1911V14.4503Z" fill="white"/>
<path d="M63.2516 14.4503H62.3926V8.94873H63.2516V14.4503Z" fill="white"/>
<path d="M68.3142 12.5335C68.3142 13.1135 68.1443 13.5887 67.8047 13.9615C67.4485 14.3447 66.9759 14.5359 66.3876 14.5359C65.819 14.5359 65.3669 14.3527 65.0305 13.9847C64.6941 13.6175 64.5259 13.1543 64.5259 12.5959C64.5259 12.0119 64.699 11.5327 65.0469 11.1607C65.3948 10.7887 65.8625 10.6023 66.4508 10.6023C67.0194 10.6023 67.4748 10.7855 67.8211 11.1527C68.1493 11.5095 68.3142 11.9703 68.3142 12.5335ZM67.4215 12.5607C67.4215 12.2127 67.3443 11.9143 67.1909 11.6655C67.0112 11.3647 66.7536 11.2143 66.4204 11.2143C66.0742 11.2143 65.8116 11.3647 65.6319 11.6655C65.4777 11.9143 65.4014 12.2175 65.4014 12.5759C65.4014 12.9239 65.4785 13.2223 65.6319 13.4711C65.8182 13.7719 66.0775 13.9223 66.4122 13.9223C66.7404 13.9223 66.9973 13.7695 67.1827 13.4631C67.3427 13.2095 67.4215 12.9087 67.4215 12.5607Z" fill="white"/>
<path d="M72.4757 14.4503H71.7036L71.6396 14.0159H71.6158C71.3516 14.3623 70.975 14.5359 70.4859 14.5359C70.1208 14.5359 69.8254 14.4215 69.6031 14.1943C69.4012 13.9879 69.3003 13.7311 69.3003 13.4263C69.3003 12.9655 69.4972 12.6143 69.8935 12.3711C70.289 12.1279 70.8453 12.0087 71.5616 12.0143V11.9439C71.5616 11.4471 71.2941 11.1991 70.7583 11.1991C70.3768 11.1991 70.0404 11.2927 69.7499 11.4783L69.5752 10.9279C69.9345 10.7111 70.3784 10.6023 70.9019 10.6023C71.9128 10.6023 72.4199 11.1223 72.4199 12.1623V13.5511C72.4199 13.9279 72.4388 14.2279 72.4757 14.4503ZM71.583 13.1543V12.5727C70.6344 12.5567 70.1602 12.8103 70.1602 13.3327C70.1602 13.5295 70.2143 13.6767 70.3251 13.7751C70.4359 13.8735 70.577 13.9223 70.7452 13.9223C70.9339 13.9223 71.1103 13.8639 71.2712 13.7479C71.4328 13.6311 71.5321 13.4831 71.569 13.3015C71.578 13.2607 71.583 13.2111 71.583 13.1543Z" fill="white"/>
<path d="M77.3622 14.4503H76.5991L76.5589 13.8447H76.5351C76.2915 14.3055 75.8763 14.5359 75.2929 14.5359C74.8268 14.5359 74.4387 14.3575 74.131 14.0007C73.8234 13.6439 73.6699 13.1807 73.6699 12.6119C73.6699 12.0015 73.8365 11.5071 74.1713 11.1295C74.4954 10.7775 74.8925 10.6015 75.3651 10.6015C75.8845 10.6015 76.248 10.7719 76.4547 11.1135H76.4711V8.94873H77.3319V13.4343C77.3319 13.8015 77.3417 14.1399 77.3622 14.4503ZM76.4711 12.8599V12.2311C76.4711 12.1223 76.4629 12.0343 76.4473 11.9671C76.3989 11.7655 76.2947 11.5959 76.1364 11.4591C75.9764 11.3223 75.7836 11.2535 75.5612 11.2535C75.2404 11.2535 74.9893 11.3775 74.8047 11.6263C74.6217 11.8751 74.529 12.1927 74.529 12.5807C74.529 12.9535 74.6168 13.2559 74.7932 13.4887C74.9795 13.7367 75.2305 13.8607 75.5448 13.8607C75.827 13.8607 76.0527 13.7575 76.2242 13.5503C76.3899 13.3591 76.4711 13.1287 76.4711 12.8599Z" fill="white"/>
<path d="M84.7165 12.5335C84.7165 13.1135 84.5467 13.5887 84.207 13.9615C83.8509 14.3447 83.3799 14.5359 82.79 14.5359C82.223 14.5359 81.7709 14.3527 81.4328 13.9847C81.0964 13.6175 80.9282 13.1543 80.9282 12.5959C80.9282 12.0119 81.1014 11.5327 81.4492 11.1607C81.7971 10.7887 82.2648 10.6023 82.8548 10.6023C83.4218 10.6023 83.8788 10.7855 84.2234 11.1527C84.5516 11.5095 84.7165 11.9703 84.7165 12.5335ZM83.8255 12.5607C83.8255 12.2127 83.7483 11.9143 83.5949 11.6655C83.4136 11.3647 83.1576 11.2143 82.8228 11.2143C82.4782 11.2143 82.2156 11.3647 82.0343 11.6655C81.88 11.9143 81.8037 12.2175 81.8037 12.5759C81.8037 12.9239 81.8808 13.2223 82.0343 13.4711C82.2205 13.7719 82.4798 13.9223 82.8146 13.9223C83.1428 13.9223 83.4012 13.7695 83.5867 13.4631C83.745 13.2095 83.8255 12.9087 83.8255 12.5607Z" fill="white"/>
<path d="M89.3397 14.4503H88.4807V12.2903C88.4807 11.6247 88.2214 11.2919 87.7003 11.2919C87.4452 11.2919 87.2392 11.3831 87.08 11.5663C86.9209 11.7495 86.8413 11.9655 86.8413 12.2127V14.4495H85.9806V11.7567C85.9806 11.4255 85.9707 11.0663 85.9502 10.6775H86.7051L86.7453 11.2671H86.7691C86.87 11.0839 87.0193 10.9327 87.2146 10.8119C87.4484 10.6711 87.7086 10.5999 87.9949 10.5999C88.3551 10.5999 88.6554 10.7135 88.8942 10.9415C89.192 11.2207 89.3397 11.6375 89.3397 12.1911V14.4503Z" fill="white"/>
<path d="M95.1272 11.3071H94.1803V13.1391C94.1803 13.6047 94.3485 13.8375 94.6816 13.8375C94.8359 13.8375 94.9639 13.8247 95.0648 13.7983L95.087 14.4343C94.9171 14.4967 94.6939 14.5279 94.4191 14.5279C94.0794 14.5279 93.8152 14.4271 93.624 14.2255C93.432 14.0239 93.3368 13.6847 93.3368 13.2087V11.3071H92.7715V10.6791H93.3368V9.98793L94.1795 9.73993V10.6783H95.1263V11.3071H95.1272Z" fill="white"/>
<path d="M99.679 14.4503H98.8183V12.3063C98.8183 11.6303 98.559 11.2919 98.0396 11.2919C97.6409 11.2919 97.3684 11.4879 97.2191 11.8799C97.1937 11.9623 97.1789 12.0631 97.1789 12.1815V14.4495H96.3198V8.94873H97.1789V11.2215H97.1953C97.4661 10.8079 97.8542 10.6015 98.3572 10.6015C98.7133 10.6015 99.0078 10.7151 99.2417 10.9431C99.533 11.2271 99.679 11.6495 99.679 12.2079V14.4503Z" fill="white"/>
<path d="M104.375 12.3863C104.375 12.5367 104.363 12.6631 104.343 12.7663H101.764C101.775 13.1391 101.898 13.4231 102.137 13.6199C102.356 13.7959 102.637 13.8839 102.982 13.8839C103.363 13.8839 103.711 13.8247 104.024 13.7055L104.159 14.2879C103.792 14.4431 103.361 14.5207 102.861 14.5207C102.262 14.5207 101.79 14.3487 101.449 14.0047C101.106 13.6607 100.936 13.1991 100.936 12.6199C100.936 12.0511 101.094 11.5775 101.414 11.1999C101.747 10.7967 102.197 10.5951 102.766 10.5951C103.322 10.5951 103.745 10.7967 104.03 11.1999C104.261 11.5199 104.375 11.9159 104.375 12.3863ZM103.554 12.1695C103.561 11.9207 103.504 11.7063 103.388 11.5255C103.238 11.2927 103.011 11.1759 102.703 11.1759C102.423 11.1759 102.194 11.2895 102.019 11.5175C101.876 11.6991 101.792 11.9159 101.764 12.1695H103.554Z" fill="white"/>
</svg>
