<svg width="149" height="41" viewBox="0 0 149 41" fill="none" xmlns="http://www.w3.org/2000/svg">
<path d="M37.6347 30.673C36.7445 30.2157 35.9948 29.4007 35.9948 28.4V28.4C35.9948 28.1814 35.8897 27.9717 35.7025 27.8171V27.8171C35.3784 27.5492 34.9965 27.2344 34.9965 26.8139V16.4151C34.9965 16.1999 35.1756 16.0323 35.3792 15.9627V15.9627C35.5005 15.9213 35.6107 15.8605 35.7035 15.7839C35.7964 15.7073 35.87 15.6163 35.9203 15.5162C35.9705 15.4162 35.9964 15.3089 35.9964 15.2005V15.0465C35.9964 14.2203 36.6662 13.5505 37.4924 13.5505V13.5505C38.6469 13.5505 39.6187 12.9176 39.914 11.9746C40.2132 11.0078 39.7156 10.0455 38.6743 9.57568L23.5664 2.7565C22.4732 2.26023 21.2457 2 19.998 2C18.7503 2 17.5228 2.26023 16.4296 2.7565L1.32799 9.57503C0.285128 10.0455 -0.21326 11.0091 0.0859289 11.9746C0.378087 12.9169 1.34987 13.5505 2.50756 13.5505V13.5505C3.33246 13.5505 4.00116 14.2192 4.00116 15.0441V15.2005C4.00116 15.4191 4.10629 15.6288 4.29347 15.7834V15.7834C4.61761 16.0513 4.9995 16.3661 4.9995 16.7866V26.813C4.9995 27.2338 4.61705 27.5488 4.29246 27.8166V27.8166C4.10495 27.9713 3.9996 28.1812 3.9996 28.4V28.4C3.9996 29.4008 3.24998 30.2159 2.35988 30.6734C1.89611 30.9118 1.47939 31.2129 1.12876 31.5673C0.400208 32.3035 0.00155789 33.2245 0 34.175V34.175C0 34.6306 0.369367 35 0.825004 35H39.171C39.6266 35 39.996 34.6306 39.996 34.175V34.175C39.9944 33.2243 39.5955 32.3032 38.8666 31.5669C38.5158 31.2125 38.0988 30.9113 37.6347 30.673ZM5.99941 29.639C5.99854 29.4106 6.18348 29.225 6.41191 29.225H11.584C11.8118 29.225 11.9965 29.4096 11.9965 29.6375V29.6375C11.9965 29.8653 11.8118 30.05 11.584 30.05H6.41191C6.1847 30.05 6.00027 29.8662 5.99941 29.639V29.639ZM12.9995 27.575C12.9978 27.575 12.9964 27.5736 12.9964 27.5718V16.4151C12.9964 16.1999 13.1754 16.0323 13.379 15.9627V15.9627C13.5003 15.9213 13.6105 15.8605 13.7034 15.7839C13.7962 15.7073 13.8699 15.6163 13.9201 15.5162C13.9704 15.4162 13.9963 15.3089 13.9963 15.2005V14.0516C13.9963 13.7749 14.2206 13.5505 14.4974 13.5505V13.5505C14.7741 13.5505 14.9985 13.7749 14.9985 14.0516V15.2005C14.9985 15.3089 15.0244 15.4162 15.0746 15.5162C15.1249 15.6163 15.1985 15.7073 15.2914 15.7839C15.3842 15.8605 15.4944 15.9213 15.6158 15.9627V15.9627C15.8193 16.0323 15.9984 16.1999 15.9984 16.4151V26.813C15.9984 27.2338 15.6159 27.5488 15.2914 27.8166V27.8166C15.1039 27.9713 14.9985 28.1812 14.9985 28.4V29.55C14.9985 29.8261 14.7747 30.05 14.4986 30.05V30.05C14.2224 30.05 13.9986 29.8261 13.9986 29.55V28.4C13.9986 28.1813 13.8934 27.9715 13.706 27.8168C13.5187 27.6621 13.2645 27.5751 12.9995 27.575V27.575ZM19.9957 27.575C18.8912 27.575 17.9959 26.6796 17.9959 25.5752V18.0253C17.9959 16.9209 18.8912 16.0255 19.9957 16.0255V16.0255C21.1001 16.0255 21.9955 16.9209 21.9955 18.0253V25.5752C21.9955 26.6796 21.1001 27.575 19.9957 27.575V27.575ZM22.9977 13.9624C22.9977 14.1902 22.813 14.3749 22.5852 14.3749H17.4108C17.183 14.3749 16.9983 14.1902 16.9983 13.9624V13.9624C16.9983 13.7346 17.183 13.5499 17.4108 13.5499H22.5852C22.813 13.5499 22.9977 13.7346 22.9977 13.9624V13.9624ZM16.9983 29.6375C16.9983 29.4096 17.183 29.225 17.4108 29.225H22.5852C22.813 29.225 22.9977 29.4096 22.9977 29.6375V29.6375C22.9977 29.8653 22.813 30.05 22.5852 30.05H17.4108C17.183 30.05 16.9983 29.8653 16.9983 29.6375V29.6375ZM23.9976 27.575C23.9972 27.575 23.9968 27.5746 23.9968 27.5742V16.4151C23.9968 16.1999 24.1759 16.0323 24.3795 15.9627V15.9627C24.5008 15.9213 24.611 15.8605 24.7039 15.7839C24.7967 15.7073 24.8704 15.6163 24.9206 15.5162C24.9709 15.4162 24.9967 15.3089 24.9967 15.2005V14.0505C24.9967 13.7744 25.2206 13.5505 25.4967 13.5505V13.5505C25.7728 13.5505 25.9966 13.7744 25.9966 14.0505V15.2005C25.9966 15.3089 26.0225 15.4162 26.0727 15.5162C26.123 15.6163 26.1966 15.7073 26.2895 15.7839C26.3823 15.8605 26.4926 15.9213 26.6139 15.9627V15.9627C26.8174 16.0323 26.9965 16.1999 26.9965 16.4151V26.813C26.9965 27.2338 26.6141 27.5488 26.2895 27.8166V27.8166C26.102 27.9713 25.9966 28.1812 25.9966 28.4V29.5504C25.9966 29.8263 25.773 30.05 25.4971 30.05V30.05C25.2212 30.05 24.9975 29.8263 24.9975 29.5504V28.4C24.9975 28.1812 24.8922 27.9713 24.7046 27.8166C24.5171 27.6619 24.2628 27.575 23.9976 27.575V27.575ZM27.9964 29.6375C27.9964 29.4096 28.1811 29.225 28.4089 29.225H33.5825C33.8104 29.225 33.995 29.4096 33.995 29.6375V29.6375C33.995 29.8653 33.8104 30.05 33.5825 30.05H28.4089C28.1811 30.05 27.9964 29.8653 27.9964 29.6375V29.6375ZM32.9959 25.5752C32.9959 26.6796 32.1006 27.575 30.9961 27.575V27.575C29.8917 27.575 28.9963 26.6796 28.9963 25.5752V18.0253C28.9963 16.9209 29.8917 16.0255 30.9961 16.0255V16.0255C32.1006 16.0255 32.9959 16.9209 32.9959 18.0253V25.5752ZM33.9954 13.962C33.9957 14.19 33.8109 14.3749 33.5829 14.3749H28.4089C28.1811 14.3749 27.9964 14.1902 27.9964 13.9624V13.9624C27.9964 13.7346 28.1811 13.5499 28.4089 13.5499H33.5829C33.8106 13.5499 33.9952 13.7343 33.9954 13.962V13.962ZM2.50444 11.9005C2.17635 11.9005 2.06229 11.691 2.02324 11.566C1.99589 11.4783 1.93496 11.1793 2.28571 11.0233L17.3897 4.20412C18.1887 3.841 19.0861 3.65057 19.9984 3.65057C20.9106 3.65057 21.8081 3.841 22.6071 4.20412L37.7103 11.0233C38.061 11.1812 38.0001 11.4783 37.9728 11.566C37.9345 11.691 37.8165 11.9005 37.4916 11.9005H2.50444ZM11.5874 13.5505C11.8151 13.5505 11.9996 13.735 11.9996 13.9627V13.9627C11.9996 14.1903 11.815 14.3749 11.5874 14.3749H6.41344C6.18564 14.3749 6.00096 14.1902 6.00096 13.9624V13.9624C6.00096 13.7346 6.18566 13.5499 6.41349 13.5499L11.5874 13.5505ZM7.00008 18.0253C7.00008 16.9209 7.89542 16.0255 8.99988 16.0255V16.0255C10.1043 16.0255 10.9997 16.9209 10.9997 18.0253V25.5752C10.9997 26.6796 10.1043 27.575 8.99988 27.575V27.575C7.89542 27.575 7.00008 26.6796 7.00008 25.5752V18.0253ZM3.82175 33.35C3.04145 33.35 2.59495 32.5484 3.26887 32.1551V32.1551C3.77501 31.8597 4.37953 31.7007 4.9995 31.7H34.9965C35.6166 31.7006 36.2213 31.8595 36.7276 32.1549V32.1549C37.4017 32.5483 36.9552 33.35 36.1747 33.35H3.82175ZM19.998 10.2499C20.5913 10.2499 21.1713 10.1047 21.6645 9.83275C22.1578 9.56079 22.5423 9.17424 22.7694 8.72199C22.9964 8.26974 23.0558 7.7721 22.9401 7.292C22.8243 6.81189 22.5386 6.37089 22.1191 6.02475C21.6996 5.67861 21.1651 5.44289 20.5832 5.34739C20.0013 5.25189 19.3982 5.30091 18.8501 5.48823C18.3019 5.67556 17.8335 5.99279 17.5038 6.3998C17.1742 6.80682 16.9983 7.28534 16.9983 7.77485C16.9991 8.43105 17.3154 9.06019 17.8778 9.52419C18.4402 9.9882 19.2027 10.2492 19.998 10.2499ZM19.998 6.95017C19.998 6.94999 19.9981 6.94984 19.9983 6.94984C20.196 6.9499 20.3892 6.99828 20.5535 7.08888C20.718 7.17953 20.8461 7.30838 20.9218 7.45913C20.9975 7.60988 21.0173 7.77576 20.9787 7.9358C20.9401 8.09583 20.8449 8.24284 20.705 8.35821C20.5652 8.47359 20.387 8.55217 20.1931 8.584C19.9991 8.61583 19.7981 8.5995 19.6154 8.53705C19.4327 8.47461 19.2765 8.36887 19.1666 8.2332C19.0567 8.09752 18.9981 7.93802 18.9981 7.77485C18.9985 7.55621 19.104 7.34663 19.2915 7.19209C19.4788 7.03761 19.7328 6.95073 19.9977 6.95049C19.9979 6.95049 19.998 6.95034 19.998 6.95017V6.95017Z" fill="#1E0654"/>
<path d="M61.4347 16V1.45455H67.0028C68.054 1.45455 68.9276 1.62026 69.6236 1.9517C70.3243 2.27841 70.8475 2.72585 71.1932 3.29403C71.5436 3.86222 71.7188 4.50616 71.7188 5.22585C71.7188 5.81771 71.6051 6.32434 71.3778 6.74574C71.1506 7.1624 70.8452 7.50095 70.4616 7.76136C70.0781 8.02178 69.6496 8.20881 69.1761 8.32244V8.46449C69.6922 8.4929 70.187 8.65151 70.6605 8.94034C71.1387 9.22443 71.5294 9.62689 71.8324 10.1477C72.1354 10.6686 72.2869 11.2983 72.2869 12.0369C72.2869 12.7898 72.1046 13.4669 71.7401 14.0682C71.3755 14.6648 70.8262 15.1359 70.0923 15.4815C69.3584 15.8272 68.4351 16 67.3224 16H61.4347ZM64.0696 13.7983H66.9034C67.8598 13.7983 68.5488 13.616 68.9702 13.2514C69.3963 12.8821 69.6094 12.4086 69.6094 11.831C69.6094 11.4001 69.5028 11.0118 69.2898 10.6662C69.0767 10.3158 68.7737 10.0412 68.3807 9.84233C67.9877 9.63873 67.5189 9.53693 66.9744 9.53693H64.0696V13.7983ZM64.0696 7.64062H66.6761C67.1307 7.64062 67.5402 7.55777 67.9048 7.39205C68.2694 7.22159 68.5559 6.98248 68.7642 6.67472C68.9773 6.36222 69.0838 5.9929 69.0838 5.56676C69.0838 5.00331 68.8849 4.5393 68.4872 4.17472C68.0942 3.81013 67.5095 3.62784 66.733 3.62784H64.0696V7.64062ZM76.6048 16.2202C75.9135 16.2202 75.2908 16.0971 74.7369 15.8509C74.1876 15.5999 73.752 15.2306 73.43 14.7429C73.1128 14.2552 72.9542 13.6539 72.9542 12.9389C72.9542 12.3234 73.0678 11.8144 73.2951 11.4119C73.5224 11.0095 73.8325 10.6875 74.2255 10.446C74.6185 10.2045 75.0612 10.0223 75.5536 9.89915C76.0508 9.77131 76.5645 9.67898 77.0948 9.62216C77.734 9.55587 78.2525 9.49669 78.6502 9.4446C79.0479 9.38778 79.3368 9.30256 79.5167 9.18892C79.7013 9.07055 79.7937 8.88826 79.7937 8.64205V8.59943C79.7937 8.06439 79.6351 7.65009 79.3178 7.35653C79.0006 7.06297 78.5437 6.91619 77.9471 6.91619C77.3174 6.91619 76.8178 7.0535 76.4485 7.32812C76.0839 7.60275 75.8377 7.92708 75.7099 8.30114L73.3093 7.96023C73.4987 7.29735 73.8112 6.74337 74.2468 6.2983C74.6824 5.84848 75.2151 5.51231 75.8448 5.28977C76.4746 5.0625 77.1706 4.94886 77.9329 4.94886C78.4585 4.94886 78.9817 5.01042 79.5025 5.13352C80.0233 5.25663 80.4992 5.46023 80.93 5.74432C81.3609 6.02367 81.7066 6.40483 81.967 6.88778C82.2321 7.37074 82.3647 7.97443 82.3647 8.69886V16H79.8931V14.5014H79.8079C79.6516 14.8045 79.4315 15.0885 79.1474 15.3537C78.868 15.6141 78.5153 15.8248 78.0891 15.9858C77.6677 16.142 77.1729 16.2202 76.6048 16.2202ZM77.2724 14.331C77.7885 14.331 78.2359 14.2292 78.6147 14.0256C78.9935 13.8172 79.2847 13.5426 79.4883 13.2017C79.6966 12.8608 79.8008 12.4891 79.8008 12.0866V10.8011C79.7203 10.8674 79.583 10.929 79.3888 10.9858C79.1995 11.0426 78.9864 11.0923 78.7496 11.1349C78.5129 11.1776 78.2785 11.2154 78.0465 11.2486C77.8145 11.2817 77.6133 11.3101 77.4428 11.3338C77.0593 11.3859 76.716 11.4711 76.413 11.5895C76.11 11.7079 75.8709 11.8736 75.6957 12.0866C75.5205 12.295 75.4329 12.5649 75.4329 12.8963C75.4329 13.3698 75.6057 13.7273 75.9513 13.9688C76.297 14.2102 76.7373 14.331 77.2724 14.331ZM86.521 9.60795V16H83.9499V5.09091H86.4073V6.9446H86.5352C86.7861 6.33381 87.1862 5.84848 87.7354 5.48864C88.2894 5.12879 88.9736 4.94886 89.788 4.94886C90.5408 4.94886 91.1966 5.10985 91.7553 5.43182C92.3188 5.75379 92.7544 6.22017 93.0621 6.83097C93.3746 7.44176 93.5285 8.18276 93.5238 9.05398V16H90.9528V9.4517C90.9528 8.72254 90.7634 8.15199 90.3846 7.74006C90.0105 7.32812 89.4921 7.12216 88.8292 7.12216C88.3794 7.12216 87.9793 7.22159 87.6289 7.42045C87.2833 7.61458 87.011 7.89631 86.8121 8.26562C86.618 8.63494 86.521 9.08239 86.521 9.60795ZM97.4812 12.5767L97.4741 9.47301H97.886L101.806 5.09091H104.811L99.9883 10.4602H99.4556L97.4812 12.5767ZM95.1374 16V1.45455H97.7085V16H95.1374ZM101.984 16L98.4329 11.0355L100.166 9.22443L105.059 16H101.984ZM112.66 16L108.555 1.45455H111.388L114.009 12.1435H114.144L116.942 1.45455H119.521L122.326 12.1506H122.454L125.075 1.45455H127.908L123.803 16H121.204L118.292 5.79403H118.178L115.259 16H112.66ZM128.622 16V5.09091H131.193V16H128.622ZM129.914 3.54261C129.507 3.54261 129.157 3.40767 128.863 3.13778C128.57 2.86316 128.423 2.53409 128.423 2.15057C128.423 1.76231 128.57 1.43324 128.863 1.16335C129.157 0.88873 129.507 0.75142 129.914 0.75142C130.326 0.75142 130.677 0.88873 130.966 1.16335C131.259 1.43324 131.406 1.76231 131.406 2.15057C131.406 2.53409 131.259 2.86316 130.966 3.13778C130.677 3.40767 130.326 3.54261 129.914 3.54261ZM132.837 16V5.09091H135.33V6.90909H135.443C135.642 6.27936 135.983 5.79403 136.466 5.45312C136.954 5.10748 137.51 4.93466 138.135 4.93466C138.277 4.93466 138.436 4.94176 138.611 4.95597C138.791 4.96544 138.94 4.98201 139.058 5.00568V7.37074C138.949 7.33286 138.777 7.29972 138.54 7.27131C138.308 7.23816 138.083 7.22159 137.865 7.22159C137.396 7.22159 136.975 7.32339 136.601 7.52699C136.232 7.72585 135.94 8.00284 135.727 8.35795C135.514 8.71307 135.408 9.12263 135.408 9.58665V16H132.837ZM144.147 16.2131C143.053 16.2131 142.108 15.9858 141.313 15.5312C140.522 15.072 139.914 14.4233 139.488 13.5852C139.061 12.7424 138.848 11.7505 138.848 10.6094C138.848 9.48722 139.061 8.50237 139.488 7.65483C139.918 6.80256 140.52 6.13968 141.292 5.66619C142.063 5.18797 142.97 4.94886 144.012 4.94886C144.684 4.94886 145.319 5.05777 145.915 5.27557C146.516 5.48864 147.047 5.82008 147.506 6.26989C147.97 6.7197 148.335 7.29261 148.6 7.98864C148.865 8.67992 148.998 9.50379 148.998 10.4602V11.2486H140.056V9.51562H146.533C146.528 9.0232 146.422 8.58523 146.213 8.2017C146.005 7.81345 145.714 7.50805 145.34 7.28551C144.971 7.06297 144.54 6.9517 144.047 6.9517C143.522 6.9517 143.06 7.07955 142.662 7.33523C142.265 7.58617 141.954 7.91761 141.732 8.32955C141.514 8.73674 141.403 9.18419 141.398 9.67188V11.1847C141.398 11.8191 141.514 12.3636 141.746 12.8182C141.978 13.268 142.302 13.6136 142.719 13.8551C143.136 14.0919 143.623 14.2102 144.182 14.2102C144.556 14.2102 144.895 14.1581 145.198 14.054C145.501 13.9451 145.764 13.7865 145.986 13.5781C146.209 13.3698 146.377 13.1117 146.49 12.804L148.891 13.0739C148.739 13.7083 148.451 14.2623 148.025 14.7358C147.603 15.2045 147.063 15.5691 146.405 15.8295C145.747 16.0852 144.994 16.2131 144.147 16.2131ZM60.7955 27.6634V25.4545H72.4006V27.6634H67.9048V40H65.2912V27.6634H60.7955ZM72.3913 40V29.0909H74.8842V30.9091H74.9979C75.1967 30.2794 75.5376 29.794 76.0206 29.4531C76.5083 29.1075 77.0646 28.9347 77.6896 28.9347C77.8317 28.9347 77.9903 28.9418 78.1655 28.956C78.3454 28.9654 78.4946 28.982 78.6129 29.0057V31.3707C78.504 31.3329 78.3312 31.2997 78.0945 31.2713C77.8625 31.2382 77.6375 31.2216 77.4197 31.2216C76.951 31.2216 76.5296 31.3234 76.1555 31.527C75.7862 31.7259 75.495 32.0028 75.282 32.358C75.0689 32.7131 74.9624 33.1226 74.9624 33.5866V40H72.3913ZM82.2649 40.2202C81.5736 40.2202 80.951 40.0971 80.397 39.8509C79.8478 39.5999 79.4122 39.2306 79.0902 38.7429C78.773 38.2552 78.6143 37.6539 78.6143 36.9389C78.6143 36.3234 78.728 35.8144 78.9553 35.4119C79.1825 35.0095 79.4927 34.6875 79.8857 34.446C80.2786 34.2045 80.7214 34.0223 81.2138 33.8991C81.7109 33.7713 82.2247 33.679 82.755 33.6222C83.3942 33.5559 83.9126 33.4967 84.3104 33.4446C84.7081 33.3878 84.9969 33.3026 85.1768 33.1889C85.3615 33.0705 85.4538 32.8883 85.4538 32.642V32.5994C85.4538 32.0644 85.2952 31.6501 84.978 31.3565C84.6607 31.063 84.2038 30.9162 83.6072 30.9162C82.9775 30.9162 82.478 31.0535 82.1087 31.3281C81.7441 31.6027 81.4979 31.9271 81.37 32.3011L78.9695 31.9602C79.1589 31.2973 79.4714 30.7434 79.907 30.2983C80.3426 29.8485 80.8752 29.5123 81.505 29.2898C82.1347 29.0625 82.8307 28.9489 83.593 28.9489C84.1186 28.9489 84.6418 29.0104 85.1626 29.1335C85.6835 29.2566 86.1593 29.4602 86.5902 29.7443C87.0211 30.0237 87.3667 30.4048 87.6271 30.8878C87.8923 31.3707 88.0249 31.9744 88.0249 32.6989V40H85.5533V38.5014H85.468C85.3118 38.8045 85.0916 39.0885 84.8075 39.3537C84.5282 39.6141 84.1754 39.8248 83.7493 39.9858C83.3279 40.142 82.8331 40.2202 82.2649 40.2202ZM82.9325 38.331C83.4486 38.331 83.8961 38.2292 84.2749 38.0256C84.6536 37.8172 84.9448 37.5426 85.1484 37.2017C85.3568 36.8608 85.4609 36.4891 85.4609 36.0866V34.8011C85.3804 34.8674 85.2431 34.929 85.049 34.9858C84.8596 35.0426 84.6465 35.0923 84.4098 35.1349C84.1731 35.1776 83.9387 35.2154 83.7067 35.2486C83.4747 35.2817 83.2734 35.3101 83.103 35.3338C82.7195 35.3859 82.3762 35.4711 82.0732 35.5895C81.7701 35.7079 81.531 35.8736 81.3558 36.0866C81.1806 36.295 81.093 36.5649 81.093 36.8963C81.093 37.3698 81.2659 37.7273 81.6115 37.9688C81.9571 38.2102 82.3975 38.331 82.9325 38.331ZM92.1811 33.608V40H89.6101V29.0909H92.0675V30.9446H92.1953C92.4463 30.3338 92.8464 29.8485 93.3956 29.4886C93.9496 29.1288 94.6338 28.9489 95.4482 28.9489C96.201 28.9489 96.8568 29.1098 97.4155 29.4318C97.9789 29.7538 98.4145 30.2202 98.7223 30.831C99.0348 31.4418 99.1887 32.1828 99.1839 33.054V40H96.6129V33.4517C96.6129 32.7225 96.4235 32.152 96.0447 31.7401C95.6707 31.3281 95.1522 31.1222 94.4893 31.1222C94.0395 31.1222 93.6394 31.2216 93.2891 31.4205C92.9434 31.6146 92.6712 31.8963 92.4723 32.2656C92.2782 32.6349 92.1811 33.0824 92.1811 33.608ZM109.42 31.9744L107.076 32.2301C107.01 31.9934 106.894 31.7708 106.728 31.5625C106.567 31.3542 106.349 31.1861 106.075 31.0582C105.8 30.9304 105.464 30.8665 105.066 30.8665C104.531 30.8665 104.081 30.9825 103.717 31.2145C103.357 31.4465 103.179 31.7472 103.184 32.1165C103.179 32.4337 103.295 32.6918 103.532 32.8906C103.773 33.0895 104.171 33.2528 104.725 33.3807L106.586 33.7784C107.618 34.0009 108.385 34.3537 108.887 34.8366C109.394 35.3196 109.649 35.9517 109.654 36.733C109.649 37.4195 109.448 38.0256 109.05 38.5511C108.657 39.072 108.111 39.4792 107.41 39.7727C106.709 40.0663 105.904 40.2131 104.995 40.2131C103.66 40.2131 102.585 39.9337 101.771 39.375C100.956 38.8116 100.471 38.0279 100.315 37.0241L102.822 36.7827C102.935 37.2751 103.177 37.6468 103.546 37.8977C103.915 38.1487 104.396 38.2741 104.988 38.2741C105.599 38.2741 106.089 38.1487 106.458 37.8977C106.832 37.6468 107.019 37.3366 107.019 36.9673C107.019 36.6548 106.898 36.3968 106.657 36.1932C106.42 35.9896 106.051 35.8333 105.549 35.7244L103.688 35.3338C102.642 35.116 101.868 34.7491 101.366 34.233C100.864 33.7121 100.615 33.054 100.62 32.2585C100.615 31.5862 100.798 31.0038 101.167 30.5114C101.541 30.0142 102.059 29.6307 102.722 29.3608C103.39 29.0862 104.159 28.9489 105.031 28.9489C106.309 28.9489 107.315 29.2211 108.049 29.7656C108.788 30.3101 109.245 31.0464 109.42 31.9744ZM116.3 29.0909V31.0795H109.851V29.0909H116.3ZM111.463 40V28.0611C111.463 27.3272 111.615 26.7164 111.918 26.2287C112.225 25.741 112.637 25.3764 113.153 25.1349C113.67 24.8935 114.242 24.7727 114.872 24.7727C115.317 24.7727 115.713 24.8082 116.058 24.8793C116.404 24.9503 116.66 25.0142 116.825 25.071L116.314 27.0597C116.205 27.0265 116.068 26.9934 115.902 26.9602C115.736 26.9223 115.552 26.9034 115.348 26.9034C114.87 26.9034 114.531 27.0194 114.332 27.2514C114.138 27.4787 114.041 27.8054 114.041 28.2315V40H111.463ZM121.733 40.2131C120.639 40.2131 119.694 39.9858 118.899 39.5312C118.108 39.072 117.5 38.4233 117.074 37.5852C116.647 36.7424 116.434 35.7505 116.434 34.6094C116.434 33.4872 116.647 32.5024 117.074 31.6548C117.504 30.8026 118.106 30.1397 118.877 29.6662C119.649 29.188 120.556 28.9489 121.598 28.9489C122.27 28.9489 122.904 29.0578 123.501 29.2756C124.102 29.4886 124.633 29.8201 125.092 30.2699C125.556 30.7197 125.921 31.2926 126.186 31.9886C126.451 32.6799 126.583 33.5038 126.583 34.4602V35.2486H117.642V33.5156H124.119C124.114 33.0232 124.008 32.5852 123.799 32.2017C123.591 31.8134 123.3 31.508 122.926 31.2855C122.556 31.063 122.126 30.9517 121.633 30.9517C121.108 30.9517 120.646 31.0795 120.248 31.3352C119.85 31.5862 119.54 31.9176 119.318 32.3295C119.1 32.7367 118.989 33.1842 118.984 33.6719V35.1847C118.984 35.8191 119.1 36.3636 119.332 36.8182C119.564 37.268 119.888 37.6136 120.305 37.8551C120.722 38.0919 121.209 38.2102 121.768 38.2102C122.142 38.2102 122.481 38.1581 122.784 38.054C123.087 37.9451 123.35 37.7865 123.572 37.5781C123.795 37.3698 123.963 37.1117 124.076 36.804L126.477 37.0739C126.325 37.7083 126.037 38.2623 125.61 38.7358C125.189 39.2045 124.649 39.5691 123.991 39.8295C123.333 40.0852 122.58 40.2131 121.733 40.2131ZM127.759 40V29.0909H130.251V30.9091H130.365C130.564 30.2794 130.905 29.794 131.388 29.4531C131.875 29.1075 132.432 28.9347 133.057 28.9347C133.199 28.9347 133.357 28.9418 133.533 28.956C133.713 28.9654 133.862 28.982 133.98 29.0057V31.3707C133.871 31.3329 133.698 31.2997 133.462 31.2713C133.23 31.2382 133.005 31.2216 132.787 31.2216C132.318 31.2216 131.897 31.3234 131.523 31.527C131.153 31.7259 130.862 32.0028 130.649 32.358C130.436 32.7131 130.33 33.1226 130.33 33.5866V40H127.759Z" fill="#1E0654"/>
</svg>
