<svg width="40" height="33" viewBox="0 0 40 33" fill="none" xmlns="http://www.w3.org/2000/svg">
<path id="Vector" d="M37.6347 28.673C36.7445 28.2157 35.9948 27.4007 35.9948 26.4C35.9948 26.1814 35.8897 25.9717 35.7025 25.8171C35.3784 25.5492 34.9965 25.2344 34.9965 24.8139V14.4151C34.9965 14.1999 35.1756 14.0323 35.3792 13.9627C35.5005 13.9213 35.6107 13.8605 35.7035 13.7839C35.7964 13.7073 35.87 13.6163 35.9203 13.5162C35.9705 13.4162 35.9964 13.3089 35.9964 13.2005V13.0465C35.9964 12.2203 36.6662 11.5505 37.4924 11.5505C38.6469 11.5505 39.6187 10.9176 39.914 9.97464C40.2132 9.00783 39.7156 8.04554 38.6743 7.57568L23.5664 0.7565C22.4732 0.260227 21.2457 0 19.998 0C18.7503 0 17.5228 0.260227 16.4296 0.7565L1.32799 7.57503C0.285128 8.04554 -0.21326 9.00912 0.0859289 9.97464C0.378087 10.9169 1.34987 11.5505 2.50756 11.5505C3.33246 11.5505 4.00116 12.2192 4.00116 13.0441V13.2005C4.00116 13.4191 4.1063 13.6288 4.29347 13.7834C4.61761 14.0513 4.9995 14.3661 4.9995 14.7866V24.813C4.9995 25.2338 4.61705 25.5488 4.29246 25.8166C4.10495 25.9713 3.9996 26.1812 3.9996 26.4C3.9996 27.4008 3.24998 28.2159 2.35988 28.6734C1.89611 28.9118 1.47939 29.2129 1.12876 29.5673C0.400208 30.3035 0.00155789 31.2245 0 32.175C0 32.6306 0.369367 33 0.825004 33H39.171C39.6266 33 39.996 32.6306 39.996 32.175C39.9944 31.2243 39.5955 30.3032 38.8666 29.5669C38.5158 29.2125 38.0988 28.9113 37.6347 28.673ZM5.99941 27.639C5.99854 27.4106 6.18348 27.225 6.41191 27.225H11.584C11.8118 27.225 11.9965 27.4096 11.9965 27.6375C11.9965 27.8653 11.8118 28.05 11.584 28.05H6.41191C6.1847 28.05 6.00027 27.8662 5.99941 27.639ZM12.9995 25.575C12.9978 25.575 12.9964 25.5736 12.9964 25.5718V14.4151C12.9964 14.1999 13.1754 14.0323 13.379 13.9627C13.5003 13.9213 13.6105 13.8605 13.7034 13.7839C13.7962 13.7073 13.8699 13.6163 13.9201 13.5162C13.9704 13.4162 13.9963 13.3089 13.9963 13.2005V12.0516C13.9963 11.7749 14.2206 11.5505 14.4974 11.5505C14.7741 11.5505 14.9985 11.7749 14.9985 12.0516V13.2005C14.9985 13.3089 15.0244 13.4162 15.0746 13.5162C15.1249 13.6163 15.1985 13.7073 15.2914 13.7839C15.3842 13.8605 15.4944 13.9213 15.6158 13.9627C15.8193 14.0323 15.9984 14.1999 15.9984 14.4151V24.813C15.9984 25.2338 15.6159 25.5488 15.2914 25.8166C15.1039 25.9713 14.9985 26.1812 14.9985 26.4V27.55C14.9985 27.8261 14.7747 28.05 14.4986 28.05C14.2224 28.05 13.9986 27.8261 13.9986 27.55V26.4C13.9986 26.1813 13.8934 25.9715 13.706 25.8168C13.5187 25.6621 13.2645 25.5751 12.9995 25.575ZM19.9957 25.575C18.8912 25.575 17.9959 24.6796 17.9959 23.5752V16.0253C17.9959 14.9209 18.8912 14.0255 19.9957 14.0255C21.1001 14.0255 21.9955 14.9209 21.9955 16.0253V23.5752C21.9955 24.6796 21.1001 25.575 19.9957 25.575ZM22.9977 11.9624C22.9977 12.1902 22.813 12.3749 22.5852 12.3749H17.4108C17.183 12.3749 16.9983 12.1902 16.9983 11.9624C16.9983 11.7346 17.183 11.5499 17.4108 11.5499H22.5852C22.813 11.5499 22.9977 11.7346 22.9977 11.9624ZM16.9983 27.6375C16.9983 27.4096 17.183 27.225 17.4108 27.225H22.5852C22.813 27.225 22.9977 27.4096 22.9977 27.6375C22.9977 27.8653 22.813 28.05 22.5852 28.05H17.4108C17.183 28.05 16.9983 27.8653 16.9983 27.6375ZM23.9976 25.575C23.9972 25.575 23.9968 25.5746 23.9968 25.5742V14.4151C23.9968 14.1999 24.1759 14.0323 24.3795 13.9627C24.5008 13.9213 24.611 13.8605 24.7039 13.7839C24.7967 13.7073 24.8704 13.6163 24.9206 13.5162C24.9709 13.4162 24.9967 13.3089 24.9967 13.2005V12.0505C24.9967 11.7744 25.2206 11.5505 25.4967 11.5505C25.7728 11.5505 25.9966 11.7744 25.9966 12.0505V13.2005C25.9966 13.3089 26.0225 13.4162 26.0727 13.5162C26.123 13.6163 26.1966 13.7073 26.2895 13.7839C26.3823 13.8605 26.4926 13.9213 26.6139 13.9627C26.8174 14.0323 26.9965 14.1999 26.9965 14.4151V24.813C26.9965 25.2338 26.6141 25.5488 26.2895 25.8166C26.102 25.9713 25.9966 26.1812 25.9966 26.4V27.5504C25.9966 27.8263 25.773 28.05 25.4971 28.05C25.2212 28.05 24.9975 27.8263 24.9975 27.5504V26.4C24.9975 26.1812 24.8922 25.9713 24.7046 25.8166C24.5171 25.6619 24.2628 25.575 23.9976 25.575ZM27.9964 27.6375C27.9964 27.4096 28.1811 27.225 28.4089 27.225H33.5825C33.8104 27.225 33.995 27.4096 33.995 27.6375C33.995 27.8653 33.8104 28.05 33.5825 28.05H28.4089C28.1811 28.05 27.9964 27.8653 27.9964 27.6375ZM32.9959 23.5752C32.9959 24.6796 32.1006 25.575 30.9961 25.575C29.8917 25.575 28.9963 24.6796 28.9963 23.5752V16.0253C28.9963 14.9209 29.8917 14.0255 30.9961 14.0255C32.1006 14.0255 32.9959 14.9209 32.9959 16.0253V23.5752ZM33.9954 11.962C33.9957 12.19 33.8109 12.3749 33.5829 12.3749H28.4089C28.1811 12.3749 27.9964 12.1902 27.9964 11.9624C27.9964 11.7346 28.1811 11.5499 28.4089 11.5499H33.5829C33.8106 11.5499 33.9952 11.7343 33.9954 11.962ZM2.50444 9.90052C2.17635 9.90052 2.06229 9.69104 2.02324 9.566C1.99589 9.47834 1.93496 9.17928 2.28571 9.0233L17.3897 2.20412C18.1887 1.841 19.0861 1.65057 19.9984 1.65057C20.9106 1.65057 21.8081 1.841 22.6071 2.20412L37.7103 9.0233C38.061 9.18121 38.0001 9.47834 37.9728 9.566C37.9345 9.69104 37.8165 9.90052 37.4916 9.90052H2.50444ZM11.5874 11.5505C11.8151 11.5505 11.9996 11.735 11.9996 11.9627C11.9996 12.1903 11.815 12.3749 11.5874 12.3749H6.41344C6.18564 12.3749 6.00096 12.1902 6.00096 11.9624C6.00096 11.7346 6.18566 11.5499 6.41349 11.5499L11.5874 11.5505ZM7.00008 16.0253C7.00008 14.9209 7.89542 14.0255 8.99988 14.0255C10.1043 14.0255 10.9997 14.9209 10.9997 16.0253V23.5752C10.9997 24.6796 10.1043 25.575 8.99988 25.575C7.89542 25.575 7.00008 24.6796 7.00008 23.5752V16.0253ZM3.82175 31.35C3.04145 31.35 2.59495 30.5484 3.26887 30.1551C3.77501 29.8597 4.37953 29.7007 4.9995 29.7H34.9965C35.6166 29.7006 36.2213 29.8595 36.7276 30.1549C37.4017 30.5483 36.9552 31.35 36.1747 31.35H3.82175ZM19.998 8.24986C20.5913 8.24986 21.1713 8.1047 21.6645 7.83275C22.1578 7.56079 22.5423 7.17424 22.7694 6.72199C22.9964 6.26974 23.0558 5.7721 22.9401 5.292C22.8243 4.81189 22.5386 4.37089 22.1191 4.02475C21.6996 3.67861 21.1651 3.44289 20.5832 3.34739C20.0013 3.25189 19.3982 3.30091 18.8501 3.48823C18.3019 3.67556 17.8335 3.99279 17.5038 4.3998C17.1742 4.80682 16.9983 5.28534 16.9983 5.77485C16.9991 6.43105 17.3154 7.06019 17.8778 7.52419C18.4402 7.9882 19.2027 8.24918 19.998 8.24986ZM19.998 4.95017C19.998 4.94999 19.9981 4.94984 19.9983 4.94984C20.196 4.9499 20.3892 4.99828 20.5535 5.08888C20.718 5.17953 20.8461 5.30838 20.9218 5.45913C20.9975 5.60988 21.0173 5.77576 20.9787 5.9358C20.9401 6.09583 20.8449 6.24284 20.705 6.35821C20.5652 6.47359 20.387 6.55217 20.1931 6.584C19.9991 6.61583 19.7981 6.5995 19.6154 6.53705C19.4327 6.47461 19.2765 6.36887 19.1666 6.2332C19.0567 6.09752 18.9981 5.93802 18.9981 5.77485C18.9985 5.55621 19.104 5.34663 19.2915 5.19209C19.4788 5.03761 19.7328 4.95073 19.9977 4.95049C19.9979 4.95049 19.998 4.95034 19.998 4.95017Z" fill="white"/>
</svg>
