<svg width="225" height="47" viewBox="0 0 225 47" fill="none" xmlns="http://www.w3.org/2000/svg">
<g clip-path="url(#clip0_0_1)">
<path d="M215.607 31.0318C214.897 30.9594 212.896 30.6296 212.209 30.4717L211.784 30.3741L211.763 28.3954L211.743 26.4168L212.546 26.8005C213.583 27.2958 215.407 27.8954 216.529 28.1102C217.691 28.3323 219.114 28.301 219.792 28.0384C220.607 27.7225 220.903 27.1218 220.579 26.4388C220.329 25.9125 219.326 25.3187 217.73 24.7524C214.088 23.4595 212.575 22.5003 211.843 21.0201C211.598 20.5243 211.556 20.3586 211.528 19.7719C211.468 18.5099 211.77 17.7182 212.64 16.8561C213.953 15.5554 216.308 14.8857 219.156 15.0026C220.343 15.0513 222.148 15.2834 223.059 15.5044L223.6 15.6356L223.62 17.5083C223.632 18.5383 223.614 19.381 223.582 19.381C223.549 19.381 223.111 19.2066 222.608 18.9935C220.399 18.0573 218.427 17.7199 216.969 18.0286C216.35 18.1598 216 18.3448 215.844 18.6233C215.687 18.9025 215.831 19.3475 216.195 19.7122C216.531 20.048 217.528 20.5732 218.541 20.9485C220.763 21.7713 221.206 21.9472 221.795 22.2428C223.257 22.976 224.217 23.8123 224.641 24.7241C225.426 26.4105 224.889 28.451 223.364 29.5778C222.413 30.2804 220.822 30.8365 219.198 31.0343C218.4 31.1313 216.57 31.1301 215.607 31.0318ZM60.6792 30.8184C59.4191 30.7928 58.3704 30.7541 58.3488 30.7324C58.3272 30.7108 58.3454 29.703 58.3893 28.4929C58.469 26.2936 58.4214 16.7726 58.3261 15.8809L58.2781 15.4311L63.0954 15.4606L67.9128 15.4902L68.685 15.6969C70.2824 16.1244 71.4332 16.9231 71.9345 17.9524C72.1332 18.3603 72.1602 18.4993 72.1602 19.1147C72.1602 19.7674 72.1409 19.8528 71.8694 20.4021C71.5179 21.1134 70.7553 21.8647 70.0401 22.2044C69.7833 22.3264 69.5731 22.447 69.5731 22.4725C69.5731 22.498 69.766 22.5988 70.0017 22.6965C70.6364 22.9596 71.4878 23.5464 71.9515 24.0406C72.9635 25.1188 73.2262 26.7214 72.604 28.0202C72.1671 28.9322 71.0202 29.856 69.7223 30.3413C68.581 30.7681 68.0808 30.8271 65.4415 30.8467C64.0824 30.8568 61.9393 30.8441 60.6792 30.8184ZM66.793 28.3537C67.468 28.1338 67.8714 27.858 68.1803 27.4053C68.4008 27.0822 68.4432 26.9448 68.4749 26.4496C68.5381 25.4658 68.2132 24.953 67.2294 24.4834C66.3885 24.082 66.003 24.0146 64.5497 24.0146C63.6134 24.0146 63.3189 23.9914 63.3222 23.918C63.3246 23.8649 63.5456 23.2655 63.8133 22.5859L64.3001 21.3503L65.2184 21.3029C66.2428 21.2501 66.6883 21.1237 67.1278 20.7615C67.5254 20.4337 67.7197 20.0213 67.7197 19.505C67.7197 18.9964 67.6245 18.7204 67.348 18.4279C66.8332 17.8834 66.0755 17.6836 64.3146 17.6277C63.0353 17.5872 62.9525 17.5932 62.8957 17.7299C62.8188 17.9151 62.7383 27.9143 62.8106 28.2995L62.8646 28.5875L64.5778 28.5524C66.0514 28.5222 66.3612 28.4944 66.793 28.3537ZM76.5534 29.1694C76.7729 21.859 76.7729 22.1308 76.5522 16.6974L76.5013 15.4425H78.7009H80.9005L81.3569 16.1197C84.2698 20.4416 86.6831 23.9246 86.702 23.834C86.7149 23.7721 86.6541 22.0562 86.5669 20.0209C86.4797 17.9856 86.4083 16.1228 86.4083 15.8814V15.4425H88.4639H90.5194L90.4715 16.0024C90.148 19.7841 90.1489 26.8256 90.4734 30.3664L90.5212 30.8876H88.8638H87.2064L84.5871 27.0843C83.1465 24.9924 81.6551 22.8079 81.2728 22.2297C80.8905 21.6515 80.5334 21.1128 80.4791 21.0327C80.3988 20.9139 80.3879 21.6445 80.4206 24.9799C80.4426 27.231 80.4831 29.4812 80.5106 29.9802L80.5607 30.8876H78.5312H76.5018L76.5534 29.1694ZM94.7824 30.3278C94.8723 29.2524 94.9802 25.3485 94.9802 23.1651C94.9802 20.9816 94.8723 17.0777 94.7824 16.0024L94.7355 15.4425L98.6227 15.4433C102.76 15.4441 104.263 15.5121 105.523 15.7552C108.659 16.3604 110.326 17.9747 110.172 20.2582C110.067 21.8274 109.275 22.924 107.687 23.6997C106.144 24.4538 104.153 24.7868 101.189 24.7868C100.323 24.7868 99.6143 24.8129 99.6149 24.8447C99.6393 26.2137 99.8694 29.956 99.9688 30.5981L100.014 30.8876H97.3745H94.7355L94.7824 30.3278ZM102.433 22.2792C104.272 21.9801 105.199 21.3661 105.417 20.3021C105.638 19.2246 104.924 18.4594 103.33 18.0677C102.569 17.8807 101.442 17.7593 100.466 17.7593H99.6911V20.0761V22.3928H100.714C101.277 22.3928 102.05 22.3416 102.433 22.2795V22.2792ZM118.022 29.8644C118.231 25.6378 118.231 20.8384 118.022 16.4964L117.97 15.4265L122.596 15.464C126.344 15.4944 127.376 15.5254 128.033 15.6272C131.6 16.1805 133.405 17.6688 133.381 20.0374C133.364 21.7054 132.556 22.8832 130.865 23.7043C129.351 24.4398 127.866 24.7046 124.913 24.7651L122.836 24.8076L122.888 26.271C122.937 27.6154 123.006 28.7278 123.137 30.2891L123.188 30.8876H120.58H117.971L118.022 29.8644H118.022ZM125.508 22.3098C126.684 22.134 127.507 21.8159 128.048 21.3276C128.912 20.5495 128.854 19.2736 127.926 18.6346C127.165 18.1099 125.302 17.7315 123.698 17.7758L122.897 17.7979L122.877 20.0954L122.856 22.3928H123.905C124.481 22.3928 125.203 22.3555 125.508 22.3098ZM131.817 30.8593C131.817 30.8437 132.307 29.8272 132.906 28.6004C134.898 24.5205 137.408 19.148 138.576 16.4643L139.022 15.4396L140.725 15.4604L142.428 15.4811L146.042 23.1257C148.03 27.3302 149.656 30.7971 149.656 30.83C149.656 30.8629 148.54 30.8806 147.176 30.8694L144.696 30.849L143.98 29.1115L143.264 27.3739L140.34 27.3542L137.416 27.3346L136.808 29.1111L136.2 30.8876H134.009C132.803 30.8876 131.817 30.8749 131.817 30.8593ZM142.165 24.8061C142.165 24.6646 140.347 20.7825 140.304 20.8318C140.277 20.8621 139.898 21.6862 139.462 22.6631C139.026 23.64 138.621 24.5349 138.562 24.6517L138.454 24.864H140.31C141.33 24.864 142.165 24.838 142.165 24.8061ZM150.924 30.0961C151.187 26.002 151.187 18.9373 150.923 15.996L150.872 15.4297L155.419 15.4645C159.606 15.4966 160.033 15.5121 160.816 15.6595C162.283 15.9356 163.497 16.3877 164.353 16.9773C164.838 17.3104 165.483 18.0429 165.69 18.4929C165.952 19.0645 166.058 19.8814 165.956 20.5376C165.697 22.2051 164.758 23.2074 162.653 24.0613C162.493 24.1259 162.645 24.3474 164.989 27.4698C166.367 29.3065 167.495 30.8273 167.495 30.8494C167.495 30.8715 166.258 30.8805 164.745 30.8693L161.995 30.849L159.333 26.7561C157.868 24.505 156.639 22.6052 156.601 22.5344C156.537 22.4175 156.617 22.4058 157.476 22.4069C159.078 22.4088 160.191 22.0672 160.805 21.3845C161.179 20.9681 161.318 20.5886 161.315 19.9899C161.31 18.5674 159.866 17.812 157.134 17.802C156.512 17.7998 155.973 17.8268 155.937 17.8622C155.649 18.1494 155.617 25.8899 155.887 30.1347L155.935 30.8876H153.404H150.873L150.924 30.0961ZM168.682 30.7525C168.731 30.584 168.865 28.8086 168.963 27.0264C169.154 23.5686 168.987 16.8838 168.679 15.6163L168.637 15.4425H171.354H174.072L174.028 15.6549C173.941 16.0842 173.833 17.4587 173.744 19.2652C173.606 22.0499 173.711 27.1046 173.971 30.2119L174.027 30.8876H171.335C168.808 30.8876 168.646 30.8794 168.682 30.7525ZM179.8 30.8143C178.433 30.7909 177.292 30.748 177.263 30.719C177.234 30.6899 177.253 29.1434 177.307 27.2824C177.398 24.0739 177.379 20.4393 177.253 16.8847L177.201 15.431L182.407 15.4631C187.359 15.4937 187.647 15.5032 188.318 15.6578C189.327 15.8898 190.176 16.2384 190.799 16.6756C191.424 17.1149 191.743 17.4733 192.036 18.0682C192.212 18.4247 192.246 18.5922 192.244 19.1107C192.243 19.6441 192.208 19.8013 191.992 20.2611C191.641 21.007 190.906 21.718 190.065 22.1253C189.717 22.2937 189.431 22.4507 189.43 22.4742C189.428 22.4977 189.697 22.6274 190.026 22.7624C191.281 23.2772 192.301 24.1381 192.759 25.0688C193.008 25.5729 193.018 25.6309 193.018 26.4842C193.018 27.3286 193.005 27.401 192.766 27.9064C192.587 28.2847 192.359 28.5914 191.978 28.9655C191.028 29.8983 189.289 30.5956 187.381 30.8087C186.671 30.8881 184.218 30.8899 179.8 30.8143ZM185.887 28.4618C187.515 28.1487 188.266 27.466 188.268 26.2978C188.27 25.4528 187.911 24.9768 186.917 24.5062C186.108 24.1227 185.453 24.0146 183.939 24.0146C183.22 24.0146 182.631 23.9879 182.631 23.9553C182.631 23.9227 182.873 23.3232 183.168 22.6231L183.704 21.3503L184.693 21.3033C185.796 21.2508 186.305 21.1219 186.787 20.7729C187.561 20.2123 187.68 19.0056 187.021 18.4051C186.44 17.8751 185.62 17.6831 183.704 17.6279L182.19 17.5842L182.137 17.8069C182.062 18.1203 181.981 27.4337 182.048 28.0576L182.103 28.5709H183.712C184.778 28.5709 185.512 28.5341 185.887 28.4618ZM193.081 30.7911C193.103 30.738 193.806 29.2871 194.643 27.5669C196.397 23.9605 198.037 20.4598 199.354 17.5069L200.275 15.4397L201.972 15.4604L203.668 15.4811L207.282 23.1257C209.27 27.3302 210.896 30.7971 210.896 30.83C210.896 30.8629 209.781 30.8806 208.419 30.8694L205.942 30.849L205.223 29.1115L204.505 27.3739L201.596 27.3536L198.687 27.3334L198.587 27.5853C198.532 27.7239 198.251 28.5236 197.964 29.3624L197.441 30.8876H195.241C193.51 30.8876 193.049 30.867 193.081 30.7911ZM203.405 24.8061C203.405 24.6646 201.587 20.7825 201.544 20.8318C201.517 20.8621 201.095 21.7818 200.605 22.8755L199.716 24.864H201.56C202.575 24.864 203.405 24.838 203.405 24.8061Z" fill="white"/>
<path d="M46.0956 46.0956H0V0H46.0956V46.0956Z" fill="url(#paint0_linear_0_1)"/>
<path d="M2.4199 43.1934C0.235344 27.7405 0.804838 14.8373 2.4199 2.90215C2.55591 1.89709 3.2364 1.07143 4.25062 1.07143H43.2767C44.2909 1.07143 45.1074 1.88793 45.1074 2.90215V43.1934C45.1074 44.2076 44.2909 45.0241 43.2767 45.0241H4.25062C3.2364 45.0241 2.56187 44.1976 2.4199 43.1934Z" fill="#007744"/>
<path d="M45.1074 2.90215V43.1934C45.1074 44.2076 44.2909 45.0241 43.2767 45.0241H4.25062C3.2364 45.0241 2.56188 44.1976 2.41991 43.1934C0.23534 27.7405 0.804839 14.8373 2.41991 2.90215C2.55591 1.89709 3.2364 1.07143 4.25062 1.07143H43.2767C44.2909 1.07143 45.1074 1.88793 45.1074 2.90215Z" fill="url(#paint1_linear_0_1)"/>
<path d="M18.1132 40.4719C18.1356 40.4528 18.3771 40.2787 18.6503 40.0849C19.4964 39.4848 20.4769 38.6633 20.4007 38.6182C20.3832 38.6078 20.2826 38.586 20.1772 38.5697C19.8687 38.5218 19.1268 38.2998 18.6657 38.1172C18.1696 37.9209 17.9875 37.8265 18.1 37.8242C18.567 37.8148 20.378 37.5754 21.2337 37.4101L21.8002 37.3007L22.0297 37.0398C22.3666 36.6571 22.9801 35.8833 23.4927 35.1946C23.7402 34.8621 23.9553 34.5979 23.9708 34.6075C23.9864 34.617 24.0117 34.7836 24.0273 34.9777C24.0779 35.6068 24.1924 36.3742 24.2356 36.3742C24.3713 36.3742 26.1503 35.3478 26.9527 34.8065C27.1978 34.6412 27.4048 34.5241 27.4128 34.5464C27.4311 34.5973 26.7855 35.2994 26.2371 35.8248C25.7745 36.268 25.0678 36.881 24.6535 37.1985L24.3839 37.4051L24.4114 37.6721C24.4339 37.8921 24.5129 38.243 24.6378 38.6793C24.6651 38.7743 24.4986 38.7965 23.5026 38.8307L22.6741 38.8593L22.3288 39.043C21.3753 39.5502 19.9436 40.0797 18.7087 40.3819C18.1797 40.5113 18.0433 40.5319 18.1132 40.4719ZM10.7106 39.3144C10.0256 38.6831 9.30505 37.6675 8.73834 36.5345L8.37517 35.8083L8.06691 35.6743C7.37026 35.3714 6.16286 34.7006 5.22383 34.0948L4.9043 33.8886L5.24515 33.7265C5.75698 33.4829 6.42934 33.2243 6.90662 33.0873C7.14094 33.02 7.35299 32.9576 7.37786 32.9487C7.40916 32.9373 7.40608 32.8235 7.36749 32.5764C7.21994 31.6314 7.25356 29.5886 7.44169 28.0668C7.48657 27.7036 7.52356 27.391 7.52383 27.372C7.52383 27.353 7.54131 27.348 7.562 27.3608C7.5825 27.3736 7.61324 27.4754 7.6298 27.587C7.68826 27.9815 8.03888 29.3007 8.25138 29.9257C8.49705 30.6483 8.84884 31.4578 9.14676 31.9862C9.46193 32.5451 9.37719 32.505 9.99526 32.3879C10.4998 32.2924 11.983 32.0674 12.5248 32.0042L12.7751 31.9751L12.6053 32.2256C12.1848 32.8458 11.6776 33.8167 11.4003 34.5322L11.2804 34.8415L11.5877 35.1199C12.2591 35.7279 13.4774 36.5361 14.6108 37.1253L15.1288 37.3945L14.9371 37.3956C14.3524 37.3987 12.1123 37.0671 11.3798 36.8687C11.1689 36.8117 10.9677 36.7585 10.9325 36.7507C10.8845 36.74 10.8651 36.7841 10.8547 36.9281C10.832 37.2429 10.9273 38.7511 10.9974 39.1813C11.0332 39.4014 11.0559 39.5881 11.0477 39.5963C11.0395 39.6045 10.8878 39.4776 10.7106 39.3144ZM8.10698 25.3123C8.07705 25.2824 8.24211 24.9503 8.64332 24.2326C9.67558 22.386 11.0718 20.3763 12.2635 19.0216C12.4453 18.815 12.594 18.631 12.594 18.6128C12.594 18.4897 11.9382 18.1461 11.2947 17.932C10.6182 17.7069 9.99384 17.5672 9.16455 17.4552C8.26801 17.3341 8.24542 17.3245 8.59027 17.2111C9.05856 17.0572 10.0328 16.8259 10.5917 16.736C11.8115 16.5399 12.2277 16.5094 13.7922 16.5017L15.3098 16.4941L15.5176 16.3417C16.2019 15.8397 17.2729 15.2501 18.1783 14.8769C18.7397 14.6455 19.5005 14.3895 19.5451 14.417C19.562 14.4274 19.4827 14.5856 19.3691 14.7686C18.9223 15.4891 18.3447 16.7717 18.4431 16.8251C18.4713 16.8404 18.619 16.8665 18.7714 16.883C19.8729 17.0026 21.5952 17.5009 23.1354 18.1455C24.0695 18.5365 25.7493 19.4052 25.6841 19.4636C25.6661 19.4796 25.3928 19.4577 25.0765 19.4149C24.3621 19.3184 22.9681 19.1797 22.0943 19.1183C21.2366 19.058 19.396 19.0591 18.7714 19.1204C18.1039 19.1859 17.4454 19.3212 17.3608 19.4103C17.0929 19.6924 16.2228 22.5593 15.8972 24.2326C15.8356 24.5489 15.7652 24.9106 15.7406 25.0363L15.6959 25.2648L15.5282 24.8872C15.1079 23.9405 14.4835 22.1129 14.1876 20.9629C14.1197 20.6993 14.0476 20.4836 14.0273 20.4836C13.9729 20.4836 13.246 20.9916 12.6366 21.4555C11.5286 22.299 10.2604 23.3722 9.14803 24.4077C8.28987 25.2065 8.13541 25.3407 8.10698 25.3123ZM37.5458 20.4836C37.5335 20.4485 37.5124 20.0363 37.4986 19.5677C37.4334 17.3336 37.0951 15.2129 36.5582 13.6734C36.3658 13.1218 36.1541 12.6448 36.1018 12.6448C36.0797 12.6448 35.9818 12.6991 35.8838 12.7655C35.1746 13.2462 29.6695 16.1007 29.6167 16.0152C29.6024 15.9925 29.6933 15.8623 29.8181 15.7259C30.7151 14.7456 32.4585 12.5054 32.7434 11.9671L32.7977 11.8645L31.9086 11.8943C29.1887 11.9852 26.0183 12.3339 23.7869 12.7875C23.5049 12.8448 23.275 12.8726 23.2617 12.851C23.2328 12.804 24.0501 12.4099 24.9699 12.0274C27.1701 11.1124 30.2342 10.1905 32.6067 9.7297C32.9173 9.66938 33.1834 9.62002 33.198 9.62002C33.2404 9.62002 32.6294 9.14332 32.2302 8.86485C31.0076 8.0121 28.8592 6.76475 27.0414 5.85226C26.5065 5.58373 26.5567 5.5446 27.3191 5.63594C28.4331 5.76942 29.8157 6.02406 31.2714 6.36385C33.9908 6.99858 36.1287 7.77112 37.2885 8.53813L37.6357 8.76778L38.0553 8.68126C38.9129 8.50444 41.1021 8.28942 41.1864 8.37372C41.2305 8.41789 40.907 8.97233 40.62 9.34427C40.332 9.71747 39.8209 10.213 39.4762 10.4533L39.1743 10.6638L39.1997 11.1963C39.2638 12.5414 39.0563 14.7065 38.6852 16.5642C38.3774 18.1054 37.6222 20.7028 37.5458 20.4836Z" fill="white"/>
</g>
<defs>
<linearGradient id="paint0_linear_0_1" x1="23.0478" y1="-1.82053e-06" x2="23.0478" y2="46.0956" gradientUnits="userSpaceOnUse">
<stop stop-color="#057B5B"/>
<stop offset="1" stop-color="#04A47B"/>
</linearGradient>
<linearGradient id="paint1_linear_0_1" x1="23.7636" y1="1.07143" x2="23.5932" y2="39.2302" gradientUnits="userSpaceOnUse">
<stop stop-color="white"/>
<stop offset="1" stop-color="#007744" stop-opacity="0"/>
</linearGradient>
<clipPath id="clip0_0_1">
<rect width="225" height="46.0956" rx="8" fill="white"/>
</clipPath>
</defs>
</svg>
