<svg width="28" height="23" viewBox="0 0 28 23" fill="none" xmlns="http://www.w3.org/2000/svg">
<path d="M13.5899 22.8028L8.15536 16.4042C7.80953 15.9952 8.08125 15.3232 8.5753 15.3232L12.1324 15.3232L12.0306 11.9995C12.0139 11.4525 12.4527 11 13 11L15 11.0001C15.548 11.0001 15.9882 11.4519 15.9739 11.9997L15.8872 15.3232L19.4197 15.3232C19.9384 15.3232 20.1854 15.9952 19.8396 16.4042L14.4298 22.8028C14.2075 23.0657 13.8122 23.0657 13.5899 22.8028Z" fill="white"/>
<path d="M21.5899 11.8028L16.1554 5.40425C15.8095 4.99521 16.0813 4.32322 16.5753 4.32322L20.1324 4.32322L20.0306 0.9995C20.0139 0.452504 20.4527 5.3665e-06 21 5.36492e-06L23 6.2818e-05C23.548 6.28165e-05 23.9882 0.451894 23.9739 0.999723L23.8872 4.32322L27.4197 4.32322C27.9384 4.32322 28.1854 4.99521 27.8396 5.40425L22.4298 11.8028C22.2075 12.0657 21.8122 12.0657 21.5899 11.8028Z" fill="white"/>
<path d="M5.58989 11.8028L0.155359 5.40425C-0.190474 4.99521 0.0812522 4.32322 0.575301 4.32322L4.13245 4.32322L4.03062 0.9995C4.01386 0.452504 4.45275 5.3665e-06 5 5.36492e-06L7 6.2818e-05C7.54802 6.28165e-05 7.98821 0.451894 7.97392 0.999723L7.88722 4.32322L11.4197 4.32322C11.9384 4.32322 12.1854 4.99521 11.8396 5.40425L6.42977 11.8028C6.20745 12.0657 5.81221 12.0657 5.58989 11.8028Z" fill="white"/>
</svg>
