<svg width="51" height="33" viewBox="0 0 51 33" fill="none" xmlns="http://www.w3.org/2000/svg">
<path id="image 77 (Traced)" fill-rule="evenodd" clip-rule="evenodd" d="M2.71601 0.121631C2.46704 0.213257 1.94497 0.57467 1.55568 0.924105C-0.0120385 2.33233 3.30107e-05 2.21106 3.30107e-05 16.5313C3.30107e-05 30.9675 -0.0292392 30.6896 1.65557 32.2514L2.46282 33H25.5H48.5372L49.3444 32.2514C51.0292 30.6896 51 30.9675 51 16.5313C51 2.09518 51.0292 2.37335 49.3447 0.81122L48.5375 0.0626438L25.8531 0.00844699C13.3765 -0.0211966 2.96497 0.0297061 2.71601 0.121631ZM47.9822 2.90723C48.4249 3.3465 48.5858 3.90524 48.5858 5.00325V6.5004H25.5H2.41423V5.00325C2.41423 3.90524 2.57508 3.3465 3.01778 2.90723C3.61016 2.31945 4.0236 2.30837 25.5 2.30837C46.9764 2.30837 47.3898 2.31945 47.9822 2.90723ZM48.5858 21.4719C48.5858 29.1574 48.5559 29.5862 47.9822 30.1554C47.3898 30.7432 46.9764 30.7543 25.5 30.7543C4.0236 30.7543 3.61016 30.7432 3.01778 30.1554C2.44411 29.5862 2.41423 29.1574 2.41423 21.4719V13.3873H25.5H48.5858V21.4719ZM6.32282 18.8528C3.53442 20.7174 3.38263 24.6878 6.02798 26.5569C7.06971 27.2929 8.66519 27.6222 9.80952 27.3372L10.5984 27.1407L9.85177 26.2601C8.15338 24.2575 8.06859 21.671 9.62876 19.4744L10.5498 18.1782H8.94071C7.77134 18.1782 7.05643 18.3623 6.32282 18.8528ZM11.9035 18.4492C10.8193 18.9133 9.42687 20.7638 9.21171 22.0265C8.79556 24.4704 10.7393 27.0407 13.257 27.3758C15.6658 27.6965 17.7058 26.3125 18.4481 23.8539C18.9277 22.2657 18.4478 20.7198 17.0615 19.3867C16.1423 18.5025 15.769 18.3546 14.2622 18.2752C13.3062 18.2249 12.2445 18.3034 11.9035 18.4492ZM22.0899 21.8312C21.8908 22.0289 21.7278 22.4166 21.7278 22.693C21.7278 23.6832 22.4726 23.8916 25.6949 23.8033C28.6982 23.7209 28.8234 23.6907 28.9182 23.0275C29.1044 21.7243 28.5292 21.4719 25.3727 21.4719C23.5035 21.4719 22.3217 21.6013 22.0899 21.8312ZM30.8414 21.8312C30.6422 22.0289 30.4793 22.4166 30.4793 22.693C30.4793 23.6832 31.2241 23.8916 34.4464 23.8033C37.4497 23.7209 37.5749 23.6907 37.6697 23.0275C37.8559 21.7243 37.2807 21.4719 34.1241 21.4719C32.2549 21.4719 31.0732 21.6013 30.8414 21.8312ZM39.5929 21.8312C39.3937 22.0289 39.2308 22.4166 39.2308 22.693C39.2308 23.6832 39.9755 23.8916 43.1979 23.8033C46.2011 23.7209 46.3264 23.6907 46.4211 23.0275C46.6073 21.7243 46.0322 21.4719 42.8756 21.4719C41.0064 21.4719 39.8246 21.6013 39.5929 21.8312Z" fill="white"/>
</svg>
