<svg width="40" height="26" viewBox="0 0 40 26" fill="none" xmlns="http://www.w3.org/2000/svg">
<path fill-rule="evenodd" clip-rule="evenodd" d="M2.1302 0.0958307C1.93493 0.168021 1.52547 0.45277 1.22014 0.728083C-0.00944193 1.83759 2.58908e-05 1.74205 2.58908e-05 13.0247C2.58908e-05 24.3986 -0.0229327 24.1797 1.29849 25.4102L1.93162 26H20H38.0684L38.7015 25.4102C40.0229 24.1797 40 24.3986 40 13.0247C40 1.65075 40.0229 1.86991 38.7018 0.639143L38.0686 0.0493558L20.2769 0.00665521C10.4914 -0.0167004 2.32547 0.0234048 2.1302 0.0958307ZM37.6331 2.29055C37.9803 2.63664 38.1065 3.07685 38.1065 3.94195V5.12153H20H1.89351V3.94195C1.89351 3.07685 2.01967 2.63664 2.36689 2.29055C2.8315 1.82745 3.15576 1.81872 20 1.81872C36.8442 1.81872 37.1685 1.82745 37.6331 2.29055ZM38.1065 16.9173C38.1065 22.9725 38.0831 23.3103 37.6331 23.7588C37.1685 24.2219 36.8442 24.2306 20 24.2306C3.15576 24.2306 2.8315 24.2219 2.36689 23.7588C1.91695 23.3103 1.89351 22.9725 1.89351 16.9173V10.5476H20H38.1065V16.9173ZM4.95907 14.8537C2.77209 16.3228 2.65304 19.451 4.72783 20.9236C5.54487 21.5035 6.79623 21.763 7.69374 21.5384L8.31244 21.3836L7.72688 20.6898C6.39481 19.112 6.3283 17.0742 7.55197 15.3435L8.27433 14.3222H7.01232C6.09517 14.3222 5.53446 14.4673 4.95907 14.8537ZM9.33611 14.5357C8.4857 14.9014 7.39363 16.3593 7.22487 17.3542C6.89848 19.2797 8.42297 21.3048 10.3976 21.5688C12.2869 21.8215 13.8869 20.7311 14.4691 18.794C14.8452 17.5427 14.4689 16.3247 13.3815 15.2744C12.6606 14.5777 12.3678 14.4612 11.186 14.3986C10.4362 14.359 9.60356 14.4208 9.33611 14.5357ZM17.3254 17.2004C17.1692 17.3561 17.0414 17.6616 17.0414 17.8793C17.0414 18.6595 17.6256 18.8237 20.1529 18.7541C22.5084 18.6892 22.6066 18.6654 22.6809 18.1429C22.827 17.1162 22.3759 16.9173 19.9001 16.9173C18.4341 16.9173 17.5072 17.0192 17.3254 17.2004ZM24.1893 17.2004C24.0331 17.3561 23.9053 17.6616 23.9053 17.8793C23.9053 18.6595 24.4895 18.8237 27.0168 18.7541C29.3723 18.6892 29.4705 18.6654 29.5448 18.1429C29.6909 17.1162 29.2398 16.9173 26.764 16.9173C25.298 16.9173 24.3711 17.0192 24.1893 17.2004ZM31.0532 17.2004C30.897 17.3561 30.7692 17.6616 30.7692 17.8793C30.7692 18.6595 31.3534 18.8237 33.8807 18.7541C36.2362 18.6892 36.3344 18.6654 36.4087 18.1429C36.5548 17.1162 36.1036 16.9173 33.6279 16.9173C32.1619 16.9173 31.235 17.0192 31.0532 17.2004Z" fill="#1E0654"/>
</svg>
