<svg width="40" height="28" viewBox="0 0 40 28" fill="none" xmlns="http://www.w3.org/2000/svg">
<path fill-rule="evenodd" clip-rule="evenodd" d="M11.6881 3.66044C6.26137 5.67003 1.6056 7.44376 1.34165 7.60195C0.573672 8.06254 0.0798762 8.91644 0.00929162 9.90581C-0.0475023 10.7036 0.0979674 11.1815 2.12475 16.8552C3.35079 20.2875 4.46205 23.1621 4.66951 23.4384C4.87222 23.7083 5.31767 24.0765 5.65962 24.2565C6.6398 24.7729 7.46309 24.6917 9.72891 23.8545L11.6937 23.1287V20.7429C11.6937 19.3604 11.6353 18.357 11.5548 18.357C11.4784 18.357 10.5943 18.6673 9.58997 19.0464C8.58577 19.4256 7.61419 19.7388 7.43091 19.7426C6.95061 19.7524 6.62986 19.4227 6.68146 18.9721C6.73589 18.497 7.07902 18.3113 9.69184 17.3415L11.6196 16.6261L11.6937 14.0672C11.7578 11.8588 11.8119 11.4116 12.0896 10.8016C12.5005 9.89888 13.489 8.89567 14.437 8.41912L15.1785 8.04644L21.2287 8.00098L27.279 7.95552L27.1777 7.62468C26.6366 5.85547 24.9577 1.49371 24.6711 1.11214C24.173 0.449254 23.1926 -0.00787476 22.2864 0.000102788C21.7105 0.00522046 19.4543 0.784461 11.6881 3.66044ZM15.8334 9.76462C15.0076 9.93215 14.2505 10.4898 13.8055 11.2581L13.399 11.96L13.3545 18.5076C13.3215 23.3781 13.3572 25.2274 13.4941 25.7275C13.7273 26.5799 14.6641 27.5541 15.4922 27.8052C16.2977 28.0495 36.9793 28.0714 37.8398 27.8289C38.1514 27.741 38.6646 27.4323 38.9803 27.1429C40.0345 26.1761 40.0321 26.1969 39.9846 18.558L39.9424 11.7598L39.491 11.1073C39.2426 10.7484 38.7422 10.2854 38.3788 10.0785L37.7181 9.70215L27.0414 9.67943C21.1693 9.66693 16.1256 9.70532 15.8334 9.76462ZM8.56753 10.7495C8.88353 10.9153 9.08075 11.2295 9.37569 12.0375C10.0624 13.9179 9.92272 14.1858 7.85278 14.9576C5.75437 15.74 5.44208 15.612 4.80445 13.7091C4.25771 12.0777 4.40037 11.8489 6.46244 11.0489C7.96874 10.4644 8.01264 10.4582 8.56753 10.7495ZM37.7228 12.2473C37.8813 12.4928 37.9423 12.8695 37.9116 13.4138L37.8664 14.2177H26.6707H15.475L15.4276 13.63C15.3689 12.9009 15.4801 12.4279 15.7824 12.121C15.9897 11.9106 17.1934 11.8847 26.752 11.8847H37.4888L37.7228 12.2473ZM37.9405 21.6V25.1441L37.5737 25.5165L37.2068 25.8889L26.6056 25.8483C16.6613 25.8103 15.9881 25.7911 15.7397 25.5392C15.5031 25.2992 15.4703 24.8888 15.4304 21.6634L15.3859 18.056H26.6631H37.9405V21.6ZM17.7364 20.1753C17.4384 20.3516 17.3881 21.0665 17.6549 21.3373C17.787 21.4714 19.2903 21.518 23.5017 21.518C28.4573 21.518 29.1997 21.4882 29.4035 21.2815C29.713 20.9672 29.6981 20.5676 29.3652 20.2619C29.1229 20.0392 28.5044 20.0132 23.545 20.0173C20.0527 20.0203 17.8997 20.0788 17.7364 20.1753Z" fill="white"/>
</svg>
