<svg width="28" height="30" viewBox="0 0 28 30" fill="none" xmlns="http://www.w3.org/2000/svg">
<path d="M8.49092 2.56995L4.12257 9.25266C3.74648 9.86018 4.29614 10.6123 4.96152 10.4098L7.40555 9.94697L7.42053 18.3944C7.44946 18.7994 7.79661 19.0887 8.17269 19.0887L10.082 19.0887C10.4871 19.0887 10.8053 18.7994 10.8342 18.3944L10.8492 9.94697L13.2932 10.4098C13.9875 10.6123 14.5372 9.83125 14.1322 9.25266L9.76381 2.56995C9.47452 2.10708 8.80914 2.10708 8.49092 2.56995Z" fill="#9101FF"/>
<path d="M17.4667 11.8284L17.4517 20.2758L15.0077 19.813C14.3134 19.6105 13.7637 20.3915 14.1688 20.9701L18.5371 27.6528C18.8264 28.1157 19.5207 28.1157 19.81 27.6528L24.1784 20.9701C24.5544 20.3626 24.0048 19.6105 23.3394 19.813L20.8954 20.2758L20.8804 11.8284C20.8515 11.4234 20.5043 11.1341 20.1282 11.1341L18.2189 11.1341C17.8428 11.1341 17.5246 11.4234 17.4667 11.8284Z" fill="#9101FF"/>
</svg>
