<svg width="98" height="63" viewBox="0 0 98 63" fill="none" xmlns="http://www.w3.org/2000/svg">
<g clip-path="url(#clip0_0_1)">
<path d="M30.1356 50.4028L29.9579 50.5732C27.1663 53.3884 23.9358 54.8757 20.6082 54.8757C13.6584 54.8757 8.61692 49.7155 8.61692 42.5979C8.61692 35.4914 13.6584 30.323 20.6082 30.323C23.9358 30.323 27.1663 31.8185 29.9579 34.6446L30.1356 34.8123L34.6049 29.4625L34.4855 29.3195C30.7689 24.9731 26.308 22.859 20.8248 22.859C15.3278 22.859 10.2946 24.6927 6.67254 27.9944C2.72823 31.5738 0.653301 36.6213 0.653301 42.5979C0.653301 48.5746 2.72823 53.6331 6.67254 57.2125C10.2946 60.5334 15.3278 62.3534 20.8248 62.3534C26.308 62.3534 30.7689 60.2365 34.4855 55.8874L34.6049 55.7554L30.1356 50.4028Z" fill="#004685"/>
<path d="M39.1189 61.6237H47.0131V23.4764H39.1189V61.6237Z" fill="#004685"/>
<path d="M77.9412 53.3309C75.8329 54.601 73.8747 55.2416 72.1136 55.2416C69.5609 55.2416 68.4054 53.9055 68.4054 50.9364V30.6943H76.4524V23.5135H68.4054V11.6427L60.6696 15.7444V23.5135H53.992V30.6943H60.6696V52.2257C60.6696 58.0897 64.1805 62.1035 69.4248 62.2079C72.983 62.2767 75.1274 61.2265 76.4274 60.4567L76.5107 60.4045L78.4078 53.0477L77.9412 53.3309Z" fill="#004685"/>
<path d="M84.4757 61.6237H92.381V23.4764H84.4757V61.6237Z" fill="#004685"/>
<path d="M96.9855 16.7897C89.7719 6.67829 77.7945 0.646636 65.6088 0.646636C53.4259 0.646636 41.4457 6.67829 34.246 16.7897L33.8738 17.3093H42.9568L43.0568 17.2021C49.2371 10.8845 57.3091 7.54702 65.6088 7.54702C73.9085 7.54702 81.9749 10.8845 88.1692 17.2021L88.2692 17.3093H97.3466L96.9855 16.7897Z" fill="#EE1C25"/>
</g>
<defs>
<clipPath id="clip0_0_1">
<rect width="98" height="63" fill="white"/>
</clipPath>
</defs>
</svg>
