<svg width="135" height="150" viewBox="0 0 135 150" fill="none" xmlns="http://www.w3.org/2000/svg">
<path fill-rule="evenodd" clip-rule="evenodd" d="M31.5874 56.8708C44.1308 31.8545 68.3386 17.6916 90.0882 20.7614L91.8788 18.9358L102.755 24.7351C103.261 24.9911 103.759 25.2569 104.249 25.5319L104.313 25.5659L104.313 25.5676C127.302 38.5038 134.105 71.9503 119.38 101.317C104.325 131.343 72.468 145.733 48.2247 133.46C45.1466 131.901 42.3394 129.988 39.8145 127.773L37.0916 126.065L34.5561 124.063L35.6415 123.55C21.891 107.514 19.5721 80.8341 31.5874 56.8708Z" fill="url(#paint0_linear_8985_55079)"/>
<path d="M41.6995 130.385C64.7294 141.218 94.9501 125.203 109.199 94.6151C123.449 64.0268 116.331 30.4482 93.3009 19.6151C70.271 8.78197 40.0502 24.7967 25.8009 55.3849C11.5515 85.9732 18.6696 119.552 41.6995 130.385Z" fill="url(#paint1_linear_8985_55079)"/>
<path d="M46.8184 109.91C62.7159 118.349 84.4007 108.456 95.2526 87.8133C106.104 67.1705 102.014 43.5951 86.1166 35.1561C70.2191 26.7171 48.5343 36.6102 37.6824 57.253C26.8305 77.8957 30.9208 101.471 46.8184 109.91Z" fill="#7D460F"/>
<path d="M47.5094 110.008C63.0869 118.277 84.4626 108.34 95.2534 87.8138C106.044 67.2874 102.164 43.9439 86.5863 35.6749C71.0089 27.4058 49.6332 37.3424 38.8424 57.8689C28.0516 78.3953 31.932 101.739 47.5094 110.008Z" fill="url(#paint2_radial_8985_55079)"/>
<path d="M78.2077 83.2568C78.2721 81.5462 77.96 80.0228 77.2616 78.7065C76.7901 77.7818 75.9633 76.7236 74.7808 75.5556C76.3821 75.6362 77.7986 75.447 79.035 74.9605C80.2835 74.4714 81.396 73.7548 82.3842 72.8194C83.3851 71.8841 84.2098 70.7809 84.8463 69.4952C85.7167 67.7367 86.1146 65.9124 86.0405 64.0284C85.9613 62.1424 85.3736 60.4394 84.2631 58.9079C83.8383 58.3132 83.2643 57.7374 82.5958 57.1692L85.9887 50.3138L80.8976 47.7694L77.7326 54.1643L74.4539 52.5256L77.6189 46.1308L72.5253 43.585L69.3603 49.9797L61.5843 46.0934L58.9268 51.4627L60.1013 52.0498C60.894 52.446 61.3914 52.8138 61.5741 53.1391C61.7604 53.462 61.8411 53.8139 61.799 54.1928C61.7619 54.5651 61.4523 55.3291 60.8813 56.4823L50.1558 78.1526C49.5922 79.2915 49.1832 79.9795 48.9057 80.2426C48.6261 80.514 48.3034 80.6573 47.9289 80.7088C47.5673 80.7445 46.9806 80.5573 46.1876 80.161L45.0133 79.574L42.3584 84.9383L50.1342 88.8241L46.9675 95.2227L52.0614 97.7681L55.2279 91.37L58.1269 92.819C58.2543 92.8827 58.3807 92.9455 58.504 93.0072L55.3375 99.4058L60.4286 101.95L63.8641 95.008C64.8315 95.2288 65.7212 95.3288 66.5267 95.316C68.733 95.2874 70.7479 94.6469 72.5699 93.3927C74.4032 92.1396 75.8228 90.4745 76.8429 88.4135C77.691 86.6968 78.1478 84.9786 78.2077 83.2568ZM69.4927 57.8547L72.7907 59.5025C74.7168 60.4654 75.9852 61.2937 76.577 61.9827C77.1703 62.6549 77.4915 63.4582 77.5255 64.3742C77.5631 65.3049 77.3241 66.2816 76.8211 67.2981C76.3364 68.2773 75.6974 69.0357 74.9137 69.5855C74.1149 70.1312 73.2165 70.3806 72.2121 70.3316C71.1971 70.2944 69.8287 69.8471 68.1026 68.9847L64.8046 67.3363L69.4927 57.8547ZM66.9205 86.5377C65.8537 87.1997 64.8346 87.4919 63.8362 87.3685C62.8526 87.2573 61.7162 86.8835 60.4362 86.2439L58.2386 85.1454C57.5088 84.7807 57.0875 84.5017 56.9687 84.3166C56.8444 84.1417 56.8241 83.8994 56.8759 83.6051C56.9291 83.369 57.2296 82.6555 57.8153 81.4503L61.9786 73.0387L65.8725 74.9844C67.5925 75.8443 68.7487 76.6761 69.3811 77.5069C70.0094 78.3291 70.3439 79.2471 70.35 80.2554C70.3794 81.2576 70.1155 82.3296 69.5405 83.4914C68.868 84.8536 67.9986 85.8594 66.9205 86.5377Z" fill="white"/>
<defs>
<linearGradient id="paint0_linear_8985_55079" x1="114.939" y1="37.4004" x2="53.4906" y2="134.4" gradientUnits="userSpaceOnUse">
<stop stop-color="#D37214"/>
<stop offset="0.514012" stop-color="#F19848"/>
<stop offset="1" stop-color="#D06C16"/>
</linearGradient>
<linearGradient id="paint1_linear_8985_55079" x1="92.3713" y1="8.16013" x2="38.7293" y2="136.153" gradientUnits="userSpaceOnUse">
<stop stop-color="#FF7A00"/>
<stop offset="0.551504" stop-color="#FFC68E"/>
<stop offset="1" stop-color="#FF7A00"/>
</linearGradient>
<radialGradient id="paint2_radial_8985_55079" cx="0" cy="0" r="1" gradientUnits="userSpaceOnUse" gradientTransform="translate(67.0479 72.8413) rotate(117.731) scale(41.9893 31.9329)">
<stop stop-color="#FF8D8D"/>
<stop offset="1" stop-color="#F49A3C"/>
</radialGradient>
</defs>
</svg>
