<svg width="28" height="28" viewBox="0 0 28 28" fill="none" xmlns="http://www.w3.org/2000/svg">
<path fill-rule="evenodd" clip-rule="evenodd" d="M12.9686 0.0279794C8.7204 0.339833 4.75271 2.65324 2.37298 6.2059C0.910091 8.3898 0.122982 10.8092 0.0124228 13.4615C-0.085651 15.8145 0.397325 18.0793 1.44876 20.1969C2.17415 21.6577 2.92638 22.7136 4.05612 23.8566C6.22875 26.0548 8.92542 27.4113 12.0925 27.8991C12.9686 28.034 15.0384 28.0335 15.9256 27.8982C17.6796 27.6306 19.1506 27.1485 20.6389 26.3536C23.0092 25.0876 25.0793 23.0203 26.3434 20.6571C27.145 19.1584 27.6303 17.6817 27.8982 15.9256C28.0335 15.0387 28.034 12.9687 27.8992 12.0925C27.4176 8.96401 26.0688 6.26187 23.9125 4.10562C21.243 1.43606 17.6118 -0.0483548 13.8722 0.00120223C13.5107 0.00596627 13.1042 0.0180133 12.9686 0.0279794ZM15.081 2.34883C19.2194 2.75153 22.7677 5.23426 24.585 8.99862C26.7208 13.4229 25.793 18.7624 22.2777 22.2777C20.63 23.9254 18.5926 25.0256 16.3483 25.4796C11.0582 26.5497 5.80245 23.921 3.43263 19.0195C2.63725 17.3745 2.22793 15.3772 2.31045 13.5436C2.44516 10.5485 3.62779 7.85306 5.72912 5.75173C6.43404 5.04682 6.98185 4.6065 7.77728 4.10534C9.96765 2.72541 12.5554 2.10308 15.081 2.34883ZM11.3806 4.43976L11.2437 4.51155L11.2291 6.0569L11.2146 7.60226H9.49903C7.90657 7.60226 7.77696 7.60943 7.69285 7.70241C7.62013 7.7828 7.60222 7.92118 7.60222 8.40382C7.60222 8.79924 7.62566 9.03656 7.67067 9.09707C7.70834 9.14767 7.87465 9.21409 8.04029 9.2447C8.46917 9.32394 8.98976 9.59396 9.17967 9.83561C9.43375 10.159 9.51704 10.3645 9.57804 10.8188C9.66002 11.4292 9.61676 17.528 9.52859 17.7939C9.36552 18.2856 8.99853 18.6189 8.47837 18.7476C8.2826 18.796 8.08306 18.8813 8.03487 18.9371C7.98641 18.9933 7.90307 19.2968 7.84814 19.6174C7.70068 20.4777 7.56657 20.4159 9.58204 20.4159H11.2163V21.9425C11.2163 23.2956 11.2266 23.4775 11.3069 23.5442C11.372 23.5982 11.5733 23.6193 12.0232 23.6193C12.5794 23.6193 12.6575 23.6075 12.7266 23.513C12.7892 23.4274 12.8043 23.1164 12.8043 21.9113V20.4159H13.5984H14.3924V21.8969V23.3779L14.5317 23.5172C14.666 23.6515 14.6916 23.6558 15.2417 23.6379C15.6997 23.623 15.8317 23.6 15.9101 23.5216C15.9991 23.4325 16.0078 23.2901 16.0078 21.9248V20.4259L16.9934 20.4029C17.8119 20.3838 18.0394 20.36 18.335 20.2625C19.4016 19.9105 20.2427 19.05 20.6204 17.9244C20.7518 17.5329 20.7675 17.4046 20.7684 16.7197C20.7694 15.8965 20.7052 15.5751 20.4297 15.0221C20.2231 14.6076 19.8494 14.1057 19.5694 13.8669L19.3186 13.6531L19.5599 13.175C19.881 12.5388 19.9972 12.0459 19.9959 11.3259C19.992 9.22039 18.46 7.60768 16.4595 7.60319L16.0351 7.60226V6.12984C16.0351 4.29689 16.0848 4.40718 15.2485 4.38023C14.6911 4.36227 14.6662 4.36649 14.5317 4.50098L14.3924 4.64028V6.1213V7.60226H13.5984H12.8043V6.10684C12.8043 4.90264 12.7892 4.59073 12.7267 4.50514C12.66 4.4138 12.5695 4.39666 12.0833 4.38341C11.6959 4.37284 11.4744 4.39064 11.3806 4.43976ZM15.85 10.1284C16.2229 10.2678 16.5949 10.6171 16.7639 10.9866C16.9452 11.3828 16.931 11.9694 16.73 12.3786C16.5452 12.7548 16.2306 13.0381 15.8321 13.1873C15.5666 13.2866 15.406 13.2972 14.1712 13.2972H12.8043V11.6544V10.0117H14.1712C15.432 10.0117 15.5624 10.0207 15.85 10.1284ZM16.7866 14.9814C17.7817 15.5131 18.0014 16.8172 17.229 17.6063C17.1054 17.7325 16.8786 17.8927 16.7251 17.9622C16.4541 18.0849 16.3918 18.0891 14.6251 18.1051L12.8043 18.1215V16.4733V14.8251L14.6799 14.8415C16.5058 14.8574 16.5615 14.8611 16.7866 14.9814Z" fill="white" fill-opacity="0.5"/>
</svg>
