<svg width="135" height="150" viewBox="0 0 135 150" fill="none" xmlns="http://www.w3.org/2000/svg">
<path fill-rule="evenodd" clip-rule="evenodd" d="M103.411 56.8708C90.8672 31.8545 66.6594 17.6916 44.9099 20.7614L43.1193 18.9358L32.2428 24.7351C31.7373 24.9912 31.2393 25.2569 30.7486 25.5319L30.6846 25.5659L30.6851 25.5676C7.69621 38.5038 0.89317 71.9503 15.6179 101.317C30.673 131.343 62.5301 145.733 86.7734 133.46C89.8514 131.901 92.6587 129.988 95.1836 127.773L97.9065 126.065L100.442 124.063L99.3565 123.55C113.107 107.514 115.426 80.8341 103.411 56.8708Z" fill="url(#paint0_linear_8985_55097)"/>
<path d="M93.3006 130.385C70.2707 141.218 40.0499 125.203 25.8006 94.6151C11.5512 64.0269 18.6693 30.4482 41.6991 19.6151C64.729 8.78197 94.9498 24.7967 109.199 55.3849C123.448 85.9731 116.33 119.552 93.3006 130.385Z" fill="url(#paint1_linear_8985_55097)"/>
<path d="M88.1812 109.91C72.2836 118.349 50.5989 108.456 39.747 87.8135C28.895 67.1708 32.9853 43.5954 48.8829 35.1564C64.7805 26.7174 86.4652 36.6105 97.3171 57.2532C108.169 77.8959 104.079 101.471 88.1812 109.91Z" fill="#354175"/>
<path d="M87.5033 110.002C71.9188 118.274 50.5375 108.341 39.7467 87.8144C28.9559 67.2879 32.8419 43.9415 48.4264 35.6687C64.0108 27.3959 85.3922 37.3295 96.183 57.8559C106.974 78.3824 103.088 101.729 87.5033 110.002Z" fill="url(#paint2_radial_8985_55097)"/>
<g opacity="0.6">
<path d="M64.7389 64.8955L82.0317 66.1991L73.4569 82.9917L55.0353 79.3319L64.7389 64.8955Z" fill="#004DE3" fill-opacity="0.5"/>
</g>
<g opacity="0.45">
<path d="M82.0327 66.1984L73.4574 82.9905L54.6982 44.0503L82.0327 66.1984Z" fill="white"/>
</g>
<g opacity="0.8">
<path d="M54.6969 44.0513L73.4565 82.9916L55.0349 79.3318L54.6969 44.0513Z" fill="white"/>
</g>
<g opacity="0.45">
<path d="M83.6094 69.478L81.8543 100.428L75.0345 86.2706L83.6094 69.478Z" fill="white"/>
</g>
<g opacity="0.8">
<path d="M75.0376 86.2702L81.8574 100.427L56.6054 82.6155L75.0376 86.2702Z" fill="white"/>
</g>
<defs>
<linearGradient id="paint0_linear_8985_55097" x1="27.0844" y1="20.8666" x2="91.9691" y2="137.636" gradientUnits="userSpaceOnUse">
<stop stop-color="#475191"/>
<stop offset="0.0001" stop-color="#4A63FF"/>
<stop offset="0.514012" stop-color="#375CFF"/>
<stop offset="1" stop-color="#0044A9"/>
</linearGradient>
<linearGradient id="paint1_linear_8985_55097" x1="41.6991" y1="19.615" x2="105.4" y2="133.877" gradientUnits="userSpaceOnUse">
<stop stop-color="#6171FF"/>
<stop offset="0.479166" stop-color="#5377FF"/>
<stop offset="1" stop-color="#138EFF"/>
</linearGradient>
<radialGradient id="paint2_radial_8985_55097" cx="0" cy="0" r="1" gradientUnits="userSpaceOnUse" gradientTransform="translate(67.9648 72.8351) rotate(62.269) scale(41.9893 31.9472)">
<stop stop-color="#6B93FF"/>
<stop offset="1" stop-color="#B1C8FD"/>
</radialGradient>
</defs>
</svg>
