<svg width="108" height="120" viewBox="0 0 108 120" fill="none" xmlns="http://www.w3.org/2000/svg">
<path fill-rule="evenodd" clip-rule="evenodd" d="M82.7293 45.4974C72.6946 25.4844 53.3283 14.154 35.9287 16.6099L34.4962 15.1494L25.795 19.7888C25.3906 19.9937 24.9923 20.2063 24.5996 20.4263L24.5485 20.4535L24.5489 20.4548C6.15775 30.8038 0.715321 57.561 12.4951 81.0545C24.5391 105.075 50.0248 116.587 69.4195 106.768C71.8819 105.522 74.1277 103.991 76.1476 102.22L78.326 100.853L80.3544 99.2513L79.486 98.8404C90.4864 86.0118 92.3415 64.6681 82.7293 45.4974Z" fill="url(#paint0_linear_8985_55091)"/>
<path d="M74.6404 104.308C56.2165 112.974 32.0399 100.163 20.6404 75.6921C9.24094 51.2215 14.9354 24.3585 33.3593 15.6921C51.7832 7.02557 75.9598 19.8373 87.3593 44.3079C98.7588 68.7785 93.0643 95.6415 74.6404 104.308Z" fill="url(#paint1_linear_8985_55091)"/>
<path d="M70.5463 87.9287C57.8282 94.6799 40.4804 86.7654 31.7989 70.2512C23.1174 53.737 26.3896 34.8767 39.1077 28.1255C51.8257 21.3743 69.1735 29.2888 77.855 45.803C86.5366 62.3172 83.2643 81.1775 70.5463 87.9287Z" fill="#7D460F"/>
<path d="M69.993 88.0068C57.5311 94.6221 40.4305 86.6728 31.7979 70.2516C23.1653 53.8305 26.2696 35.1557 38.7315 28.5405C51.1935 21.9252 68.294 29.8745 76.9267 46.2957C85.5593 62.7169 82.455 81.3916 69.993 88.0068Z" fill="url(#paint2_radial_8985_55091)"/>
<path fill-rule="evenodd" clip-rule="evenodd" d="M61.6105 38.071C61.6454 38.1706 61.1187 41.7836 60.4399 46.0993L59.2062 53.9462L62.0799 53.046L64.9542 52.1461L65.6458 54.1178L66.3376 56.0899L62.4463 57.4683L58.5552 58.8466L58.3387 60.5475L58.1221 62.2485L62.7553 60.6073L67.3885 58.9662L67.9463 60.9004L68.5044 62.8346L63.9857 64.4352L59.4674 66.0357L61.1458 70.8215L62.8246 75.6072L59.635 76.737L56.4453 77.8669L54.7669 73.081L53.0888 68.2951L48.5694 69.896L44.0504 71.4967L43.2781 69.6384L42.5056 67.7802L47.1387 66.139L51.7719 64.4979L50.5417 63.3094L49.3116 62.1209L45.4206 63.4991L41.5292 64.8776L40.8323 62.891L40.1355 60.9045L42.9707 59.9002C44.5301 59.3478 45.7726 58.8009 45.7318 58.6846C45.691 58.5683 43.126 56.1118 40.0318 53.226C36.9375 50.3402 34.3725 47.8837 34.3317 47.7674C34.2909 47.6511 35.8943 46.9824 37.8945 46.2816L41.5315 45.0071L46.5333 50.1836C49.2844 53.0306 51.7871 55.5363 52.0952 55.7512C52.5325 56.0564 52.8334 54.4198 53.4652 48.304L54.2745 40.4657L57.9107 39.1777C59.9106 38.4693 61.5755 37.9713 61.6105 38.071Z" fill="white"/>
<defs>
<linearGradient id="paint0_linear_8985_55091" x1="16.0478" y1="29.9211" x2="65.2068" y2="107.521" gradientUnits="userSpaceOnUse">
<stop stop-color="#D31414"/>
<stop offset="0.514012" stop-color="#F16648"/>
<stop offset="1" stop-color="#AB0E0E"/>
</linearGradient>
<linearGradient id="paint1_linear_8985_55091" x1="34.1029" y1="6.5281" x2="77.0166" y2="108.922" gradientUnits="userSpaceOnUse">
<stop stop-color="#E52C20"/>
<stop offset="0.551504" stop-color="#FF7474"/>
<stop offset="1" stop-color="#F51616"/>
</linearGradient>
<radialGradient id="paint2_radial_8985_55091" cx="0" cy="0" r="1" gradientUnits="userSpaceOnUse" gradientTransform="translate(54.3623 58.2737) rotate(62.2691) scale(33.5914 25.5463)">
<stop stop-color="#DC1A1A"/>
<stop offset="1" stop-color="#F43C3C"/>
</radialGradient>
</defs>
</svg>
