<svg width="90" height="100" viewBox="0 0 90 100" fill="none" xmlns="http://www.w3.org/2000/svg">
<path fill-rule="evenodd" clip-rule="evenodd" d="M68.9403 37.9145C60.578 21.237 44.4394 11.795 29.9398 13.8416L28.746 12.6245L21.495 16.4907C21.158 16.6614 20.8261 16.8386 20.4989 17.0219L20.4562 17.0446L20.4566 17.0457C5.13063 25.6699 0.595279 47.9675 10.4117 67.5455C20.4485 87.5623 41.6866 97.156 57.8488 88.9737C59.9008 87.9346 61.7723 86.6593 63.4556 85.183L65.2708 84.0443L66.9612 82.7094L66.2375 82.367C75.4046 71.6765 76.9505 53.8901 68.9403 37.9145Z" fill="url(#paint0_linear_8985_55085)"/>
<path d="M62.2005 86.9233C46.8473 94.1453 26.7001 83.4689 17.2005 63.0767C7.70097 42.6846 12.4463 20.2988 27.7996 13.0767C43.1528 5.85465 63.3 16.5311 72.7996 36.9233C82.2991 57.3154 77.5538 79.7012 62.2005 86.9233Z" fill="url(#paint1_linear_8985_55085)"/>
<path d="M58.7876 73.2732C48.1892 78.8992 33.7327 72.3038 26.4981 58.542C19.2635 44.7802 21.9904 29.0633 32.5888 23.4373C43.1871 17.8113 57.6436 24.4067 64.8782 38.1685C72.1128 51.9303 69.386 67.6472 58.7876 73.2732Z" fill="#7D460F"/>
<path d="M58.3262 73.3387C47.9413 78.8514 33.6908 72.227 26.497 58.5427C19.3031 44.8584 21.89 29.2961 32.275 23.7834C42.6599 18.2707 56.9104 24.8951 64.1043 38.5794C71.2981 52.2637 68.7112 67.826 58.3262 73.3387Z" fill="url(#paint2_radial_8985_55085)"/>
<path fill-rule="evenodd" clip-rule="evenodd" d="M36.829 35.9117L37.3201 36.9719L36.6373 37.4648C34.0551 39.3293 32.5763 41.8787 32.5964 44.4318C32.6021 45.1706 32.7173 45.7672 33.0093 46.5704C33.8299 48.8282 35.3858 50.2546 37.5419 50.7256C38.9169 51.026 40.3486 50.966 42.4899 50.5182L43.4973 50.3076L45.2817 54.1598L47.0661 58.0121L46.8545 58.0632C46.5057 58.1475 45.6618 58.1738 45.0991 58.1179C43.5853 57.9675 42.3876 57.1991 41.5437 55.8364L41.2059 55.2909L39.0081 56.3189L36.8103 57.3469L37.1051 57.8748C38.8939 61.0777 42.1759 62.6738 46.0454 62.2229C46.6262 62.1553 48.474 61.751 48.7127 61.6393C48.7279 61.6322 48.9768 62.137 49.2658 62.761L49.7913 63.8955L51.8307 62.9416L53.8701 61.9877L53.3616 60.89C52.7876 59.6509 52.7861 59.7858 53.3774 59.4176C54.4231 58.7663 55.7636 57.5633 56.5161 56.6008C57.7786 54.986 58.453 53.0417 58.333 51.3628C58.2545 50.264 58.1516 49.8971 57.575 48.66C57.0896 47.6186 57.0114 47.4869 56.6112 47.0365C55.4082 45.6827 53.8858 44.9191 51.9857 44.7163C51.1174 44.6236 50.3077 44.709 48.1691 45.1188L46.2285 45.4908L44.6452 42.0727L43.0619 38.6546L43.3478 38.6279C44.1098 38.5567 45.0753 38.7026 45.7366 38.9885C46.4211 39.2846 47.4119 40.1781 47.6675 40.7298L47.7362 40.8783L49.9759 39.8307L52.2157 38.7831L51.9365 38.2907C51.1042 36.8226 49.7848 35.7384 48.0456 35.0933C46.2401 34.4236 44.257 34.3867 41.8044 34.9773L41.4033 35.0739L40.9099 34.0088L40.4166 32.9437L38.3772 33.8976L36.3379 34.8515L36.829 35.9117ZM40.3018 43.4091C41.231 45.415 41.6322 46.3363 41.5858 46.358C41.4356 46.4282 40.1906 46.4353 39.6961 46.3687C39.0575 46.2827 38.6495 46.1086 38.2072 45.7333C37.9071 45.4787 37.84 45.3758 37.5146 44.6733C37.1791 43.9491 37.1547 43.8635 37.1616 43.4336C37.1757 42.5447 37.5575 41.7667 38.3839 40.9425C38.9739 40.3542 38.7584 40.0771 40.3018 43.4091ZM49.6095 49.2064C50.1787 49.1403 50.597 49.1446 51.0487 49.2213C52.2095 49.4184 52.7674 49.8588 53.3125 51.0086C53.6694 51.7611 53.7974 52.3765 53.7163 52.9494C53.6558 53.3764 53.363 54.1263 53.1021 54.5219C52.8184 54.9522 51.9951 55.7975 51.5508 56.1145L51.2492 56.3298L49.6483 52.8737L48.0475 49.4176L48.4272 49.3586C48.636 49.3261 49.1681 49.2577 49.6095 49.2064Z" fill="white"/>
<defs>
<linearGradient id="paint0_linear_8985_55085" x1="13.3724" y1="24.9343" x2="54.3382" y2="89.6009" gradientUnits="userSpaceOnUse">
<stop stop-color="#D37214"/>
<stop offset="0.514012" stop-color="#F19848"/>
<stop offset="1" stop-color="#D06C16"/>
</linearGradient>
<linearGradient id="paint1_linear_8985_55085" x1="28.4193" y1="5.44009" x2="64.1807" y2="90.7683" gradientUnits="userSpaceOnUse">
<stop stop-color="#E58620"/>
<stop offset="0.551504" stop-color="#FFF06C"/>
<stop offset="1" stop-color="#F58F16"/>
</linearGradient>
<radialGradient id="paint2_radial_8985_55085" cx="0" cy="0" r="1" gradientUnits="userSpaceOnUse" gradientTransform="translate(45.3006 48.5611) rotate(62.269) scale(27.9928 21.2886)">
<stop stop-color="#FFC38D"/>
<stop offset="1" stop-color="#F49A3C"/>
</radialGradient>
</defs>
</svg>
