<svg width="90" height="100" viewBox="0 0 90 100" fill="none" xmlns="http://www.w3.org/2000/svg">
<path fill-rule="evenodd" clip-rule="evenodd" d="M21.0597 37.914C29.422 21.2365 45.5606 11.7945 60.0602 13.8411L61.254 12.624L68.505 16.4902C68.842 16.6609 69.1739 16.8381 69.5011 17.0214L69.5438 17.0441L69.5434 17.0452C84.8694 25.6694 89.4047 47.967 79.5883 67.545C69.5515 87.5619 48.3134 97.1555 32.1512 88.9732C30.0992 87.9342 28.2277 86.6588 26.5444 85.1825L24.7292 84.0438L23.0388 82.7089L23.7625 82.3665C14.5954 71.676 13.0495 53.8896 21.0597 37.914Z" fill="url(#paint0_linear_8985_55112)"/>
<path d="M27.7995 86.9233C43.1528 94.1453 63.2999 83.4689 72.7995 63.0767C82.299 42.6846 77.5537 20.2988 62.2004 13.0767C46.8472 5.85465 26.7 16.5311 17.2004 36.9233C7.70087 57.3154 12.4462 79.7012 27.7995 86.9233Z" fill="url(#paint1_linear_8985_55112)"/>
<path d="M31.2114 73.2737C41.8098 78.8997 56.2663 72.3043 63.5009 58.5425C70.7355 44.7807 68.0086 29.0637 57.4103 23.4377C46.8119 17.8117 32.3554 24.4071 25.1208 38.169C17.8862 51.9308 20.6131 67.6477 31.2114 73.2737Z" fill="#354175"/>
<path d="M31.6656 73.3349C42.0553 78.8501 56.3095 72.2277 63.5034 58.5434C70.6972 44.8591 68.1065 29.2948 57.7169 23.7796C47.3273 18.2644 33.073 24.8868 25.8791 38.5711C18.6853 52.2554 21.276 67.8197 31.6656 73.3349Z" fill="url(#paint2_radial_8985_55112)"/>
<path fill-rule="evenodd" clip-rule="evenodd" d="M49.7538 37.3194C49.7202 37.3093 49.6012 37.2728 49.4895 37.2382C47.3854 36.5857 45.1413 36.4733 42.9366 36.91C41.0569 37.2823 39.2252 38.0795 37.6464 39.2124C37.1209 39.5894 36.7611 39.8848 36.265 40.3464C35.8237 40.757 35.5219 41.0743 35.0998 41.5717L34.8826 41.8276L32.6928 40.9772C30.6911 40.1998 30.5022 40.1286 30.4945 40.1484C30.4826 40.1793 29.7582 43.1534 29.7571 43.1762C29.7563 43.1913 30.1117 43.3339 31.4754 43.8659L33.1946 44.5367L33.1719 44.5782C33.0109 44.8728 32.4945 46.2093 32.4155 46.5359L32.4044 46.5819L30.8173 45.9627C29.5563 45.4707 29.229 45.347 29.2242 45.3605C29.2208 45.3698 29.0524 46.0584 28.85 46.8906L28.482 48.4038L30.1587 49.0657L31.8354 49.7275L31.8237 49.9785C31.5827 55.1525 34.2414 60.046 38.6609 62.5624C39.229 62.8859 39.5906 63.0592 40.2679 63.3328C40.9883 63.6239 41.4678 63.7817 42.1196 63.9424C44.2455 64.4666 46.4117 64.4283 48.8046 63.8242C48.9838 63.7789 49.136 63.7356 49.1429 63.7279C49.1498 63.7202 49.1524 63.6574 49.1488 63.5883C49.1451 63.5193 49.1043 62.6781 49.0581 61.719C49.0118 60.76 48.9714 59.9689 48.9682 59.9611C48.965 59.9533 48.8657 59.9777 48.7475 60.0154C46.5321 60.7223 44.7455 60.8261 42.9239 60.3537C42.4921 60.2417 42.3578 60.1965 41.7431 59.9561C41.1937 59.7413 41.0948 59.6987 40.8654 59.5785C40.5273 59.4013 40.3076 59.2751 40.0437 59.1064C37.5868 57.5357 35.9469 54.9672 35.523 52.0256C35.4889 51.789 35.4283 51.1623 35.4373 51.1391C35.4401 51.1319 37.4405 51.9065 40.3738 53.0507L45.3055 54.9744L46.4956 53.7862C47.1501 53.1327 47.6936 52.5889 47.7033 52.5778C47.7202 52.5586 47.4312 52.4445 41.7505 50.2282L35.78 47.8989L35.7849 47.8659C35.7999 47.764 35.9834 47.2141 36.1219 46.8555C36.2604 46.497 36.4943 45.9667 36.5517 45.8813L36.5702 45.8537L42.9981 48.3576L49.426 50.8616L49.7615 50.5279C49.946 50.3445 50.2476 50.0441 50.4317 49.8604C50.6158 49.6768 51.0061 49.2873 51.2992 48.9951C51.5922 48.7028 51.8331 48.4606 51.8346 48.4569C51.836 48.4531 48.8333 47.2782 45.1619 45.8458L38.4867 43.2415L38.5076 43.2148C38.5461 43.1658 38.9032 42.8418 39.1071 42.6709C41.0096 41.0764 43.4363 40.2372 45.8851 40.3269C46.686 40.3562 47.4711 40.4826 48.2762 40.7119C48.5431 40.7879 49.0716 40.9806 49.4131 41.1264C51.4764 42.0074 52.9261 43.3638 54.2474 45.6497C54.3269 45.7872 54.3975 45.8969 54.4042 45.8936C54.411 45.8902 54.911 45.3941 55.5153 44.7911C56.1197 44.188 56.7147 43.5947 56.8376 43.4725C56.9604 43.3504 57.0631 43.2441 57.0658 43.2364C57.0709 43.2216 56.9946 43.102 56.7355 42.719C55.368 40.6975 53.7765 39.2333 51.8299 38.206C51.3649 37.9606 51.1869 37.8806 50.4989 37.6083C50.1228 37.4594 49.7875 37.3294 49.7538 37.3194Z" fill="white"/>
<defs>
<linearGradient id="paint0_linear_8985_55112" x1="91.8733" y1="22.0302" x2="28.6714" y2="91.6298" gradientUnits="userSpaceOnUse">
<stop stop-color="#213EFD"/>
<stop offset="1" stop-color="#02265E"/>
</linearGradient>
<linearGradient id="paint1_linear_8985_55112" x1="62.2004" y1="13.0767" x2="19.7332" y2="89.2513" gradientUnits="userSpaceOnUse">
<stop stop-color="#2400FF"/>
<stop offset="0.479166" stop-color="#042FC6"/>
<stop offset="1" stop-color="#0042EC"/>
</linearGradient>
<radialGradient id="paint2_radial_8985_55112" cx="0" cy="0" r="1" gradientUnits="userSpaceOnUse" gradientTransform="translate(44.6913 48.5573) rotate(117.731) scale(27.9928 21.2982)">
<stop stop-color="#6B93FF"/>
<stop offset="0.0001" stop-color="#245FFF"/>
<stop offset="1" stop-color="#004CFB"/>
</radialGradient>
</defs>
</svg>
