<svg width="108" height="120" viewBox="0 0 108 120" fill="none" xmlns="http://www.w3.org/2000/svg">
<path fill-rule="evenodd" clip-rule="evenodd" d="M25.2707 45.4974C35.3054 25.4844 54.6717 14.154 72.0713 16.6099L73.5038 15.1494L82.205 19.7888C82.6094 19.9937 83.0077 20.2063 83.4004 20.4263L83.4515 20.4535L83.4511 20.4548C101.842 30.8039 107.285 57.561 95.5049 81.0545C83.4609 105.075 57.9752 116.587 38.5805 106.768C36.1181 105.522 33.8723 103.991 31.8523 102.22L29.674 100.853L27.6456 99.2513L28.514 98.8404C17.5135 86.0118 15.6585 64.6681 25.2707 45.4974Z" fill="url(#paint0_linear_8985_55118)"/>
<path d="M33.3596 104.308C51.7835 112.974 75.9601 100.163 87.3596 75.6921C98.759 51.2215 93.0646 24.3586 74.6407 15.6921C56.2168 7.02558 32.0402 19.8373 20.6407 44.3079C9.24122 68.7785 14.9357 95.6414 33.3596 104.308Z" fill="url(#paint1_linear_8985_55118)"/>
<path d="M37.4537 87.9287C50.1718 94.6799 67.5195 86.7654 76.2011 70.2512C84.8826 53.737 81.6104 34.8767 68.8923 28.1255C56.1743 21.3743 38.8265 29.2888 30.145 45.803C21.4634 62.3171 24.7357 81.1775 37.4537 87.9287Z" fill="#0F7D56"/>
<path d="M38.0048 88.0073C50.4672 94.6228 67.5681 86.6737 76.2007 70.2525C84.8334 53.8313 81.7287 35.1564 69.2663 28.5409C56.8039 21.9254 39.703 29.8745 31.0704 46.2957C22.4378 62.7169 25.5424 81.3918 38.0048 88.0073Z" fill="url(#paint2_radial_8985_55118)"/>
<path d="M66.5771 63.1602C67.7359 60.9227 64.0796 56.639 58.1593 52.9963L60.0043 49.4316L67.675 53.4419L71.5164 46.0235L50.5417 35.0566L46.7007 42.4754L54.3706 46.4857L52.5154 50.0676C46.2459 47.3744 40.7779 46.8627 39.6336 49.0725C38.4892 51.2823 42.0443 55.4888 47.838 59.1018L41.2099 71.9022L46.8436 74.848L53.4627 62.0647C59.8293 64.8473 65.4187 65.3973 66.5771 63.1602ZM51.964 58.32C45.3701 54.8723 40.7207 50.7335 41.5794 49.0745C42.3066 47.6702 46.7502 48.4952 52.098 50.8743L51.6603 51.7197L51.6607 51.7201L49.8669 55.1845C50.7646 55.7414 51.7269 56.2906 52.7408 56.8206C53.6738 57.3086 54.5963 57.7513 55.4925 58.147L57.7394 53.8074C62.87 56.8814 66.1966 60.1353 65.4589 61.56C64.5997 63.219 58.558 61.7677 51.964 58.32Z" fill="white"/>
<defs>
<linearGradient id="paint0_linear_8985_55118" x1="91.9522" y1="29.9211" x2="42.7932" y2="107.521" gradientUnits="userSpaceOnUse">
<stop stop-color="#106143"/>
<stop offset="0.514012" stop-color="#2F9471"/>
<stop offset="1" stop-color="#005535"/>
</linearGradient>
<linearGradient id="paint1_linear_8985_55118" x1="74.6407" y1="15.692" x2="23.68" y2="107.102" gradientUnits="userSpaceOnUse">
<stop stop-color="#157C59"/>
<stop offset="0.477431" stop-color="#3FBE93"/>
<stop offset="1" stop-color="#195943"/>
</linearGradient>
<radialGradient id="paint2_radial_8985_55118" cx="0" cy="0" r="1" gradientUnits="userSpaceOnUse" gradientTransform="translate(53.6356 58.2741) rotate(117.731) scale(33.5914 25.5472)">
<stop stop-color="#53CEA2"/>
<stop offset="1" stop-color="#2ECE95"/>
</radialGradient>
</defs>
</svg>
