<svg width="20" height="15" viewBox="0 0 20 15" fill="none" xmlns="http://www.w3.org/2000/svg">
<path fill-rule="evenodd" clip-rule="evenodd" d="M6.80001 0.0465721C6.03774 0.177969 4.46838 0.654367 3.52936 1.03952L3.02564 1.24611L2.55299 2.01498C1.15459 4.28954 0.393646 6.42524 0.0970836 8.9079C-0.00185946 9.73657 -0.0334626 11.611 0.0412781 12.222L0.0820822 12.5554L0.805287 13.027C2.04761 13.8371 4.23696 14.8636 4.9723 14.9809C5.18599 15.0149 5.20259 15.0003 5.55442 14.4676C5.88232 13.971 6.19995 13.415 6.19995 13.3375C6.19995 13.3209 5.83992 13.1381 5.39987 12.9313C4.95983 12.7245 4.59979 12.5327 4.59979 12.5051C4.59979 12.4775 4.67534 12.3965 4.76768 12.3252L4.93549 12.1955L5.58443 12.4567C6.41204 12.79 7.76497 13.1295 8.68193 13.2341C9.56582 13.3349 11.2782 13.2846 12.0672 13.1348C12.8629 12.9836 13.8726 12.6911 14.5076 12.4277L15.0478 12.2037L15.2247 12.3303C15.322 12.3999 15.382 12.4879 15.3581 12.5259C15.3343 12.5638 14.9593 12.7607 14.5248 12.9633L13.7348 13.3319L14.1113 13.9531C14.6006 14.7604 14.7896 15 14.9371 15C15.4479 15 17.9621 13.8363 19.1762 13.0379L19.9178 12.5501L19.9591 12.1211C20.0329 11.354 20.0035 9.81282 19.8979 8.9083C19.6089 6.43389 18.7715 4.11701 17.3475 1.85227C16.9679 1.2486 16.9674 1.24814 16.4676 1.04057C15.6796 0.713188 14.5124 0.344017 13.6986 0.164672C13.2875 0.074083 12.9177 0 12.8767 0C12.8357 0 12.6799 0.238755 12.5306 0.530568C12.2606 1.05819 12.2578 1.06087 12.0393 1.02059C11.2274 0.870983 8.78648 0.868559 7.98333 1.01653L7.74164 1.06114L7.47008 0.530568C7.19165 -0.0134279 7.18332 -0.0195196 6.80001 0.0465721ZM7.19412 6.39079C7.61936 6.51485 8.0716 6.92902 8.28129 7.38642C8.48091 7.82181 8.48565 8.6871 8.29076 9.10814C7.84592 10.0689 6.82521 10.479 5.94793 10.0495C4.83435 9.5043 4.55452 7.86956 5.41108 6.91349C5.92373 6.3414 6.47291 6.18039 7.19412 6.39079ZM14.0422 6.47358C14.3512 6.6302 14.7407 7.01961 14.9052 7.33624C15.0529 7.62059 15.1112 8.50729 15.0072 8.88583C14.7238 9.9169 13.6227 10.4849 12.6798 10.0864C11.5675 9.61631 11.198 8.09227 11.9396 7.0333C12.4168 6.35194 13.3252 6.11011 14.0422 6.47358Z" fill="#EC5B43"/>
</svg>
