<svg width="21" height="23" viewBox="0 0 21 23" fill="none" xmlns="http://www.w3.org/2000/svg">
<path fill-rule="evenodd" clip-rule="evenodd" d="M8.0566 0.0922941C7.75005 0.193778 7.62811 0.260221 7.33196 0.487045C7.00006 0.741182 6.80019 1.09245 6.50922 1.93294L6.24564 2.69418H4.01794C1.63689 2.69418 1.56694 2.6998 1.10008 2.92873C0.856154 3.04832 0.439417 3.43247 0.293443 3.67227C0.0425136 4.08445 0 4.32768 0 5.35096C0 6.43283 0.0202069 6.50965 0.341416 6.65009C0.531258 6.73302 0.813501 6.73544 10.5234 6.73621C20.4072 6.73701 20.5118 6.73612 20.6623 6.64775C20.9767 6.4632 20.9998 6.37362 21 5.33749C21.0002 4.3288 20.957 4.08329 20.7067 3.67227C20.53 3.38193 20.1072 3.02231 19.7523 2.86044L19.4368 2.71664L17.095 2.70348L14.7532 2.69032L14.5332 2.05208C14.4122 1.70104 14.2669 1.31275 14.2103 1.18921C13.9784 0.683095 13.5069 0.276709 12.9374 0.0920246C12.6623 0.00280476 12.5551 -0.00123843 10.4899 0.000199145C8.44828 0.00163673 8.31509 0.00666825 8.0566 0.0922941ZM12.5531 1.41896C12.801 1.51442 12.8807 1.63423 13.0799 2.21124L13.2467 2.69418H10.5001H7.7535L7.92085 2.21124C8.12455 1.62336 8.18041 1.5363 8.42145 1.43091C8.5943 1.3553 8.76688 1.34833 10.4875 1.34744C12.1079 1.34658 12.3907 1.35638 12.5531 1.41896ZM1.57329 8.32096C1.58127 8.40124 1.82832 11.2972 2.12228 14.7564C2.41623 18.2156 2.67766 21.1644 2.70324 21.3095C2.83633 22.0639 3.40226 22.6886 4.15762 22.9149C4.43029 22.9966 4.68514 23 10.5001 23C16.315 23 16.5699 22.9966 16.8426 22.9149C17.5979 22.6886 18.1639 22.0639 18.2969 21.3095C18.3225 21.1644 18.584 18.2156 18.8779 14.7564C19.1719 11.2972 19.4189 8.40124 19.4269 8.32096L19.4414 8.17495H10.5001H1.55877L1.57329 8.32096ZM6.70368 9.6642C7.0142 9.84345 7.00006 9.59281 7.00006 14.9136C7.00006 19.2146 6.99222 19.7375 6.92535 19.8985C6.71675 20.4004 5.88337 20.4004 5.67476 19.8985C5.60789 19.7375 5.60005 19.2146 5.60005 14.9136C5.60005 10.6329 5.60812 10.0891 5.67402 9.9306C5.82765 9.56096 6.30902 9.43643 6.70368 9.6642ZM10.9037 9.6642C11.2142 9.84345 11.2001 9.59281 11.2001 14.9136C11.2001 19.2146 11.1923 19.7375 11.1254 19.8985C10.9168 20.4004 10.0834 20.4004 9.8748 19.8985C9.80793 19.7375 9.80009 19.2146 9.80009 14.9136C9.80009 10.6329 9.80816 10.0891 9.87405 9.9306C10.0277 9.56096 10.5091 9.43643 10.9037 9.6642ZM15.0706 9.65135C15.1332 9.69484 15.2277 9.78621 15.2806 9.85445C15.3762 9.97768 15.3769 10.0098 15.3898 14.8383C15.4043 20.2586 15.42 19.9775 15.0911 20.1732C14.8727 20.3031 14.5283 20.3035 14.3107 20.1741C13.9836 19.9794 14.0001 20.258 14.0004 14.9464C14.0005 11.9418 14.0177 10.1149 14.0467 10.0143C14.1008 9.82705 14.3036 9.62507 14.495 9.56792C14.6718 9.51518 14.9281 9.55234 15.0706 9.65135Z" fill="white"/>
</svg>
