<svg width="34" height="34" viewBox="0 0 34 34" fill="none" xmlns="http://www.w3.org/2000/svg">
<circle cx="17" cy="17" r="17" fill="#FF7A00"/>
<path d="M17.0005 17.0003L24.8466 13.4472C24.6242 12.9518 24.2436 12.5275 23.7536 12.2287C23.2636 11.9299 22.6862 11.77 22.0953 11.7695H11.9056C11.3147 11.77 10.7373 11.9299 10.2473 12.2287C9.75725 12.5275 9.37672 12.9518 9.1543 13.4472L17.0005 17.0003Z" fill="white"/>
<path d="M17.3193 18.2759C17.2203 18.3269 17.1111 18.3535 17.0005 18.3535C16.8898 18.3535 16.7806 18.3269 16.6816 18.2759L9.1543 14.3848V20.557C9.15505 21.3475 9.4598 22.1055 10.0017 22.6645C10.5435 23.2234 11.2782 23.5378 12.0445 23.5386H21.9592C22.725 23.5371 23.459 23.2223 24.0002 22.6634C24.5415 22.1045 24.8459 21.347 24.8466 20.557V14.3848L17.3193 18.2759Z" fill="white"/>
</svg>
