<svg width="670" height="244" viewBox="0 0 670 244" fill="none" xmlns="http://www.w3.org/2000/svg">
<path fill-rule="evenodd" clip-rule="evenodd" d="M380.684 2.30622C378.497 3.64994 374.041 7.96625 370.783 11.8998C367.526 15.8352 361.425 20.7706 357.227 22.8702C347.443 27.7627 345.81 33.8563 338.784 91.6597C331.051 155.272 319.69 87.6559 310.637 92.1831C291.542 101.732 291.576 162.75 276.605 107.384C270.2 83.6911 264.228 77.1776 253.147 81.7771C249.867 83.1384 244.235 89.5035 240.633 95.9194C236.165 103.884 231.033 108.589 224.46 110.741C219.168 112.476 211.591 117.681 207.626 122.307C200.034 131.165 194.761 132.807 190.738 127.569C189.41 125.835 184.739 105.56 180.361 82.5154C172.483 41.0339 168.804 31.1142 161.312 31.1142C154.184 31.1142 149.31 38.6199 142.823 59.5901C137.816 75.7694 134.367 81.5076 127.372 85.2829C117.373 90.6773 116.705 91.5698 110.136 108.261C105.094 121.073 100.301 126.815 94.6575 126.815C89.3536 126.815 61.6348 77.3201 49.8122 46.7388C43.8247 31.2528 35.7751 22.8097 29.8345 25.7823C23.7806 28.8095 5.78566 30.5437 0.00130526 99.4074V212.37L0 244H335.472H670V214.119C668.664 200.424 670 161.342 670 161.342C664.743 144.155 643.121 117.636 639.582 100.449C631.662 61.9611 628.178 54.5511 618.003 54.5511C610.344 54.5511 609.126 56.098 594.569 84.2106C591.964 89.2437 587.484 93.8139 584.613 94.3647C577.849 95.6615 572.529 105.974 567.366 127.792C565.077 137.459 564.741 116.448 562.394 122.307C558.637 131.68 556.66 111.28 552.243 108.261C549.481 106.372 539.429 130.786 538.031 126.815C536.636 122.843 533.089 107.78 529.909 102.14C522.598 89.1691 517.224 121.446 502.281 132.737C496.551 137.069 489.935 140.299 487.58 139.918C485.225 139.538 479.335 129.208 474.488 116.966C465.067 93.1616 457.549 86.0211 448.402 92.1831C445.586 94.0815 441.203 101.113 438.669 107.808C432.474 124.157 426.702 132.917 422.897 131.741C418.148 130.272 415.523 118.391 409.071 69.1992C402.607 19.9328 400.111 8.42132 394.784 3.28276C390.601 -0.750348 386.164 -1.05698 380.684 2.30622Z" fill="white"/>
</svg>
