<svg width="40" height="40" viewBox="0 0 40 40" fill="none" xmlns="http://www.w3.org/2000/svg">
<circle cx="20" cy="20" r="20" fill="#050F18"/>
<circle cx="20" cy="20" r="17" fill="#A5A3A3"/>
<path fill-rule="evenodd" clip-rule="evenodd" d="M18.652 9.01453C16.3455 9.19654 14.6123 9.56618 13.0111 10.2176C10.9983 11.0365 9.84759 12.2988 10.0495 13.4663C10.2145 14.4197 11.1546 15.3001 12.8035 16.0456C14.1563 16.6571 15.884 17.0765 17.978 17.3016C18.6603 17.3749 21.3397 17.3749 22.022 17.3016C24.9007 16.9921 27.1141 16.3073 28.6039 15.2651C29.3309 14.7566 29.852 14.0585 29.9513 13.4601C30.1455 12.2906 28.9985 11.0352 26.9889 10.2176C25.6387 9.66832 24.0536 9.28999 22.2776 9.09306C21.6839 9.02723 19.1787 8.97297 18.652 9.01453ZM10.0072 16.4428C10.0082 18.0576 10.0363 18.2508 10.3426 18.7469C11.1346 20.0295 13.3623 21.103 16.2924 21.6139C18.7293 22.039 21.2707 22.039 23.7076 21.6139C26.6377 21.103 28.8654 20.0295 29.6574 18.7469C29.9637 18.2508 29.9918 18.0576 29.9928 16.4428C29.9932 15.6796 29.9833 15.0552 29.9707 15.0552C29.9581 15.0552 29.7841 15.2053 29.5841 15.3887C28.1698 16.6855 25.6606 17.586 22.4635 17.944C21.7271 18.0264 21.3734 18.0403 20 18.0403C18.6266 18.0403 18.2729 18.0264 17.5365 17.944C14.3394 17.586 11.8302 16.6855 10.4159 15.3887C10.2159 15.2053 10.0419 15.0552 10.0293 15.0552C10.0167 15.0552 10.0068 15.6796 10.0072 16.4428ZM10.017 21.1031C10.0364 22.8605 10.0393 22.8763 10.4452 23.4415C11.4408 24.8278 14.1214 25.9351 17.4384 26.3302C19.3883 26.5624 21.9298 26.4921 23.765 26.1552C25.53 25.8312 27.1745 25.2616 28.2494 24.6018C28.9926 24.1457 29.6357 23.4681 29.8649 22.8999C29.9604 22.6633 29.9669 22.5638 29.983 21.1031L30 19.5568L29.5383 19.967C27.9738 21.357 25.432 22.2137 21.8825 22.5473C21.1627 22.615 18.8373 22.615 18.1175 22.5473C15.6834 22.3185 13.8617 21.8808 12.3085 21.1515C11.5337 20.7877 11.0007 20.4459 10.4617 19.967L10 19.5568L10.017 21.1031ZM10.0067 25.4999C10.0068 26.2513 10.0271 26.9822 10.0517 27.1242C10.218 28.0847 11.3687 29.1208 13.0111 29.789C14.3714 30.3423 15.9296 30.7135 17.7456 30.9166C18.7387 31.0278 21.2613 31.0278 22.2544 30.9166C25.4357 30.5608 27.9647 29.6474 29.1973 28.4091C29.5805 28.0243 29.8817 27.5088 29.9483 27.1242C29.9909 26.8782 30.0147 24.1338 29.9742 24.1338C29.9636 24.1338 29.8223 24.2618 29.6604 24.4181C28.2907 25.7406 25.7511 26.6618 22.4166 27.0456C21.4462 27.1573 18.5538 27.1573 17.5834 27.0456C14.2514 26.662 11.7083 25.7396 10.3395 24.4181C10.1777 24.2618 10.0364 24.1338 10.0258 24.1338C10.0152 24.1338 10.0066 24.7486 10.0067 25.4999Z" fill="white"/>
</svg>
