<svg width="283" height="283" viewBox="0 0 283 283" fill="none" xmlns="http://www.w3.org/2000/svg">
<path d="M194.107 267.456C195.171 270.004 198.104 271.215 200.613 270.061C224.806 258.937 245.404 241.194 259.995 218.839C274.586 196.483 282.536 170.486 282.98 143.862C283.026 141.101 280.737 138.903 277.976 138.955L259.679 139.296C256.919 139.348 254.734 141.629 254.663 144.389C254.128 165.339 247.786 185.767 236.296 203.371C224.806 220.976 208.66 235.004 189.697 243.927C187.198 245.103 185.99 248.021 187.054 250.569L194.107 267.456Z" fill="white"/>
<path d="M185.352 270.764C186.239 273.379 184.84 276.227 182.196 277.022C156.693 284.68 129.509 284.996 103.779 277.88C78.0491 270.763 54.8912 256.523 36.9483 236.848C35.0876 234.807 35.3513 231.645 37.4561 229.858L51.4048 218.012C53.5097 216.225 56.6572 216.49 58.5359 218.514C72.7935 233.874 91.0615 244.999 111.323 250.604C131.585 256.208 152.973 256.051 173.097 250.201C175.749 249.43 178.586 250.819 179.473 253.434L185.352 270.764Z" fill="white"/>
<path d="M32.7916 224.051C30.5924 225.721 27.4479 225.297 25.8566 223.041C10.5116 201.278 1.59849 175.595 0.195536 148.936C-1.20742 122.277 4.96076 95.8006 17.9368 72.548C19.2824 70.1366 22.3651 69.3848 24.7274 70.8147L40.3826 80.2912C42.7449 81.7212 43.4902 84.7907 42.1659 87.2139C32.1156 105.604 27.3516 126.456 28.4564 147.449C29.5612 168.442 36.4875 188.679 48.4125 205.913C49.9838 208.183 49.5649 211.314 47.3657 212.984L32.7916 224.051Z" fill="white"/>
<path d="M28.512 64.9104C26.2262 63.361 25.6222 60.246 27.2514 58.0164C42.9616 36.5163 64.4439 19.8559 89.2534 9.9989C114.063 0.141878 141.121 -2.48351 167.303 2.37252C170.018 2.8761 171.717 5.55628 171.118 8.25191L167.147 26.1159C166.548 28.8116 163.878 30.4995 161.158 30.02C140.52 26.3804 119.24 28.5369 99.7027 36.2991C80.1659 44.0613 63.208 57.0971 50.6947 73.9082C49.0459 76.1233 45.9456 76.7279 43.6598 75.1785L28.512 64.9104Z" fill="white"/>
<path d="M179.927 10.5204C180.704 7.8707 183.486 6.34425 186.106 7.21474C211.377 15.6088 233.802 30.9772 250.764 51.5913C267.727 72.2055 278.49 97.1698 281.861 123.584C282.211 126.323 280.177 128.759 277.427 129.011L259.204 130.686C256.454 130.938 254.032 128.911 253.658 126.175C250.821 105.411 242.269 85.8062 228.911 69.5731C215.554 53.3399 197.962 41.173 178.133 34.3913C175.52 33.4977 173.998 30.7301 174.775 28.0803L179.927 10.5204Z" fill="white"/>
</svg>
