<svg width="40" height="40" viewBox="0 0 40 40" fill="none" xmlns="http://www.w3.org/2000/svg">
<circle cx="20" cy="20" r="20" fill="white"/>
<circle cx="20" cy="20" r="16" fill="#B4ADC0"/>
<path fill-rule="evenodd" clip-rule="evenodd" d="M18.7868 10.0132C16.711 10.1787 15.1511 10.5147 13.71 11.1069C11.8985 11.8514 10.8628 12.9989 11.0446 14.0603C11.193 14.927 12.0391 15.7274 13.5232 16.4051C14.7406 16.961 16.2956 17.3423 18.1802 17.5469C18.7943 17.6136 21.2057 17.6136 21.8198 17.5469C24.4106 17.2655 26.4027 16.643 27.7435 15.6956C28.3978 15.2333 28.8668 14.5987 28.9562 14.0547C29.1309 12.9914 28.0987 11.8502 26.29 11.1069C25.0748 10.6076 23.6483 10.2636 22.0498 10.0846C21.5155 10.0248 19.2608 9.97543 18.7868 10.0132ZM11.0065 16.7662C11.0074 18.2342 11.0327 18.4098 11.3084 18.8608C12.0211 20.0268 14.026 21.0027 16.6631 21.4672C18.8564 21.8536 21.1436 21.8536 23.3369 21.4672C25.974 21.0027 27.9789 20.0268 28.6916 18.8608C28.9673 18.4098 28.9926 18.2342 28.9935 16.7662C28.9939 16.0724 28.9849 15.5047 28.9736 15.5047C28.9623 15.5047 28.8057 15.6411 28.6257 15.8079C27.3528 16.9868 25.0945 17.8054 22.2172 18.1309C21.5544 18.2058 21.236 18.2184 20 18.2184C18.764 18.2184 18.4456 18.2058 17.7828 18.1309C14.9055 17.8054 12.6472 16.9868 11.3743 15.8079C11.1943 15.6412 11.0377 15.5047 11.0264 15.5047C11.0151 15.5047 11.0061 16.0724 11.0065 16.7662ZM11.0153 21.0028C11.0328 22.6004 11.0353 22.6149 11.4006 23.1286C12.2967 24.3889 14.7093 25.3956 17.6946 25.7547C19.4494 25.9658 21.7368 25.9019 23.3885 25.5957C24.977 25.3011 26.457 24.7832 27.4245 24.1835C28.0933 23.7688 28.6721 23.1528 28.8784 22.6363C28.9643 22.4212 28.9702 22.3307 28.9847 21.0028L29 19.597L28.5845 19.97C27.1764 21.2336 24.8888 22.0124 21.6943 22.3157C21.0464 22.3773 18.9536 22.3773 18.3057 22.3157C16.1151 22.1078 14.4755 21.7098 13.0776 21.0468C12.3803 20.7161 11.9006 20.4053 11.4155 19.97L11 19.597L11.0153 21.0028ZM11.006 24.9999C11.0061 25.683 11.0244 26.3475 11.0465 26.4765C11.1962 27.3497 12.2318 28.2916 13.71 28.8991C14.9342 29.4021 16.3366 29.7395 17.9711 29.9242C18.8648 30.0253 21.1352 30.0253 22.0289 29.9242C24.8921 29.6007 27.1683 28.7703 28.2776 27.6447C28.6224 27.2948 28.8935 26.8262 28.9535 26.4765C28.9918 26.2529 29.0132 23.758 28.9768 23.758C28.9672 23.758 28.8401 23.8743 28.6944 24.0164C27.4617 25.2187 25.176 26.0562 22.1749 26.4051C21.3016 26.5066 18.6984 26.5066 17.8251 26.4051C14.8262 26.0564 12.5374 25.2178 11.3056 24.0164C11.1599 23.8743 11.0328 23.758 11.0232 23.758C11.0136 23.758 11.0059 24.3169 11.006 24.9999Z" fill="white"/>
</svg>
