<svg width="80" height="80" viewBox="0 0 80 80" fill="none" xmlns="http://www.w3.org/2000/svg">
<mask id="path-1-outside-1_3811_16906" maskUnits="userSpaceOnUse" x="0" y="0" width="80" height="80" fill="black">
<rect fill="white" width="80" height="80"/>
<path fill-rule="evenodd" clip-rule="evenodd" d="M36.8183 1.12406C25.5315 2.0348 15.0976 7.94623 8.34006 17.2589C3.34903 24.137 0.755543 32.5852 1.01815 41.1088C1.22124 47.6953 2.9228 53.7616 6.14635 59.3911C6.65672 60.2824 6.83801 60.7049 6.83801 61.0033C6.83801 61.7856 7.17772 63.6823 7.4875 64.6302C8.99236 69.2344 12.789 72.3214 18.0861 73.2479C18.6086 73.3392 19.1982 73.4142 19.3963 73.4144C19.6407 73.4146 20.2714 73.6943 21.3588 74.2845C25.7834 76.686 30.3366 78.1368 35.5171 78.7955C37.6569 79.0675 42.4021 79.0683 44.5166 78.7972C53.7438 77.6137 61.587 73.7376 67.9386 67.2222C74.05 60.953 77.6577 53.4105 78.7956 44.5237C79.0681 42.3959 79.0681 37.6536 78.7956 35.5258C77.356 24.2828 71.7091 14.7704 62.5699 8.19264C55.2892 2.95259 45.9449 0.387743 36.8183 1.12406ZM44.453 3.4336C51.4349 4.33047 57.6395 6.96025 63.1662 11.3649C64.6969 12.5848 67.4616 15.349 68.6817 16.8794C72.4816 21.6455 75.0693 27.1659 76.1663 32.8463C76.7075 35.6485 76.8166 36.8528 76.8166 40.0247C76.8166 43.2007 76.7076 44.4002 76.1633 47.2182C75.0704 52.877 72.4733 58.4143 68.6817 63.1701C67.4616 64.7005 64.6969 67.4647 63.1662 68.6846C57.631 73.0961 51.4955 75.6926 44.3953 76.6284C42.6258 76.8617 37.9093 76.8949 36.1677 76.6866C32.4104 76.2371 28.8317 75.298 25.5165 73.8916C24.8467 73.6074 24.3156 73.3578 24.3365 73.337C24.3573 73.3162 24.8751 73.2245 25.4869 73.1334C28.0998 72.7443 29.973 72.0269 31.0928 70.9865C31.916 70.2216 32.3728 69.4419 32.6579 68.315C32.8665 67.4901 32.884 67.202 32.8308 65.4466C32.7733 63.545 32.7578 63.4404 32.2199 61.3423C31.9164 60.1581 31.668 59.0079 31.668 58.7862V58.3833L35.0563 57.1041C40.4694 55.0606 41.9422 54.3567 43.0057 53.3048C43.7684 52.5505 43.988 51.9862 43.8896 51.0336C43.6586 48.795 41.7997 47.6792 38.6203 47.8705C37.1575 47.9585 35.507 48.2465 32.698 48.9034C31.4457 49.1964 28.0887 49.9828 25.238 50.6511C22.3873 51.3194 20.037 51.8483 20.015 51.8262C19.993 51.8042 20.0929 51.2986 20.237 50.7026C20.676 48.8871 20.8422 47.4734 20.8359 45.6078C20.825 42.3688 20.0817 40.1714 18.7091 39.3201C18.2379 39.0278 18.096 38.9952 17.3093 38.9978C16.3185 39.0012 15.8142 39.2014 15.2248 39.8255C14.4274 40.6699 13.9497 41.7182 12.6253 45.5292C11.3963 49.0664 10.8804 50.1536 9.09027 52.9796C7.95167 54.7769 7.58107 55.4622 7.37516 56.1506C7.29937 56.4039 7.20222 56.6113 7.15918 56.6113C7.11613 56.6113 6.83422 56.0625 6.53257 55.3917C4.87851 51.7132 3.95774 48.4785 3.4079 44.4153C3.14312 42.4581 3.14149 37.6262 3.40508 35.6471C4.35502 28.5137 6.93842 22.4124 11.3516 16.8794C12.5723 15.349 15.3369 12.5849 16.8676 11.3645C21.8106 7.42316 27.3837 4.86503 33.4028 3.77476C34.6707 3.54504 35.4089 3.45095 37.6857 3.22903C38.6593 3.13417 43.187 3.27099 44.453 3.4336ZM17.7141 41.3026C18.3125 41.9636 18.6569 43.5709 18.656 45.6987C18.655 47.9876 18.3503 49.74 17.5107 52.2857C17.2113 53.1931 17.1537 53.493 17.2369 53.7117C17.4046 54.1527 17.7881 54.4431 18.2025 54.4431C18.4075 54.4431 22.2163 53.5907 26.6666 52.5488C35.8392 50.4013 36.3879 50.2824 37.9519 50.1015C40.4405 49.8135 41.9484 50.3155 41.6898 51.3457C41.4709 52.2175 39.8199 53.0155 32.9149 55.5867C30.9375 56.3231 30.579 56.4926 30.1902 56.8753C29.3869 57.6661 29.3215 58.8065 29.9426 61.1921C30.1171 61.8626 30.3423 62.7283 30.4431 63.1158C30.5814 63.6486 30.6276 64.3098 30.632 65.8261C30.6378 67.807 30.6342 67.8392 30.3354 68.4476C29.8305 69.4753 29.0091 70.0369 27.2756 70.5391C24.8228 71.2498 20.5254 71.5213 18.3856 71.1008C15.6483 70.563 13.6868 69.6291 12.1117 68.1138C10.4562 66.521 9.5615 64.7538 9.16433 62.292C8.91614 60.7541 8.93685 58.6193 9.20998 57.5703C9.47953 56.5353 9.73726 56.026 11.0622 53.9099C12.9328 50.9223 13.3484 50.0372 14.7339 46.0888C15.8975 42.7733 16.2319 41.9996 16.711 41.5154C17.1527 41.0687 17.4461 41.0065 17.7141 41.3026Z"/>
</mask>
<path fill-rule="evenodd" clip-rule="evenodd" d="M36.8183 1.12406C25.5315 2.0348 15.0976 7.94623 8.34006 17.2589C3.34903 24.137 0.755543 32.5852 1.01815 41.1088C1.22124 47.6953 2.9228 53.7616 6.14635 59.3911C6.65672 60.2824 6.83801 60.7049 6.83801 61.0033C6.83801 61.7856 7.17772 63.6823 7.4875 64.6302C8.99236 69.2344 12.789 72.3214 18.0861 73.2479C18.6086 73.3392 19.1982 73.4142 19.3963 73.4144C19.6407 73.4146 20.2714 73.6943 21.3588 74.2845C25.7834 76.686 30.3366 78.1368 35.5171 78.7955C37.6569 79.0675 42.4021 79.0683 44.5166 78.7972C53.7438 77.6137 61.587 73.7376 67.9386 67.2222C74.05 60.953 77.6577 53.4105 78.7956 44.5237C79.0681 42.3959 79.0681 37.6536 78.7956 35.5258C77.356 24.2828 71.7091 14.7704 62.5699 8.19264C55.2892 2.95259 45.9449 0.387743 36.8183 1.12406ZM44.453 3.4336C51.4349 4.33047 57.6395 6.96025 63.1662 11.3649C64.6969 12.5848 67.4616 15.349 68.6817 16.8794C72.4816 21.6455 75.0693 27.1659 76.1663 32.8463C76.7075 35.6485 76.8166 36.8528 76.8166 40.0247C76.8166 43.2007 76.7076 44.4002 76.1633 47.2182C75.0704 52.877 72.4733 58.4143 68.6817 63.1701C67.4616 64.7005 64.6969 67.4647 63.1662 68.6846C57.631 73.0961 51.4955 75.6926 44.3953 76.6284C42.6258 76.8617 37.9093 76.8949 36.1677 76.6866C32.4104 76.2371 28.8317 75.298 25.5165 73.8916C24.8467 73.6074 24.3156 73.3578 24.3365 73.337C24.3573 73.3162 24.8751 73.2245 25.4869 73.1334C28.0998 72.7443 29.973 72.0269 31.0928 70.9865C31.916 70.2216 32.3728 69.4419 32.6579 68.315C32.8665 67.4901 32.884 67.202 32.8308 65.4466C32.7733 63.545 32.7578 63.4404 32.2199 61.3423C31.9164 60.1581 31.668 59.0079 31.668 58.7862V58.3833L35.0563 57.1041C40.4694 55.0606 41.9422 54.3567 43.0057 53.3048C43.7684 52.5505 43.988 51.9862 43.8896 51.0336C43.6586 48.795 41.7997 47.6792 38.6203 47.8705C37.1575 47.9585 35.507 48.2465 32.698 48.9034C31.4457 49.1964 28.0887 49.9828 25.238 50.6511C22.3873 51.3194 20.037 51.8483 20.015 51.8262C19.993 51.8042 20.0929 51.2986 20.237 50.7026C20.676 48.8871 20.8422 47.4734 20.8359 45.6078C20.825 42.3688 20.0817 40.1714 18.7091 39.3201C18.2379 39.0278 18.096 38.9952 17.3093 38.9978C16.3185 39.0012 15.8142 39.2014 15.2248 39.8255C14.4274 40.6699 13.9497 41.7182 12.6253 45.5292C11.3963 49.0664 10.8804 50.1536 9.09027 52.9796C7.95167 54.7769 7.58107 55.4622 7.37516 56.1506C7.29937 56.4039 7.20222 56.6113 7.15918 56.6113C7.11613 56.6113 6.83422 56.0625 6.53257 55.3917C4.87851 51.7132 3.95774 48.4785 3.4079 44.4153C3.14312 42.4581 3.14149 37.6262 3.40508 35.6471C4.35502 28.5137 6.93842 22.4124 11.3516 16.8794C12.5723 15.349 15.3369 12.5849 16.8676 11.3645C21.8106 7.42316 27.3837 4.86503 33.4028 3.77476C34.6707 3.54504 35.4089 3.45095 37.6857 3.22903C38.6593 3.13417 43.187 3.27099 44.453 3.4336ZM17.7141 41.3026C18.3125 41.9636 18.6569 43.5709 18.656 45.6987C18.655 47.9876 18.3503 49.74 17.5107 52.2857C17.2113 53.1931 17.1537 53.493 17.2369 53.7117C17.4046 54.1527 17.7881 54.4431 18.2025 54.4431C18.4075 54.4431 22.2163 53.5907 26.6666 52.5488C35.8392 50.4013 36.3879 50.2824 37.9519 50.1015C40.4405 49.8135 41.9484 50.3155 41.6898 51.3457C41.4709 52.2175 39.8199 53.0155 32.9149 55.5867C30.9375 56.3231 30.579 56.4926 30.1902 56.8753C29.3869 57.6661 29.3215 58.8065 29.9426 61.1921C30.1171 61.8626 30.3423 62.7283 30.4431 63.1158C30.5814 63.6486 30.6276 64.3098 30.632 65.8261C30.6378 67.807 30.6342 67.8392 30.3354 68.4476C29.8305 69.4753 29.0091 70.0369 27.2756 70.5391C24.8228 71.2498 20.5254 71.5213 18.3856 71.1008C15.6483 70.563 13.6868 69.6291 12.1117 68.1138C10.4562 66.521 9.5615 64.7538 9.16433 62.292C8.91614 60.7541 8.93685 58.6193 9.20998 57.5703C9.47953 56.5353 9.73726 56.026 11.0622 53.9099C12.9328 50.9223 13.3484 50.0372 14.7339 46.0888C15.8975 42.7733 16.2319 41.9996 16.711 41.5154C17.1527 41.0687 17.4461 41.0065 17.7141 41.3026Z" fill="#1E0654" fill-opacity="0.5"/>
<path d="M36.8183 1.12406L36.7379 0.127295L36.7378 0.127296L36.8183 1.12406ZM8.34006 17.2589L9.14943 17.8462L9.14943 17.8462L8.34006 17.2589ZM1.01815 41.1088L0.0186291 41.1396L0.0186298 41.1397L1.01815 41.1088ZM6.14635 59.3911L5.27855 59.8881L5.27857 59.8881L6.14635 59.3911ZM7.4875 64.6302L6.53696 64.9408L6.53698 64.9409L7.4875 64.6302ZM18.0861 73.2479L18.2584 72.2628H18.2584L18.0861 73.2479ZM19.3963 73.4144L19.3952 74.4144H19.3954L19.3963 73.4144ZM21.3588 74.2845L20.8817 75.1633H20.8817L21.3588 74.2845ZM35.5171 78.7955L35.391 79.7875L35.391 79.7875L35.5171 78.7955ZM44.5166 78.7972L44.6438 79.7891L44.6439 79.7891L44.5166 78.7972ZM67.9386 67.2222L68.6546 67.9202V67.9202L67.9386 67.2222ZM78.7956 44.5237L77.8037 44.3967V44.3967L78.7956 44.5237ZM78.7956 35.5258L77.8037 35.6528L77.8037 35.6528L78.7956 35.5258ZM62.5699 8.19264L63.154 7.381L63.154 7.381L62.5699 8.19264ZM44.453 3.4336L44.5804 2.44175L44.5804 2.44175L44.453 3.4336ZM63.1662 11.3649L63.7895 10.5829L63.7895 10.5829L63.1662 11.3649ZM68.6817 16.8794L67.8998 17.5028L67.8998 17.5028L68.6817 16.8794ZM76.1663 32.8463L75.1844 33.036L75.1844 33.036L76.1663 32.8463ZM76.1633 47.2182L75.1815 47.0286L75.1815 47.0286L76.1633 47.2182ZM68.6817 63.1701L69.4636 63.7934L68.6817 63.1701ZM63.1662 68.6846L63.7895 69.4666L63.1662 68.6846ZM44.3953 76.6284L44.2646 75.6369H44.2646L44.3953 76.6284ZM36.1677 76.6866L36.2865 75.6937H36.2865L36.1677 76.6866ZM25.5165 73.8916L25.9071 72.971L25.907 72.971L25.5165 73.8916ZM24.3365 73.337L25.0417 74.046L25.0436 74.0441L24.3365 73.337ZM25.4869 73.1334L25.3396 72.1443L25.3395 72.1443L25.4869 73.1334ZM31.0928 70.9865L30.4121 70.254L30.4121 70.254L31.0928 70.9865ZM32.6579 68.315L33.6274 68.5603L33.6274 68.5602L32.6579 68.315ZM32.8308 65.4466L33.8304 65.4164V65.4164L32.8308 65.4466ZM32.2199 61.3423L31.2512 61.5905L31.2512 61.5906L32.2199 61.3423ZM31.668 58.3833L31.3148 57.4477L30.668 57.6919V58.3833H31.668ZM35.0563 57.1041L35.4095 58.0397L35.4095 58.0397L35.0563 57.1041ZM43.0057 53.3048L42.3025 52.5938L42.3025 52.5939L43.0057 53.3048ZM43.8896 51.0336L42.8949 51.1362L42.8949 51.1363L43.8896 51.0336ZM38.6203 47.8705L38.6804 48.8687H38.6804L38.6203 47.8705ZM32.698 48.9034L32.4703 47.9297L32.4703 47.9297L32.698 48.9034ZM20.237 50.7026L19.265 50.4675L19.265 50.4676L20.237 50.7026ZM20.8359 45.6078L21.8359 45.6044V45.6044L20.8359 45.6078ZM18.7091 39.3201L19.2362 38.4703L19.2362 38.4703L18.7091 39.3201ZM17.3093 38.9978L17.306 37.9978L17.3059 37.9978L17.3093 38.9978ZM15.2248 39.8255L14.4978 39.1389L14.4977 39.1389L15.2248 39.8255ZM12.6253 45.5292L11.6808 45.201L11.6807 45.201L12.6253 45.5292ZM9.09027 52.9796L9.93503 53.5148L9.93505 53.5147L9.09027 52.9796ZM7.37516 56.1506L8.33321 56.4372L8.33322 56.4371L7.37516 56.1506ZM6.53257 55.3917L5.62053 55.8018L5.62053 55.8018L6.53257 55.3917ZM3.4079 44.4153L2.41693 44.5494L2.41693 44.5494L3.4079 44.4153ZM3.40508 35.6471L4.39633 35.7791L4.39633 35.7791L3.40508 35.6471ZM11.3516 16.8794L12.1334 17.503L12.1334 17.503L11.3516 16.8794ZM16.8676 11.3645L17.491 12.1464L17.491 12.1463L16.8676 11.3645ZM33.4028 3.77476L33.581 4.75875L33.5811 4.75874L33.4028 3.77476ZM37.6857 3.22903L37.5887 2.23375L37.5887 2.23375L37.6857 3.22903ZM17.7141 41.3026L16.9726 41.9736L16.9727 41.9737L17.7141 41.3026ZM18.656 45.6987L19.656 45.6991V45.6991L18.656 45.6987ZM17.5107 52.2857L18.4603 52.599L18.4603 52.5989L17.5107 52.2857ZM17.2369 53.7117L16.3022 54.0672L16.3022 54.0672L17.2369 53.7117ZM26.6666 52.5488L26.4387 51.5751H26.4387L26.6666 52.5488ZM37.9519 50.1015L38.0668 51.0948H38.0668L37.9519 50.1015ZM41.6898 51.3457L42.6597 51.5892L42.6597 51.5891L41.6898 51.3457ZM32.9149 55.5867L33.2638 56.5239H33.2638L32.9149 55.5867ZM30.1902 56.8753L29.4887 56.1626L29.4887 56.1627L30.1902 56.8753ZM29.9426 61.1921L28.9748 61.4441L28.9748 61.4441L29.9426 61.1921ZM30.4431 63.1158L31.4109 62.8645L31.4109 62.8643L30.4431 63.1158ZM30.632 65.8261L31.632 65.8232V65.8231L30.632 65.8261ZM30.3354 68.4476L31.2329 68.8885L31.233 68.8885L30.3354 68.4476ZM27.2756 70.5391L27.5538 71.4996L27.5538 71.4996L27.2756 70.5391ZM18.3856 71.1008L18.5784 70.1196L18.5784 70.1196L18.3856 71.1008ZM12.1117 68.1138L11.4184 68.8344L11.4184 68.8345L12.1117 68.1138ZM9.16433 62.292L10.1516 62.1328L10.1516 62.1327L9.16433 62.292ZM9.20998 57.5703L8.24226 57.3183L8.24225 57.3183L9.20998 57.5703ZM11.0622 53.9099L10.2147 53.3792L11.0622 53.9099ZM14.7339 46.0888L13.7904 45.7577L13.7903 45.7577L14.7339 46.0888ZM16.711 41.5154L17.4219 42.2187L17.422 42.2186L16.711 41.5154ZM36.7378 0.127296C25.1546 1.06196 14.4566 7.12693 7.53069 16.6716L9.14943 17.8462C15.7386 8.76553 25.9084 3.00764 36.8987 2.12082L36.7378 0.127296ZM7.5307 16.6716C2.40907 23.7297 -0.250778 32.3954 0.0186291 41.1396L2.01768 41.078C1.76186 32.775 4.28898 24.5443 9.14943 17.8462L7.5307 16.6716ZM0.0186298 41.1397C0.226682 47.8873 1.97222 54.1139 5.27855 59.8881L7.01415 58.8942C3.87337 53.4092 2.2158 47.5034 2.01768 41.078L0.0186298 41.1397ZM5.27857 59.8881C5.52986 60.3269 5.67907 60.6145 5.76458 60.8138C5.85243 61.0186 5.83801 61.0526 5.83801 61.0033H7.83801C7.83801 60.6556 7.73295 60.3292 7.60256 60.0253C7.46983 59.7159 7.27321 59.3466 7.01414 58.8942L5.27857 59.8881ZM5.83801 61.0033C5.83801 61.4887 5.9371 62.2321 6.06225 62.9309C6.18943 63.6411 6.36139 64.4036 6.53696 64.9408L8.43803 64.3196C8.30382 63.9089 8.15104 63.2491 8.03093 62.5784C7.90878 61.8963 7.83801 61.3002 7.83801 61.0033H5.83801ZM6.53698 64.9409C8.17143 69.9416 12.3018 73.2514 17.9138 74.2329L18.2584 72.2628C13.2761 71.3914 9.81329 68.5273 8.43801 64.3195L6.53698 64.9409ZM17.9138 74.2329C18.4293 74.3231 19.0992 74.414 19.3952 74.4144L19.3974 72.4144C19.4006 72.4144 19.3919 72.4144 19.3667 72.4128C19.3433 72.4114 19.3125 72.409 19.274 72.4054C19.197 72.3982 19.1 72.3874 18.9889 72.3733C18.7667 72.345 18.5041 72.3058 18.2584 72.2628L17.9138 74.2329ZM19.3954 74.4144C19.2986 74.4143 19.2649 74.393 19.3475 74.4195C19.4115 74.4401 19.5117 74.4783 19.6561 74.5423C19.9442 74.6701 20.3466 74.8729 20.8817 75.1633L21.8358 73.4056C21.2836 73.1058 20.827 72.8737 20.4668 72.714C20.2871 72.6343 20.1158 72.5657 19.9589 72.5153C19.8204 72.4708 19.6163 72.4146 19.3972 72.4144L19.3954 74.4144ZM20.8817 75.1633C25.4193 77.6263 30.0921 79.1137 35.391 79.7875L35.6433 77.8034C30.581 77.1598 26.1474 75.7458 21.8358 73.4056L20.8817 75.1633ZM35.391 79.7875C37.6139 80.07 42.4442 80.0711 44.6438 79.7891L44.3895 77.8053C42.36 78.0655 37.6998 78.0649 35.6432 77.8034L35.391 79.7875ZM44.6439 79.7891C54.0894 78.5776 62.1417 74.6011 68.6546 67.9202L67.2225 66.5241C61.0322 72.8742 53.3982 76.6498 44.3894 77.8053L44.6439 79.7891ZM68.6546 67.9202C74.9213 61.4918 78.6227 53.7474 79.7875 44.6507L77.8037 44.3967C76.6927 53.0737 73.1787 60.4142 67.2225 66.5241L68.6546 67.9202ZM79.7875 44.6507C80.0708 42.4385 80.0708 37.6109 79.7875 35.3988L77.8037 35.6528C78.0654 37.6963 78.0654 42.3532 77.8037 44.3967L79.7875 44.6507ZM79.7875 35.3988C78.313 23.883 72.5199 14.1218 63.154 7.381L61.9857 9.00428C70.8984 15.4189 76.3991 24.6826 77.8037 35.6528L79.7875 35.3988ZM63.154 7.381C55.6764 1.99925 46.0955 -0.627662 36.7379 0.127295L36.8987 2.12082C45.7942 1.40315 54.9019 3.90593 61.9857 9.00429L63.154 7.381ZM44.3256 4.42545C51.1253 5.29892 57.1587 7.85575 62.543 12.1469L63.7895 10.5829C58.1204 6.06475 51.7444 3.36201 44.5804 2.44175L44.3256 4.42545ZM62.543 12.1469C64.015 13.3201 66.7264 16.0311 67.8998 17.5028L69.4636 16.2561C68.1967 14.667 65.3788 11.8496 63.7895 10.5829L62.543 12.1469ZM67.8998 17.5028C71.6045 22.1496 74.1197 27.5227 75.1844 33.036L77.1481 32.6567C76.0189 26.8092 73.3586 21.1415 69.4636 16.2561L67.8998 17.5028ZM75.1844 33.036C75.7124 35.7692 75.8166 36.9095 75.8166 40.0247H77.8166C77.8166 36.7961 77.7027 35.5278 77.1481 32.6567L75.1844 33.036ZM75.8166 40.0247C75.8166 43.1437 75.7125 44.2793 75.1815 47.0286L77.1452 47.4079C77.7028 44.5212 77.8166 43.2577 77.8166 40.0247H75.8166ZM75.1815 47.0286C74.1209 52.5199 71.5965 57.91 67.8998 62.5467L69.4636 63.7934C73.3502 58.9185 76.0199 53.234 77.1452 47.4079L75.1815 47.0286ZM67.8998 62.5467C66.7264 64.0184 64.015 66.7294 62.543 67.9026L63.7895 69.4666C65.3788 68.1999 68.1967 65.3825 69.4636 63.7934L67.8998 62.5467ZM62.543 67.9026C57.1516 72.1994 51.1869 74.7246 44.2646 75.6369L44.526 77.6198C51.8041 76.6606 58.1104 73.9928 63.7895 69.4666L62.543 67.9026ZM44.2646 75.6369C43.4462 75.7449 41.8782 75.8117 40.264 75.8231C38.649 75.8345 37.0893 75.7897 36.2865 75.6937L36.0489 77.6795C36.9876 77.7918 38.6571 77.8345 40.2781 77.8231C41.8999 77.8116 43.5749 77.7452 44.526 77.6198L44.2646 75.6369ZM36.2865 75.6937C32.6179 75.2548 29.1312 74.3388 25.9071 72.971L25.126 74.8122C28.5322 76.2572 32.2028 77.2194 36.0489 77.6795L36.2865 75.6937ZM25.907 72.971C25.5799 72.8322 25.2919 72.7041 25.0929 72.6105C24.9908 72.5625 24.9245 72.5294 24.8909 72.5114C24.8687 72.4995 24.8843 72.5067 24.9149 72.5274C24.9196 72.5306 24.9882 72.5754 25.0622 72.6529C25.0898 72.6818 25.2006 72.7977 25.2718 72.9868C25.3114 73.0918 25.3553 73.2626 25.3269 73.4722C25.2962 73.6991 25.1903 73.8982 25.0417 74.046L23.6313 72.628C23.482 72.7764 23.3758 72.9763 23.345 73.204C23.3165 73.4144 23.3605 73.5863 23.4005 73.6924C23.4726 73.8837 23.5852 74.0022 23.6157 74.0341C23.6955 74.1176 23.774 74.1702 23.7926 74.1828C23.8508 74.2223 23.9097 74.2547 23.9448 74.2735C24.0259 74.317 24.1303 74.368 24.2421 74.4205C24.4708 74.5281 24.7833 74.6668 25.126 74.8122L25.907 72.971ZM25.0436 74.0441C24.9741 74.1136 24.9092 74.1577 24.8738 74.1802C24.8346 74.205 24.8011 74.2225 24.7791 74.2332C24.7362 74.2542 24.7016 74.2671 24.6858 74.2728C24.653 74.2846 24.6295 74.2909 24.6271 74.2915C24.6184 74.2939 24.6221 74.2926 24.6464 74.2874C24.6912 74.2779 24.7643 74.264 24.8643 74.2463C25.0617 74.2113 25.3348 74.1671 25.6343 74.1225L25.3395 72.1443C25.0272 72.1908 24.7355 72.238 24.5158 72.2769C24.4073 72.2961 24.3088 72.3146 24.2316 72.3309C24.1949 72.3387 24.15 72.3487 24.1066 72.3604C24.0868 72.3658 24.0494 72.3762 24.0064 72.3917C23.9856 72.3992 23.9468 72.4139 23.9007 72.4364C23.8767 72.4482 23.7517 72.5075 23.6295 72.6298L25.0436 74.0441ZM25.6342 74.1225C28.3177 73.7229 30.4328 72.9648 31.7734 71.7191L30.4121 70.254C29.5132 71.0891 27.8819 71.7657 25.3396 72.1443L25.6342 74.1225ZM31.7734 71.7191C32.743 70.8183 33.2967 69.8673 33.6274 68.5603L31.6884 68.0698C31.4489 69.0166 31.0891 69.6249 30.4121 70.254L31.7734 71.7191ZM33.6274 68.5602C33.7393 68.1176 33.8116 67.772 33.8407 67.29C33.8678 66.8418 33.8566 66.2838 33.8304 65.4164L31.8313 65.4769C31.8582 66.3649 31.8649 66.8286 31.8443 67.1695C31.8258 67.4767 31.7851 67.6876 31.6884 68.0698L33.6274 68.5602ZM33.8304 65.4164C33.802 64.479 33.7832 63.9161 33.6946 63.3209C33.607 62.7329 33.4534 62.127 33.1885 61.0939L31.2512 61.5906C31.5243 62.6558 31.6473 63.1512 31.7164 63.6154C31.7844 64.0725 31.8021 64.5126 31.8313 65.4769L33.8304 65.4164ZM33.1885 61.094C33.0395 60.5125 32.9046 59.9414 32.8076 59.4923C32.7589 59.267 32.7211 59.0784 32.696 58.9374C32.6649 58.7624 32.668 58.7377 32.668 58.7862H30.668C30.668 58.9455 30.7021 59.1478 30.727 59.2878C30.7579 59.4618 30.8012 59.6763 30.8526 59.9144C30.9557 60.3918 31.0967 60.9879 31.2512 61.5905L33.1885 61.094ZM32.668 58.7862V58.3833H30.668V58.7862H32.668ZM32.0211 59.3188L35.4095 58.0397L34.7032 56.1686L31.3148 57.4477L32.0211 59.3188ZM35.4095 58.0397C40.7487 56.0241 42.4607 55.2504 43.7089 54.0158L42.3025 52.5939C41.4238 53.463 40.1901 54.0972 34.7031 56.1686L35.4095 58.0397ZM43.7089 54.0158C44.1393 53.5902 44.4928 53.1449 44.7025 52.6062C44.9164 52.0565 44.9436 51.5053 44.8843 50.9309L42.8949 51.1363C42.9339 51.5144 42.9006 51.7217 42.8386 51.8809C42.7724 52.0512 42.6348 52.2652 42.3025 52.5938L43.7089 54.0158ZM44.8843 50.9309C44.7387 49.5204 44.0545 48.3913 42.8752 47.6835C41.7446 47.0048 40.2566 46.7702 38.5603 46.8723L38.6804 48.8687C40.1634 48.7795 41.1945 49.0072 41.8459 49.3982C42.4487 49.7601 42.8094 50.3082 42.8949 51.1362L44.8843 50.9309ZM38.5603 46.8723C37.01 46.9656 35.2923 47.2697 32.4703 47.9297L32.9258 49.8772C35.7216 49.2233 37.3051 48.9515 38.6804 48.8687L38.5603 46.8723ZM32.4703 47.9297C31.2177 48.2227 27.8604 49.0091 25.0097 49.6775L25.4662 51.6247C28.3169 50.9564 31.6737 50.17 32.9258 49.8772L32.4703 47.9297ZM25.0097 49.6775C23.5864 50.0112 22.2892 50.3098 21.3462 50.5219C20.8742 50.6282 20.4938 50.712 20.2317 50.7677C20.0996 50.7958 20.0033 50.8154 19.9423 50.827C19.9098 50.8332 19.8981 50.835 19.8997 50.8348C19.901 50.8346 19.9056 50.8339 19.9126 50.8331C19.9186 50.8323 19.9326 50.8307 19.9515 50.8293C19.964 50.8284 20.0098 50.8251 20.0696 50.8282C20.0976 50.8297 20.1613 50.834 20.2404 50.8522C20.281 50.8615 20.5149 50.9119 20.7221 51.1191L19.308 52.5334C19.5155 52.7409 19.75 52.7916 19.7915 52.8011C19.8715 52.8196 19.9365 52.824 19.9659 52.8255C20.0286 52.8288 20.0785 52.8254 20.0962 52.8241C20.1389 52.821 20.1755 52.8157 20.1923 52.8133C20.2321 52.8074 20.2759 52.7994 20.3154 52.7919C20.3982 52.7762 20.5115 52.7529 20.6473 52.7241C20.9211 52.6659 21.3106 52.58 21.7853 52.4732C22.7356 52.2593 24.0389 51.9593 25.4662 51.6247L25.0097 49.6775ZM20.7221 51.1191C20.8202 51.2172 20.8783 51.3163 20.9113 51.3833C20.9452 51.4522 20.9649 51.5125 20.9765 51.554C20.9989 51.6341 21.0058 51.6989 21.0085 51.7294C21.014 51.7924 21.0115 51.839 21.0109 51.849C21.0095 51.8761 21.0073 51.8865 21.0102 51.8662C21.015 51.8325 21.0259 51.7689 21.0447 51.6735C21.0816 51.4871 21.1393 51.2259 21.209 50.9376L19.265 50.4676C19.1906 50.7753 19.1263 51.0649 19.0827 51.2859C19.0613 51.3942 19.0424 51.4983 19.0301 51.5842C19.0245 51.6237 19.017 51.6819 19.0137 51.7432C19.0123 51.7703 19.0097 51.8306 19.0161 51.9037C19.0192 51.9392 19.0269 52.0083 19.0501 52.0916C19.0667 52.1512 19.1255 52.351 19.308 52.5334L20.7221 51.1191ZM21.209 50.9376C21.6668 49.0442 21.8425 47.5505 21.8359 45.6044L19.8359 45.6112C19.8419 47.3964 19.6852 48.73 19.265 50.4675L21.209 50.9376ZM21.8359 45.6044C21.8302 43.9186 21.6349 42.444 21.2304 41.2481C20.8274 40.0567 20.1871 39.0601 19.2362 38.4703L18.182 40.1699C18.6037 40.4315 19.0214 40.9592 19.3359 41.889C19.6489 42.8144 19.8307 44.0579 19.8359 45.6112L21.8359 45.6044ZM19.2362 38.4703C18.9839 38.3138 18.7138 38.1572 18.3518 38.0739C18.0289 37.9995 17.6821 37.9966 17.306 37.9978L17.3126 39.9978C17.7232 39.9964 17.8407 40.0085 17.9031 40.0229C17.9266 40.0283 17.9631 40.0341 18.182 40.1699L19.2362 38.4703ZM17.3059 37.9978C16.7514 37.9997 16.2362 38.0554 15.7475 38.2494C15.2465 38.4484 14.8564 38.7592 14.4978 39.1389L15.9518 40.5121C16.1826 40.2677 16.3393 40.1663 16.4856 40.1083C16.6441 40.0453 16.8764 39.9993 17.3127 39.9978L17.3059 37.9978ZM14.4977 39.1389C13.5235 40.1706 12.9843 41.4499 11.6808 45.201L13.5699 45.8575C14.9151 41.9865 15.3313 41.1692 15.9518 40.5121L14.4977 39.1389ZM11.6807 45.201C10.474 48.6741 9.98999 49.6906 8.2455 52.4445L9.93505 53.5147C11.7708 50.6167 12.3186 49.4587 13.5699 45.8574L11.6807 45.201ZM8.24552 52.4445C7.11913 54.2225 6.669 55.0219 6.4171 55.864L8.33322 56.4371C8.49314 55.9025 8.78422 55.3313 9.93503 53.5148L8.24552 52.4445ZM6.41711 55.864C6.38962 55.9559 6.36281 56.023 6.34941 56.0516C6.34041 56.0708 6.34984 56.0464 6.38061 56.0023C6.39408 55.983 6.43757 55.922 6.51269 55.8551C6.55158 55.8205 6.61842 55.7667 6.71296 55.7184C6.80713 55.6703 6.96112 55.6113 7.15918 55.6113V57.6113C7.54224 57.6113 7.78451 57.4006 7.84272 57.3487C7.93169 57.2695 7.99043 57.1903 8.02024 57.1476C8.08371 57.0567 8.13023 56.9646 8.16037 56.9003C8.22525 56.7619 8.28491 56.5986 8.33321 56.4372L6.41711 55.864ZM7.15918 55.6113C7.40997 55.6113 7.58891 55.7052 7.66041 55.7472C7.74368 55.796 7.80095 55.8463 7.82896 55.8723C7.8855 55.9249 7.92006 55.9703 7.92802 55.9808C7.9488 56.0081 7.95517 56.0208 7.94279 56.0002C7.92243 55.9663 7.88543 55.8995 7.83233 55.7961C7.72873 55.5945 7.59043 55.3059 7.44461 54.9816L5.62053 55.8018C5.77636 56.1484 5.92984 56.4696 6.05337 56.71C6.11384 56.8277 6.17424 56.94 6.22827 57.03C6.25308 57.0713 6.29089 57.1321 6.33651 57.192C6.35689 57.2188 6.40221 57.2767 6.46776 57.3376C6.50027 57.3678 6.5616 57.4213 6.64849 57.4723C6.7236 57.5163 6.90569 57.6113 7.15918 57.6113V55.6113ZM7.44461 54.9816C5.83066 51.3923 4.93603 48.2507 4.39887 44.2812L2.41693 44.5494C2.97945 48.7063 3.92636 52.0341 5.62053 55.8018L7.44461 54.9816ZM4.39887 44.2812C4.27597 43.3727 4.20891 41.7314 4.20835 40.0391C4.2078 38.3472 4.27374 36.6996 4.39633 35.7791L2.41384 35.5151C2.27284 36.5737 2.2078 38.3316 2.20835 40.0397C2.20891 41.7474 2.27506 43.5007 2.41693 44.5494L4.39887 44.2812ZM4.39633 35.7791C5.32274 28.8223 7.83529 22.8917 12.1334 17.503L10.5699 16.2559C6.04154 21.9332 3.38729 28.205 2.41383 35.5151L4.39633 35.7791ZM12.1334 17.503C13.3074 16.0311 16.0189 13.3201 17.491 12.1464L16.2442 10.5826C14.6549 11.8497 11.8372 14.6669 10.5699 16.2559L12.1334 17.503ZM17.491 12.1463C22.3091 8.30461 27.7303 5.81851 33.581 4.75875L33.2246 2.79077C27.037 3.91155 21.312 6.54171 16.2441 10.5826L17.491 12.1463ZM33.5811 4.75874C34.8091 4.53625 35.5158 4.44526 37.7827 4.22432L37.5887 2.23375C35.302 2.45663 34.5322 2.55384 33.2245 2.79078L33.5811 4.75874ZM37.7827 4.22432C38.1923 4.18441 39.4964 4.191 40.9295 4.23431C42.3481 4.27718 43.7486 4.35134 44.3256 4.42545L44.5804 2.44175C43.8914 2.35325 42.3951 2.27769 40.9899 2.23522C39.5992 2.19319 38.1527 2.1788 37.5887 2.23375L37.7827 4.22432ZM16.9727 41.9737C17.0939 42.1076 17.2832 42.4658 17.4319 43.1601C17.5739 43.8228 17.6564 44.6828 17.656 45.6982L19.656 45.6991C19.6564 44.5867 19.5671 43.5792 19.3876 42.7411C19.2148 41.9346 18.9326 41.1586 18.4554 40.6315L16.9727 41.9737ZM17.656 45.6982C17.6551 47.8645 17.3729 49.5109 16.561 51.9724L18.4603 52.5989C19.3277 49.9692 19.655 48.1107 19.656 45.6991L17.656 45.6982ZM16.561 51.9724C16.4123 52.4231 16.3034 52.7814 16.2483 53.0684C16.1907 53.3683 16.1664 53.7102 16.3022 54.0672L18.1716 53.3562C18.2242 53.4945 18.1871 53.5771 18.2124 53.4455C18.2401 53.301 18.3096 53.0557 18.4603 52.599L16.561 51.9724ZM16.3022 54.0672C16.5911 54.8266 17.3032 55.4431 18.2025 55.4431V53.4431C18.2334 53.4431 18.2426 53.4544 18.231 53.4456C18.2186 53.4362 18.1918 53.4094 18.1716 53.3562L16.3022 54.0672ZM18.2025 55.4431C18.3105 55.4431 18.4199 55.4241 18.4419 55.4205C18.4959 55.4118 18.5602 55.4001 18.6305 55.3867C18.7722 55.3595 18.9624 55.3206 19.1923 55.2721C19.6535 55.1747 20.2924 55.0345 21.061 54.8625C22.599 54.5183 24.6671 54.044 26.8946 53.5225L26.4387 51.5751C24.2158 52.0955 22.1543 52.5684 20.6242 52.9108C19.8586 53.0822 19.2287 53.2203 18.779 53.3152C18.5535 53.3629 18.3778 53.3987 18.2546 53.4223C18.1924 53.4342 18.1495 53.4418 18.1231 53.4461C18.0645 53.4555 18.1202 53.4431 18.2025 53.4431V55.4431ZM26.8946 53.5225C36.1021 51.3668 36.5758 51.2673 38.0668 51.0948L37.837 49.1081C36.2 49.2975 35.5762 49.4358 26.4387 51.5751L26.8946 53.5225ZM38.0668 51.0948C39.2526 50.9576 40.0821 51.0272 40.5352 51.1781C40.7611 51.2532 40.7954 51.3161 40.7716 51.2851C40.7545 51.2629 40.733 51.2231 40.7233 51.1722C40.7139 51.1232 40.7215 51.0957 40.7199 51.1022L42.6597 51.5891C42.793 51.0583 42.7018 50.515 42.3581 50.0672C42.0465 49.6613 41.5968 49.4235 41.1669 49.2804C40.3086 48.9948 39.1399 48.9573 37.837 49.1081L38.0668 51.0948ZM40.7199 51.1021C40.7358 51.039 40.7608 51.0814 40.5682 51.2373C40.3646 51.4021 40.0038 51.6244 39.3745 51.9286C38.1209 52.5344 36.027 53.3608 32.5659 54.6496L33.2638 56.5239C36.7077 55.2415 38.8919 54.3832 40.2448 53.7293C40.9187 53.4036 41.4433 53.1022 41.8266 52.7918C42.2209 52.4726 42.5344 52.0883 42.6597 51.5892L40.7199 51.1021ZM32.5659 54.6496C30.6629 55.3582 30.0637 55.5967 29.4887 56.1626L30.8917 57.588C31.0944 57.3885 31.2121 57.2879 33.2638 56.5239L32.5659 54.6496ZM29.4887 56.1627C28.8898 56.7522 28.5855 57.4787 28.5339 58.3784C28.4855 59.2223 28.6582 60.2281 28.9748 61.4441L30.9103 60.9402C30.6058 59.7706 30.5007 59.0133 30.5306 58.4929C30.5572 58.0284 30.6873 57.7892 30.8917 57.5879L29.4887 56.1627ZM28.9748 61.4441C29.1494 62.1145 29.3745 62.98 29.4752 63.3674L31.4109 62.8643C31.3101 62.4766 31.0849 61.6108 30.9103 60.9402L28.9748 61.4441ZM29.4752 63.3672C29.5772 63.7601 29.6276 64.299 29.632 65.829L31.632 65.8231C31.6276 64.3205 31.5856 63.537 31.4109 62.8645L29.4752 63.3672ZM29.632 65.829C29.635 66.8538 29.6335 67.2806 29.6043 67.5391C29.5867 67.6942 29.5748 67.7279 29.4378 68.0068L31.233 68.8885C31.3948 68.559 31.5341 68.2724 31.5916 67.764C31.6374 67.3591 31.6348 66.7793 31.632 65.8232L29.632 65.829ZM29.4378 68.0067C29.2571 68.3746 29.0367 68.636 28.7019 68.8649C28.3432 69.1101 27.8202 69.3402 26.9973 69.5787L27.5538 71.4996C28.4644 71.2358 29.2189 70.9341 29.8305 70.516C30.466 70.0816 30.9088 69.5483 31.2329 68.8885L29.4378 68.0067ZM26.9973 69.5786C25.8662 69.9064 24.2575 70.1446 22.6502 70.2461C21.034 70.3483 19.5241 70.3054 18.5784 70.1196L18.1927 72.082C19.3868 72.3167 21.0956 72.3484 22.7763 72.2422C24.4658 72.1354 26.2322 71.8826 27.5538 71.4996L26.9973 69.5786ZM18.5784 70.1196C15.9779 69.6086 14.2082 68.743 12.805 67.3932L11.4184 68.8345C13.1655 70.5151 15.3187 71.5174 18.1928 72.0821L18.5784 70.1196ZM12.8051 67.3932C11.3194 65.9637 10.5173 64.3998 10.1516 62.1328L8.1771 62.4513C8.60568 65.1077 9.59313 67.0782 11.4184 68.8344L12.8051 67.3932ZM10.1516 62.1327C10.0383 61.4308 9.98374 60.5706 9.99161 59.7575C9.99962 58.9296 10.0718 58.2292 10.1777 57.8223L8.24225 57.3183C8.07506 57.9604 8.00028 58.8519 7.99171 59.7381C7.98299 60.6391 8.04218 61.6153 8.1771 62.4514L10.1516 62.1327ZM10.1777 57.8223C10.4049 56.9499 10.5861 56.5546 11.9098 54.4406L10.2147 53.3792C8.88838 55.4974 8.55413 56.1208 8.24226 57.3183L10.1777 57.8223ZM11.9098 54.4406C13.8262 51.3799 14.2719 50.4256 15.6775 46.4199L13.7903 45.7577C12.425 49.6488 12.0395 50.4648 10.2147 53.3792L11.9098 54.4406ZM15.6775 46.42C16.2614 44.7562 16.6245 43.7677 16.897 43.1372C17.1658 42.5154 17.3098 42.332 17.4219 42.2187L16.0002 40.812C15.6331 41.183 15.3703 41.6286 15.0612 42.3436C14.7559 43.0499 14.37 44.106 13.7904 45.7577L15.6775 46.42ZM17.422 42.2186C17.5051 42.1346 17.5566 42.0941 17.5801 42.0781C17.6051 42.061 17.5708 42.0905 17.4852 42.1087C17.3838 42.1302 17.2571 42.1254 17.1352 42.0766C17.0267 42.0333 16.9751 41.9764 16.9726 41.9736L18.4555 40.6316C18.156 40.3005 17.6759 40.0237 17.0702 40.1522C16.6049 40.2509 16.2457 40.5637 16 40.8122L17.422 42.2186Z" fill="#1E0654" fill-opacity="0.5" mask="url(#path-1-outside-1_3811_16906)"/>
<path d="M26 37C36.3685 37.1685 43 37 53 43" stroke="#FF7A00" stroke-width="4" stroke-linecap="round"/>
<circle cx="28.5" cy="21.5" r="6.5" fill="#A32AFF"/>
<circle cx="55.5" cy="23.5" r="6.5" fill="#FED601"/>
</svg>
