<svg width="62" height="86" viewBox="0 0 62 86" fill="none" xmlns="http://www.w3.org/2000/svg">
<path fill-rule="evenodd" clip-rule="evenodd" d="M0.987084 0.294785C-0.073727 0.939785 0.00128725 -2.30739 0.00128725 43C0.00128725 88.4315 -0.078351 85.0799 1.01517 85.7134C1.47639 85.9805 3.51101 86 31.0001 86C58.4892 86 60.5239 85.9805 60.9851 85.7134C62.0724 85.0834 61.999 87.5205 61.999 52.1096V19.8657L61.6307 19.3811C61.0579 18.6274 43.158 1.03502 42.4063 0.486941L41.7384 0L21.5977 0.00453516C2.93761 0.00856641 1.42244 0.0298984 0.987084 0.294785ZM39.0495 12.2671C39.0495 21.42 39.0576 21.503 40.0122 22.1168C40.4563 22.4023 41.0992 22.4272 49.1892 22.4717L57.8886 22.5196V52.3281V82.1367H31.0001H4.11163V43V3.86328H21.5806H39.0495V12.2671ZM49.1541 12.6816L55.0609 18.4766H49.1105H43.1599V12.6816C43.1599 9.49443 43.1796 6.88672 43.2036 6.88672C43.2277 6.88672 45.9054 9.49443 49.1541 12.6816Z" fill="white"/>
</svg>
