<svg width="55" height="49" viewBox="0 0 55 49" fill="none" xmlns="http://www.w3.org/2000/svg">
<path d="M7.23324 48.0772L2 42.844C8.98752 35.8528 18.2845 32 28.1699 32C38.0553 32 47.3523 35.8528 54.3398 42.8403L49.1065 48.0735C43.5143 42.4813 36.079 39.402 28.1699 39.402C20.2608 39.402 12.8255 42.485 7.23324 48.0772Z" fill="#EC5B43"/>
<path d="M5.23324 23.7383L11.8692 17.1024L18.5051 23.7383L23.7383 18.5051L17.1024 11.8692L23.7383 5.23324L18.5051 0L11.8692 6.63592L5.23324 0L0 5.23324L6.63592 11.8692L0 18.5051L5.23324 23.7383Z" fill="white"/>
<path d="M35.2332 23.7383L41.8692 17.1024L48.5051 23.7383L53.7383 18.5051L47.1024 11.8692L53.7383 5.23324L48.5051 0L41.8692 6.63592L35.2332 0L30 5.23324L36.6359 11.8692L30 18.5051L35.2332 23.7383Z" fill="white"/>
</svg>
