<svg width="69" height="42" viewBox="0 0 69 42" fill="none" xmlns="http://www.w3.org/2000/svg">
<ellipse cx="20.841" cy="20.81" rx="20.841" ry="20.81" fill="#FF4E37"/>
<ellipse cx="47.5724" cy="20.81" rx="20.841" ry="20.81" fill="#FF4E37"/>
<path fill-rule="evenodd" clip-rule="evenodd" d="M34.2064 36.7778C38.7757 32.9604 41.6819 27.2241 41.6819 20.81C41.6819 14.3959 38.7757 8.65954 34.2064 4.84219C29.6371 8.65954 26.731 14.3959 26.731 20.81C26.731 27.2241 29.6371 32.9604 34.2064 36.7778Z" fill="#CD3C29"/>
<path d="M44.2881 9.36492C44.2143 10.1865 44.6909 10.9326 45.4701 11.1903C47.1778 11.7722 48.7414 12.8062 49.979 14.3003C53.4349 18.4727 52.933 24.6398 48.8928 28.1289L47.6319 26.6066C47.2816 26.1837 46.6195 26.3519 46.4941 26.8835L46.3362 27.4897C45.9321 29.1077 45.6307 30.7359 45.4552 32.4023C45.3532 32.9621 45.7501 33.4414 46.3192 33.4454L46.3705 33.4504C48.0404 33.5882 49.6962 33.5952 51.3379 33.4713L51.9628 33.4289C52.5085 33.4047 52.797 32.7855 52.4468 32.3626L51.1858 30.8403C56.7359 26.1006 57.436 17.7253 52.7191 12.0307C51.0612 10.0291 48.9375 8.60347 46.6512 7.83534C45.5408 7.51924 44.3895 8.23519 44.2881 9.36492Z" fill="white"/>
<path d="M24.0508 33.0748C24.1245 32.2532 23.648 31.5071 22.8688 31.2494C21.1611 30.6675 19.5975 29.6336 18.3599 28.1394C14.904 23.9671 15.4058 17.7999 19.446 14.3109L20.707 15.8332C21.0572 16.2561 21.7194 16.0879 21.8447 15.5562L22.0027 14.9501C22.4068 13.332 22.7082 11.7039 22.8837 10.0375C22.9857 9.47765 22.5887 8.99839 22.0197 8.9944L21.9684 8.98937C20.2985 8.85151 18.6427 8.84456 17.001 8.96849L16.376 9.01081C15.8303 9.03501 15.5418 9.65426 15.8921 10.0771L17.153 11.5995C11.603 16.3391 10.9029 24.7144 15.6197 30.4091C17.2777 32.4107 19.4014 33.8363 21.6876 34.6044C22.7981 34.9205 23.9494 34.2046 24.0508 33.0748Z" fill="white"/>
</svg>
