<svg width="30" height="31" viewBox="0 0 30 31" fill="none" xmlns="http://www.w3.org/2000/svg">
<path d="M3.19857 15.6679H1.5447C1.08529 15.6679 0.840274 15.1501 1.11592 14.7846L1.42219 14.3582C2.2185 13.2312 3.13731 12.1651 4.08676 11.16L4.11738 11.1295C4.42366 10.764 4.94432 10.764 5.25059 11.1295C6.23066 12.1347 7.11885 13.2007 7.94578 14.3277L8.25206 14.7541C8.5277 15.1197 8.28268 15.6375 7.82327 15.6375H6.1694C6.26129 20.115 9.96718 23.7396 14.5 23.7396C16.1232 23.7396 17.624 23.2827 18.9103 22.4908C19.4922 22.1253 20.2273 22.2471 20.7173 22.704C21.3911 23.3741 21.2686 24.5011 20.4417 24.9884C18.7266 26.0545 16.6745 26.6637 14.5 26.6637C8.34393 26.7246 3.32108 21.7902 3.19857 15.6679ZM8.28268 8.23588C8.77271 8.72323 9.50777 8.81461 10.0897 8.4491C11.376 7.65716 12.8768 7.20027 14.5 7.20027C19.0328 7.20027 22.7387 10.8249 22.8306 15.3024H21.1767C20.7173 15.3024 20.4723 15.8202 20.7479 16.1857L21.0542 16.6122C21.8811 17.7392 22.7693 18.8052 23.7494 19.8104C24.0557 20.1759 24.5763 20.1759 24.8826 19.8104L24.9132 19.7799C25.8933 18.7748 26.7815 17.7087 27.5778 16.5817L27.8841 16.1553C28.1597 15.7898 27.9147 15.272 27.4553 15.272H25.8014C25.7096 9.14966 20.6867 4.21527 14.5 4.21527C12.3255 4.21527 10.2734 4.82445 8.55833 5.89053C7.76202 6.43879 7.60888 7.56578 8.28268 8.23588Z" fill="white"/>
</svg>
