<svg width="23" height="22" viewBox="0 0 23 22" fill="none" xmlns="http://www.w3.org/2000/svg">
<path fill-rule="evenodd" clip-rule="evenodd" d="M14.1236 0.149521C13.2851 0.56338 13.2795 1.88754 14.1146 2.28379C14.3863 2.41274 14.7807 2.44375 16.1488 2.44375H17.8458L12.6954 7.60477C9.86254 10.4434 7.4963 12.862 7.43681 12.9795C6.97384 13.8953 8.10711 15.0286 9.02298 14.5656C9.14049 14.5062 11.5591 12.1399 14.3977 9.30708L19.5587 4.15662V5.85364C19.5587 7.22173 19.5897 7.61612 19.7187 7.88782C20.1188 8.7311 21.4518 8.71583 21.8564 7.86336C21.9797 7.6034 22.0047 7.0012 22.0045 4.28792C22.0044 0.624921 21.9837 0.500763 21.3198 0.169186C21.014 0.0163614 20.627 -0.00173883 17.6998 0.000120112C14.981 0.00188122 14.3713 0.0273194 14.1236 0.149521ZM2.32843 3.94598C1.22158 4.40132 0.513416 5.16133 0.183209 6.24813C-0.00973012 6.8836 -0.015307 7.10325 0.0117945 13.064L0.0397765 19.2232L0.320966 19.8319C0.665556 20.5779 1.429 21.33 2.21641 21.6989L2.77927 21.9627L8.87808 21.9907C14.1645 22.0149 15.0568 21.9982 15.5768 21.8649C16.7284 21.57 17.6667 20.7265 18.084 19.6111C18.2759 19.098 18.2868 18.8724 18.2868 15.3939V11.7189L17.9541 11.3863C17.6631 11.0952 17.5594 11.0536 17.1241 11.0536C16.7128 11.0536 16.5713 11.103 16.3071 11.3389L15.9876 11.6243L15.9386 15.1791C15.8851 19.0687 15.8993 18.9774 15.2836 19.3833C15.0244 19.5543 14.6871 19.5643 9.20731 19.5649C2.80452 19.5657 3.01644 19.5855 2.6286 18.9493C2.44486 18.648 2.43752 18.4161 2.43723 12.8343C2.43684 6.51269 2.42197 6.68645 2.99442 6.29842C3.24753 6.12691 3.54007 6.109 6.82336 6.0638L10.3782 6.01488L10.6635 5.69534C10.8994 5.43117 10.9488 5.2897 10.9488 4.87838C10.9488 4.4431 10.9073 4.33939 10.6162 4.04832L10.2835 3.71566L6.58033 3.71801C2.93944 3.72026 2.86792 3.72408 2.32843 3.94598Z" fill="black"/>
</svg>
