<svg width="18" height="18" viewBox="0 0 18 18" fill="none" xmlns="http://www.w3.org/2000/svg">
<path opacity="0.3" d="M14.1507 18L14.1569 17.5C14.1341 17.4998 14.1107 17.4945 14.0883 17.4837L9.22906 14.7972L8.98714 14.6635L8.74522 14.7972L3.88998 17.4815C3.87094 17.4898 3.85142 17.4929 3.83266 17.4913C3.81306 17.4897 3.79248 17.4828 3.77295 17.4695C3.75187 17.4528 3.73292 17.4282 3.72082 17.3965C3.70805 17.3631 3.7044 17.3255 3.71106 17.2889L3.71117 17.2889L3.71279 17.2788L4.62589 11.6072L4.66592 11.3586L4.48999 11.1784L0.550309 7.14381C0.55008 7.14358 0.549852 7.14334 0.549624 7.1431C0.529399 7.12187 0.513061 7.09289 0.505115 7.0583C0.497064 7.02326 0.498584 6.9864 0.509205 6.95267C0.519796 6.91903 0.538228 6.89212 0.559541 6.87339C0.580644 6.85485 0.603793 6.84486 0.625716 6.84153L0.625756 6.84152L6.06581 6.01399L6.32887 5.97397L6.44262 5.73342L8.87328 0.593275L8.8733 0.593282L8.87502 0.589569C8.88943 0.558433 8.91041 0.535449 8.93269 0.520835C8.95472 0.506385 8.97799 0.5 9 0.5C9.02201 0.5 9.04528 0.506385 9.06731 0.520835C9.0896 0.535451 9.11057 0.558436 9.12498 0.589566L9.12497 0.589571L9.1264 0.592591L11.5571 5.75292L11.6707 5.99408L11.9342 6.03417L17.3742 6.86171L17.3743 6.86171C17.3962 6.86505 17.4194 6.87504 17.4405 6.89358C17.4618 6.9123 17.4802 6.93921 17.4908 6.97285C17.5014 7.00659 17.5029 7.04345 17.4949 7.07848L17.9822 7.19045L17.4949 7.07849C17.4869 7.11305 17.4706 7.14202 17.4504 7.16324C17.4502 7.1635 17.4499 7.16375 17.4497 7.164L13.51 11.1986L13.3337 11.3791L13.3742 11.6282L14.2938 17.2797L14.2937 17.2797L14.2954 17.2889C14.302 17.3255 14.2984 17.3631 14.2856 17.3965C14.2729 17.4298 14.2526 17.4553 14.2302 17.4721L14.2282 17.4736C14.2037 17.4921 14.1772 17.5001 14.1525 17.5L14.1507 18ZM14.1507 18C14.2869 18.0005 14.4197 17.9557 14.5301 17.8722L13.8549 17.926C13.947 17.9734 14.048 17.9987 14.1507 18Z" stroke="#1E0654"/>
</svg>
