<svg width="12" height="12" viewBox="0 0 12 12" fill="none" xmlns="http://www.w3.org/2000/svg">
<path d="M11.873 5.00743L9.24517 7.6986L9.85819 11.4662C9.8735 11.5503 9.86548 11.6373 9.8351 11.7167C9.80471 11.7962 9.75323 11.8649 9.68672 11.9148C9.61316 11.9705 9.5246 12.0003 9.43379 12C9.36536 11.9991 9.29799 11.9823 9.23659 11.9507L5.99143 10.1565L2.74626 11.9507C2.67811 11.9847 2.60258 11.9993 2.5273 11.993C2.45203 11.9867 2.37967 11.9597 2.31757 11.9148C2.25106 11.8649 2.19957 11.7962 2.16919 11.7167C2.13881 11.6373 2.13079 11.5503 2.1461 11.4662L2.75483 7.68515L0.126976 4.99397C0.0703611 4.93529 0.0305024 4.86125 0.0118748 4.78018C-0.00675281 4.69911 -0.00341184 4.6142 0.0215225 4.53501C0.0464568 4.45581 0.0919972 4.38545 0.153031 4.33184C0.214064 4.27822 0.288175 4.24346 0.367041 4.23147L3.99374 3.67978L5.61418 0.25302C5.64928 0.177186 5.70409 0.113232 5.77233 0.0684831C5.84057 0.023734 5.91947 0 6 0C6.08053 0 6.15944 0.023734 6.22767 0.0684831C6.29591 0.113232 6.35072 0.177186 6.38582 0.25302L8.00626 3.69324L11.633 4.24493C11.7118 4.25692 11.7859 4.29168 11.847 4.34529C11.908 4.39891 11.9535 4.46927 11.9785 4.54846C12.0034 4.62766 12.0068 4.71256 11.9881 4.79363C11.9695 4.87471 11.9296 4.94874 11.873 5.00743Z" fill="#1E0654"/>
</svg>
