<svg width="20" height="20" viewBox="0 0 20 20" fill="none" xmlns="http://www.w3.org/2000/svg">
<path fill-rule="evenodd" clip-rule="evenodd" d="M3.8108 0.0331373C2.89029 0.16707 2.00667 0.603089 1.35254 1.24609C0.735494 1.85264 0.324856 2.57878 0.1234 3.41969C-0.00167709 3.94175 -0.00798547 4.3071 0.00440638 10.3059C0.0153177 15.5793 0.021207 16.1192 0.0706135 16.3607C0.443142 18.1815 1.7177 19.4957 3.52044 19.9177C3.80883 19.9852 3.83706 19.9856 9.86121 19.9955C16.5438 20.0065 16.2674 20.014 16.9238 19.805C17.6218 19.5828 18.1821 19.239 18.7167 18.7049C19.3644 18.0579 19.7495 17.3513 19.9433 16.4544C19.9963 16.2089 20 15.7926 20 10.0004C20 4.1338 19.9969 3.7944 19.9414 3.53535C19.8542 3.1286 19.745 2.82021 19.5478 2.42481C19.3268 1.98146 19.0498 1.61051 18.654 1.22823C18.0091 0.605373 17.2349 0.212614 16.3517 0.0602838C15.9972 -0.000860618 15.8082 -0.00259766 9.99482 0.00119773C6.69945 0.00335274 3.91663 0.0177306 3.8108 0.0331373ZM12.8631 5.15161L12.8546 6.18891L12.0821 6.20499C11.2814 6.22165 11.2428 6.22828 11.1115 6.37089C11.0016 6.49035 10.972 6.66793 10.9718 7.21012L10.9716 7.71671H11.9193C12.4405 7.71671 12.8736 7.72755 12.8817 7.74084C12.8899 7.75412 12.8772 7.96036 12.8534 8.19918C12.8297 8.438 12.7879 8.87945 12.7606 9.18019C12.7333 9.48093 12.7023 9.81746 12.6917 9.92801L12.6724 10.129H11.79H10.9076L10.8994 13.1284L10.8912 16.1277L9.69239 16.1361L8.4936 16.1445L8.48539 13.1448L8.47718 10.1451L7.8733 10.1364L7.26941 10.1276L7.27785 8.93021L7.28628 7.73279L7.86969 7.72405L8.45311 7.7153L8.4693 6.9521C8.48382 6.26758 8.49398 6.15668 8.56779 5.87614C8.83198 4.87204 9.53377 4.27021 10.5836 4.14744C10.6997 4.13386 11.2619 4.12087 11.8331 4.11852L12.8716 4.11431L12.8631 5.15161Z" fill="#EC5B43"/>
</svg>
