<svg width="21" height="20" viewBox="0 0 21 20" fill="none" xmlns="http://www.w3.org/2000/svg">
    <path fill-rule="evenodd" clip-rule="evenodd"
        d="M5.5529 0.107688C4.68316 0.318733 3.8394 0.982271 3.44101 1.76836L3.22436 2.19588L2.01558 2.19622C0.952971 2.19648 0.77284 2.21729 0.525701 2.36795C-0.0671774 2.7294 -0.136053 3.52058 0.38039 4.03703L0.662434 4.31907H1.9349H3.20729L3.43336 4.78108C3.72925 5.38584 4.44247 6.03562 5.07467 6.27639C6.72982 6.90664 8.44187 6.25321 9.25709 4.68001L9.4441 4.31907H14.4123H19.3804L19.6625 4.03703C20.1789 3.52058 20.1101 2.7294 19.5172 2.36795C19.2438 2.20123 19.101 2.19648 14.333 2.19622L9.42983 2.19588L9.21089 1.76377C8.78362 0.920699 7.94344 0.287479 6.98112 0.083228C6.42824 -0.0340568 6.11469 -0.0287055 5.5529 0.107688ZM7.10979 2.56846C7.74674 3.26351 7.27489 4.31907 6.3271 4.31907C5.69507 4.31907 5.2655 3.88798 5.2655 3.25357C5.2655 2.59725 5.7698 2.16081 6.4516 2.22714C6.75309 2.25652 6.88796 2.32642 7.10979 2.56846ZM12.5601 6.97704C11.7551 7.31641 11.1444 7.86233 10.7877 8.56162L10.6125 8.90515H5.75078C1.20444 8.90515 0.870336 8.91526 0.599757 9.06032C0.28077 9.23136 0 9.67561 0 10.0092C0 10.3428 0.28077 10.7871 0.599757 10.9581C0.870336 11.1032 1.20444 11.1133 5.75078 11.1133H10.6125L10.7919 11.465C11.0649 12.0001 11.7017 12.6293 12.2707 12.926C12.7483 13.1752 12.8397 13.1926 13.6733 13.1933C14.4623 13.1939 14.6206 13.1679 15.047 12.9681C15.6585 12.6814 16.2575 12.131 16.5801 11.5592L16.8319 11.1133H17.9786C19.2429 11.1133 19.5742 11.0251 19.8418 10.6176C20.035 10.3232 20.035 9.69523 19.8418 9.40079C19.5739 8.9928 19.2434 8.90515 17.9723 8.90515H16.8191L16.6397 8.55338C16.3651 8.0152 15.7278 7.3875 15.1609 7.09696C14.7168 6.86936 14.5444 6.83122 13.8432 6.80566C13.145 6.78027 12.9722 6.80328 12.5601 6.97704ZM14.3508 9.14465C14.6775 9.3872 14.7887 9.66237 14.7494 10.1316C14.6383 11.4581 12.6548 11.3422 12.6548 10.0092C12.6548 9.14066 13.6569 8.62982 14.3508 9.14465ZM5.3427 13.6523C4.4891 13.9254 3.77384 14.5422 3.38733 15.3384L3.21213 15.6993H1.93728H0.662434L0.38039 15.9814C-0.136053 16.4978 -0.0671774 17.289 0.525701 17.6505C0.77267 17.8011 0.953056 17.8219 2.00947 17.8222L3.21213 17.8225L3.40712 18.2259C3.51438 18.4479 3.78029 18.8077 3.99813 19.0257C5.55485 20.584 8.08722 20.2251 9.17853 18.2914L9.44317 17.8225L14.3396 17.8222C19.1009 17.8219 19.2438 17.8172 19.5172 17.6505C20.1101 17.289 20.1789 16.4978 19.6625 15.9814L19.3804 15.6993H14.4077H9.43493L9.2706 15.328C8.65521 13.9367 6.85466 13.1685 5.3427 13.6523ZM6.88193 15.8282C7.1976 15.9914 7.38869 16.358 7.38869 16.8004C7.38869 17.5357 6.54043 18.0325 5.84683 17.7034C5.31366 17.4504 5.10592 16.7638 5.394 16.2069C5.63731 15.7363 6.35232 15.5543 6.88193 15.8282Z"
        fill="#FFFFFF" />
</svg>
