<svg width="42" height="33" viewBox="0 0 42 33" fill="none" xmlns="http://www.w3.org/2000/svg">
<path fill-rule="evenodd" clip-rule="evenodd" d="M22.9151 0.178455C17.9424 1.11236 13.6827 4.19654 11.4292 8.49448C10.8638 9.57257 10 11.736 10 12.0736C10 12.1539 10.3705 12.2194 10.8235 12.2191L11.6471 12.2188L12.0778 11.0162C12.3148 10.3548 12.6491 9.58685 12.8207 9.30933L13.1327 8.8049H15.3208H17.509L16.9037 10.0854C16.5707 10.7896 16.25 11.5579 16.1909 11.7927C16.0838 12.2188 16.085 12.2195 16.9319 12.2195C17.7708 12.2195 17.7824 12.2132 17.9865 11.6375C18.0999 11.3174 18.472 10.5492 18.8133 9.93017L19.4337 8.8049H22.1678H24.902V10.5122V12.2195H25.7647H26.6275V10.5086V8.79776L29.4118 8.84013L32.1961 8.8825L33.008 10.4793C33.6969 11.8346 34.4706 14.2224 34.4706 14.9938C34.4706 15.1111 33.9805 15.1685 32.9804 15.1685H31.4902V16.0329V16.8971L32.9807 16.8478L34.4712 16.7982L34.4709 17.2778C34.4703 18.154 33.8505 20.1942 33.1432 21.6486C32.4891 22.9935 32.4147 23.0843 31.9675 23.0843H31.4902L31.4962 24.9856L31.502 26.8869L32.0504 26.2661C32.3518 25.9246 32.7173 25.4532 32.8626 25.2184L33.1264 24.7916H35.221H37.3155L36.9926 25.2403C36.2212 26.3123 34.0035 28.0401 32.3137 28.8857L31.4902 29.298V30.149C31.4902 30.6171 31.5324 31 31.584 31C31.6356 31 32.2642 30.7124 32.981 30.361C38.4844 27.6627 42 22.0734 42 16.0222C42 8.60173 37.0435 2.31167 29.6863 0.395594C28.0869 -0.0209908 24.5762 -0.133518 22.9151 0.178455ZM21.7947 3.45588C20.8723 4.39382 19.7688 5.63193 19.3423 6.20699L18.5669 7.25279H16.3956C13.8273 7.25279 13.8546 7.32962 15.7776 5.51164C17.0789 4.28144 18.8709 3.13289 20.3529 2.5791C21.1581 2.27814 23.3747 1.66444 23.4417 1.72389C23.4584 1.73848 22.7172 2.51794 21.7947 3.45588ZM30.774 2.43475C31.819 2.79391 33.4478 3.64399 34.3922 4.3232C35.1275 4.85215 37.2941 6.9461 37.2941 7.12785C37.2941 7.19661 36.3236 7.24953 35.1373 7.24565L32.9804 7.23867L32.1961 6.2014C31.7647 5.63084 30.6485 4.38202 29.7156 3.42623L28.0196 1.68819L28.9313 1.90145C29.4328 2.01879 30.262 2.25874 30.774 2.43475ZM24.902 5.00224V7.25279H22.7788C20.706 7.25279 20.6596 7.2455 20.8231 6.94315C20.9832 6.64716 24.7186 2.75169 24.8424 2.75169C24.8751 2.75169 24.902 3.76444 24.902 5.00224ZM30.8627 7.10705C30.8627 7.19071 29.9606 7.25279 28.7451 7.25279H26.6275L26.6339 4.96344L26.6403 2.67408L28.7515 4.8177C29.9128 5.99668 30.8627 7.02696 30.8627 7.10705ZM38.984 9.85257C39.6563 11.3157 40.1015 12.8466 40.2193 14.1004L40.3195 15.1685H38.1795H36.0392V14.6501C36.0392 13.756 35.4439 11.7795 34.7181 10.2633L34.0199 8.8049H36.2612H38.5026L38.984 9.85257ZM40.2745 17.4854C40.2745 18.3697 39.5956 20.8466 39.027 22.0366L38.5263 23.0843H36.432H34.3377L34.872 21.8643C35.4267 20.5978 35.9661 18.7039 36.1162 17.4967L36.203 16.7982L38.2387 16.8457L40.2745 16.8931V17.4854Z" fill="white"/>
<path fill-rule="evenodd" clip-rule="evenodd" d="M1.43789 15.0663C1.30608 15.1163 1.02969 15.3135 0.823596 15.5041C-0.0063733 16.2722 1.74763e-05 16.206 1.74763e-05 24.0171C1.74763e-05 31.8913 -0.0154796 31.7398 0.876478 32.5917L1.30384 33H13.5H25.6962L26.1235 32.5917C27.0155 31.7398 27 31.8913 27 24.0171C27 16.1428 27.0155 16.2946 26.1237 15.4425L25.6963 15.0342L13.6869 15.0046C7.08168 14.9884 1.56969 15.0162 1.43789 15.0663ZM25.4024 16.5858C25.6367 16.8254 25.7219 17.1301 25.7219 17.729V18.5457H13.5H1.27812V17.729C1.27812 17.1301 1.36328 16.8254 1.59765 16.5858C1.91126 16.2652 2.13014 16.2591 13.5 16.2591C24.8699 16.2591 25.0887 16.2652 25.4024 16.5858ZM25.7219 26.712C25.7219 30.904 25.7061 31.1379 25.4024 31.4484C25.0887 31.769 24.8699 31.7751 13.5 31.7751C2.13014 31.7751 1.91126 31.769 1.59765 31.4484C1.29394 31.1379 1.27812 30.904 1.27812 26.712V22.3022H13.5H25.7219V26.712ZM3.34737 25.2833C1.87116 26.3004 1.7908 28.4661 3.19129 29.4856C3.74279 29.887 4.58746 30.0667 5.19328 29.9112L5.6109 29.804L5.21564 29.3237C4.3165 28.2314 4.2716 26.8206 5.09758 25.6224L5.58518 24.9154H4.73332C4.11424 24.9154 3.73576 25.0158 3.34737 25.2833ZM6.30187 25.0632C5.72784 25.3163 4.9907 26.3257 4.87679 27.0144C4.65647 28.3475 5.68551 29.7495 7.01841 29.9323C8.29364 30.1072 9.37364 29.3523 9.76666 28.0112C10.0205 27.1449 9.7665 26.3017 9.03255 25.5746C8.54591 25.0923 8.34828 25.0116 7.55058 24.9683C7.04445 24.9409 6.48241 24.9836 6.30187 25.0632ZM11.6947 26.9079C11.5892 27.0157 11.503 27.2273 11.503 27.378C11.503 27.9181 11.8973 28.0318 13.6032 27.9836C15.1932 27.9387 15.2595 27.9222 15.3096 27.5604C15.4082 26.8496 15.1037 26.712 13.4326 26.712C12.443 26.712 11.8174 26.7825 11.6947 26.9079ZM16.3278 26.9079C16.2224 27.0157 16.1361 27.2273 16.1361 27.378C16.1361 27.9181 16.5304 28.0318 18.2363 27.9836C19.8263 27.9387 19.8926 27.9222 19.9428 27.5604C20.0413 26.8496 19.7368 26.712 18.0657 26.712C17.0761 26.712 16.4505 26.7825 16.3278 26.9079ZM20.9609 26.9079C20.8555 27.0157 20.7692 27.2273 20.7692 27.378C20.7692 27.9181 21.1635 28.0318 22.8695 27.9836C24.4594 27.9387 24.5257 27.9222 24.5759 27.5604C24.6745 26.8496 24.37 26.712 22.6988 26.712C21.7093 26.712 21.0836 26.7825 20.9609 26.9079Z" fill="white"/>
</svg>
