<svg width="38" height="23" viewBox="0 0 38 23" fill="none" xmlns="http://www.w3.org/2000/svg">
<path fill-rule="evenodd" clip-rule="evenodd" d="M22.0285 0.0923295C21.6117 0.23961 21.2877 0.517469 21.093 0.894592C21.0497 0.978296 19.3511 5.51542 17.3182 10.9771L13.6221 20.9074L13.6209 21.3449C13.6197 21.7596 13.626 21.796 13.7413 22.0397C13.9103 22.3968 14.1918 22.6833 14.5459 22.8585C14.8259 22.9971 14.8407 23 15.2707 23C15.6858 23 15.7237 22.9934 15.9666 22.8782C16.2689 22.7348 16.5888 22.4459 16.7263 22.1919C16.8813 21.9058 24.1961 2.18865 24.2427 1.93145C24.3391 1.3994 24.1331 0.832043 23.6979 0.430341C23.2588 0.0251382 22.5976 -0.10875 22.0285 0.0923295ZM9.68654 1.3351C9.59248 1.35306 9.39108 1.43254 9.23896 1.51164C8.99799 1.63704 8.63884 1.959 6.44724 4.01446C5.06393 5.31187 3.12997 7.12512 2.14954 8.04392C1.10839 9.01968 0.320928 9.78717 0.25625 9.88921C-0.0995924 10.4508 -0.0832519 11.232 0.295429 11.7594C0.377132 11.8732 0.637706 12.1461 0.874453 12.3658C1.48832 12.9355 5.47335 16.6642 5.79142 16.9666C6.11481 17.2739 8.19902 19.225 8.67069 19.662C9.18929 20.1425 9.48726 20.2796 10.0124 20.2796C10.7383 20.2796 11.3693 19.8257 11.6119 19.1292C11.7129 18.8389 11.7034 18.3146 11.5919 18.0291C11.4529 17.6731 11.3255 17.5235 10.5178 16.7677C8.55824 14.934 7.53301 13.9747 7.45925 13.9057C7.41513 13.8644 6.65112 13.1488 5.76148 12.3155L4.14388 10.8003L5.9367 9.12123C6.92271 8.19775 8.3622 6.85122 9.13552 6.12893C11.493 3.92707 11.5116 3.90683 11.6423 3.40437C11.8389 2.64876 11.4729 1.84604 10.7756 1.50365C10.38 1.30942 10.0711 1.2616 9.68654 1.3351ZM27.6611 1.33331C27.3601 1.39579 26.9608 1.62011 26.7676 1.83535C26.2079 2.45856 26.1502 3.33007 26.6256 3.97839C26.7215 4.10916 27.4054 4.76235 29.3153 6.5473C29.504 6.72369 30.5899 7.73958 31.7283 8.80483C32.8668 9.87007 33.8118 10.7534 33.8284 10.7678C33.8551 10.791 32.6111 11.9675 28.0423 16.2397C27.3415 16.8951 26.7044 17.5177 26.6267 17.6233C26.3972 17.9347 26.3185 18.1855 26.3185 18.6056C26.3185 18.8887 26.3368 19.0142 26.4032 19.1848C26.5923 19.6716 27.0003 20.0598 27.48 20.2092C27.9288 20.3491 28.5348 20.2698 28.9002 20.0235C28.9861 19.9655 30.9868 18.1094 33.3463 15.8987C37.863 11.6669 37.7891 11.7414 37.9408 11.268C38.0445 10.9446 38.0086 10.4388 37.8596 10.121C37.7957 9.98501 37.6945 9.81566 37.6346 9.74474C37.5747 9.67379 36.7212 8.86194 35.7379 7.94059C33.8351 6.15747 33.294 5.6503 30.7202 3.23704C29.8214 2.39441 29.0121 1.65352 28.9215 1.59067C28.594 1.3633 28.0509 1.25243 27.6611 1.33331Z" fill="white"/>
</svg>
