<svg width="114" height="43" viewBox="0 0 114 43" fill="none" xmlns="http://www.w3.org/2000/svg">
<path d="M43 21.9931C43 20.5275 42.8341 19.0619 42.6683 17.5963H21.935V25.9014H33.7115C33.2139 28.5069 31.7211 30.9496 29.399 32.4152V37.7892H36.5312C40.6779 34.0437 43 28.5069 43 21.9931Z" fill="#4285F4"/>
<path d="M21.9388 43C27.91 43 32.886 41.0458 36.535 37.7889L29.4028 32.415C27.4124 33.7177 24.9244 34.532 21.9388 34.532C16.2994 34.532 11.3234 30.7865 9.66475 25.5754H2.36665V31.1122C6.18157 38.4403 13.6455 43 21.9388 43Z" fill="#34A853"/>
<path d="M9.66169 25.5756C8.6665 22.97 8.6665 20.0388 9.66169 17.2704V11.7337H2.36359C-0.787863 17.759 -0.787863 24.9242 2.36359 31.1123L9.66169 25.5756Z" fill="#FBBC04"/>
<path d="M21.9371 8.47676C25.0886 8.47676 28.0742 9.61668 30.3963 11.7337L36.6992 5.54553C32.7184 1.96291 27.4107 -0.154085 22.103 0.00876135C13.8097 0.00876135 6.17987 4.56845 2.53082 11.8965L9.82892 17.4333C11.3217 12.2222 16.2977 8.47676 21.9371 8.47676Z" fill="#EA4335"/>
<path d="M65.2069 32.8442V11.0261H73.8148C75.4696 11.0261 76.8794 11.3421 78.0442 11.9742C79.209 12.5992 80.0968 13.4692 80.7076 14.5843C81.3255 15.6922 81.6344 16.9707 81.6344 18.4195C81.6344 19.8684 81.3219 21.1468 80.6969 22.2547C80.0719 23.3627 79.1664 24.2256 77.9803 24.8435C76.8013 25.4614 75.3738 25.7704 73.6976 25.7704H68.2111V22.0736H72.9519C73.8397 22.0736 74.5712 21.9209 75.1465 21.6155C75.7289 21.303 76.1621 20.8734 76.4462 20.3265C76.7374 19.7725 76.883 19.1369 76.883 18.4195C76.883 17.6951 76.7374 17.063 76.4462 16.5232C76.1621 15.9763 75.7289 15.5538 75.1465 15.2555C74.5641 14.9501 73.8255 14.7974 72.9306 14.7974H69.8198V32.8442H65.2069ZM87.2722 33.1532C86.2282 33.1532 85.2978 32.9721 84.481 32.6099C83.6642 32.2405 83.0179 31.6972 82.5421 30.9799C82.0733 30.2555 81.839 29.3535 81.839 28.2739C81.839 27.3648 82.0059 26.6013 82.3397 25.9834C82.6735 25.3655 83.128 24.8684 83.7033 24.492C84.2786 24.1155 84.932 23.8315 85.6635 23.6397C86.4022 23.4479 87.1763 23.313 87.986 23.2349C88.9377 23.1354 89.7047 23.0431 90.2871 22.9579C90.8695 22.8655 91.2921 22.7306 91.5549 22.553C91.8176 22.3755 91.949 22.1127 91.949 21.7647V21.7008C91.949 21.0261 91.736 20.504 91.3098 20.1347C90.8908 19.7654 90.2942 19.5807 89.5201 19.5807C88.7033 19.5807 88.0534 19.7619 87.5705 20.1241C87.0875 20.4792 86.7679 20.9266 86.6117 21.4664L82.4142 21.1255C82.6273 20.1312 83.0463 19.2718 83.6713 18.5474C84.2963 17.8158 85.1025 17.2547 86.0897 16.8641C87.084 16.4664 88.2346 16.2675 89.5414 16.2675C90.4505 16.2675 91.3205 16.3741 92.1515 16.5871C92.9895 16.8002 93.7317 17.1305 94.378 17.5779C95.0314 18.0253 95.5463 18.6006 95.9228 19.3038C96.2992 19.9998 96.4874 20.8343 96.4874 21.8073V32.8442H92.1834V30.5751H92.0556C91.7928 31.0864 91.4412 31.5374 91.0009 31.928C90.5605 32.3116 90.0314 32.6134 89.4135 32.8336C88.7956 33.0467 88.0819 33.1532 87.2722 33.1532ZM88.5719 30.0211C89.2395 30.0211 89.829 29.8897 90.3404 29.6269C90.8517 29.357 91.253 28.9948 91.5442 28.5403C91.8354 28.0857 91.981 27.5708 91.981 26.9955V25.259C91.839 25.3513 91.6436 25.4366 91.3951 25.5147C91.1536 25.5857 90.8801 25.6532 90.5748 25.7171C90.2694 25.7739 89.964 25.8272 89.6586 25.8769C89.3532 25.9195 89.0762 25.9586 88.8276 25.9941C88.2949 26.0722 87.8297 26.1965 87.432 26.367C87.0343 26.5374 86.7253 26.7682 86.5051 27.0594C86.285 27.3435 86.1749 27.6986 86.1749 28.1248C86.1749 28.7427 86.3986 29.215 86.8461 29.5417C87.3006 29.8613 87.8759 30.0211 88.5719 30.0211ZM100.724 38.9806C100.149 38.9806 99.6092 38.9344 99.1049 38.8421C98.6078 38.7569 98.1958 38.6468 97.8691 38.5119L98.8919 35.1241C99.4245 35.2874 99.9039 35.3762 100.33 35.3904C100.763 35.4046 101.136 35.3052 101.449 35.0921C101.768 34.879 102.028 34.5168 102.226 34.0055L102.493 33.313L96.6227 16.4806H101.395L104.783 28.4976H104.954L108.373 16.4806H113.178L106.818 34.6127C106.513 35.4934 106.097 36.2604 105.572 36.9138C105.053 37.5744 104.396 38.0822 103.601 38.4373C102.805 38.7995 101.846 38.9806 100.724 38.9806Z" fill="#1E0654"/>
</svg>
