<svg width="124" height="40" viewBox="0 0 124 40" fill="none" xmlns="http://www.w3.org/2000/svg">
    <defs>
        <linearGradient id="paint0_linear_2366_4982" x1="26.3263" y1="28.2916" x2="13.4594" y2="15.1129" gradientUnits="userSpaceOnUse">
            <stop stop-color="#00A0FF"/>
            <stop offset="0.0066" stop-color="#00A1FF"/>
            <stop offset="0.2601" stop-color="#00BEFF"/>
            <stop offset="0.5122" stop-color="#00D2FF"/>
            <stop offset="0.7604" stop-color="#00DFFF"/>
            <stop offset="1" stop-color="#00E3FF"/>
        </linearGradient>
        <linearGradient id="paint1_linear_2366_4982" x1="35.7798" y1="19.6318" x2="16.7733" y2="19.6318" gradientUnits="userSpaceOnUse">
            <stop stop-color="#FFE000"/>
            <stop offset="0.4087" stop-color="#FFBD00"/>
            <stop offset="0.7754" stop-color="#FFA500"/>
            <stop offset="1" stop-color="#FF9C00"/>
        </linearGradient>
        <linearGradient id="paint2_linear_2366_4982" x1="28.7043" y1="17.872" x2="11.2557" y2="0.000614428" gradientUnits="userSpaceOnUse">
            <stop stop-color="#FF3A44"/>
            <stop offset="1" stop-color="#C31162"/>
        </linearGradient>
        <linearGradient id="paint3_linear_2366_4982" x1="14.9348" y1="34.836" x2="22.7264" y2="26.8557" gradientUnits="userSpaceOnUse">
            <stop stop-color="#32A071"/>
            <stop offset="0.0685" stop-color="#2DA771"/>
            <stop offset="0.4762" stop-color="#15CF74"/>
            <stop offset="0.8009" stop-color="#06E775"/>
            <stop offset="1" stop-color="#00F076"/>
        </linearGradient>
    </defs>
    <rect width="124" height="39.8794" rx="8" fill="#222A33"/>
<path d="M46.4491 12.1507C46.4491 12.7911 46.2527 13.304 45.8659 13.6865C45.4211 14.1399 44.8418 14.3681 44.1319 14.3681C43.4534 14.3681 42.8741 14.1361 42.3989 13.6788C41.9227 13.2148 41.6851 12.6454 41.6851 11.9638C41.6851 11.2822 41.9227 10.7128 42.3989 10.2526C42.8741 9.79153 43.4534 9.55954 44.1319 9.55954C44.4696 9.55954 44.7917 9.6276 45.099 9.75414C45.4054 9.88164 45.6548 10.0542 45.8354 10.267L45.425 10.6716C45.1098 10.3082 44.6807 10.129 44.1319 10.129C43.637 10.129 43.2079 10.2977 42.8437 10.638C42.4833 10.9793 42.3027 11.4212 42.3027 11.9638C42.3027 12.5064 42.4833 12.9522 42.8437 13.2934C43.2079 13.6299 43.637 13.8025 44.1319 13.8025C44.6572 13.8025 45.099 13.6299 45.4476 13.2896C45.6773 13.0643 45.8079 12.7537 45.8423 12.3568H44.1319V11.8028H46.4137C46.4412 11.9226 46.4491 12.0386 46.4491 12.1507Z" fill="white"/>
<path d="M50.0691 10.2296H47.9256V11.6867H49.858V12.2408H47.9256V13.698H50.0691V14.2626H47.3188V9.66498H50.0691V10.2296Z" fill="white"/>
<path d="M52.6242 14.2626H52.0174V10.2296H50.7026V9.66498H53.9399V10.2296H52.6242V14.2626Z" fill="white"/>
<path d="M56.2827 14.2626V9.66498H56.8885V14.2626H56.2827Z" fill="white"/>
<path d="M59.5739 14.2626H58.972V10.2296H57.6523V9.66498H60.8935V10.2296H59.5739V14.2626Z" fill="white"/>
<path d="M67.0219 13.6711C66.5575 14.1361 65.9821 14.3681 65.2958 14.3681C64.6056 14.3681 64.0302 14.1361 63.5658 13.6711C63.1023 13.2072 62.8716 12.6377 62.8716 11.9638C62.8716 11.2899 63.1023 10.7205 63.5658 10.2565C64.0302 9.79153 64.6056 9.55954 65.2958 9.55954C65.9782 9.55954 66.5536 9.79153 67.018 10.2603C67.4854 10.7281 67.7161 11.2937 67.7161 11.9638C67.7161 12.6377 67.4854 13.2072 67.0219 13.6711ZM64.0145 13.2858C64.364 13.6299 64.7892 13.8025 65.2958 13.8025C65.7985 13.8025 66.2276 13.6299 66.5732 13.2858C66.9218 12.9416 67.0985 12.4997 67.0985 11.9638C67.0985 11.4279 66.9218 10.986 66.5732 10.6418C66.2276 10.2977 65.7985 10.1251 65.2958 10.1251C64.7892 10.1251 64.364 10.2977 64.0145 10.6418C63.6659 10.986 63.4892 11.4279 63.4892 11.9638C63.4892 12.4997 63.6659 12.9416 64.0145 13.2858Z" fill="white"/>
<path d="M68.5674 14.2626V9.66498H69.3038L71.5935 13.2407H71.62L71.5935 12.3568V9.66498H72.1993V14.2626H71.567L69.1693 10.5105H69.1428L69.1693 11.3982V14.2626H68.5674Z" fill="white"/>
<path d="M62.7224 20.9769C60.8775 20.9769 59.3703 22.3478 59.3703 24.2392C59.3703 26.1152 60.8775 27.5005 62.7224 27.5005C64.5713 27.5005 66.0785 26.1152 66.0785 24.2392C66.0785 22.3478 64.5713 20.9769 62.7224 20.9769ZM62.7224 26.2159C61.7101 26.2159 60.8392 25.4001 60.8392 24.2392C60.8392 23.0629 61.7101 22.2615 62.7224 22.2615C63.7347 22.2615 64.6096 23.0629 64.6096 24.2392C64.6096 25.4001 63.7347 26.2159 62.7224 26.2159ZM55.4085 20.9769C53.5596 20.9769 52.0564 22.3478 52.0564 24.2392C52.0564 26.1152 53.5596 27.5005 55.4085 27.5005C57.2564 27.5005 58.7606 26.1152 58.7606 24.2392C58.7606 22.3478 57.2564 20.9769 55.4085 20.9769ZM55.4085 26.2159C54.3952 26.2159 53.5213 25.4001 53.5213 24.2392C53.5213 23.0629 54.3952 22.2615 55.4085 22.2615C56.4208 22.2615 57.2917 23.0629 57.2917 24.2392C57.2917 25.4001 56.4208 26.2159 55.4085 26.2159ZM46.7052 21.9768V23.363H50.0956C49.9964 24.1376 49.7313 24.707 49.3248 25.1039C48.83 25.5832 48.0592 26.1152 46.7052 26.1152C44.6187 26.1152 42.9849 24.4712 42.9849 22.4341C42.9849 20.397 44.6187 18.7529 46.7052 18.7529C47.8334 18.7529 48.6542 19.1833 49.26 19.7413L50.2606 18.7644C49.4132 17.9745 48.286 17.3677 46.7052 17.3677C43.844 17.3677 41.4395 19.6406 41.4395 22.4341C41.4395 25.2275 43.844 27.5005 46.7052 27.5005C48.2517 27.5005 49.4132 27.0058 50.3263 26.0779C51.2621 25.1643 51.5537 23.8797 51.5537 22.8425C51.5537 22.5204 51.5262 22.2241 51.4771 21.9768H46.7052ZM82.294 23.0514C82.0181 22.3219 81.1668 20.9769 79.4328 20.9769C77.7146 20.9769 76.284 22.2989 76.284 24.2392C76.284 26.0664 77.6998 27.5005 79.5978 27.5005C81.1325 27.5005 82.0181 26.5869 82.3824 26.0549L81.2434 25.3138C80.8634 25.8564 80.346 26.2159 79.5978 26.2159C78.8545 26.2159 78.3214 25.8833 77.9797 25.2275L82.4482 23.4224L82.294 23.0514ZM77.7381 24.1376C77.6998 22.8798 78.7387 22.2356 79.4829 22.2356C80.0661 22.2356 80.561 22.5204 80.726 22.9278L77.7381 24.1376ZM74.1062 27.302H75.5751V17.7157H74.1062V27.302ZM71.7006 21.7036H71.6515C71.3216 21.3221 70.6923 20.9769 69.895 20.9769C68.2219 20.9769 66.6921 22.4111 66.6921 24.2497C66.6921 26.0779 68.2219 27.5005 69.895 27.5005C70.6923 27.5005 71.3216 27.1525 71.6515 26.7595H71.7006V27.2273C71.7006 28.4745 71.0182 29.1445 69.9176 29.1445C69.0201 29.1445 68.4634 28.5118 68.2337 27.9798L66.9562 28.5003C67.3244 29.365 68.2994 30.4291 69.9176 30.4291C71.6398 30.4291 73.0929 29.4398 73.0929 27.0327V21.1754H71.7006V21.7036ZM70.0207 26.2159C69.0083 26.2159 68.161 25.3886 68.161 24.2497C68.161 23.1003 69.0083 22.2615 70.0207 22.2615C71.0182 22.2615 71.8047 23.1003 71.8047 24.2497C71.8047 25.3886 71.0182 26.2159 70.0207 26.2159ZM89.171 17.7157H85.6579V27.302H87.1228V23.6698H89.171C90.798 23.6698 92.3935 22.5203 92.3935 20.6922C92.3935 18.8651 90.794 17.7157 89.171 17.7157ZM89.2093 22.3363H87.1228V19.0491H89.2093C90.3031 19.0491 90.9276 19.9359 90.9276 20.6922C90.9276 21.4342 90.3031 22.3363 89.2093 22.3363ZM98.2651 20.9587C97.2066 20.9587 96.1059 21.415 95.6533 22.4264L96.9533 22.9584C97.2331 22.4264 97.7476 22.2538 98.2916 22.2538C99.0515 22.2538 99.8223 22.6996 99.8341 23.4867V23.5873C99.569 23.4378 99.0015 23.2163 98.3034 23.2163C96.9032 23.2163 95.4766 23.9689 95.4766 25.3733C95.4766 26.6578 96.6234 27.4851 97.9126 27.4851C98.8984 27.4851 99.4423 27.0509 99.784 26.5457H99.8341V27.2867H101.249V23.6094C101.249 21.9097 99.949 20.9587 98.2651 20.9587ZM98.0883 26.2121C97.6092 26.2121 96.9415 25.9801 96.9415 25.4001C96.9415 24.6581 97.7741 24.3734 98.4948 24.3734C99.1399 24.3734 99.4423 24.5124 99.8341 24.6955C99.7192 25.5832 98.9367 26.2121 98.0883 26.2121ZM106.404 21.1687L104.72 25.3244H104.67L102.929 21.1687H101.349L103.965 26.9761L102.472 30.2077H104.003L108.034 21.1687H106.404ZM93.1986 27.302H94.6675V17.7157H93.1986V27.302Z" fill="white"/>
<path d="M17.3994 10.0763C17.1687 10.3121 17.0352 10.6792 17.0352 11.1547V28.115C17.0352 28.5905 17.1687 28.9576 17.3994 29.1934L17.4564 29.2452L27.1906 19.7451V19.5208L17.4564 10.0207L17.3994 10.0763Z" fill="url(#paint0_linear_2366_4982)"/>
<path d="M30.4321 22.9134L27.1909 19.7451V19.5207L30.436 16.3524L30.5087 16.3937L34.3517 18.5285C35.4484 19.1344 35.4484 20.1314 34.3517 20.7411L30.5087 22.8721L30.4321 22.9134Z" fill="url(#paint1_linear_2366_4982)"/>
<path d="M30.5083 22.8722L27.1906 19.6329L17.3994 29.1934C17.7637 29.5673 18.3577 29.6124 19.0332 29.2385L30.5083 22.8722Z" fill="url(#paint2_linear_2366_4982)"/>
<path d="M30.5083 16.3937L19.0332 10.0273C18.3577 9.6573 17.7637 9.70236 17.3994 10.0762L27.1906 19.6329L30.5083 16.3937Z" fill="url(#paint3_linear_2366_4982)"/>

</svg>
