<svg width="12" height="15" viewBox="0 0 12 15" fill="none" xmlns="http://www.w3.org/2000/svg">
<path fill-rule="evenodd" clip-rule="evenodd" d="M10.2048 0.794197L9.59029 1.59664L9.32894 1.36788C8.99097 1.07207 8.53202 0.759604 8.14421 0.56124C7.02907 -0.00912154 5.69016 -0.108461 4.49588 0.290575C2.39326 0.993086 0.716718 3.22084 0.25956 5.91972C-0.0974767 8.02729 0.288652 10.306 1.28488 11.9707C1.41582 12.1895 1.42639 12.223 1.38538 12.2885C1.36017 12.3288 1.03814 12.7517 0.669766 13.2284C0.301394 13.7051 0 14.1 0 14.1061C0 14.1122 0.261518 14.325 0.58115 14.5789C1.06201 14.9609 1.16872 15.0317 1.1994 14.989C1.2198 14.9607 1.49763 14.5975 1.81678 14.1818L2.39707 13.4261L2.65828 13.6547C3.75649 14.6159 5.04694 15.0681 6.37837 14.9583C7.58899 14.8585 8.69582 14.31 9.65232 13.336C10.7877 12.1798 11.5243 10.5887 11.7896 8.7192C11.8757 8.11211 11.8655 6.79314 11.7697 6.16457C11.5966 5.02829 11.2094 3.89932 10.7021 3.05161C10.5823 2.85133 10.5627 2.79557 10.5941 2.74433C10.6265 2.69151 11.0264 2.16998 11.8357 1.12541L12 0.913335L11.4291 0.460816C11.1151 0.211943 10.8494 0.00462512 10.8387 4.29177e-05C10.828 -0.0045043 10.5428 0.352872 10.2048 0.794197ZM6.63899 1.62039C7.34156 1.76765 8.04914 2.15361 8.50482 2.6381L8.66333 2.80662L5.55098 6.87061C3.8392 9.10582 2.42929 10.9357 2.41785 10.9369C2.37805 10.9412 2.10578 10.2998 1.97564 9.89511C1.72315 9.10991 1.6186 8.41191 1.6186 7.51125C1.6186 6.28185 1.84357 5.25373 2.33425 4.24075C3.01903 2.82705 4.09107 1.89235 5.34095 1.61924C5.65079 1.55152 6.31335 1.55211 6.63899 1.62039ZM9.7352 4.40158C10.2083 5.43862 10.453 6.86208 10.3595 8.03271C10.2722 9.12401 10.0684 9.91729 9.65311 10.7817C9.36947 11.3722 9.086 11.7791 8.63929 12.2371C8.06545 12.8255 7.58927 13.1283 6.90374 13.3408C6.61728 13.4296 6.55055 13.4366 5.99354 13.4366C5.43599 13.4366 5.37008 13.4296 5.08335 13.3405C4.47527 13.1516 3.82986 12.7641 3.46513 12.3689L3.32386 12.2159L6.43614 8.15188C8.14792 5.91668 9.55779 4.08684 9.56923 4.08562C9.58067 4.08436 9.65534 4.22654 9.7352 4.40158Z" fill="white"/>
</svg>
