<svg width="16" height="16" viewBox="0 0 16 16" fill="none" xmlns="http://www.w3.org/2000/svg">
<path id="image 111 (Traced)" fill-rule="evenodd" clip-rule="evenodd" d="M7.26875 0.0110475C6.18025 0.141256 5.34247 0.376608 4.48685 0.792594C3.20876 1.41392 2.02939 2.46322 1.2592 3.66419C0.650037 4.61412 0.248774 5.67319 0.0624976 6.82295C-0.0208325 7.3371 -0.0208325 8.66788 0.0624976 9.18203C0.293317 10.6066 0.888518 11.9647 1.74245 13.0156C3.02328 14.5916 4.77998 15.6077 6.79186 15.9361C7.31349 16.0213 8.68651 16.0213 9.20814 15.9361C11.22 15.6077 12.9767 14.5916 14.2575 13.0156C15.1115 11.9647 15.7067 10.6066 15.9375 9.18203C16.0208 8.66788 16.0208 7.3371 15.9375 6.82295C15.7067 5.39838 15.1115 4.04024 14.2575 2.98943C12.9823 1.42021 11.2147 0.395415 9.22404 0.0711059C8.92057 0.0216633 7.5356 -0.0208657 7.26875 0.0110475ZM8.90611 2.82459C9.46834 2.92904 10.078 3.18294 10.6102 3.53434C10.7431 3.62209 10.8596 3.69388 10.8692 3.69388C10.8787 3.69388 11.0611 3.48022 11.2745 3.21908L11.6624 2.74431L12.0011 3.01161C12.1874 3.15863 12.3713 3.30791 12.4099 3.34332L12.4801 3.40771L12.0787 3.91727C11.858 4.19754 11.6776 4.44253 11.6777 4.46173C11.6779 4.48093 11.8007 4.6883 11.9506 4.92257C12.2799 5.43698 12.4491 5.77977 12.5938 6.22534C12.7821 6.80525 12.8163 7.07878 12.8165 8.00249C12.8166 8.72555 12.8082 8.86477 12.7443 9.1895C12.4315 10.78 11.4735 12.0931 10.1432 12.7548C8.61727 13.5139 6.80616 13.4072 5.39616 12.4751L5.13441 12.302L5.00139 12.4289C4.92823 12.4987 4.71538 12.7098 4.5284 12.8979L4.1884 13.2401L3.8189 12.8849L3.44937 12.5297L3.71395 12.2484C3.8595 12.0937 4.06196 11.8769 4.16386 11.7667L4.34915 11.5664L4.10844 11.2018C3.68156 10.5553 3.41589 9.92157 3.26176 9.18203C3.17576 8.76949 3.13958 7.66602 3.19722 7.21442C3.28306 6.54182 3.42352 6.04789 3.67892 5.52037C4.55355 3.71377 6.18197 2.7064 8.14307 2.7587C8.40536 2.76571 8.74873 2.79536 8.90611 2.82459ZM7.5934 3.89309C6.82848 4.01465 6.19917 4.52503 5.79876 5.34852C5.57672 5.80516 5.39995 6.50935 5.32701 7.22786C5.27344 7.75554 5.3053 8.84151 5.38917 9.34586C5.45918 9.76686 5.54022 10.0842 5.577 10.0812C5.6128 10.0784 9.89043 4.90353 9.90289 4.84803C9.90931 4.81939 9.80773 4.69213 9.66387 4.54852C9.37871 4.26399 9.04479 4.06609 8.6668 3.95764C8.38826 3.87769 7.88179 3.84725 7.5934 3.89309ZM8.26007 8.52395C7.06785 9.95581 6.0924 11.1373 6.0924 11.1495C6.0924 11.2043 6.36882 11.5035 6.54714 11.6417C6.99695 11.9901 7.38992 12.1193 8 12.1193C8.29577 12.1193 8.45957 12.1025 8.64044 12.0536C9.78068 11.7453 10.4999 10.6029 10.6727 8.82545C10.7217 8.32126 10.6947 7.12953 10.6248 6.71082C10.5642 6.34831 10.4802 5.98157 10.4494 5.94582C10.4375 5.93193 9.45225 7.09208 8.26007 8.52395Z" fill="white"/>
</svg>
