<svg width="12" height="13" viewBox="0 0 12 13" fill="none" xmlns="http://www.w3.org/2000/svg">
<path id="image 110 (Traced)" fill-rule="evenodd" clip-rule="evenodd" d="M3.5892 0.0349568C3.22166 0.143946 3.01314 0.410195 2.99081 0.798966C2.97183 1.12923 3.08656 1.36443 3.35324 1.54189L3.53427 1.66237L5.02283 1.67429L6.51135 1.68622L6.72024 1.5843C7.26766 1.31721 7.36014 0.605444 6.89787 0.216954C6.80547 0.139328 6.66428 0.0578871 6.58408 0.0360411C6.41037 -0.0113455 3.74851 -0.0123094 3.5892 0.0349568ZM0.977935 0.876672C0.608556 0.987388 0.227764 1.32954 0.0920948 1.67265C0.0209265 1.85264 0.016059 2.09591 0.00444301 6.07976C-0.0083591 10.4614 -0.00373723 10.6039 0.16175 10.9224C0.286376 11.1623 0.609087 11.4161 0.914334 11.5145C1.17467 11.5985 1.24809 11.6015 3.00341 11.6015C4.08983 11.6015 4.82266 11.5866 4.82266 11.5644C4.82266 11.544 4.76605 11.3884 4.69685 11.2188C4.56793 10.9027 4.48195 10.5539 4.4323 10.1458L4.40424 9.91487H3.62867H2.8531L2.73354 9.79748C2.64516 9.7107 2.61399 9.64195 2.61399 9.53381C2.61399 9.16544 2.75395 9.1117 3.71342 9.1117H4.44735L4.47418 8.94103C4.51717 8.66764 4.69668 8.15341 4.86835 7.81195C4.95571 7.63822 5.02717 7.48915 5.02717 7.48064C5.02717 7.47217 4.58993 7.46522 4.05547 7.46522C3.03916 7.46522 2.86733 7.44394 2.7097 7.29856C2.51398 7.11805 2.61252 6.76185 2.88643 6.65961C2.94218 6.63876 3.61116 6.6219 4.37994 6.6219H5.77247L5.96221 6.46661C6.40247 6.10631 7.06266 5.77793 7.61798 5.643C8.27939 5.48233 9.09034 5.48723 9.73082 5.65577C9.89954 5.70019 10.0606 5.73697 10.0887 5.73746C10.1289 5.73822 10.1398 5.3221 10.1398 3.78814C10.1398 1.87769 10.138 1.83364 10.0511 1.62964C9.92543 1.33484 9.73413 1.11678 9.47985 0.978513C9.26778 0.863179 9.23959 0.858761 8.63671 0.845549L8.01296 0.831936V0.968794C8.01296 1.04405 7.9838 1.20207 7.94817 1.3199C7.77553 1.89071 7.27216 2.33208 6.66486 2.44513C6.38255 2.4977 3.8369 2.49778 3.55006 2.44525C2.83743 2.31466 2.24506 1.71847 2.1761 1.0624L2.15262 0.839124L1.61641 0.842577C1.32151 0.844465 1.03417 0.859805 0.977935 0.876672ZM7.47859 4.27012C7.6597 4.44051 7.64313 4.73358 7.4439 4.88377C7.3947 4.92084 6.82793 4.93301 5.10431 4.93397L2.82966 4.93526L2.7218 4.8294C2.56814 4.67848 2.57026 4.4285 2.72647 4.28405C2.78831 4.22687 2.87576 4.17105 2.92075 4.16004C2.96574 4.14908 3.98144 4.14277 5.17789 4.14611L7.35322 4.15217L7.47859 4.27012ZM7.91954 6.42018C6.68911 6.68948 5.73308 7.57268 5.37397 8.77185C5.28096 9.08247 5.26619 9.20604 5.26619 9.67392C5.26619 10.1416 5.28104 10.2657 5.37405 10.5775C5.7894 11.9694 7.00446 12.9136 8.485 12.9951C9.87397 13.0716 11.2076 12.2433 11.7552 10.9641C11.9606 10.4842 12.0009 10.2719 12 9.67392C11.999 9.07681 11.9572 8.85558 11.7568 8.38745C11.3547 7.44815 10.5429 6.74691 9.52631 6.4607C9.07877 6.33473 8.38954 6.31734 7.91954 6.42018ZM8.85717 7.27138C9.01877 7.34904 9.0355 7.46434 9.0355 8.50182V9.49445L9.52631 9.9751C9.82886 10.2714 10.0341 10.5061 10.0613 10.5871C10.1569 10.8718 9.8516 11.1708 9.56529 11.0728C9.46586 11.0387 8.92858 10.5411 8.4322 10.0232L8.21747 9.79921L8.21808 8.66233C8.21874 7.40924 8.22528 7.37169 8.463 7.25475C8.60337 7.18568 8.68608 7.18917 8.85717 7.27138Z" fill="white"/>
</svg>
