<svg width="13" height="18" viewBox="0 0 13 18" fill="none" xmlns="http://www.w3.org/2000/svg">
<path d="M5.65611 8.31303H0.605562C0.49528 8.31303 0.387092 8.33557 0.292677 8.37821C0.00639364 8.50751 -0.0856016 8.78599 0.0871995 9.00021L3.85714 18L9.25714 18L6.24559 11.6578C6.24559 11.5327 6.38113 11.4313 6.54832 11.4313H11.7373C11.8451 11.4313 11.9509 11.4098 12.0438 11.369C12.3322 11.2423 12.4287 10.9646 12.2594 10.7489L5.54358 0.223667C5.43486 0.0851059 5.23619 0 5.02146 0C4.68707 0 4.41599 0.202841 4.41599 0.453058L5.95884 8.0865C5.95884 8.21161 5.8233 8.31303 5.65611 8.31303Z" fill="white"/>
</svg>
