<svg width="13" height="18" viewBox="0 0 13 18" fill="none" xmlns="http://www.w3.org/2000/svg">
<path d="M5.65611 9.68697H0.605562C0.49528 9.68697 0.387092 9.66443 0.292677 9.62179C0.00639364 9.49249 -0.0856016 9.21401 0.0871995 8.99979L3.85714 8.88002e-06L9.25714 0L6.24559 6.34215C6.24559 6.46726 6.38113 6.56868 6.54832 6.56868H11.7373C11.8451 6.56868 11.9509 6.59021 12.0438 6.63104C12.3322 6.75773 12.4287 7.03536 12.2594 7.25113L5.54358 17.7763C5.43486 17.9149 5.23619 18 5.02146 18C4.68707 18 4.41599 17.7972 4.41599 17.5469L5.95884 9.9135C5.95884 9.78839 5.8233 9.68697 5.65611 9.68697Z" fill="white"/>
</svg>
