<svg width="13" height="11" viewBox="0 0 13 11" fill="none" xmlns="http://www.w3.org/2000/svg">
<path d="M6.69539 7.04336L9.2851 4.21792C9.4499 4.03729 9.32041 3.74056 9.08498 3.74056L7.3899 3.74056L7.3899 0.82803C7.3899 0.699015 7.29573 0.608704 7.18979 0.608704L5.80077 0.608703C5.68305 0.608703 5.60065 0.711916 5.60065 0.82803L5.60065 3.74056L3.91734 3.74056C3.67014 3.74056 3.55243 4.03729 3.71723 4.21791L6.29516 7.04336C6.40111 7.15947 6.58945 7.15947 6.69539 7.04336Z" fill="white"/>
<path d="M3.51086 1.69568H1.52173C0.969444 1.69568 0.521729 2.14339 0.521729 2.69568V8.84785C0.521729 9.40014 0.969444 9.84785 1.52173 9.84785H11.4782C12.0305 9.84785 12.4782 9.40014 12.4782 8.84785V2.69568C12.4782 2.14339 12.0305 1.69568 11.4782 1.69568H9.48912" stroke="white"/>
</svg>
