<svg width="195" height="53" viewBox="0 0 195 53" fill="none" xmlns="http://www.w3.org/2000/svg">
<g clip-path="url(#clip0_0_1)">
<path d="M78.765 0H26.2959V53H78.765V0Z" fill="white"/>
<path d="M105 26.5624L78.7654 0V53.0624L105 26.5624Z" fill="#DB0011"/>
<path d="M52.5305 26.5624L78.765 0H26.2959L52.5305 26.5624Z" fill="#DB0011"/>
<path d="M0 26.5624L26.2963 53.0624V0L0 26.5624Z" fill="#DB0011"/>
<path d="M52.5305 26.5623L26.2959 53.0623H78.765L52.5305 26.5623Z" fill="#DB0011"/>
<path d="M128.025 28.1212H118.519V37.5988H113.765V15.4012H118.519V24.5047H128.025V15.4012H132.778V37.5988H128.025V28.1212Z" fill="#1E0654"/>
<path d="M144.259 38.0353C139.506 38.0353 135.617 36.1024 135.556 30.8024H140.309C140.37 33.1718 141.728 34.6059 144.321 34.6059C146.235 34.6059 148.457 33.6082 148.457 31.4259C148.457 29.68 146.975 29.1812 144.506 28.4329L142.901 27.9965C139.444 26.9988 135.988 25.6271 135.988 21.6365C135.988 16.7106 140.556 15.0271 144.691 15.0271C148.951 15.0271 152.654 16.5235 152.716 21.4494H147.963C147.778 19.4541 146.605 18.2694 144.383 18.2694C142.593 18.2694 140.864 19.2047 140.864 21.2C140.864 22.8212 142.346 23.32 145.432 24.3176L147.284 24.8788C151.049 26.0635 153.457 27.3729 153.457 31.1141C153.395 36.1024 148.58 38.0353 144.259 38.0353Z" fill="#1E0654"/>
<path d="M156.111 15.4635H163.765C165.185 15.4012 166.667 15.4635 168.086 15.7129C170.741 16.3365 172.778 18.0824 172.778 21.0753C172.778 23.9435 170.988 25.3776 168.395 26.0635C171.358 26.6247 173.58 28.1212 173.58 31.4259C173.58 36.4765 168.642 37.5988 164.815 37.5988H156.173L156.111 15.4635ZM163.765 24.6918C165.864 24.6918 168.025 24.2553 168.025 21.6988C168.025 19.3918 166.049 18.7682 164.074 18.7682H160.741V24.6918H163.765ZM164.198 34.2941C166.42 34.2941 168.58 33.7953 168.58 31.0518C168.58 28.3082 166.728 27.8094 164.444 27.8094H160.679V34.2941H164.198Z" fill="#1E0654"/>
<path d="M185.926 38.0352C178.827 38.0352 175.679 33.4834 175.679 26.687C175.679 19.8905 179.197 14.9646 186.173 14.9646C190.555 14.9646 194.815 16.9599 194.938 21.9481H190C189.753 19.7034 188.271 18.5811 186.173 18.5811C181.852 18.5811 180.555 23.2575 180.555 26.8117C180.555 30.3658 181.852 34.4811 185.987 34.4811C188.148 34.4811 189.753 33.2964 190.061 31.0517H195C194.506 36.1646 190.494 38.0352 185.926 38.0352Z" fill="#1E0654"/>
</g>
<defs>
<clipPath id="clip0_0_1">
<rect width="195" height="53" fill="white"/>
</clipPath>
</defs>
</svg>
