<svg width="20" height="20" viewBox="0 0 20 20" fill="none" xmlns="http://www.w3.org/2000/svg">
<path fill-rule="evenodd" clip-rule="evenodd" d="M9.43081 0.00783237C7.51875 0.124263 5.71332 0.762353 4.17682 1.86471C3.29754 2.49556 2.50024 3.29308 1.86957 4.17261C1.39848 4.82958 0.983111 5.59316 0.687239 6.34607C-0.00952924 8.11916 -0.182184 10.0957 0.19539 11.9765C0.947465 15.7228 3.78533 18.7227 7.48851 19.6861C8.31333 19.9007 9.09968 19.9994 9.98975 20C10.6296 20.0005 11.0979 19.9623 11.6927 19.8613C14.0653 19.4583 16.2075 18.2083 17.7517 16.3258C18.3917 15.5457 18.9281 14.6321 19.3028 13.6841C19.681 12.7273 19.8952 11.7873 19.9826 10.7C20.0087 10.376 20.0047 9.56631 19.9754 9.2184C19.8607 7.85764 19.5248 6.66119 18.9257 5.47948C17.567 2.79952 15.0677 0.861829 12.1482 0.224899C11.7166 0.130734 11.2467 0.0617427 10.7583 0.0208173C10.5205 0.000885687 9.67986 -0.00733295 9.43081 0.00783237ZM11.0639 3.85161C11.4357 3.88978 11.739 4.03387 12.0027 4.29761C12.1981 4.49294 12.3206 4.70384 12.3818 4.95007C12.4256 5.12656 12.4256 5.42707 12.3818 5.60356C12.2407 6.17127 11.7226 6.61091 11.1027 6.68896C10.7428 6.73429 10.361 6.65881 10.0748 6.48573C9.69035 6.25325 9.4389 5.89831 9.37454 5.49728C9.35055 5.3477 9.3638 5.06309 9.40116 4.92598C9.52125 4.48524 9.88462 4.10007 10.3357 3.9354C10.5592 3.85382 10.8073 3.82527 11.0639 3.85161ZM9.87375 8.02382C10.5244 8.1084 10.9968 8.40902 11.2391 8.89267C11.4083 9.23042 11.4374 9.58963 11.3511 10.2737C11.3185 10.5323 11.2882 10.6504 10.927 11.9279C10.5474 13.2706 10.537 13.3094 10.4881 13.5513C10.4235 13.8709 10.4029 14.0397 10.4027 14.2502C10.4023 14.7123 10.5265 14.9035 10.8811 14.9867C10.9662 15.0066 11.0477 15.012 11.2683 15.012C11.5919 15.012 11.6971 14.9939 12.0435 14.8792C12.1551 14.8422 12.2475 14.8129 12.2487 14.8141C12.2522 14.8174 12.0875 15.4971 12.0819 15.5027C12.0737 15.5109 11.2444 15.8253 11.0122 15.9083C10.6031 16.0544 10.33 16.1065 9.90591 16.1193C9.15088 16.1421 8.62618 15.9702 8.23609 15.5724C8.07823 15.4114 7.98536 15.269 7.91381 15.0783C7.83537 14.8692 7.81683 14.7507 7.8181 14.4669C7.82053 13.9222 7.87583 13.6549 8.28365 12.2159C8.77033 10.4988 8.81598 10.2992 8.81566 9.88931C8.81519 9.28808 8.62087 9.10637 7.97758 9.10564C7.85705 9.10552 7.72619 9.11405 7.65457 9.12671C7.54343 9.14637 7.29036 9.21869 7.09147 9.28766C7.04602 9.30342 7.00594 9.31343 7.00242 9.30989C6.99539 9.30286 7.15413 8.64452 7.16676 8.62833C7.18194 8.60888 7.82102 8.3673 8.13459 8.26248C8.56135 8.11981 8.87935 8.04255 9.16532 8.01206C9.30368 7.99732 9.72343 8.00428 9.87375 8.02382Z" fill="white"/>
</svg>
