<svg width="20" height="20" viewBox="0 0 20 20" fill="none" xmlns="http://www.w3.org/2000/svg">
<path fill-rule="evenodd" clip-rule="evenodd" d="M3.7037 0.0399969C3.12824 0.128421 2.51291 0.363993 2.01994 0.684547C1.67746 0.907248 1.61356 0.958926 1.29359 1.27166C0.686956 1.86469 0.290628 2.56806 0.0759097 3.43287L0 3.73856V9.96493C0 15.865 0.00306005 16.2056 0.0586478 16.4648C0.24744 17.3455 0.638229 18.0601 1.28406 18.7053C1.98232 19.403 2.79787 19.8183 3.73826 19.9551C4.05233 20.0008 4.74325 20.0052 10.161 19.9961L16.2319 19.9859L16.5098 19.9169C17.4052 19.6947 18.1055 19.3104 18.6957 18.7175C19.3547 18.0553 19.7529 17.3091 19.9413 16.3832C19.9969 16.1101 20 15.7691 20 9.98102V3.86727L19.9273 3.53944C19.7263 2.63236 19.3398 1.9174 18.7129 1.29283C18.102 0.684193 17.4343 0.310224 16.57 0.0926071L16.2319 0.00746528L10.1127 0.00144818C5.03907 -0.00350718 3.94403 0.00305699 3.7037 0.0399969ZM13.7359 3.26304C14.4966 3.45066 15.0753 3.75967 15.6103 4.26395C16.1723 4.79363 16.5587 5.49137 16.7373 6.2988L16.8115 6.63454L16.8116 9.9971L16.8116 13.3597L16.7372 13.6975C16.3966 15.2454 15.2785 16.3699 13.7198 16.732C13.4378 16.7976 13.3425 16.7997 10.1932 16.811C7.96899 16.8189 6.85929 16.8114 6.64573 16.787C4.8753 16.5846 3.48222 15.2503 3.21884 13.5046C3.15082 13.0538 3.15082 6.94042 3.21884 6.48961C3.40992 5.2232 4.18528 4.16475 5.3476 3.58359C5.75291 3.38093 6.14953 3.26722 6.69887 3.1962C6.75201 3.18932 8.29549 3.18636 10.1288 3.18961C13.3954 3.1954 13.4676 3.19688 13.7359 3.26304ZM6.52415 4.40064C5.61778 4.58061 4.82557 5.26555 4.49871 6.15188C4.34213 6.57643 4.34783 6.43089 4.34783 10.0132V13.3597L4.43668 13.6427C4.73556 14.5947 5.37739 15.248 6.29742 15.5367L6.53784 15.6121H10H13.4622L13.7681 15.5059C14.6531 15.1986 15.289 14.5326 15.5472 13.6425L15.62 13.3918V9.9971V6.60236L15.5472 6.35167C15.289 5.46164 14.6531 4.79556 13.7681 4.48833L13.4622 4.38211L10.0644 4.37722C8.19565 4.37455 6.60254 4.3851 6.52415 4.40064ZM14.0345 5.58056C14.5321 5.85111 14.6199 6.501 14.2135 6.90564C14.054 7.06443 13.8832 7.13175 13.6376 7.13259C13.1589 7.1342 12.8039 6.78552 12.803 6.31277C12.8016 5.67224 13.4711 5.2742 14.0345 5.58056ZM10.6361 6.57057C11.9798 6.82526 13.0513 7.84384 13.3904 9.1889C13.4912 9.58874 13.4912 10.4055 13.3904 10.8053C13.0501 12.1551 11.9758 13.1721 10.622 13.4262C10.2317 13.4994 9.47555 13.4761 9.12634 13.3801C7.91298 13.0465 6.97639 12.1344 6.63765 10.9566C6.07069 8.98518 7.34525 6.9354 9.37198 6.55902C9.63501 6.51018 10.352 6.51674 10.6361 6.57057ZM9.61353 7.70046C8.4725 7.91994 7.68116 8.86043 7.68116 9.9971C7.68116 10.9181 8.16989 11.6846 9.01771 12.0933C9.37478 12.2655 9.67517 12.3242 10.0966 12.3041C10.707 12.2752 11.1732 12.0703 11.6125 11.6382C11.8824 11.3726 12.0834 11.06 12.19 10.7398C12.4742 9.88622 12.2571 8.99017 11.6125 8.35605C11.1578 7.90874 10.6985 7.71269 10.0644 7.69518C9.86071 7.68958 9.65781 7.69193 9.61353 7.70046Z" fill="#A32AFF"/>
</svg>
