<svg width="14" height="14" viewBox="0 0 14 14" fill="none" xmlns="http://www.w3.org/2000/svg">
    <path fill-rule="evenodd" clip-rule="evenodd"
        d="M6.37087 0.0249976C5.0515 0.142666 3.76856 0.653019 2.67218 1.49632C2.13843 1.90684 1.44527 2.67837 1.04471 3.30773C0.871712 3.57954 0.534957 4.26831 0.414321 4.59702C0.279438 4.96458 0.135678 5.52627 0.0649346 5.96211C-0.0216449 6.49556 -0.0216449 7.50838 0.0649346 8.04183C0.135678 8.47767 0.279438 9.03936 0.414321 9.40692C0.534957 9.73563 0.871712 10.4244 1.04471 10.6962C1.60399 11.575 2.4225 12.3925 3.30235 12.9511C3.5745 13.1238 4.26412 13.4602 4.59323 13.5807C6.25388 14.1885 8.1683 14.133 9.77482 13.4304C11.0673 12.8652 12.2184 11.8762 12.9334 10.7167C13.0053 10.6001 13.0809 10.5047 13.1013 10.5047C13.1217 10.5047 13.1384 10.4797 13.1384 10.4492C13.1384 10.4188 13.1824 10.3066 13.2362 10.1999C13.5978 9.48275 13.8278 8.75682 13.9504 7.94605C13.9871 7.70325 14 7.45724 14 7.00197C14 6.5467 13.9871 6.30069 13.9504 6.05789C13.8278 5.24712 13.5978 4.52119 13.2362 3.80407C13.1824 3.69738 13.1384 3.58518 13.1384 3.5547C13.1384 3.52421 13.1217 3.49928 13.1013 3.49928C13.0809 3.49928 13.0053 3.40386 12.9334 3.2872C11.9072 1.62313 10.1046 0.420063 8.15189 0.0959818C7.57794 0.000725081 6.93175 -0.0250252 6.37087 0.0249976ZM5.45001 1.34431C5.439 1.36313 5.34735 1.47087 5.24638 1.58375C4.86031 2.01535 4.39851 2.68989 4.12504 3.22161L3.98224 3.49928H3.13541C2.66966 3.49928 2.2886 3.4914 2.2886 3.4818C2.2886 3.44231 2.61938 3.0595 2.86402 2.81587C3.48334 2.19907 4.30267 1.69444 5.13164 1.41923C5.30847 1.36053 5.45694 1.31196 5.4616 1.31131C5.46626 1.31065 5.46105 1.32551 5.45001 1.34431ZM9.21553 1.54604C9.93891 1.84358 10.6012 2.28098 11.1383 2.81587C11.3829 3.0595 11.7137 3.44231 11.7137 3.4818C11.7137 3.4914 11.3326 3.49928 10.8669 3.49928H10.0201L9.87627 3.21879C9.60196 2.68365 9.15813 2.03773 8.74833 1.57715C8.63126 1.44558 8.53547 1.33268 8.53547 1.32625C8.53547 1.30553 8.98039 1.44933 9.21553 1.54604ZM6.45318 2.71939V3.49928H5.85041C5.51889 3.49928 5.24764 3.48866 5.24764 3.47567C5.24764 3.43361 5.68506 2.7904 5.87028 2.56015C6.07774 2.30218 6.40246 1.94513 6.43263 1.94179C6.44392 1.94053 6.45318 2.29044 6.45318 2.71939ZM7.78313 2.15841C7.88897 2.27129 8.04553 2.45058 8.13107 2.55681C8.30187 2.76897 8.75466 3.43538 8.75466 3.47465C8.75466 3.4885 8.49103 3.49928 8.15189 3.49928H7.54912V2.71711C7.54912 2.28691 7.55849 1.93903 7.56994 1.94406C7.58137 1.94907 7.67732 2.04553 7.78313 2.15841ZM3.53507 4.64915C3.41764 5.01866 3.26728 5.80203 3.23182 6.22892L3.21308 6.45468H2.17169H1.1303L1.14907 6.26996C1.19143 5.85279 1.32505 5.33206 1.51418 4.847L1.6129 4.59387H2.58275C3.54337 4.59387 3.55247 4.59439 3.53507 4.64915ZM6.45318 5.52427V6.45468H5.38247H4.31174L4.3259 6.37942C4.33371 6.33805 4.34774 6.23028 4.35711 6.13998C4.38007 5.91852 4.44558 5.55782 4.51114 5.29167C4.56128 5.08827 4.69211 4.66122 4.71866 4.6144C4.72507 4.60312 5.11794 4.59387 5.59174 4.59387H6.45318V5.52427ZM9.34893 4.79911C9.47628 5.17401 9.60579 5.76016 9.64519 6.13998C9.65456 6.23028 9.66859 6.33805 9.6764 6.37942L9.69056 6.45468H8.61983H7.54912V5.52389V4.59311L8.4165 4.60033L9.28386 4.60755L9.34893 4.79911ZM12.4881 4.847C12.6773 5.33206 12.8109 5.85279 12.8532 6.26996L12.872 6.45468H11.8306H10.7892L10.7705 6.22892C10.735 5.80203 10.5847 5.01866 10.4672 4.64915C10.4498 4.59439 10.4589 4.59387 11.4195 4.59387H12.3894L12.4881 4.847ZM3.23182 7.77502C3.26728 8.20191 3.41764 8.98529 3.53507 9.35479C3.55247 9.40955 3.54337 9.41007 2.58275 9.41007H1.6129L1.51418 9.15694C1.32505 8.67188 1.19143 8.15115 1.14907 7.73398L1.1303 7.54927H2.17169H3.21308L3.23182 7.77502ZM6.45318 8.48005V9.41084L5.5858 9.40361L4.71844 9.39639L4.65337 9.20483C4.52602 8.82994 4.39651 8.24378 4.35711 7.86396C4.34774 7.77366 4.33371 7.66589 4.3259 7.62452L4.31174 7.54927H5.38247H6.45318V8.48005ZM9.6764 7.62452C9.66859 7.66589 9.65456 7.77366 9.64519 7.86396C9.60579 8.24378 9.47628 8.82994 9.34893 9.20483L9.28386 9.39639L8.4165 9.40361L7.54912 9.41084V8.48005V7.54927H8.61983H9.69056L9.6764 7.62452ZM12.8532 7.73398C12.8109 8.15115 12.6773 8.67188 12.4881 9.15694L12.3894 9.41007H11.4195C10.4589 9.41007 10.4498 9.40955 10.4672 9.35479C10.5847 8.98529 10.735 8.20191 10.7705 7.77502L10.7892 7.54927H11.8306H12.872L12.8532 7.73398ZM4.12597 10.7851C4.39571 11.3115 4.84557 11.9672 5.24775 12.4202C5.34798 12.5331 5.43839 12.6399 5.44869 12.6575C5.47239 12.6981 5.09153 12.5832 4.78677 12.4579C4.0634 12.1604 3.40109 11.723 2.86402 11.1881C2.61938 10.9444 2.2886 10.5616 2.2886 10.5221C2.2886 10.5125 2.66966 10.5047 3.13541 10.5047H3.98224L4.12597 10.7851ZM6.45318 11.2868C6.45318 11.717 6.44381 12.0649 6.43236 12.0599C6.39556 12.0438 6.03165 11.6464 5.87123 11.4471C5.70043 11.235 5.24764 10.5686 5.24764 10.5293C5.24764 10.5154 5.51127 10.5047 5.85041 10.5047H6.45318V11.2868ZM8.75466 10.5293C8.75466 10.5686 8.30187 11.235 8.13107 11.4471C7.97065 11.6464 7.60674 12.0438 7.56994 12.0599C7.55849 12.0649 7.54912 11.717 7.54912 11.2868V10.5047H8.15189C8.49103 10.5047 8.75466 10.5154 8.75466 10.5293ZM11.7137 10.5221C11.7137 10.5616 11.3829 10.9444 11.1383 11.1881C10.6012 11.723 9.93891 12.1604 9.21553 12.4579C8.91078 12.5832 8.52991 12.6981 8.55361 12.6575C8.56391 12.6399 8.65495 12.5331 8.75592 12.4202C9.14199 11.9886 9.60379 11.3141 9.87726 10.7823L10.0201 10.5047H10.8669C11.3326 10.5047 11.7137 10.5125 11.7137 10.5221Z"
        fill="white" fill-opacity="1.0" />
</svg>