<svg width="20" height="20" viewBox="0 0 20 20" fill="none" xmlns="http://www.w3.org/2000/svg">
<path id="image 119 (Traced)" fill-rule="evenodd" clip-rule="evenodd" d="M13.8848 0.0386685C13.0783 0.143223 12.3248 0.447839 11.6337 0.948714C11.235 1.23768 7.20556 5.25685 7.34602 5.22547C8.33263 5.00495 9.49616 5.03301 10.3353 5.29752L10.6199 5.38718L11.8382 4.18249C13.0899 2.94481 13.2622 2.80415 13.7402 2.63011C14.0661 2.51146 14.7249 2.48392 15.0826 2.57399C15.6174 2.70864 15.8097 2.83733 16.4868 3.51377C17.1646 4.19077 17.2928 4.38207 17.4282 4.91869C17.5114 5.24844 17.4872 5.92024 17.3808 6.2361C17.2222 6.70627 17.0904 6.85602 14.9391 9.00787C13.7934 10.1539 12.7831 11.1518 12.6942 11.2254C12.5027 11.384 12.1335 11.5696 11.8541 11.6479C11.7355 11.6811 11.4738 11.7034 11.213 11.7025C10.7218 11.7008 10.3918 11.6106 10.0156 11.3755C9.76019 11.2158 8.82511 10.2861 8.6405 10.0083C8.49059 9.78274 8.31007 9.32789 8.30859 9.17218C8.30746 9.05434 8.23405 9.05754 7.97583 9.18659C7.82736 9.26081 7.54345 9.5125 6.99611 10.0552L6.2254 10.8193L6.36918 11.0815C6.44828 11.2257 6.59591 11.4608 6.69733 11.6039C6.94942 11.9597 7.97567 12.9833 8.3693 13.2716C8.9725 13.7134 9.65709 14.0071 10.4115 14.1478C10.9424 14.2467 11.9134 14.2115 12.4381 14.0742C13.1798 13.8801 13.81 13.5565 14.387 13.0734C14.5587 12.9297 15.6465 11.8602 16.8043 10.6969C18.9974 8.49334 19.1526 8.31694 19.4852 7.6511C20.1628 6.29478 20.1719 4.73115 19.5101 3.37599C19.2212 2.78441 18.9269 2.39958 18.2457 1.72262C17.5652 1.04634 17.2813 0.825826 16.7229 0.539503C15.8499 0.0919059 14.8437 -0.0856197 13.8848 0.0386685ZM7.76677 5.87957C7.1245 6.00966 6.50903 6.27101 5.9435 6.65384C5.54169 6.92583 1.36896 11.0661 0.974768 11.5839C0.530931 12.1669 0.238566 12.805 0.0669372 13.5653C0.0174483 13.7844 -0.000624741 14.0493 1.64112e-05 14.546C0.000817851 15.1789 0.00967411 15.2601 0.126845 15.7068C0.275031 16.272 0.621854 17.0056 0.936018 17.4186C1.195 17.7589 2.23171 18.7928 2.57745 19.0555C2.93561 19.3276 3.72078 19.707 4.17432 19.827C5.60605 20.2059 7.0258 19.9594 8.26767 19.1163C8.48033 18.9719 9.17739 18.305 10.652 16.8352C12.4844 15.0086 12.7188 14.7614 12.5954 14.7852C11.9916 14.9018 11.7841 14.9236 11.2701 14.9249C10.641 14.9264 10.0131 14.8384 9.57298 14.6871L9.33547 14.6055L8.12101 15.8166C6.60529 17.3282 6.44764 17.4326 5.6135 17.4777C5.12863 17.5039 4.81511 17.4464 4.42076 17.2591C4.15829 17.1345 4.04084 17.0372 3.49365 16.4917C2.94286 15.9425 2.84998 15.8306 2.72539 15.5667C2.54106 15.1764 2.48348 14.8643 2.506 14.3782C2.52612 13.9443 2.61051 13.6579 2.82726 13.2878C3.01704 12.9638 7.15363 8.8299 7.48627 8.63188C8.19719 8.20862 9.02672 8.17139 9.77975 8.52893C10.008 8.63728 10.1525 8.75925 10.6933 9.30019C11.385 9.99204 11.5441 10.2271 11.6444 10.7047C11.6721 10.8367 11.7114 10.9234 11.7435 10.9234C11.7727 10.9234 11.8907 10.8761 12.0057 10.8182C12.1528 10.7442 12.4434 10.4868 12.9857 9.95022L13.7568 9.18743L13.6127 8.92461C13.3553 8.45524 13.1115 8.1521 12.4975 7.53842C11.828 6.86923 11.5071 6.61477 10.9963 6.34806C10.2407 5.9535 9.5842 5.79791 8.69704 5.80316C8.31648 5.80544 8.00772 5.83077 7.76677 5.87957Z" fill="white"/>
</svg>
