<svg width="20" height="20" viewBox="0 0 20 20" fill="none" xmlns="http://www.w3.org/2000/svg">
<path fill-rule="evenodd" clip-rule="evenodd" d="M0.433121 0.433121L0 0.866242V10V19.1338L0.433121 19.5669L0.866242 20H10H19.1338L19.5669 19.5669L20 19.1338V10V0.866242L19.5669 0.433121L19.1338 0H10H0.866242L0.433121 0.433121ZM5.36229 3.50943C6.88739 4.29809 6.24076 6.49682 4.48382 6.49682C3.82076 6.49682 3.18102 6.05338 2.94344 5.42917C2.42293 4.06166 4.00382 2.80688 5.36229 3.50943ZM14.971 7.75427C15.6418 8.05898 16.2822 8.7107 16.613 9.42535C16.8581 9.95478 16.882 10.2682 16.9185 13.4117L16.958 16.8236L15.4535 16.7875L13.949 16.7516L13.8854 13.7154L13.8217 10.6792L13.4056 10.3078C12.9261 9.87962 12.2084 9.80879 11.5898 10.1287C10.9372 10.4662 10.8967 10.6624 10.828 13.8217L10.7643 16.7516L9.26752 16.7875L7.7707 16.8233V12.2293V7.63529L9.26752 7.67108L10.7643 7.70701L10.8036 8.24943L10.8428 8.79185L11.1541 8.42191C11.3254 8.21834 11.7089 7.93134 12.0066 7.78395C12.7203 7.4307 14.2255 7.41567 14.971 7.75427ZM6.05096 12.2293V16.7516L4.55414 16.7875L3.05732 16.8233V12.2293V7.63529L4.55414 7.67108L6.05096 7.70701V12.2293Z" fill="#EC5B43"/>
</svg>
