<svg width="22" height="22" viewBox="0 0 22 22" fill="none" xmlns="http://www.w3.org/2000/svg">
<path fill-rule="evenodd" clip-rule="evenodd" d="M10.0114 0.039282C7.93807 0.22419 5.92202 1.02617 4.19914 2.35136C3.36039 2.99647 2.27114 4.20886 1.64168 5.19786C1.36983 5.625 0.840646 6.70735 0.651076 7.22389C0.439117 7.80149 0.213208 8.68414 0.10204 9.36903C-0.0340133 10.2073 -0.0340133 11.7989 0.10204 12.6372C0.213208 13.3221 0.439117 14.2047 0.651076 14.7823C0.840646 15.2988 1.36983 16.3812 1.64168 16.8083C2.52056 18.1892 3.80678 19.4739 5.1894 20.3517C5.61707 20.6232 6.70076 21.1517 7.21793 21.3411C9.82753 22.2963 12.8359 22.2091 15.3604 21.1049C17.3914 20.2167 19.2003 18.6626 20.3239 16.8406C20.4369 16.6573 20.5557 16.5073 20.5878 16.5073C20.6198 16.5073 20.6461 16.4681 20.6461 16.4202C20.6461 16.3723 20.7152 16.196 20.7998 16.0284C21.368 14.9015 21.7294 13.7607 21.922 12.4867C21.9797 12.1051 22 11.7185 22 11.0031C22 10.2877 21.9797 9.90109 21.922 9.51954C21.7294 8.24548 21.368 7.10473 20.7998 5.97782C20.7152 5.81016 20.6461 5.63385 20.6461 5.58595C20.6461 5.53805 20.6198 5.49887 20.5878 5.49887C20.5557 5.49887 20.4369 5.34892 20.3239 5.16561C18.7113 2.55063 15.8787 0.660098 12.8101 0.150829C11.9082 0.00113941 10.8928 -0.0393252 10.0114 0.039282ZM8.5643 2.11248C8.54699 2.14207 8.40297 2.31137 8.24432 2.48875C7.63763 3.16697 6.91194 4.22696 6.48221 5.06253L6.25781 5.49887H4.92707C4.19518 5.49887 3.59637 5.48649 3.59637 5.47139C3.59637 5.40934 4.11617 4.80779 4.50061 4.42494C5.47382 3.45569 6.76134 2.66269 8.064 2.23022C8.34188 2.13798 8.57519 2.06165 8.58251 2.06062C8.58983 2.05959 8.58165 2.08294 8.5643 2.11248ZM14.4815 2.42949C15.6183 2.89705 16.659 3.58439 17.503 4.42494C17.8874 4.80779 18.4072 5.40934 18.4072 5.47139C18.4072 5.48649 17.8084 5.49887 17.0765 5.49887H15.7458L15.5199 5.0581C15.0888 4.21716 14.3913 3.20215 13.7474 2.47838C13.5634 2.27163 13.4129 2.09421 13.4129 2.0841C13.4129 2.05155 14.112 2.27752 14.4815 2.42949ZM10.1407 4.27332V5.49887H9.1935C8.67254 5.49887 8.2463 5.48219 8.2463 5.46176C8.2463 5.39567 8.93367 4.38491 9.22472 4.02309C9.55073 3.61772 10.061 3.05663 10.1084 3.05138C10.1262 3.0494 10.1407 3.59927 10.1407 4.27332ZM12.2306 3.39178C12.397 3.56917 12.643 3.85091 12.7774 4.01785C13.0458 4.35124 13.7573 5.39846 13.7573 5.46017C13.7573 5.48193 13.343 5.49887 12.8101 5.49887H11.8629V4.26975C11.8629 3.59372 11.8776 3.04704 11.8956 3.05495C11.9136 3.06282 12.0644 3.2144 12.2306 3.39178ZM5.55511 7.30581C5.37058 7.88646 5.13429 9.11747 5.07858 9.7883L5.04913 10.1431H3.41266H1.77619L1.80568 9.8528C1.87224 9.19724 2.08222 8.37896 2.37943 7.61671L2.53455 7.21894H4.05861C5.56816 7.21894 5.58245 7.21976 5.55511 7.30581ZM10.1407 8.681V10.1431H8.45817H6.77559L6.79785 10.0248C6.81012 9.95979 6.83216 9.79045 6.84688 9.64854C6.88297 9.30053 6.98591 8.73372 7.08894 8.31549C7.16773 7.99585 7.37332 7.32477 7.41504 7.25119C7.42511 7.23348 8.04248 7.21894 8.78702 7.21894H10.1407V8.681ZM14.6912 7.54145C14.8913 8.13058 15.0948 9.05168 15.1567 9.64854C15.1715 9.79045 15.1935 9.95979 15.2058 10.0248L15.228 10.1431H13.5454H11.8629V8.6804V7.21774L13.2259 7.22909L14.5889 7.24044L14.6912 7.54145ZM19.6242 7.61671C19.9214 8.37896 20.1314 9.19724 20.1979 9.8528L20.2274 10.1431H18.591H16.9545L16.925 9.7883C16.8693 9.11747 16.633 7.88646 16.4485 7.30581C16.4212 7.21976 16.4355 7.21894 17.945 7.21894H19.4691L19.6242 7.61671ZM5.07858 12.2179C5.13429 12.8887 5.37058 14.1197 5.55511 14.7004C5.58245 14.7864 5.56816 14.7872 4.05861 14.7872H2.53455L2.37943 14.3895C2.08222 13.6272 1.87224 12.809 1.80568 12.1534L1.77619 11.8631H3.41266H5.04913L5.07858 12.2179ZM10.1407 13.3258V14.7885L8.77768 14.7771L7.41469 14.7657L7.31244 14.4647C7.11232 13.8756 6.9088 12.9545 6.84688 12.3577C6.83216 12.2157 6.81012 12.0464 6.79785 11.9814L6.77559 11.8631H8.45817H10.1407V13.3258ZM15.2058 11.9814C15.1935 12.0464 15.1715 12.2157 15.1567 12.3577C15.0948 12.9545 14.8913 13.8756 14.6912 14.4647L14.5889 14.7657L13.2259 14.7771L11.8629 14.7885V13.3258V11.8631H13.5454H15.228L15.2058 11.9814ZM20.1979 12.1534C20.1314 12.809 19.9214 13.6272 19.6242 14.3895L19.4691 14.7872H17.945C16.4355 14.7872 16.4212 14.7864 16.4485 14.7004C16.633 14.1197 16.8693 12.8887 16.925 12.2179L16.9545 11.8631H18.591H20.2274L20.1979 12.1534ZM6.48367 16.9481C6.90755 17.7753 7.61447 18.8056 8.24647 19.5174C8.40396 19.6948 8.54605 19.8627 8.56223 19.8904C8.59948 19.9542 8.00097 19.7736 7.52207 19.5767C6.38534 19.1091 5.34457 18.4218 4.50061 17.5812C4.11617 17.1984 3.59637 16.5968 3.59637 16.5348C3.59637 16.5197 4.19518 16.5073 4.92707 16.5073H6.25781L6.48367 16.9481ZM10.1407 17.7364C10.1407 18.4125 10.126 18.9592 10.108 18.9512C10.0502 18.9259 9.47831 18.3014 9.22623 17.9883C8.95782 17.655 8.2463 16.6077 8.2463 16.546C8.2463 16.5243 8.66057 16.5073 9.1935 16.5073H10.1407V17.7364ZM13.7573 16.546C13.7573 16.6077 13.0458 17.655 12.7774 17.9883C12.5253 18.3014 11.9535 18.9259 11.8956 18.9512C11.8776 18.9592 11.8629 18.4125 11.8629 17.7364V16.5073H12.8101C13.343 16.5073 13.7573 16.5243 13.7573 16.546ZM18.4072 16.5348C18.4072 16.5968 17.8874 17.1984 17.503 17.5812C16.659 18.4218 15.6183 19.1091 14.4815 19.5767C14.0026 19.7736 13.4041 19.9542 13.4414 19.8904C13.4576 19.8627 13.6006 19.6948 13.7593 19.5174C14.366 18.8392 15.0917 17.7792 15.5214 16.9437L15.7458 16.5073H17.0765C17.8084 16.5073 18.4072 16.5197 18.4072 16.5348Z" fill="white"/>
</svg>
