<svg width="287" height="113" viewBox="0 0 287 113" fill="none" xmlns="http://www.w3.org/2000/svg">
<g clip-path="url(#clip0_9267_6423)">
<path d="M107.571 112.276V108.509H107.426C106.46 109.862 105.47 110.9 104.456 111.624C103.491 112.348 102.114 112.71 100.327 112.71C99.4581 112.71 98.565 112.566 97.6472 112.276C96.778 112.035 95.9326 111.551 95.1119 110.827C94.2912 110.151 93.6147 109.185 93.0837 107.93C92.6006 106.626 92.3594 104.96 92.3594 102.932C92.3594 100.855 92.5282 99.044 92.8664 97.4989C93.2047 95.9053 93.832 94.5776 94.7498 93.5149C95.619 92.5008 96.8019 91.7526 98.2991 91.2694C99.7964 90.7385 101.704 90.4726 104.022 90.4726C104.263 90.4726 104.529 90.4726 104.818 90.4726C105.108 90.4726 105.374 90.4965 105.615 90.5451C105.856 90.5936 106.146 90.6175 106.484 90.6175C106.823 90.6175 107.185 90.6414 107.571 90.6899V86.8508C107.571 85.5955 107.305 84.5568 106.774 83.7361C106.243 82.9154 105.277 82.5047 103.877 82.5047C102.911 82.5047 102.017 82.8183 101.197 83.4463C100.424 84.0744 99.9166 84.9914 99.6754 86.1989H92.5043C92.6977 82.9154 93.8081 80.2592 95.8363 78.231C96.8019 77.2652 97.9608 76.5166 99.3132 75.9854C100.666 75.406 102.187 75.1162 103.877 75.1162C105.422 75.1162 106.87 75.3576 108.223 75.8406C109.575 76.3235 110.758 77.0479 111.772 78.0136C112.738 78.9794 113.511 80.1867 114.09 81.6354C114.67 83.0842 114.959 84.7741 114.959 86.706V112.276H107.571ZM107.571 96.4848C106.75 96.3399 106.074 96.2675 105.543 96.2675C103.949 96.2675 102.573 96.6536 101.414 97.4265C100.303 98.1508 99.7478 99.5032 99.7478 101.483C99.7478 102.883 100.086 104.018 100.762 104.887C101.438 105.757 102.379 106.191 103.587 106.191C104.842 106.191 105.809 105.781 106.484 104.96C107.209 104.139 107.571 102.98 107.571 101.483V96.4848Z" fill="#FF4D36"/>
<path d="M119.519 106.698V69.9726H126.907V73.8842C128.404 72.532 131.905 69.9726 131.905 69.9726H133.281C133.281 69.9726 135.454 19.195 135.454 20.6437C135.454 22.0924 135.454 69.9726 135.454 69.9726H136.686V77.3611C135.962 77.0714 135.213 76.9265 134.44 76.9265C133.667 76.9265 132.822 77.0714 131.905 77.3611C131.036 77.6023 130.239 78.0369 129.515 78.665C128.742 79.293 128.114 80.1137 127.631 81.1278C127.148 82.1419 126.907 83.3972 126.907 84.8944V106.698H119.519Z" fill="#FF4D36"/>
<path d="M141.25 112.42V75.6952H148.638V112.42H141.25ZM141.25 68.2343V60.8459H148.638V68.2343H141.25ZM154.038 88.0093C154.038 86.5121 154.135 85.1358 154.328 83.8805C154.521 82.6252 154.883 81.514 155.414 80.5484C156.283 78.9548 159.359 76.4196 162.981 76.0574C164.623 75.0916 163.599 47.0831 164.792 47.0831C165.984 47.0831 165.009 75.0916 166.603 76.0574C170.258 76.4196 173.813 78.9548 174.682 80.5484C175.214 81.514 175.576 82.6252 175.769 83.8805C175.962 85.1358 176.058 86.5121 176.058 88.0093V100.106C176.058 101.603 175.962 102.98 175.769 104.235C175.576 105.49 175.214 106.601 174.682 107.567C173.813 109.161 172.558 110.441 170.915 111.406C169.322 112.372 167.366 112.855 165.048 112.855C162.73 112.855 160.75 112.372 159.108 111.406C157.515 110.441 156.283 109.161 155.414 107.567C154.883 106.601 154.521 105.49 154.328 104.235C154.135 102.98 154.038 101.603 154.038 100.106V88.0093ZM161.426 101.265C161.426 102.665 161.741 103.728 162.368 104.452C163.045 105.128 163.938 105.466 165.048 105.466C166.159 105.466 167.028 105.128 167.656 104.452C168.332 103.728 168.67 102.665 168.67 101.265V86.8503C168.67 85.4502 168.332 84.4114 167.656 83.7356C167.028 83.0112 166.159 82.6491 165.048 82.6491C163.938 82.6491 163.045 83.0112 162.368 83.7356C161.741 84.4114 161.426 85.4502 161.426 86.8503V101.265Z" fill="#FF4D36"/>
<path d="M228.391 78.7848L214.518 83.439L216.108 88.1775C216.477 89.2763 217.059 90.0231 217.854 90.419C218.695 90.7992 219.641 90.8124 220.694 90.4592C222.022 90.0136 222.761 89.3325 222.912 88.4162C223.109 87.4845 223.122 86.6135 222.953 85.8048L229.957 83.4547C230.987 86.5223 230.878 89.3093 229.63 91.8161C229.037 93.0847 228.192 94.2087 227.094 95.1883C225.997 96.1676 224.647 96.9262 223.044 97.4639C220.847 98.2012 218.816 98.3729 216.952 97.9798C215.134 97.5713 213.56 96.7495 212.229 95.5152C211.418 94.7686 210.721 93.8304 210.139 92.7018C209.557 91.5729 209.027 90.299 208.551 88.8795L204.703 77.411C204.227 75.9915 203.881 74.6558 203.664 73.4044C203.448 72.1528 203.438 70.9841 203.634 69.8998C203.952 68.1125 204.712 66.5075 205.916 65.085C207.165 63.6471 209.702 61.2082 214.048 61.2082C215.651 60.6705 214.031 32.8388 215.497 32.9583C217.01 33.062 216.07 60.9161 217.308 61.5704C220.93 61.9326 224.12 66.0575 225.165 69.1705L228.391 78.7848ZM212.675 77.9451L219.543 75.6411L218.206 71.658C217.761 70.3305 217.11 69.4531 216.254 69.0276C215.429 68.5404 214.49 68.4735 213.436 68.827C212.383 69.1802 211.652 69.8076 211.241 70.7096C210.861 71.5498 210.893 72.6346 211.339 73.9621L212.675 77.9451Z" fill="#FF4D36"/>
<path d="M236.214 75.5791V61.5265L238.677 59.7157C238.677 59.7157 238.677 35.976 239.401 36.2175C240.125 36.459 240.487 58.9913 240.487 58.9913L243.602 57.5425V75.5791H248.166V81.374H243.602V101.728C243.602 102.598 243.675 103.274 243.82 103.757C244.013 104.24 244.303 104.602 244.689 104.843C245.075 105.084 245.534 105.229 246.065 105.278C246.645 105.326 247.345 105.35 248.166 105.35V112.304H245.123C243.433 112.304 242.009 112.038 240.85 111.507C239.739 110.976 238.845 110.3 238.17 109.479C237.494 108.658 236.987 107.741 236.648 106.727C236.359 105.664 236.214 104.65 236.214 103.684V81.374H232.52V75.5791H236.214ZM250.998 75.5791V61.5265L254.25 59.3534C254.25 59.3534 254.234 56.2978 254.224 51.9888C254.202 41.6872 254.222 40.5638 254.612 40.5638C254.999 40.5638 255.199 41.2013 255.285 51.4291C255.321 55.8372 255.337 58.9913 255.337 58.9913L258.386 57.5425V75.5791H262.95V81.374H258.386V101.728C258.386 102.598 258.459 103.274 258.604 103.757C258.797 104.24 259.087 104.602 259.473 104.843C259.859 105.084 260.318 105.229 260.849 105.278C261.429 105.326 262.129 105.35 262.95 105.35V112.304H259.908C258.218 112.304 256.793 112.038 255.634 111.507C254.523 110.976 253.63 110.3 252.954 109.479C252.278 108.658 251.771 107.741 251.433 106.727C251.143 105.664 250.998 104.65 250.998 103.684V81.374H247.304V75.5791H250.998ZM287.151 96.7304H272.519V101.728C272.519 102.887 272.833 103.781 273.46 104.409C274.137 105.037 275.03 105.35 276.14 105.35C277.541 105.35 278.458 104.94 278.893 104.119C279.376 103.298 279.666 102.477 279.762 101.656H287.151C287.151 104.892 286.161 107.499 284.181 109.479C283.215 110.493 282.056 111.29 280.704 111.869C279.352 112.449 277.831 112.739 276.14 112.739C273.822 112.739 271.843 112.256 270.201 111.29C268.607 110.324 267.376 109.044 266.506 107.451C265.976 106.485 265.613 105.374 265.42 104.119C265.227 102.864 265.13 101.487 265.13 99.99V87.8932C265.13 86.396 265.227 85.0197 265.42 83.7644C265.613 82.509 265.976 81.3979 266.506 80.4323C267.376 78.8387 268.607 77.559 270.201 76.5932C271.843 75.6274 273.822 75.1445 276.14 75.1445C277.831 75.1445 279.352 75.4342 280.704 76.0137C282.105 76.5932 283.288 77.39 284.253 78.4041C286.185 80.5772 287.151 83.3058 287.151 86.5894V96.7304ZM272.519 90.9355H279.762V86.7342C279.762 85.334 279.425 84.2953 278.748 83.6195C278.121 82.8951 277.252 82.5329 276.14 82.5329C275.03 82.5329 274.137 82.8951 273.46 83.6195C272.833 84.2953 272.519 85.334 272.519 86.7342V90.9355Z" fill="#FF4D36"/>
<path d="M181.089 113.217V76.4922H188.477V80.0416H188.622C189.395 78.8826 190.312 77.941 191.375 77.2166C192.485 76.4439 193.886 76.0576 195.576 76.0576C196.494 76.0576 197.411 76.2266 198.329 76.5647C199.246 76.8544 200.067 77.3615 200.791 78.0858C201.516 78.8102 202.095 79.7519 202.53 80.9108C202.965 82.0215 203.182 83.3975 203.182 85.0397V113.217H195.793V87.7922C195.793 86.4399 195.48 85.3779 194.852 84.6051C194.224 83.8322 193.331 83.4461 192.172 83.4461C190.771 83.4461 189.805 83.8807 189.274 84.7499C188.743 85.6192 188.477 86.8745 188.477 88.5166V113.217H181.089Z" fill="#FF4D36"/>
<path fill-rule="evenodd" clip-rule="evenodd" d="M21.9108 84.7502H21.6145V112.958H32.4689V91.248L45.2493 78.4205L54.4544 86.9235V113H65.3088V86.9233H65.0175L51.9534 71.6916L73.8979 49.6657V113H86.9231V36.9425H86.5745L75.0714 26.0771L43.0975 61.3668L13.1125 26.408L0.346259 36.9425H0V113H13.0252V48.6543L35.6662 69.5685L21.9108 84.7502Z" fill="#FF4D36"/>
<path fill-rule="evenodd" clip-rule="evenodd" d="M224.392 16.5225C222.962 16.3535 222.628 14.4282 223.917 13.7868L234.91 8.317C235.971 7.7894 235.984 6.28146 234.934 5.73479L224.84 0.483371C224.444 0.276915 223.974 0.265335 223.567 0.451993L196.273 12.9853C196.031 13.0965 195.763 13.1388 195.498 13.1075L136.899 6.18151C136.404 6.123 135.914 6.32316 135.601 6.71142L129.514 14.2681C128.808 15.1451 129.328 16.4575 130.444 16.6119L170.037 22.0946C171.472 22.2933 171.759 24.2418 170.443 24.8462L151.282 33.6449C150.169 34.1558 150.153 35.731 151.255 36.2651L164.537 42.7028C164.941 42.8985 165.413 42.8961 165.814 42.6962L198.724 26.3218C198.985 26.1919 199.279 26.1438 199.568 26.1838L257.861 34.2557C258.409 34.3316 258.953 34.0884 259.262 33.629L266.026 23.5684C266.631 22.6691 266.07 21.4485 264.994 21.3213L224.392 16.5225Z" fill="#FF4D36"/>
</g>
<defs>
<clipPath id="clip0_9267_6423">
<rect width="286.846" height="113" fill="white"/>
</clipPath>
</defs>
</svg>
