<svg width="178" height="37" viewBox="0 0 178 37" fill="none" xmlns="http://www.w3.org/2000/svg">
<path d="M51.3901 36.374V33.8688H51.2883C50.6097 34.7683 49.9138 35.4587 49.201 35.9404C48.5224 36.4222 47.5551 36.6631 46.2992 36.6631C45.6883 36.6631 45.0606 36.5667 44.4156 36.374C43.8047 36.2136 43.2106 35.8923 42.6338 35.4105C42.057 34.961 41.5815 34.3183 41.2083 33.4834C40.8687 32.6162 40.6992 31.5081 40.6992 30.1592C40.6992 28.778 40.8178 27.5735 41.0556 26.5459C41.2933 25.486 41.7342 24.6029 42.3792 23.8962C42.9901 23.2217 43.8215 22.724 44.8738 22.4027C45.9261 22.0495 47.2665 21.8727 48.8956 21.8727C49.0651 21.8727 49.2519 21.8727 49.4556 21.8727C49.6592 21.8727 49.846 21.8886 50.0156 21.9209C50.1851 21.9532 50.3887 21.9691 50.6265 21.9691C50.8642 21.9691 51.1188 21.985 51.3901 22.0173V19.4639C51.3901 18.629 51.2033 17.9381 50.8301 17.3923C50.457 16.8464 49.7778 16.5732 48.7938 16.5732C48.1151 16.5732 47.4869 16.7818 46.9101 17.1995C46.3669 17.6172 46.0106 18.2272 45.841 19.0303H40.801C40.937 16.8464 41.7174 15.0798 43.1429 13.7308C43.8215 13.0885 44.636 12.5906 45.5865 12.2373C46.537 11.8519 47.6061 11.6592 48.7938 11.6592C49.8796 11.6592 50.8978 11.8198 51.8483 12.141C52.7988 12.4621 53.6301 12.9439 54.3428 13.5863C55.0215 14.2286 55.5647 15.0316 55.9719 15.9951C56.3792 16.9587 56.5828 18.0826 56.5828 19.3675V36.374H51.3901ZM51.3901 25.8714C50.8133 25.7751 50.3378 25.7269 49.9647 25.7269C48.8447 25.7269 47.8774 25.9837 47.0628 26.4977C46.2824 26.9795 45.8919 27.879 45.8919 29.1956C45.8919 30.1269 46.1297 30.8818 46.6047 31.46C47.0797 32.0381 47.7415 32.3272 48.5901 32.3272C49.4724 32.3272 50.1515 32.054 50.6265 31.5081C51.1356 30.9623 51.3901 30.1915 51.3901 29.1956V25.8714Z" fill="white"/>
<path d="M59.792 32.6642V8.23845H64.9847V10.84C66.0365 9.94069 67.072 9.23412 68.0902 8.72022C71.2465 7.22673 70.3638 1.92725 71.8574 1.92725V13.1525C71.3483 12.9598 70.8219 12.8634 70.2793 12.8634C69.7361 12.8634 69.1419 12.9598 68.4974 13.1525C67.8865 13.3129 67.3265 13.602 66.8174 14.0197C66.2742 14.4374 65.8329 14.9832 65.4938 15.6577C65.1542 16.3322 64.9847 17.1671 64.9847 18.1629V32.6642H59.792Z" fill="white"/>
<path d="M75.0547 36.4701V12.0443H80.2474V36.4701H75.0547ZM75.0547 7.08203V2.16797H80.2474V7.08203H75.0547ZM84.0422 20.2344C84.0422 19.2386 84.1104 18.3232 84.2458 17.4883C84.3817 16.6534 84.6363 15.9143 85.0094 15.2721C85.6204 14.2122 87.7819 12.526 90.3274 12.2852C91.4815 11.6428 90.9424 3.85417 91.7803 3.85417C92.6183 3.85417 91.7529 11.6428 92.8729 12.2852C95.4417 12.526 97.9403 14.2122 98.5512 15.2721C98.9249 15.9143 99.1795 16.6534 99.3149 17.4883C99.4508 18.3232 99.5185 19.2386 99.5185 20.2344V28.2799C99.5185 29.2758 99.4508 30.1911 99.3149 31.026C99.1795 31.861 98.9249 32.6 98.5512 33.2422C97.9403 34.3021 97.0581 35.1534 95.904 35.7956C94.784 36.4378 93.4094 36.7591 91.7803 36.7591C90.1513 36.7591 88.7599 36.4378 87.6058 35.7956C86.4858 35.1534 85.6204 34.3021 85.0094 33.2422C84.6363 32.6 84.3817 31.861 84.2458 31.026C84.1104 30.1911 84.0422 29.2758 84.0422 28.2799V20.2344ZM89.2349 29.0508C89.2349 29.982 89.4558 30.6888 89.8967 31.1706C90.3722 31.6201 90.9999 31.8451 91.7803 31.8451C92.5613 31.8451 93.1722 31.6201 93.6131 31.1706C94.0886 30.6888 94.3258 29.982 94.3258 29.0508V19.4635C94.3258 18.5323 94.0886 17.8414 93.6131 17.3919C93.1722 16.9102 92.5613 16.6693 91.7803 16.6693C90.9999 16.6693 90.3722 16.9102 89.8967 17.3919C89.4558 17.8414 89.2349 18.5323 89.2349 19.4635V29.0508Z" fill="white"/>
<path d="M136.308 14.0991L126.558 17.1946L127.676 20.3462C127.935 21.077 128.344 21.5737 128.902 21.837C129.494 22.0898 130.159 22.0987 130.899 21.8637C131.832 21.5674 132.351 21.1144 132.457 20.5049C132.596 19.8852 132.605 19.306 132.486 18.7681L137.409 17.205C138.132 19.2453 138.056 21.0989 137.179 22.7662C136.762 23.6099 136.168 24.3575 135.397 25.009C134.626 25.6604 133.677 26.1649 132.55 26.5226C131.006 27.0129 129.579 27.1271 128.269 26.8657C126.991 26.5939 125.884 26.0474 124.949 25.2264C124.379 24.7299 123.89 24.1059 123.48 23.3553C123.071 22.6045 122.699 21.7572 122.364 20.8131L119.66 13.1854C119.325 12.2413 119.082 11.3529 118.93 10.5206C118.778 9.68814 118.771 8.91087 118.909 8.18969C119.132 7.00095 119.666 5.9335 120.512 4.98738C121.39 4.031 123.173 2.40893 126.228 2.40893C127.354 2.05126 126.646 2.32948 127.676 2.40893C128.739 2.47796 127.649 2.21464 128.519 2.64982C131.064 2.8907 133.307 5.6342 134.041 7.70465L136.308 14.0991ZM125.263 13.5407L130.089 12.0082L129.15 9.35907C128.837 8.47618 128.38 7.89261 127.778 7.60959C127.198 7.28555 126.538 7.24107 125.798 7.47614C125.058 7.71106 124.544 8.12838 124.255 8.72826C123.988 9.28712 124.011 10.0086 124.324 10.8915L125.263 13.5407Z" fill="white"/>
<path d="M141.799 11.9961V2.64974L144.802 0.963542L146.991 0V11.9961H150.199V15.8503H146.991V29.388C146.991 29.9662 147.042 30.4156 147.144 30.737C147.28 31.0583 147.484 31.2992 147.755 31.4596C148.026 31.6201 148.349 31.7164 148.722 31.7487C149.129 31.781 149.622 31.7969 150.199 31.7969V36.4219H148.06C146.873 36.4219 145.871 36.2451 145.057 35.8919C144.276 35.5388 143.648 35.0888 143.173 34.543C142.698 33.9971 142.342 33.3867 142.104 32.7123C141.9 32.0055 141.799 31.331 141.799 30.6888V15.8503H139.202V11.9961H141.799ZM152.189 11.9961V2.64974L155.239 0.96354L157.382 0V11.9961H160.589V15.8503H157.382V29.388C157.382 29.9662 157.433 30.4156 157.535 30.737C157.67 31.0583 157.874 31.2992 158.145 31.4596C158.417 31.6201 158.74 31.7164 159.113 31.7487C159.52 31.781 160.012 31.7969 160.589 31.7969V36.4219H158.451C157.263 36.4219 156.262 36.2451 155.447 35.8919C154.667 35.5388 154.039 35.0888 153.564 34.543C153.089 33.9971 152.732 33.3867 152.495 32.7123C152.291 32.0055 152.189 31.331 152.189 30.6888V15.8503H149.593V11.9961H152.189ZM177.598 26.0638H167.314V29.388C167.314 30.1589 167.535 30.7529 167.976 31.1706C168.451 31.5883 169.079 31.7969 169.86 31.7969C170.844 31.7969 171.489 31.5237 171.794 30.9779C172.134 30.432 172.337 29.8857 172.405 29.3399H177.598C177.598 31.4919 176.902 33.2263 175.51 34.543C174.832 35.2175 174.017 35.7474 173.067 36.1328C172.117 36.5182 171.048 36.711 169.86 36.711C168.23 36.711 166.839 36.3896 165.685 35.7474C164.565 35.1052 163.7 34.2539 163.089 33.194C162.716 32.5518 162.461 31.8128 162.325 30.9779C162.19 30.143 162.121 29.2276 162.121 28.2318V20.1862C162.121 19.1904 162.19 18.275 162.325 17.4401C162.461 16.6052 162.716 15.8662 163.089 15.224C163.7 14.1641 164.565 13.3129 165.685 12.6706C166.839 12.0282 168.23 11.707 169.86 11.707C171.048 11.707 172.117 11.8997 173.067 12.2852C174.051 12.6706 174.883 13.2005 175.561 13.875C176.919 15.3203 177.598 17.1351 177.598 19.319V26.0638ZM167.314 22.2096H172.405V19.4154C172.405 18.4841 172.168 17.7932 171.692 17.3438C171.251 16.862 170.641 16.6211 169.86 16.6211C169.079 16.6211 168.451 16.862 167.976 17.3438C167.535 17.7932 167.314 18.4841 167.314 19.4154V22.2096Z" fill="white"/>
<path d="M103.06 37V12.5742H108.252V14.9349H108.354C108.897 14.1641 109.542 13.5378 110.289 13.056C111.069 12.5421 112.054 12.2852 113.241 12.2852C113.886 12.2852 114.531 12.3976 115.176 12.6224C115.821 12.8151 116.398 13.1523 116.907 13.6341C117.416 14.1159 117.823 14.7422 118.129 15.513C118.434 16.2517 118.587 17.1669 118.587 18.2591V37H113.394V20.0898C113.394 19.1904 113.174 18.4841 112.732 17.9701C112.291 17.456 111.663 17.1992 110.849 17.1992C109.865 17.1992 109.185 17.4883 108.812 18.0664C108.439 18.6445 108.252 19.4794 108.252 20.5716V37H103.06Z" fill="white"/>
<path fill-rule="evenodd" clip-rule="evenodd" d="M9.32665 24.9497H9.20052V36.9446H13.8208V27.7127L19.261 22.2581L23.1793 25.8738V36.9625H27.7996V25.8737H27.6756L22.1147 19.3967L31.4556 10.0306V36.9625H37V4.6203H36.8516L31.9552 0L18.345 15.0063L5.58151 0.1407L0.14739 4.6203H0V36.9625H5.54437V9.60054L15.1818 18.4939L9.32665 24.9497Z" fill="#FF4E37"/>
</svg>
