<svg width="95" height="79" viewBox="0 0 95 79" fill="none" xmlns="http://www.w3.org/2000/svg">
    <defs>
        <filter id="filter0_b_2414_4386" x="21.0858" y="7.2664" width="65.7463" height="65.7467" filterUnits="userSpaceOnUse" color-interpolation-filters="sRGB">
            <feFlood flood-opacity="0" result="BackgroundImageFix"/>
            <feGaussianBlur in="BackgroundImage" stdDeviation="5.33307"/>
            <feComposite in2="SourceAlpha" operator="in" result="effect1_backgroundBlur_2414_4386"/>
            <feBlend mode="normal" in="SourceGraphic" in2="effect1_backgroundBlur_2414_4386" result="shape"/>
        </filter>
        <linearGradient id="paint0_linear_2414_4386" x1="56.1137" y1="44.0425" x2="56.8649" y2="71.7118" gradientUnits="userSpaceOnUse">
            <stop stop-color="#FF5C00"/>
            <stop offset="1" stop-color="#FE9800"/>
        </linearGradient>
    </defs>

<path d="M31.2154 23.2002C31.9473 22.8562 32.708 23.617 32.3641 24.3489L30.4767 28.365C30.3262 28.6853 30.3864 29.0649 30.6285 29.323L33.6645 32.5593C34.2177 33.1491 33.7293 34.1077 32.927 34.0068L28.5242 33.4529C28.1731 33.4087 27.8306 33.5832 27.66 33.8932L25.5202 37.7807C25.1302 38.4892 24.0676 38.3209 23.9157 37.5266L23.0819 33.1681C23.0155 32.8206 22.7437 32.5488 22.3961 32.4823L18.0376 31.6485C17.2434 31.4966 17.0751 30.434 17.7835 30.044L21.671 27.9043C21.981 27.7336 22.1555 27.3911 22.1114 27.0401L21.5575 22.6373C21.4565 21.8349 22.4151 21.3465 23.0049 21.8998L26.2412 24.9358C26.4993 25.1779 26.879 25.238 27.1992 25.0875L31.2154 23.2002Z" fill="white" fill-opacity="0.8"/>
<path d="M14.0458 34.1794C14.7777 33.8354 15.5384 34.5962 15.1945 35.3281L14.1529 37.5446C14.0024 37.8648 14.0625 38.2445 14.3046 38.5026L15.9802 40.2887C16.5335 40.8785 16.045 41.8371 15.2427 41.7362L12.8128 41.4305C12.4617 41.3863 12.1192 41.5608 11.9486 41.8708L10.7676 44.0163C10.3777 44.7248 9.31504 44.5565 9.1631 43.7622L8.70296 41.3567C8.63647 41.0092 8.36466 40.7374 8.01711 40.6709L5.61166 40.2108C4.81738 40.0588 4.64908 38.9962 5.35754 38.6063L7.50306 37.4253C7.81306 37.2547 7.98757 36.9122 7.9434 36.5611L7.6377 34.1312C7.53676 33.3288 8.49536 32.8404 9.08515 33.3937L10.8713 35.0693C11.1294 35.3113 11.509 35.3715 11.8293 35.221L14.0458 34.1794Z" fill="white" fill-opacity="0.6"/>
<path d="M69.1901 22.0709C70.9983 21.2211 72.8778 23.1006 72.028 24.9088L66.804 36.0253C66.4322 36.8165 66.5807 37.7545 67.1789 38.3921L75.5824 47.3502C76.9493 48.8073 75.7426 51.1756 73.7603 50.9262L61.5736 49.393C60.7062 49.2839 59.8601 49.715 59.4385 50.4809L53.5157 61.2413C52.5523 62.9916 49.927 62.5758 49.5516 60.6135L47.2439 48.5495C47.0796 47.6908 46.4081 47.0193 45.5494 46.855L33.4854 44.5473C31.5231 44.1719 31.1073 41.5466 32.8576 40.5832L43.618 34.6604C44.3839 34.2389 44.815 33.3927 44.7059 32.5253L43.1727 20.3386C42.9233 18.3563 45.2916 17.1496 46.7487 18.5165L55.7068 26.92C56.3444 27.5182 57.2824 27.6667 58.0736 27.2949L69.1901 22.0709Z" fill="white"/>
<rect x="51.9961" y="36.0754" width="8.32677" height="37.5755" rx="4.16338" transform="rotate(45 51.9961 36.0754)" fill="url(#paint0_linear_2414_4386)"/>
<g filter="url(#filter0_b_2414_4386)">
<path d="M69.1901 22.0709C70.9983 21.2211 72.8778 23.1006 72.028 24.9088L66.804 36.0253C66.4322 36.8165 66.5807 37.7545 67.1789 38.3921L75.5824 47.3502C76.9493 48.8073 75.7426 51.1756 73.7603 50.9262L61.5736 49.393C60.7062 49.2839 59.8601 49.715 59.4385 50.4809L53.5157 61.2413C52.5523 62.9916 49.927 62.5758 49.5516 60.6135L47.2439 48.5495C47.0796 47.6908 46.4081 47.0193 45.5494 46.855L33.4854 44.5473C31.5231 44.1719 31.1073 41.5466 32.8576 40.5832L43.618 34.6604C44.3839 34.2389 44.815 33.3927 44.7059 32.5253L43.1727 20.3386C42.9233 18.3563 45.2916 17.1496 46.7487 18.5165L55.7068 26.92C56.3444 27.5182 57.2824 27.6667 58.0736 27.2949L69.1901 22.0709Z" fill="white" fill-opacity="0.89"/>
</g>

</svg>
