<svg width="85" height="53" viewBox="0 0 85 53" fill="none" xmlns="http://www.w3.org/2000/svg">
<g clip-path="url(#clip0_12262_16271)">
<path d="M53.9672 5.62189H30.9648V46.9399H53.9672V5.62189Z" fill="#FF5A00"/>
<path d="M32.496 26.2809C32.496 17.8863 36.4432 10.4358 42.5 5.62191C38.0424 2.11778 32.4194 0 26.286 0C11.7564 0 0 11.7541 0 26.2809C0 40.8077 11.7564 52.5619 26.286 52.5619C32.4194 52.5619 38.0424 50.4441 42.5 46.9399C36.4346 42.1941 32.496 34.6755 32.496 26.2809Z" fill="#EB001B"/>
<path d="M85 26.2809C85 40.8077 73.2436 52.5619 58.714 52.5619C52.5806 52.5619 46.9576 50.4441 42.5 46.9399C48.6334 42.1175 52.504 34.6755 52.504 26.2809C52.504 17.8863 48.5568 10.4358 42.5 5.62191C46.9491 2.11778 52.5721 0 58.7055 0C73.2436 0 85 11.8307 85 26.2809Z" fill="#F79E1B"/>
</g>
<defs>
<clipPath id="clip0_12262_16271">
<rect width="85" height="53" fill="white"/>
</clipPath>
</defs>
</svg>
