<svg width="212" height="39" viewBox="0 0 212 39" fill="none" xmlns="http://www.w3.org/2000/svg">
<path d="M197.669 31.71L189.711 13.4462H195.047L200.475 26.5266L206.756 13.4462H212L199.621 38.6008H194.315L197.669 31.71ZM178.338 27.9292C178.796 27.8072 179.253 27.6548 179.68 27.4109C180.076 27.1974 180.473 26.923 180.808 26.6181C181.144 26.3132 181.448 25.9473 181.692 25.5509C181.936 25.1241 182.15 24.6667 182.272 24.2094C182.424 23.691 182.485 23.1727 182.485 22.6239C182.485 22.075 182.424 21.5567 182.272 21.0384C182.15 20.581 181.936 20.1236 181.692 19.6968C181.448 19.3004 181.144 18.9345 180.808 18.6296C180.473 18.3247 180.076 18.0503 179.68 17.8369C179.253 17.6234 178.796 17.471 178.338 17.349C177.851 17.2271 177.332 17.1661 176.844 17.1966C176.357 17.1966 175.838 17.2575 175.35 17.349C174.893 17.4405 174.436 17.6234 174.009 17.8369C173.582 18.0503 173.216 18.3247 172.881 18.6296C172.545 18.9345 172.24 19.3004 171.996 19.6968C171.753 20.1236 171.539 20.581 171.417 21.0384C171.265 21.5567 171.204 22.1055 171.204 22.6239C171.204 23.1422 171.265 23.691 171.417 24.2094C171.539 24.6667 171.753 25.1241 171.996 25.5509C172.24 25.9473 172.545 26.3132 172.881 26.6181C173.216 26.923 173.612 27.1974 174.009 27.4109C174.436 27.6243 174.863 27.8072 175.35 27.9292C175.838 28.0512 176.326 28.1121 176.844 28.0816C177.332 28.1121 177.82 28.0512 178.338 27.9292ZM172.942 32.0149C172.118 31.8015 171.326 31.4966 170.594 31.0697C169.161 30.277 167.972 29.0878 167.179 27.6548C166.752 26.923 166.447 26.1303 166.234 25.307C165.807 23.5386 165.807 21.7091 166.234 19.9407C166.447 19.1175 166.752 18.3247 167.179 17.5929C167.972 16.1599 169.161 15.0013 170.594 14.178C171.326 13.7816 172.118 13.4462 172.942 13.2328C173.826 13.0194 174.71 12.8974 175.625 12.8974C176.113 12.8974 176.601 12.9279 177.088 12.9889C177.546 13.0499 177.973 13.1413 178.399 13.2633C178.796 13.3853 179.192 13.5072 179.558 13.6902C179.924 13.8426 180.259 14.0256 180.595 14.239C180.9 14.4219 181.205 14.6659 181.448 14.9098C181.692 15.1537 181.936 15.3976 182.119 15.672V13.4767H187.181V31.832H182.119V29.6367C181.448 30.4904 180.564 31.1612 179.558 31.6185C178.979 31.8929 178.369 32.0759 177.729 32.1674C177.027 32.2893 176.296 32.3808 175.594 32.3503C174.71 32.3503 173.826 32.2588 172.942 32.0149ZM154.586 18.1113C155.318 18.1113 156.05 18.0503 156.751 17.8674C157.3 17.7149 157.818 17.471 158.245 17.1051C158.642 16.7697 158.947 16.3428 159.13 15.855C159.312 15.3062 159.434 14.7268 159.404 14.1475C159.404 13.5682 159.312 12.9889 159.13 12.4401C158.947 11.9522 158.642 11.5558 158.245 11.2204C157.818 10.8851 157.3 10.6106 156.751 10.4887C156.05 10.3057 155.318 10.2143 154.586 10.2448H149.616V18.1113H154.586ZM144.372 5.91511H155.105C156.599 5.88462 158.062 6.09806 159.465 6.52492C160.593 6.86032 161.63 7.47013 162.514 8.23239C163.307 8.96416 163.917 9.84838 164.313 10.8546C164.709 11.9217 164.923 13.0499 164.892 14.178C164.892 15.3062 164.709 16.4343 164.313 17.471C163.917 18.4772 163.307 19.3614 162.514 20.0932C161.63 20.8859 160.593 21.4652 159.465 21.8006C158.062 22.2275 156.568 22.4409 155.105 22.4104H149.647V31.832H144.403L144.372 5.91511ZM121.901 13.4462H126.932V15.6416C127.237 15.2147 127.602 14.8183 128.029 14.5134C128.456 14.178 128.944 13.8731 129.462 13.6597C130.011 13.4158 130.621 13.2328 131.231 13.1109C131.902 12.9889 132.572 12.9279 133.274 12.9279C134.341 12.8974 135.408 13.0804 136.384 13.4462C137.268 13.7816 138.091 14.3 138.762 14.9708C139.433 15.672 139.921 16.5258 140.225 17.4405C140.591 18.5077 140.744 19.6053 140.744 20.7335V31.832H135.713V22.0445C135.713 21.3433 135.621 20.6115 135.408 19.9407C135.225 19.3919 134.951 18.8735 134.554 18.4162C134.188 18.0198 133.701 17.6844 133.182 17.5015C131.993 17.1051 130.682 17.1051 129.462 17.5015C128.944 17.6844 128.456 18.0198 128.09 18.4162C127.694 18.8735 127.419 19.3919 127.237 19.9407C127.023 20.6115 126.932 21.3433 126.932 22.0445V31.832H121.931L121.901 13.4462ZM109.522 27.8682C110.009 27.7463 110.467 27.5938 110.894 27.3499C111.321 27.1364 111.686 26.862 112.022 26.5266C112.357 26.1912 112.632 25.8254 112.876 25.429C113.119 25.0021 113.302 24.5752 113.394 24.1179C113.638 23.1117 113.638 22.075 113.394 21.0689C113.18 20.1541 112.693 19.3004 112.022 18.6601C111.686 18.3247 111.29 18.0503 110.894 17.8369C110.467 17.5929 109.979 17.4405 109.522 17.3185C109.003 17.1966 108.454 17.1356 107.936 17.1356C107.418 17.1356 106.869 17.1966 106.351 17.3185C105.863 17.4405 105.405 17.5929 104.979 17.8369C104.552 18.0503 104.186 18.3247 103.85 18.6601C103.515 18.9955 103.241 19.3614 102.997 19.7578C102.265 21.0993 102.082 22.6544 102.478 24.1484C102.6 24.6057 102.783 25.0631 102.997 25.4595C103.21 25.8558 103.515 26.2217 103.85 26.5571C104.186 26.8925 104.552 27.1669 104.979 27.3804C105.405 27.5938 105.863 27.7767 106.351 27.8987C106.869 28.0207 107.387 28.0816 107.936 28.0816C108.485 28.0816 109.003 28.0207 109.522 27.8682ZM104.979 32.0149C104.064 31.8015 103.18 31.4966 102.356 31.0697C101.564 30.6733 100.862 30.1855 100.192 29.6062C99.5512 29.0268 99.0024 28.3866 98.5756 27.6548C98.1182 26.923 97.7828 26.1303 97.5389 25.307C97.051 23.5386 97.051 21.6787 97.5389 19.9407C97.7828 19.1175 98.1182 18.3247 98.5756 17.5929C99.4903 16.1294 100.801 14.9403 102.356 14.178C103.18 13.7512 104.064 13.4462 104.979 13.2328C106.93 12.7755 108.973 12.7755 110.924 13.2328C111.839 13.4462 112.693 13.7512 113.516 14.178C114.309 14.5744 115.01 15.0622 115.681 15.672C116.321 16.2514 116.87 16.8917 117.327 17.6234C117.785 18.3552 118.15 19.148 118.364 19.9712C118.852 21.7396 118.852 23.5996 118.364 25.3375C117.906 27.0145 116.961 28.5085 115.681 29.6367C115.04 30.216 114.309 30.7038 113.516 31.1002C112.693 31.5271 111.808 31.832 110.924 32.0454C108.973 32.4723 106.93 32.4723 104.979 32.0149ZM85.4037 27.8682C85.8915 27.7463 86.3489 27.5938 86.7758 27.3499C87.2026 27.1364 87.5685 26.862 87.9039 26.5266C88.2393 26.1912 88.5137 25.8254 88.7576 25.429C89.0016 25.0021 89.1845 24.5752 89.276 24.1179C89.5199 23.1117 89.5199 22.075 89.276 21.0689C89.0625 20.1541 88.5747 19.3004 87.9039 18.6601C87.5685 18.3247 87.1721 18.0503 86.7758 17.8369C86.3489 17.5929 85.861 17.4405 85.4037 17.3185C84.8854 17.1966 84.3365 17.1356 83.8182 17.1356C83.2999 17.1356 82.751 17.1966 82.2327 17.3185C81.7448 17.4405 81.2875 17.5929 80.8606 17.8369C80.4642 18.0503 80.0679 18.3247 79.7325 18.6601C79.3971 18.965 79.1227 19.3614 78.8787 19.7578C78.6653 20.1846 78.4824 20.6115 78.3604 21.0689C78.2384 21.5567 78.147 22.075 78.1775 22.5934C78.1775 23.1117 78.2384 23.63 78.3604 24.1179C78.4824 24.5752 78.6653 25.0326 78.8787 25.429C79.0922 25.8254 79.3971 26.1912 79.7325 26.5266C80.0679 26.862 80.4338 27.1364 80.8606 27.3499C81.2875 27.5633 81.7448 27.7463 82.2327 27.8682C82.751 27.9902 83.2694 28.0512 83.8182 28.0512C84.3365 28.0512 84.8854 27.9902 85.4037 27.8682ZM80.8301 32.0149C79.9154 31.8015 79.0312 31.4966 78.208 31.0697C77.4152 30.6733 76.7139 30.1855 76.0431 29.6062C75.4028 29.0268 74.854 28.3866 74.4271 27.6548C73.9698 26.923 73.6344 26.1303 73.3905 25.307C72.9026 23.5386 72.9026 21.6787 73.3905 19.9407C73.6344 19.1175 73.9698 18.3247 74.4271 17.5929C74.8845 16.8612 75.4333 16.2209 76.0431 15.6416C76.6834 15.0622 77.4152 14.5439 78.208 14.1475C79.0312 13.7207 79.9154 13.4158 80.8301 13.2023C82.7815 12.7755 84.8244 12.7755 86.7758 13.2023C87.6905 13.4158 88.5442 13.7207 89.3674 14.1475C90.1602 14.5439 90.8615 15.0317 91.5323 15.6416C92.1726 16.2209 92.7214 16.8612 93.1787 17.5929C93.6361 18.3247 94.002 19.1175 94.2154 19.9407C94.7033 21.7091 94.7033 23.5691 94.2154 25.307C93.7581 26.984 92.8129 28.478 91.5323 29.6062C90.892 30.1855 90.1602 30.6733 89.3674 31.0697C88.5442 31.4966 87.66 31.8015 86.7758 32.0149C84.8549 32.4723 82.812 32.4723 80.8301 32.0149ZM41.1926 5.91511H46.4979L55.5231 19.7273L64.6092 5.91511H69.8841V31.832H64.6397V14.0561L57.1391 25.5205H53.9376L46.437 14.0561V31.832H41.1926V5.91511Z" fill="white"/>
<path d="M29.1183 10.5497C32.0454 10.5497 34.3932 8.17143 34.3932 5.27484C34.3932 2.34776 32.0149 0 29.1183 0C26.1913 0 23.8435 2.37825 23.8435 5.27484C23.8435 8.17143 26.1913 10.5497 29.1183 10.5497ZM12.8974 34.3627C5.76269 34.3627 0 28.6 0 21.4652C0 14.3305 5.76269 8.56781 12.8974 8.56781C20.0322 8.56781 25.7949 14.3305 25.7949 21.4652C25.7949 28.6 20.0322 34.3627 12.8974 34.3627Z" fill="#7D00FF"/>
</svg>
