<svg width="19" height="24" viewBox="0 0 19 24" fill="none" xmlns="http://www.w3.org/2000/svg">
<path d="M4.08194 0.605752L0.181628 6.73157C-0.154161 7.28846 0.336607 7.97795 0.930695 7.79232L3.11286 7.36802L3.12624 15.1115C3.15207 15.4827 3.46202 15.7479 3.79781 15.7479L5.50259 15.7479C5.86421 15.7479 6.14833 15.4827 6.17416 15.1115L6.18754 7.36802L8.3697 7.79232C8.98962 7.97795 9.48039 7.26194 9.11877 6.73157L5.21846 0.605752C4.96016 0.181453 4.36607 0.181453 4.08194 0.605752Z" fill="white"/>
<path d="M12.096 9.09274L12.0827 16.8362L9.9005 16.4119C9.28058 16.2263 8.78981 16.9423 9.15143 17.4726L13.0517 23.5985C13.31 24.0228 13.93 24.0228 14.1883 23.5985L18.0886 17.4726C18.4244 16.9158 17.9336 16.2263 17.3395 16.4119L15.1573 16.8362L15.144 9.09274C15.1181 8.72148 14.8082 8.45629 14.4724 8.45629L12.7676 8.45629C12.4318 8.45629 12.1477 8.72148 12.096 9.09274Z" fill="white"/>
</svg>
