<svg width="91" height="61" viewBox="0 0 91 61" fill="none" xmlns="http://www.w3.org/2000/svg">
<path d="M1.61581 30.134L1.34928 30.454L1.61581 30.774L23.3658 56.8876L23.5157 57.0676L23.75 57.0676L67.25 57.0676L67.4843 57.0676L67.6342 56.8876L89.3842 30.774L89.6507 30.454L89.3842 30.134L67.6342 4.0204L67.4843 3.84039L67.25 3.84039L23.75 3.8404L23.5157 3.8404L23.3658 4.0204L1.61581 30.134Z" stroke="#A32AFF"/>
<path d="M40.0536 17.6709L35.7349 24.2777C35.3631 24.8783 35.9065 25.6219 36.5643 25.4217L38.9805 24.9641L38.9953 33.3155C39.0239 33.7159 39.3672 34.002 39.739 34.002L41.6266 34.002C42.027 34.002 42.3416 33.7159 42.3702 33.3155L42.385 24.9641L44.8013 25.4217C45.4877 25.6219 46.0311 24.8497 45.6307 24.2777L41.312 17.6709C41.026 17.2133 40.3682 17.2133 40.0536 17.6709Z" fill="#A32AFF"/>
<path d="M48.9276 26.8247L48.9128 35.1761L46.4965 34.7185C45.8101 34.5183 45.2667 35.2905 45.6671 35.8625L49.9858 42.4693C50.2718 42.9269 50.9582 42.9269 51.2442 42.4693L55.5629 35.8625C55.9347 35.2619 55.3913 34.5183 54.7335 34.7185L52.3173 35.1761L52.3024 26.8247C52.2738 26.4243 51.9306 26.1383 51.5588 26.1383L49.6712 26.1383C49.2994 26.1383 48.9848 26.4243 48.9276 26.8247Z" fill="#A32AFF"/>
</svg>
