<svg width="107" height="43" viewBox="0 0 107 43" fill="none" xmlns="http://www.w3.org/2000/svg">
<path fill-rule="evenodd" clip-rule="evenodd" d="M25.3607 0.293189C23.6983 0.740345 22.3592 1.54984 20.9143 2.98093C19.363 4.5173 18.4135 6.28547 18.0896 8.24152C17.7758 10.1364 17.8686 10.281 19.3145 10.1499C22.4334 9.86692 25.8854 6.5283 26.8366 2.87486C27.0054 2.22658 27.1435 1.30901 27.1435 0.835992C27.1435 -0.150958 27.0814 -0.169807 25.3607 0.293189ZM9.53526 10.4027C5.21457 11.0544 1.59159 14.5312 0.3409 19.2255C0.0853506 20.1846 -0.00444209 21.2966 0.00016781 23.4364C0.00577987 25.9146 0.0871547 26.6671 0.551352 28.5327C1.66935 33.0276 4.15269 37.6561 7.04089 40.6288C9.61001 43.273 11.1329 43.5708 15.0174 42.1886C18.088 41.0958 19.5279 41.094 22.734 42.1782C25.6198 43.1541 26.9439 43.2101 28.4862 42.4208C30.5224 41.3789 33.3574 37.8342 35.0563 34.2062C36.3316 31.4826 36.3386 31.6678 34.9288 30.8581C30.7526 28.4602 29.035 23.0079 31.088 18.6663C31.6085 17.5654 33.257 15.704 34.4452 14.8753C34.7545 14.6595 34.7997 14.2192 34.5407 13.9451L33.989 13.3615C32.0661 11.3275 29.5282 10.3137 26.3418 10.3069C24.3577 10.3026 24.0745 10.357 21.3949 11.2549C19.8316 11.7787 18.4137 12.2074 18.2442 12.2074C18.0748 12.2074 16.7381 11.8091 15.2742 11.3223C12.3507 10.3502 11.1537 10.1585 9.53526 10.4027Z" fill="#1E0654"/>
<path d="M58.2069 35V13.1818H66.8148C68.4696 13.1818 69.8794 13.4979 71.0442 14.13C72.209 14.755 73.0968 15.625 73.7076 16.7401C74.3255 17.848 74.6344 19.1264 74.6344 20.5753C74.6344 22.0241 74.3219 23.3026 73.6969 24.4105C73.0719 25.5185 72.1664 26.3814 70.9803 26.9993C69.8013 27.6172 68.3738 27.9261 66.6976 27.9261H61.2111V24.2294H65.9519C66.8397 24.2294 67.5712 24.0767 68.1465 23.7713C68.7289 23.4588 69.1621 23.0291 69.4462 22.4822C69.7374 21.9283 69.883 21.2926 69.883 20.5753C69.883 19.8509 69.7374 19.2187 69.4462 18.679C69.1621 18.1321 68.7289 17.7095 68.1465 17.4112C67.5641 17.1058 66.8255 16.9531 65.9306 16.9531H62.8198V35H58.2069ZM80.2722 35.3089C79.2282 35.3089 78.2978 35.1278 77.481 34.7656C76.6642 34.3963 76.0179 33.853 75.5421 33.1357C75.0733 32.4112 74.839 31.5092 74.839 30.4297C74.839 29.5206 75.0059 28.7571 75.3397 28.1392C75.6735 27.5213 76.128 27.0241 76.7033 26.6477C77.2786 26.2713 77.932 25.9872 78.6635 25.7955C79.4022 25.6037 80.1763 25.4688 80.986 25.3906C81.9377 25.2912 82.7047 25.1989 83.2871 25.1136C83.8695 25.0213 84.2921 24.8864 84.5549 24.7088C84.8176 24.5312 84.949 24.2685 84.949 23.9205V23.8565C84.949 23.1818 84.736 22.6598 84.3098 22.2905C83.8908 21.9212 83.2942 21.7365 82.5201 21.7365C81.7033 21.7365 81.0534 21.9176 80.5705 22.2798C80.0875 22.6349 79.7679 23.0824 79.6117 23.6222L75.4142 23.2812C75.6273 22.2869 76.0463 21.4276 76.6713 20.7031C77.2963 19.9716 78.1025 19.4105 79.0897 19.0199C80.084 18.6222 81.2346 18.4233 82.5414 18.4233C83.4505 18.4233 84.3205 18.5298 85.1515 18.7429C85.9895 18.956 86.7317 19.2862 87.378 19.7337C88.0314 20.1811 88.5463 20.7564 88.9228 21.4595C89.2992 22.1555 89.4874 22.9901 89.4874 23.9631V35H85.1834V32.7308H85.0556C84.7928 33.2422 84.4412 33.6932 84.0009 34.0838C83.5605 34.4673 83.0314 34.7692 82.4135 34.9893C81.7956 35.2024 81.0819 35.3089 80.2722 35.3089ZM81.5719 32.1768C82.2395 32.1768 82.829 32.0455 83.3404 31.7827C83.8517 31.5128 84.253 31.1506 84.5442 30.696C84.8354 30.2415 84.981 29.7266 84.981 29.1513V27.4148C84.839 27.5071 84.6436 27.5923 84.3951 27.6705C84.1536 27.7415 83.8801 27.8089 83.5748 27.8729C83.2694 27.9297 82.964 27.983 82.6586 28.0327C82.3532 28.0753 82.0762 28.1143 81.8276 28.1499C81.2949 28.228 80.8297 28.3523 80.432 28.5227C80.0343 28.6932 79.7253 28.924 79.5051 29.2152C79.285 29.4993 79.1749 29.8544 79.1749 30.2805C79.1749 30.8984 79.3986 31.3707 79.8461 31.6974C80.3006 32.017 80.8759 32.1768 81.5719 32.1768ZM93.7243 41.1364C93.149 41.1364 92.6092 41.0902 92.1049 40.9979C91.6078 40.9126 91.1958 40.8026 90.8691 40.6676L91.8919 37.2798C92.4245 37.4432 92.9039 37.532 93.3301 37.5462C93.7633 37.5604 94.1362 37.4609 94.4487 37.2479C94.7683 37.0348 95.0275 36.6726 95.2264 36.1612L95.4927 35.4688L89.6227 18.6364H94.3954L97.7832 30.6534H97.9537L101.373 18.6364H106.178L99.818 36.7685C99.5126 37.6491 99.0971 38.4162 98.5716 39.0696C98.0531 39.7301 97.3961 40.2379 96.6007 40.593C95.8052 40.9553 94.8464 41.1364 93.7243 41.1364Z" fill="#1E0654"/>
</svg>
