<svg width="171" height="46" viewBox="0 0 171 46" fill="none" xmlns="http://www.w3.org/2000/svg">
<g id="Group">
<path id="Vector" d="M54.6789 9.71686C54.327 9.71686 54.0281 9.97235 53.973 10.3202L49.8993 36.1545C49.8845 36.2489 49.8904 36.3453 49.9164 36.4373C49.9424 36.5292 49.9881 36.6143 50.0501 36.6869C50.1122 36.7595 50.1893 36.8178 50.276 36.8578C50.3628 36.8978 50.4572 36.9185 50.5527 36.9185H55.3838C55.7352 36.9185 56.0346 36.6625 56.0897 36.3151L57.2863 28.7286C57.3409 28.3813 57.6403 28.1253 57.9922 28.1253H62.3845C67.5165 28.1253 71.873 24.3808 72.6688 19.3068C73.4711 14.19 69.4736 9.72797 63.8079 9.71686H54.6789ZM59.3752 15.4841H62.8894C65.7826 15.4841 66.7248 17.1912 66.4269 19.0791C66.129 20.971 64.6658 22.3646 61.867 22.3646H58.2901L59.3752 15.4841ZM82.4945 17.2402C81.2746 17.2447 79.871 17.4947 78.2951 18.1511C74.6804 19.6577 72.9445 22.7716 72.2073 25.0417C72.2073 25.0417 69.8609 31.9677 75.1621 35.7728C75.1621 35.7728 80.0785 39.436 85.6129 35.5471L85.5175 36.1545C85.5027 36.2488 85.5085 36.3452 85.5345 36.437C85.5604 36.5288 85.606 36.614 85.6679 36.6866C85.7299 36.7591 85.8069 36.8174 85.8935 36.8575C85.9801 36.8975 86.0744 36.9183 86.1698 36.9185H90.756C91.108 36.9185 91.4069 36.6625 91.4619 36.3151L94.2516 18.6237C94.2666 18.5293 94.2609 18.4328 94.235 18.3409C94.2091 18.2489 94.1636 18.1636 94.1016 18.091C94.0396 18.0183 93.9626 17.9599 93.8759 17.9198C93.7892 17.8797 93.6948 17.8588 93.5993 17.8587H89.0131C88.6611 17.8587 88.3617 18.1147 88.3072 18.4621L88.1572 19.4144C88.1572 19.4144 86.1547 17.2265 82.4945 17.2402ZM82.6445 22.8281C83.1711 22.8281 83.6528 22.9009 84.085 23.0397C86.0638 23.6749 87.1857 25.5759 86.8611 27.6365C86.4607 30.1737 84.3799 32.0419 81.7114 32.0419C81.1853 32.0419 80.7036 31.9697 80.2709 31.8309C78.2926 31.1957 77.1636 29.2947 77.4882 27.2341C77.8886 24.6969 79.976 22.8281 82.6445 22.8281Z" fill="#005BFF"/>
<path id="Vector_2" d="M120.724 9.71686C120.372 9.71686 120.073 9.97235 120.018 10.3202L115.944 36.1545C115.929 36.2489 115.935 36.3453 115.961 36.4373C115.987 36.5292 116.033 36.6143 116.095 36.6869C116.157 36.7595 116.234 36.8178 116.321 36.8578C116.408 36.8978 116.502 36.9185 116.598 36.9185H121.429C121.78 36.9185 122.08 36.6625 122.135 36.3151L123.331 28.7286C123.386 28.3813 123.685 28.1253 124.037 28.1253H128.429C133.561 28.1253 137.917 24.3808 138.713 19.3068C139.516 14.19 135.519 9.72797 129.853 9.71686H120.724ZM125.42 15.4841H128.934C131.828 15.4841 132.77 17.1912 132.472 19.0791C132.174 20.971 130.711 22.3646 127.912 22.3646H124.335L125.42 15.4841ZM148.539 17.2402C147.319 17.2447 145.915 17.4947 144.34 18.1511C140.725 19.6577 138.989 22.7716 138.252 25.0417C138.252 25.0417 135.906 31.9677 141.207 35.7728C141.207 35.7728 146.123 39.436 151.658 35.5471L151.562 36.1545C151.548 36.2489 151.553 36.3453 151.579 36.4373C151.605 36.5292 151.651 36.6143 151.713 36.6869C151.775 36.7595 151.852 36.8178 151.939 36.8578C152.026 36.8978 152.12 36.9185 152.216 36.9185H156.801C157.153 36.9185 157.452 36.6625 157.507 36.3151L160.298 18.6237C160.313 18.5292 160.307 18.4327 160.281 18.3406C160.255 18.2486 160.21 18.1633 160.148 18.0906C160.086 18.0179 160.008 17.9595 159.922 17.9194C159.835 17.8794 159.74 17.8587 159.645 17.8587H155.058C154.707 17.8587 154.407 18.1147 154.353 18.4621L154.203 19.4144C154.203 19.4144 152.199 17.2265 148.539 17.2402ZM148.689 22.8281C149.216 22.8281 149.697 22.9009 150.129 23.0397C152.108 23.6749 153.23 25.5759 152.906 27.6365C152.505 30.1737 150.424 32.0419 147.756 32.0419C147.23 32.0419 146.748 31.9697 146.315 31.8309C144.337 31.1957 143.208 29.2947 143.533 27.2341C143.933 24.6969 146.02 22.8281 148.689 22.8281Z" fill="#2894FF"/>
<path id="Vector_3" d="M96.4291 17.8587C96.0656 17.8587 95.807 18.2136 95.9181 18.5595L100.946 34.1621L96.3998 41.5147C96.1791 41.8717 96.4357 42.3327 96.8553 42.3327H102.229C102.382 42.3326 102.533 42.2928 102.667 42.2173C102.801 42.1417 102.913 42.033 102.993 41.9015L117.035 18.6716C117.251 18.3146 116.993 17.8582 116.576 17.8582H111.203C111.048 17.8583 110.895 17.8988 110.761 17.9757C110.626 18.0527 110.514 18.1634 110.435 18.2969L104.907 27.6289L102.101 18.3661C102.01 18.0647 101.732 17.8582 101.417 17.8582L96.4291 17.8587Z" fill="#005BFF"/>
<path id="Vector_4" d="M165.509 9.71686C165.157 9.71686 164.858 9.97285 164.803 10.3202L160.728 36.1535C160.713 36.248 160.719 36.3445 160.745 36.4366C160.771 36.5286 160.816 36.6139 160.878 36.6866C160.941 36.7593 161.018 36.8177 161.105 36.8577C161.191 36.8978 161.286 36.9185 161.381 36.9185H166.213C166.564 36.9185 166.863 36.6625 166.918 36.3151L170.992 10.4808C171.007 10.3865 171.001 10.2901 170.975 10.1983C170.949 10.1065 170.904 10.0213 170.842 9.94877C170.78 9.87619 170.703 9.81789 170.616 9.77786C170.53 9.73782 170.435 9.71702 170.34 9.71686H165.509Z" fill="#2894FF"/>
<path id="Vector_5" d="M14.404 9.71686C14.0928 9.71711 13.7919 9.82835 13.5553 10.0306C13.3187 10.2328 13.162 10.5127 13.1134 10.8201L10.969 24.4207C11.069 23.7855 11.6163 23.3174 12.2596 23.3174H18.5433C24.8674 23.3174 30.2337 18.7039 31.2143 12.452C31.2872 11.9853 31.3286 11.5141 31.338 11.0418C29.7309 10.1991 27.8429 9.71686 25.7743 9.71686H14.404Z" fill="#002B99"/>
<path id="Vector_6" d="M31.3387 11.0421C31.3293 11.5144 31.2879 11.9856 31.215 12.4524C30.2344 18.7043 24.8676 23.3178 18.544 23.3178H12.2603C11.6175 23.3178 11.0697 23.7853 10.9697 24.421L8.99796 36.9188L7.76293 44.7592C7.73883 44.9107 7.74786 45.0656 7.78944 45.2133C7.83101 45.3609 7.90414 45.4978 8.00375 45.6144C8.10335 45.731 8.22707 45.8247 8.36638 45.8889C8.50569 45.9531 8.65727 45.9863 8.81065 45.9862H15.6311C15.9423 45.9859 16.2432 45.8747 16.4798 45.6725C16.7163 45.4703 16.873 45.1903 16.9217 44.8829L18.7182 33.4884C18.7669 33.1808 18.9237 32.9007 19.1605 32.6985C19.3972 32.4963 19.6984 32.3851 20.0098 32.3851H24.0254C30.3496 32.3851 35.7159 27.7717 36.6964 21.5197C37.3927 17.0825 35.1579 13.0446 31.3387 11.0421Z" fill="#2894FF"/>
<path id="Vector_7" d="M6.65592 0.651184C6.01315 0.651184 5.46533 1.11874 5.36535 1.75343L0.0131725 35.6922C-0.0883166 36.3365 0.409549 36.9192 1.06191 36.9192H8.99876L10.9695 24.4214L13.1138 10.8208C13.1625 10.5134 13.3192 10.2335 13.5558 10.0313C13.7923 9.82903 14.0932 9.7178 14.4044 9.71755H25.7747C27.8439 9.71755 29.7313 10.2003 31.3385 11.0425C31.4486 5.35048 26.7518 0.651184 20.2943 0.651184H6.65592Z" fill="#005BFF"/>
</g>
</svg>
