<svg width="34" height="34" viewBox="0 0 34 34" fill="none" xmlns="http://www.w3.org/2000/svg">
<circle cx="17" cy="17" r="17" fill="#00C91C"/>
<path fill-rule="evenodd" clip-rule="evenodd" d="M22.9383 22.934L21.3443 20.1731C21.1016 19.7528 20.5251 19.6271 20.0634 19.8938L18.6516 20.7089C16.9125 19.5558 15.137 16.4813 15.0083 14.3987L16.4201 13.5836C16.882 13.3169 17.0617 12.7553 16.8188 12.3346L15.2248 9.5737C14.9819 9.15299 14.4056 9.02771 13.9439 9.29457L12.4684 10.1464C10.0326 11.5526 12.3929 17.477 13.5354 19.4559C14.6782 21.4352 18.6286 26.441 21.0641 25.0347L22.5396 24.183C23.0016 23.9161 23.181 23.3542 22.9383 22.934H22.9383Z" fill="white"/>
</svg>
