<svg width="16" height="19" viewBox="0 0 16 19" fill="none" xmlns="http://www.w3.org/2000/svg">
<path fill-rule="evenodd" clip-rule="evenodd" d="M6.92162 0.0125525C5.07641 0.169737 3.68987 0.488973 2.40891 1.05157C0.798669 1.75878 -0.121931 2.84896 0.0396397 3.85728C0.171574 4.68062 0.923686 5.44102 2.24284 6.0848C3.32501 6.61295 4.70723 6.97514 6.38243 7.16956C6.92824 7.23288 9.07176 7.23288 9.61757 7.16956C11.9205 6.90227 13.6913 6.31084 14.8831 5.41081C15.4648 4.97162 15.8816 4.36875 15.9611 3.85193C16.1164 2.84187 15.1988 1.75767 13.5911 1.05157C12.511 0.577189 11.2429 0.250447 9.82209 0.0803684C9.34715 0.0235146 7.34297 -0.0233434 6.92162 0.0125525ZM0.0057637 6.4279C0.00654459 7.82245 0.0290419 7.98933 0.274094 8.41778C0.907659 9.52546 2.68981 10.4526 5.0339 10.8939C6.98342 11.2609 9.01658 11.2609 10.9661 10.8939C13.3102 10.4526 15.0923 9.52546 15.7259 8.41778C15.971 7.98933 15.9935 7.82245 15.9942 6.4279C15.9946 5.76876 15.9866 5.22951 15.9765 5.22951C15.9665 5.22951 15.8273 5.35908 15.6673 5.51749C14.5358 6.63747 12.5285 7.41515 9.97083 7.72435C9.3817 7.79555 9.09868 7.80751 8 7.80751C6.90132 7.80751 6.6183 7.79555 6.02917 7.72435C3.47152 7.41515 1.46418 6.63747 0.332698 5.51749C0.172689 5.35912 0.0335413 5.22951 0.023464 5.22951C0.0133868 5.22951 0.00542903 5.76876 0.0057637 6.4279ZM0.0136099 10.4527C0.0291162 11.9704 0.0314217 11.9841 0.356125 12.4722C1.15264 13.6695 3.29712 14.6258 5.95075 14.967C7.5106 15.1676 9.54383 15.1068 11.012 14.8159C12.424 14.5361 13.7396 14.0441 14.5996 13.4743C15.1941 13.0804 15.7086 12.4952 15.8919 12.0045C15.9683 11.8001 15.9735 11.7142 15.9864 10.4527L16 9.11719L15.6306 9.47151C14.379 10.6719 12.3456 11.4118 9.50601 11.7C8.93016 11.7584 7.06984 11.7584 6.49399 11.7C4.54674 11.5024 3.08937 11.1243 1.84678 10.4945C1.22697 10.1803 0.800565 9.88506 0.369363 9.47151L0 9.11719L0.0136099 10.4527ZM0.00535474 14.2499C0.0054663 14.8988 0.0216791 15.5301 0.0413502 15.6527C0.174437 16.4823 1.09493 17.377 2.40891 17.9541C3.4971 18.432 4.74367 18.7525 6.19651 18.928C6.99097 19.024 9.00903 19.024 9.80349 18.928C12.3486 18.6207 14.3718 17.8318 15.3578 16.7624C15.6644 16.43 15.9054 15.9849 15.9586 15.6527C15.9927 15.4402 16.0118 13.0701 15.9794 13.0701C15.9708 13.0701 15.8579 13.1806 15.7284 13.3156C14.6326 14.4578 12.6009 15.2534 9.93327 15.5849C9.15699 15.6813 6.84301 15.6813 6.06673 15.5849C3.40109 15.2536 1.3666 14.4569 0.27164 13.3156C0.142123 13.1806 0.0291534 13.0701 0.0206379 13.0701C0.0121225 13.0701 0.00524318 13.6011 0.00535474 14.2499Z" fill="white"/>
</svg>
