<svg width="75" height="75" viewBox="0 0 75 75" fill="none" xmlns="http://www.w3.org/2000/svg">
<path d="M35.7388 1.31388C35.7047 0.613198 36.2451 0.0152874 36.9466 0.00493714C42.6533 -0.0792705 48.3101 1.14036 53.4831 3.57777C59.0396 6.19585 63.8679 10.1388 67.5436 15.0599C71.2193 19.9811 73.6298 25.7298 74.5634 31.8008C75.4325 37.4529 74.9967 43.2232 73.2964 48.6714C73.0874 49.3411 72.3607 49.6897 71.6985 49.4581L65.2471 47.2023C64.5849 46.9708 64.2387 46.2469 64.4401 45.575C65.638 41.5784 65.9332 37.3599 65.2975 33.2257C64.5973 28.6724 62.7894 24.3609 60.0326 20.67C57.2758 16.9791 53.6546 14.0219 49.4873 12.0584C45.7034 10.2755 41.5746 9.3614 37.4024 9.37585C36.7009 9.37828 36.1051 8.84092 36.071 8.14024L35.7388 1.31388Z" fill="#FF7A00"/>
<path d="M33.8842 1.45202C33.8142 0.754018 33.1911 0.242726 32.4959 0.336352C27.5654 1.00033 22.8119 2.63946 18.5144 5.16263C14.2169 7.68581 10.4692 11.038 7.48679 15.02C7.06625 15.5814 7.20912 16.3746 7.78452 16.7759L13.3903 20.6855C13.9657 21.0867 14.7552 20.9436 15.1821 20.3869C17.3869 17.5114 20.1293 15.0857 23.261 13.247C26.3926 11.4083 29.8472 10.1956 33.4326 9.67147C34.1268 9.57 34.6365 8.95033 34.5664 8.25232L33.8842 1.45202Z" fill="#00A77C"/>
<path d="M24.8948 71.4651C24.6508 72.1228 23.9188 72.4601 23.2698 72.194C17.501 69.828 12.4127 66.0605 8.46649 61.2331C8.0225 60.69 8.13158 59.8914 8.68943 59.4661L14.1243 55.3222C14.6821 54.8968 15.477 55.0063 15.9271 55.5444C18.7896 58.9665 22.4256 61.6587 26.534 63.3981C27.18 63.6716 27.5167 64.4 27.2726 65.0576L24.8948 71.4651Z" fill="#627EEA"/>
<path d="M70.9266 51.4695C71.5738 51.74 71.8812 52.4851 71.589 53.1228C69.0643 58.6315 65.2392 63.4526 60.4351 67.1666C55.631 70.8806 50.0021 73.3685 44.0351 74.4247C43.3444 74.5469 42.7007 74.0618 42.6019 73.3673L41.6394 66.601C41.5406 65.9065 42.0242 65.2663 42.7136 65.1362C47.0728 64.3138 51.182 62.4704 54.7011 59.7498C58.2202 57.0292 61.039 53.5165 62.9326 49.5049C63.2321 48.8705 63.9734 48.5636 64.6207 48.8341L70.9266 51.4695Z" fill="#F00500"/>
<path d="M40.5495 73.5998C40.6086 74.2988 40.0898 74.9156 39.3892 74.951C35.4907 75.1477 31.5853 74.7345 27.8142 73.7263C27.1365 73.5452 26.7583 72.8335 26.9623 72.1623L28.9501 65.6233C29.1541 64.9521 29.863 64.5763 30.5427 64.7499C33.1731 65.4213 35.8869 65.7085 38.5995 65.6023C39.3004 65.5748 39.915 66.0906 39.9741 66.7896L40.5495 73.5998Z" fill="#8F9BB3"/>
<path d="M7.55496 57.8926C6.97515 58.2874 6.18302 58.1386 5.808 57.5457C2.17007 51.7947 0.161295 45.1542 0.0093114 38.3349C-0.142672 31.5155 1.56826 24.7921 4.94636 18.8847C5.29459 18.2757 6.0793 18.0917 6.67613 18.4604L12.4908 22.052C13.0876 22.4206 13.2698 23.2021 12.9285 23.8149C10.4984 28.1782 9.27019 33.1176 9.38181 38.126C9.49343 43.1344 10.9405 48.0141 13.5626 52.2648C13.9309 52.8618 13.7836 53.6506 13.2038 54.0455L7.55496 57.8926Z" fill="#F0B90B"/>
</svg>
