<?xml version="1.0" encoding="UTF-8"?>
<svg width="50px" height="28px" viewBox="0 0 50 28" version="1.1" xmlns="http://www.w3.org/2000/svg" xmlns:xlink="http://www.w3.org/1999/xlink">
    <title>Group 969</title>
    <g id="Page-1" stroke="none" stroke-width="1" fill="none" fill-rule="evenodd">
        <g id="Artboard" fill="#1E0654" fill-rule="nonzero">
            <g id="Group-969" transform="translate(0.502441, 0.309326)">
                <path d="M24.499959,0 L48.999959,5.328944 L48.999959,20.960574 L24.499959,26.999974 L0,20.960574 L0,5.328944 L24.499959,0 Z M37.893859,5.855654 C36.601159,5.855654 35.441159,6.149214 34.413659,6.736344 C33.386259,7.318724 32.574259,8.166264 31.977659,9.278954 C31.381059,10.391674 31.082759,11.741074 31.082759,13.327274 C31.082759,14.908674 31.381059,16.255774 31.977659,17.368474 C32.574259,18.481174 33.386259,19.331074 34.413659,19.918174 C35.441159,20.505274 36.601159,20.798874 37.893859,20.798874 C39.176959,20.798874 40.332259,20.507674 41.359759,19.925274 C42.391959,19.338174 43.206359,18.488274 43.802959,17.375574 C44.404259,16.262874 44.704859,14.913374 44.704859,13.327274 C44.704859,11.741074 44.404259,10.391674 43.802959,9.278954 C43.206359,8.166264 42.391959,7.318724 41.359759,6.736344 C40.332259,6.149214 39.176959,5.855654 37.893859,5.855654 Z M13.002859,6.054524 L7.264209,6.054524 L7.264209,20.599974 L10.339459,20.599974 L10.339459,15.884074 L12.924759,15.884074 C14.042159,15.884074 14.993859,15.678074 15.779859,15.266174 C16.570559,14.854274 17.174259,14.278974 17.590959,13.540274 C18.007559,12.801674 18.215959,11.949374 18.215959,10.983474 C18.215959,10.017574 18.009959,9.165314 17.598059,8.426684 C17.190859,7.683304 16.598959,7.103294 15.822459,6.686624 C15.045959,6.265224 14.106059,6.054524 13.002859,6.054524 L13.002859,6.054524 Z M24.952059,6.054524 L19.213459,6.054524 L19.213459,20.599974 L22.288659,20.599974 L22.288659,15.443774 L24.533209,15.443654 L27.288659,20.599974 L30.683559,20.599974 L27.596209,14.946654 L27.729059,14.889774 C28.519759,14.520474 29.123459,13.990174 29.540159,13.298874 C29.956759,12.602774 30.165159,11.771874 30.165159,10.805974 C30.165159,9.844774 29.959159,9.009064 29.547259,8.298844 C29.140059,7.583874 28.545859,7.032264 27.764559,6.644014 C26.988059,6.251014 26.050559,6.054524 24.952059,6.054524 L24.952059,6.054524 Z M37.893859,8.575824 C38.637159,8.575824 39.285859,8.758124 39.839859,9.122704 C40.393859,9.487284 40.822359,10.022374 41.125359,10.727774 C41.433159,11.433274 41.586959,12.299774 41.586959,13.327274 C41.586959,14.354674 41.433159,15.221174 41.125359,15.926674 C40.822359,16.632174 40.393859,17.167174 39.839859,17.531774 C39.285859,17.896374 38.637159,18.078674 37.893859,18.078674 C37.150459,18.078674 36.501759,17.896374 35.947759,17.531774 C35.393859,17.167174 34.962959,16.632174 34.655159,15.926674 C34.352159,15.221174 34.200659,14.354674 34.200659,13.327274 C34.200659,12.299774 34.352159,11.433274 34.655159,10.727774 C34.962959,10.022374 35.393859,9.487284 35.947759,9.122704 C36.501759,8.758124 37.150459,8.575824 37.893859,8.575824 Z M12.413359,8.568724 C13.009959,8.568724 13.502359,8.670524 13.890659,8.874124 C14.278859,9.072984 14.567759,9.354714 14.757059,9.719274 C14.951259,10.079174 15.048259,10.500574 15.048259,10.983474 C15.048259,11.461674 14.951259,11.885474 14.757059,12.254774 C14.567759,12.619374 14.278859,12.905874 13.890659,13.114174 C13.507059,13.317774 13.019459,13.419574 12.427559,13.419574 L12.427559,13.419574 L10.339459,13.419574 L10.339459,8.568724 Z M24.362559,8.568724 C24.954459,8.568724 25.444459,8.656324 25.832759,8.831514 C26.225759,9.001964 26.516959,9.252914 26.706359,9.584354 C26.900459,9.915774 26.997559,10.322974 26.997559,10.805974 C26.997559,11.284174 26.900459,11.684274 26.706359,12.006274 C26.516959,12.328174 26.228059,12.569674 25.839859,12.730674 C25.451559,12.891674 24.963859,12.972174 24.376759,12.972174 L24.376759,12.972174 L22.288659,12.972174 L22.288659,8.568724 Z" id="Combined-Shape"></path>
            </g>
        </g>
    </g>
</svg>