<svg width="21" height="20" viewBox="0 0 21 20" fill="none" xmlns="http://www.w3.org/2000/svg">
<path fill-rule="evenodd" clip-rule="evenodd" d="M9.705 0.0113792C9.54431 0.0282881 9.16298 0.10636 8.94773 0.166381C7.78101 0.491801 6.79257 1.20845 6.11939 2.21703C5.81855 2.66772 5.50793 3.35101 5.38129 3.84058C5.20344 4.52815 5.17367 5.34843 5.29753 6.14863C5.59795 8.08946 6.7085 9.94169 8.14896 10.9044C8.68136 11.2602 9.03862 11.4126 9.53025 11.4934C9.77961 11.5344 10.5947 11.5282 10.8564 11.4834C11.2378 11.418 11.5435 11.2974 11.9561 11.0495C12.9267 10.4665 13.7194 9.5772 14.2999 8.42044C14.7078 7.60757 14.9537 6.78689 15.0613 5.87891C15.1054 5.50673 15.094 4.69649 15.0397 4.33926C14.9515 3.75967 14.8116 3.31821 14.5579 2.8187C14.2744 2.2606 13.977 1.84031 13.5958 1.45891C12.8258 0.688443 11.7726 0.173207 10.673 0.0290765C10.4522 0.000113449 9.9066 -0.00986595 9.705 0.0113792ZM5.55556 11.1775C4.36961 11.6367 3.91701 11.8336 3.11777 12.238C1.67756 12.9668 0.929893 13.5215 0.671196 14.0533C0.471422 14.464 0.121292 15.621 0.0249215 16.1889C-0.0194775 16.4506 -0.00622005 16.6146 0.0781588 16.8475C0.573373 18.2144 3.22534 19.3545 6.96637 19.8088C8.66092 20.0146 10.5881 20.0562 12.3088 19.9242C15.7655 19.659 18.6476 18.7331 19.8109 17.514C20.2351 17.0695 20.3787 16.6795 20.306 16.1695C20.2559 15.8175 19.9706 14.8202 19.7894 14.3637C19.641 13.9897 19.5232 13.8013 19.2902 13.5651C18.8822 13.1514 18.2984 12.7893 17.0184 12.1558C16.0682 11.6856 15.5765 11.4724 14.5942 11.1052L14.0166 10.8892L13.7436 11.1437C13.3003 11.5571 12.9442 11.825 12.5162 12.0671C12.0703 12.3194 11.4826 12.5393 11.0563 12.6133C10.7369 12.6688 10.1431 12.6872 9.73612 12.6544C9.0292 12.5973 8.6376 12.4874 8.02128 12.1732C7.52372 11.9195 7.0978 11.6167 6.59639 11.1601C6.43284 11.0112 6.29746 10.89 6.29555 10.8908C6.29364 10.8916 5.96065 11.0206 5.55556 11.1775Z" fill="#FED601"/>
<path fill-rule="evenodd" clip-rule="evenodd" d="M5.55556 11.1774C4.36961 11.6367 3.91701 11.8336 3.11777 12.238C1.67756 12.9668 0.929893 13.5215 0.671196 14.0533C0.471422 14.464 0.121292 15.621 0.0249215 16.1889C-0.0194775 16.4506 -0.00622005 16.6146 0.0781588 16.8475C0.573373 18.2144 3.22534 19.3545 6.96637 19.8088C8.66092 20.0146 10.5881 20.0562 12.3088 19.9242C15.7655 19.659 18.6476 18.7331 19.8109 17.514C20.2351 17.0695 20.3787 16.6795 20.306 16.1695C20.2559 15.8175 19.9706 14.8202 19.7894 14.3637C19.641 13.9897 19.5232 13.8013 19.2902 13.5651C18.8822 13.1514 18.2984 12.7893 17.0184 12.1558C16.0682 11.6855 15.5765 11.4724 14.5942 11.1051L14.0166 10.8891L13.7436 11.1437C13.3003 11.5571 12.9442 11.825 12.5162 12.0671C12.0703 12.3194 11.4826 12.5393 11.0563 12.6133C10.7369 12.6688 10.1431 12.6872 9.73612 12.6544C9.0292 12.5973 8.6376 12.4874 8.02128 12.1732C7.52372 11.9195 7.0978 11.6167 6.59639 11.1601C6.43284 11.0112 6.29746 10.89 6.29555 10.8908C6.29364 10.8916 5.96065 11.0206 5.55556 11.1774Z" fill="#A32AFF"/>
</svg>
