<svg width="34" height="34" viewBox="0 0 34 34" fill="none" xmlns="http://www.w3.org/2000/svg">
<circle cx="17" cy="17" r="17" fill="#1CA0F1"/>
<path d="M16.982 9.1543C17.7123 9.1543 18.4261 9.36904 19.0333 9.77138C19.6405 10.1737 20.1138 10.7456 20.3932 11.4146C20.6727 12.0837 20.7458 12.8199 20.6033 13.5302C20.4609 14.2404 20.1092 14.8928 19.5928 15.4049C19.0765 15.917 18.4186 16.2657 17.7023 16.407C16.9861 16.5483 16.2437 16.4758 15.569 16.1986C14.8943 15.9215 14.3177 15.4522 13.9119 14.8501C13.5062 14.2479 13.2897 13.54 13.2897 12.8158C13.2897 11.8447 13.6787 10.9134 14.3711 10.2267C15.0636 9.54006 16.0027 9.1543 16.982 9.1543ZM16.982 27.4619C15.4858 27.4612 14.0082 27.1326 12.655 26.4996C11.3018 25.8667 10.1064 24.9449 9.1543 23.8004C9.72125 22.1848 10.7813 20.7843 12.1873 19.7933C13.5932 18.8022 15.2755 18.2697 17.0005 18.2697C18.7254 18.2697 20.4077 18.8022 21.8136 19.7933C23.2196 20.7843 24.2796 22.1848 24.8466 23.8004C23.8905 24.9497 22.6892 25.8743 21.3292 26.5075C19.9692 27.1406 18.4844 27.4666 16.982 27.4619Z" fill="white"/>
</svg>
