<svg width="20" height="22" viewBox="0 0 20 22" fill="none" xmlns="http://www.w3.org/2000/svg">
<path d="M9.58989 15.8028L4.15536 9.40424C3.80952 8.99521 4.08125 8.32321 4.5753 8.32321L8.13245 8.32321L8.13245 0.49669C8.13245 0.20452 8.33007 -1.24703e-08 8.55239 -1.31106e-08L11.4673 -2.15053e-08C11.7143 -2.22167e-08 11.8872 0.233737 11.8872 0.49669L11.8872 8.32321L15.4197 8.32321C15.9384 8.32321 16.1854 8.99521 15.8396 9.40424L10.4298 15.8028C10.2074 16.0657 9.81221 16.0657 9.58989 15.8028Z" fill="white"/>
<path d="M0 19V16.5C0 16.2239 0.223858 16 0.5 16H3.5C3.77614 16 4 16.2239 4 16.5V18.5C4 18.7761 4.22386 19 4.5 19H15.5C15.7761 19 16 18.7761 16 18.5V16.5C16 16.2239 16.2239 16 16.5 16H19.5C19.7761 16 20 16.2239 20 16.5V19V21.5C20 21.7761 19.7761 22 19.5 22H0.5C0.223857 22 0 21.7761 0 21.5V19Z" fill="white"/>
</svg>
