<svg width="20" height="24" viewBox="0 0 20 24" fill="none" xmlns="http://www.w3.org/2000/svg">
<path fill-rule="evenodd" clip-rule="evenodd" d="M0.0170124 10.6869C0.0363953 12.6041 0.0392771 12.6214 0.445156 13.2379C1.4408 14.7503 4.1214 15.9582 7.43844 16.3892C9.38825 16.6426 11.9298 16.5659 13.765 16.1983C15.53 15.8449 17.1745 15.2234 18.2494 14.5037C18.9926 14.0061 19.6357 13.267 19.8649 12.6471C19.9604 12.3889 19.9669 12.2804 19.983 10.6869L20 9L19.5383 9.44756C17.9738 10.9639 15.432 11.8985 11.8825 12.2624C11.1627 12.3363 8.8373 12.3363 8.11749 12.2624C5.68342 12.0129 3.86171 11.5353 2.30847 10.7398C1.53371 10.3429 1.00071 9.96993 0.461704 9.44756L0 9L0.0170124 10.6869Z" fill="white"/>
<path fill-rule="evenodd" clip-rule="evenodd" d="M0.0170124 17.6869C0.0363953 19.6041 0.0392771 19.6214 0.445156 20.2379C1.4408 21.7503 4.1214 22.9582 7.43844 23.3892C9.38825 23.6426 11.9298 23.5659 13.765 23.1983C15.53 22.8449 17.1745 22.2234 18.2494 21.5037C18.9926 21.0061 19.6357 20.267 19.8649 19.6471C19.9604 19.3889 19.9669 19.2804 19.983 17.6869L20 16L19.5383 16.4476C17.9738 17.9639 15.432 18.8985 11.8825 19.2624C11.1627 19.3363 8.8373 19.3363 8.11749 19.2624C5.68342 19.0129 3.86171 18.5353 2.30847 17.7398C1.53371 17.3429 1.00071 16.9699 0.461704 16.4476L0 16L0.0170124 17.6869Z" fill="white"/>
<path fill-rule="evenodd" clip-rule="evenodd" d="M8.6253 0.0158559C6.31878 0.214404 4.58562 0.61765 2.98441 1.32829C0.97161 2.22162 -0.17914 3.59869 0.0228236 4.87236C0.187741 5.91237 1.12788 6.87286 2.77682 7.68607C4.12954 8.3532 5.85731 8.81071 7.95132 9.05629C8.63358 9.13627 11.313 9.13627 11.9952 9.05629C14.8739 8.71866 17.0874 7.97159 18.5772 6.8347C19.3042 6.27994 19.8253 5.51842 19.9246 4.8656C20.1188 3.58973 18.9718 2.22021 16.9621 1.32829C15.612 0.729081 14.0269 0.316354 12.2509 0.101518C11.6572 0.0297026 9.15199 -0.0294864 8.6253 0.0158559Z" fill="white"/>
</svg>
