<svg width="27" height="26" viewBox="0 0 27 26" fill="none" xmlns="http://www.w3.org/2000/svg">
<path fill-rule="evenodd" clip-rule="evenodd" d="M12.0807 0.0154223C7.38723 0.40178 3.33739 3.14536 1.30905 7.31271C-1.82762 13.7571 0.866913 21.5519 7.31634 24.691C13.7607 27.8276 21.5555 25.1331 24.6946 18.6837C27.0601 13.8236 26.1761 8.05081 22.4579 4.07746C20.4938 1.97859 17.8476 0.59407 14.9311 0.139232C14.2797 0.0376561 12.6634 -0.0325389 12.0807 0.0154223ZM14.2163 6.61191C15.3016 6.80197 16.3639 7.28267 17.1446 7.93704C17.6636 8.37199 17.4765 8.44905 18.6555 7.31449L19.4496 6.55041L19.4662 9.11714C19.4753 10.5288 19.4726 11.6941 19.4602 11.7065C19.4477 11.719 18.2825 11.7217 16.8708 11.7125L14.3041 11.6959L15.2093 10.7567C15.7071 10.2401 16.1145 9.79209 16.1145 9.76109C16.1145 9.64033 15.4862 9.17406 15.0028 8.93609C14.3142 8.59706 13.7947 8.47249 13.0653 8.47134C11.8648 8.46956 10.8935 8.87682 10.0111 9.75207C9.46983 10.289 9.16072 10.7411 8.90058 11.3763L8.76972 11.6959L7.70949 11.7133C6.47686 11.7336 6.55067 11.7931 6.81208 10.9894C7.41556 9.13391 8.86596 7.61897 10.7107 6.91727C11.7121 6.53631 13.0964 6.41574 14.2163 6.61191ZM10.7339 15.2413L9.80804 16.1505L10.2138 16.4555C11.5033 17.4249 12.9474 17.6751 14.4221 17.1849C15.5861 16.7979 16.662 15.7717 17.0965 14.634L17.2117 14.3322H18.283C19.13 14.3322 19.3543 14.3498 19.3543 14.4164C19.3543 14.5786 19.0325 15.4445 18.8079 15.8867C18.3801 16.7287 17.7892 17.4543 17.0392 18.0585C16.4569 18.5276 15.3801 19.0838 14.6535 19.2908C14.0426 19.4648 12.6985 19.5282 12.0024 19.4159C10.8208 19.2253 9.65501 18.6655 8.73142 17.8452L8.40414 17.5546L7.46321 18.5118L6.52228 19.469V16.9006V14.3322H9.09103H11.6598L10.7339 15.2413Z" fill="#A32AFF"/>
</svg>
