<svg width="28" height="23" viewBox="0 0 28 23" fill="none" xmlns="http://www.w3.org/2000/svg">
<path d="M13.5899 0.197181L8.15536 6.59572C7.80953 7.00476 8.08125 7.67675 8.5753 7.67675L12.1324 7.67675L12.0306 11.0005C12.0139 11.5475 12.4527 12 13 12V12L15 11.9999V11.9999C15.548 11.9999 15.9882 11.5481 15.9739 11.0002L15.8872 7.67675L19.4197 7.67675C19.9384 7.67675 20.1854 7.00476 19.8396 6.59572L14.4298 0.197181C14.2075 -0.0657729 13.8122 -0.0657729 13.5899 0.197181Z" fill="white"/>
<path d="M21.5899 11.1972L16.1554 17.5957C15.8095 18.0048 16.0813 18.6767 16.5753 18.6767L20.1324 18.6767L20.0306 22.0005C20.0139 22.5475 20.4527 23 21 23V23L23 22.9999V22.9999C23.548 22.9999 23.9882 22.5481 23.9739 22.0002L23.8872 18.6767L27.4197 18.6767C27.9384 18.6767 28.1854 18.0048 27.8396 17.5957L22.4298 11.1972C22.2075 10.9342 21.8122 10.9342 21.5899 11.1972Z" fill="white"/>
<path d="M5.58989 11.1972L0.155358 17.5957C-0.190475 18.0048 0.0812513 18.6767 0.5753 18.6767L4.13245 18.6767L4.03062 22.0005C4.01386 22.5475 4.45275 23 5 23V23L7 22.9999V22.9999C7.54802 22.9999 7.98821 22.5481 7.97392 22.0002L7.88721 18.6767L11.4197 18.6767C11.9384 18.6767 12.1854 18.0048 11.8396 17.5957L6.42977 11.1972C6.20745 10.9342 5.81221 10.9342 5.58989 11.1972Z" fill="white"/>
</svg>
