<svg width="20" height="22" viewBox="0 0 20 22" fill="none" xmlns="http://www.w3.org/2000/svg">
<path d="M9.58989 0.197215L4.15536 6.59576C3.80952 7.00479 4.08125 7.67679 4.5753 7.67679L8.13245 7.67679L8.13245 15.5033C8.13245 15.7955 8.33007 16 8.55239 16L11.4673 16C11.7143 16 11.8872 15.7663 11.8872 15.5033L11.8872 7.67679L15.4197 7.67679C15.9384 7.67679 16.1854 7.00479 15.8396 6.59576L10.4298 0.197215C10.2074 -0.0657385 9.81221 -0.0657385 9.58989 0.197215Z" fill="white"/>
<path d="M0 19V16.5C0 16.2239 0.223858 16 0.5 16H3.5C3.77614 16 4 16.2239 4 16.5V18.5C4 18.7761 4.22386 19 4.5 19H15.5C15.7761 19 16 18.7761 16 18.5V16.5C16 16.2239 16.2239 16 16.5 16H19.5C19.7761 16 20 16.2239 20 16.5V19V21.5C20 21.7761 19.7761 22 19.5 22H0.5C0.223857 22 0 21.7761 0 21.5V19Z" fill="white"/>
</svg>
