<svg width="587" height="179" viewBox="0 0 587 179" fill="none" xmlns="http://www.w3.org/2000/svg">
<path d="M38.125 30.1023C37.822 27.4129 36.572 25.3295 34.375 23.8523C32.178 22.3561 29.4129 21.608 26.0795 21.608C23.6932 21.608 21.6288 21.9867 19.8864 22.7443C18.1439 23.483 16.7898 24.5057 15.8239 25.8125C14.8769 27.1004 14.4034 28.5682 14.4034 30.2159C14.4034 31.5985 14.7254 32.7917 15.3693 33.7955C16.0322 34.7992 16.8939 35.642 17.9545 36.3239C19.0341 36.9867 20.1894 37.5455 21.4205 38C22.6515 38.4356 23.8352 38.7955 24.9716 39.0795L30.6534 40.5568C32.5095 41.0114 34.4129 41.6269 36.3636 42.4034C38.3144 43.1799 40.1231 44.2027 41.7898 45.4716C43.4564 46.7405 44.8011 48.3125 45.8239 50.1875C46.8655 52.0625 47.3864 54.3068 47.3864 56.9205C47.3864 60.2159 46.5341 63.142 44.8295 65.6989C43.1439 68.2557 40.6913 70.2727 37.4716 71.75C34.2708 73.2273 30.3977 73.9659 25.8523 73.9659C21.4962 73.9659 17.7273 73.2746 14.5455 71.892C11.3636 70.5095 8.87311 68.5492 7.07386 66.0114C5.27462 63.4545 4.2803 60.4242 4.09091 56.9205H12.8977C13.0682 59.0227 13.75 60.7746 14.9432 62.1761C16.1553 63.5587 17.6989 64.5909 19.5739 65.2727C21.4678 65.9356 23.5417 66.267 25.7955 66.267C28.2765 66.267 30.483 65.8788 32.4148 65.1023C34.3655 64.3068 35.8996 63.2083 37.017 61.8068C38.1345 60.3864 38.6932 58.7292 38.6932 56.8352C38.6932 55.1117 38.2008 53.7008 37.2159 52.6023C36.25 51.5038 34.9337 50.5947 33.267 49.875C31.6193 49.1553 29.7538 48.5208 27.6705 47.9716L20.7955 46.0966C16.1364 44.8277 12.4432 42.9621 9.71591 40.5C7.00758 38.0379 5.65341 34.7803 5.65341 30.7273C5.65341 27.375 6.5625 24.4489 8.38068 21.9489C10.1989 19.4489 12.661 17.5076 15.767 16.125C18.8731 14.7235 22.3769 14.0227 26.2784 14.0227C30.2178 14.0227 33.6932 14.714 36.7045 16.0966C39.7348 17.4792 42.1212 19.3826 43.8636 21.8068C45.6061 24.2121 46.5152 26.9773 46.5909 30.1023H38.125ZM53.1946 73V29.3636H61.6889V73H53.1946ZM57.4844 22.6307C56.0071 22.6307 54.7382 22.1383 53.6776 21.1534C52.6359 20.1496 52.1151 18.9564 52.1151 17.5739C52.1151 16.1723 52.6359 14.9792 53.6776 13.9943C54.7382 12.9905 56.0071 12.4886 57.4844 12.4886C58.9616 12.4886 60.2211 12.9905 61.2628 13.9943C62.3234 14.9792 62.8537 16.1723 62.8537 17.5739C62.8537 18.9564 62.3234 20.1496 61.2628 21.1534C60.2211 22.1383 58.9616 22.6307 57.4844 22.6307ZM69.1165 73V29.3636H77.2699V36.4659H77.8097C78.7188 34.0606 80.2055 32.1856 82.2699 30.8409C84.3343 29.4773 86.8059 28.7955 89.6847 28.7955C92.6013 28.7955 95.0445 29.4773 97.0142 30.8409C99.0028 32.2045 100.471 34.0795 101.418 36.4659H101.872C102.914 34.1364 104.571 32.2803 106.844 30.8977C109.116 29.4962 111.825 28.7955 114.969 28.7955C118.927 28.7955 122.156 30.036 124.656 32.517C127.175 34.9981 128.435 38.7386 128.435 43.7386V73H119.94V44.5341C119.94 41.5795 119.135 39.4394 117.526 38.1136C115.916 36.7879 113.993 36.125 111.759 36.125C108.993 36.125 106.844 36.9773 105.31 38.6818C103.776 40.3674 103.009 42.536 103.009 45.1875V73H94.5426V43.9943C94.5426 41.6269 93.804 39.7235 92.3267 38.2841C90.8494 36.8447 88.9271 36.125 86.5597 36.125C84.9498 36.125 83.4631 36.5511 82.0994 37.4034C80.7547 38.2367 79.6657 39.4015 78.8324 40.8977C78.018 42.3939 77.6108 44.1269 77.6108 46.0966V73H69.1165ZM135.82 89.3636V29.3636H144.115V36.4375H144.825C145.318 35.5284 146.028 34.4773 146.956 33.2841C147.884 32.0909 149.172 31.0492 150.82 30.1591C152.467 29.25 154.645 28.7955 157.354 28.7955C160.876 28.7955 164.02 29.6856 166.786 31.4659C169.551 33.2462 171.719 35.8125 173.291 39.1648C174.882 42.517 175.678 46.5511 175.678 51.267C175.678 55.983 174.892 60.0265 173.32 63.3977C171.748 66.75 169.589 69.3352 166.842 71.1534C164.096 72.9527 160.962 73.8523 157.439 73.8523C154.787 73.8523 152.619 73.4072 150.933 72.517C149.267 71.6269 147.96 70.5852 147.013 69.392C146.066 68.1989 145.337 67.1383 144.825 66.2102H144.314V89.3636H135.82ZM144.143 51.1818C144.143 54.25 144.589 56.9394 145.479 59.25C146.369 61.5606 147.657 63.3693 149.342 64.6761C151.028 65.964 153.092 66.608 155.536 66.608C158.073 66.608 160.195 65.9356 161.899 64.5909C163.604 63.2273 164.892 61.3807 165.763 59.0511C166.653 56.7216 167.098 54.0985 167.098 51.1818C167.098 48.303 166.662 45.7178 165.791 43.4261C164.939 41.1345 163.651 39.3258 161.928 38C160.223 36.6742 158.092 36.0114 155.536 36.0114C153.073 36.0114 150.99 36.6458 149.286 37.9148C147.6 39.1837 146.321 40.9545 145.45 43.2273C144.579 45.5 144.143 48.1515 144.143 51.1818ZM189.689 14.8182V73H181.195V14.8182H189.689ZM215.923 73.8807C211.624 73.8807 207.921 72.9621 204.815 71.125C201.728 69.2689 199.342 66.6648 197.656 63.3125C195.99 59.9413 195.156 55.9924 195.156 51.4659C195.156 46.9962 195.99 43.0568 197.656 39.6477C199.342 36.2386 201.69 33.5777 204.702 31.6648C207.732 29.7519 211.274 28.7955 215.327 28.7955C217.789 28.7955 220.175 29.2027 222.486 30.017C224.796 30.8314 226.87 32.1098 228.707 33.8523C230.545 35.5947 231.993 37.858 233.054 40.642C234.115 43.4072 234.645 46.7689 234.645 50.7273V53.7386H199.957V47.375H226.321C226.321 45.1402 225.866 43.161 224.957 41.4375C224.048 39.6951 222.77 38.322 221.122 37.3182C219.493 36.3144 217.58 35.8125 215.384 35.8125C212.997 35.8125 210.914 36.3996 209.134 37.5739C207.372 38.7292 206.009 40.2443 205.043 42.1193C204.096 43.9754 203.622 45.9924 203.622 48.1705V53.142C203.622 56.0587 204.134 58.5398 205.156 60.5852C206.198 62.6307 207.647 64.1932 209.503 65.2727C211.359 66.3333 213.527 66.8636 216.009 66.8636C217.618 66.8636 219.086 66.6364 220.412 66.1818C221.738 65.7083 222.884 65.0076 223.849 64.0795C224.815 63.1515 225.554 62.0057 226.065 60.642L234.105 62.0909C233.461 64.4583 232.306 66.5322 230.639 68.3125C228.991 70.0739 226.918 71.447 224.418 72.4318C221.937 73.3977 219.105 73.8807 215.923 73.8807ZM265.78 44.733V52.0909H239.984V44.733H265.78ZM289.436 73.8523C285.913 73.8523 282.769 72.9527 280.004 71.1534C277.258 69.3352 275.099 66.75 273.527 63.3977C271.974 60.0265 271.197 55.983 271.197 51.267C271.197 46.5511 271.983 42.517 273.555 39.1648C275.146 35.8125 277.324 33.2462 280.089 31.4659C282.855 29.6856 285.989 28.7955 289.493 28.7955C292.201 28.7955 294.379 29.25 296.027 30.1591C297.694 31.0492 298.982 32.0909 299.891 33.2841C300.819 34.4773 301.538 35.5284 302.05 36.4375H302.561V14.8182H311.055V73H302.76V66.2102H302.05C301.538 67.1383 300.8 68.1989 299.834 69.392C298.887 70.5852 297.58 71.6269 295.913 72.517C294.247 73.4072 292.088 73.8523 289.436 73.8523ZM291.311 66.608C293.754 66.608 295.819 65.964 297.504 64.6761C299.209 63.3693 300.497 61.5606 301.368 59.25C302.258 56.9394 302.703 54.25 302.703 51.1818C302.703 48.1515 302.268 45.5 301.396 43.2273C300.525 40.9545 299.247 39.1837 297.561 37.9148C295.875 36.6458 293.792 36.0114 291.311 36.0114C288.754 36.0114 286.624 36.6742 284.919 38C283.214 39.3258 281.927 41.1345 281.055 43.4261C280.203 45.7178 279.777 48.303 279.777 51.1818C279.777 54.0985 280.213 56.7216 281.084 59.0511C281.955 61.3807 283.243 63.2273 284.947 64.5909C286.671 65.9356 288.792 66.608 291.311 66.608ZM319.179 73V29.3636H327.673V73H319.179ZM323.469 22.6307C321.991 22.6307 320.723 22.1383 319.662 21.1534C318.62 20.1496 318.099 18.9564 318.099 17.5739C318.099 16.1723 318.62 14.9792 319.662 13.9943C320.723 12.9905 321.991 12.4886 323.469 12.4886C324.946 12.4886 326.205 12.9905 327.247 13.9943C328.308 14.9792 328.838 16.1723 328.838 17.5739C328.838 18.9564 328.308 20.1496 327.247 21.1534C326.205 22.1383 324.946 22.6307 323.469 22.6307ZM335.101 73V29.3636H343.254V36.4659H343.794C344.703 34.0606 346.19 32.1856 348.254 30.8409C350.319 29.4773 352.79 28.7955 355.669 28.7955C358.586 28.7955 361.029 29.4773 362.999 30.8409C364.987 32.2045 366.455 34.0795 367.402 36.4659H367.857C368.898 34.1364 370.555 32.2803 372.828 30.8977C375.101 29.4962 377.809 28.7955 380.953 28.7955C384.911 28.7955 388.141 30.036 390.641 32.517C393.16 34.9981 394.419 38.7386 394.419 43.7386V73H385.925V44.5341C385.925 41.5795 385.12 39.4394 383.51 38.1136C381.9 36.7879 379.978 36.125 377.743 36.125C374.978 36.125 372.828 36.9773 371.294 38.6818C369.76 40.3674 368.993 42.536 368.993 45.1875V73H360.527V43.9943C360.527 41.6269 359.788 39.7235 358.311 38.2841C356.834 36.8447 354.911 36.125 352.544 36.125C350.934 36.125 349.447 36.5511 348.084 37.4034C346.739 38.2367 345.65 39.4015 344.817 40.8977C344.002 42.3939 343.595 44.1269 343.595 46.0966V73H335.101ZM401.804 89.3636V29.3636H410.099V36.4375H410.81C411.302 35.5284 412.012 34.4773 412.94 33.2841C413.868 32.0909 415.156 31.0492 416.804 30.1591C418.452 29.25 420.63 28.7955 423.338 28.7955C426.861 28.7955 430.005 29.6856 432.77 31.4659C435.535 33.2462 437.704 35.8125 439.276 39.1648C440.866 42.517 441.662 46.5511 441.662 51.267C441.662 55.983 440.876 60.0265 439.304 63.3977C437.732 66.75 435.573 69.3352 432.827 71.1534C430.08 72.9527 426.946 73.8523 423.423 73.8523C420.772 73.8523 418.603 73.4072 416.918 72.517C415.251 71.6269 413.944 70.5852 412.997 69.392C412.05 68.1989 411.321 67.1383 410.81 66.2102H410.298V89.3636H401.804ZM410.128 51.1818C410.128 54.25 410.573 56.9394 411.463 59.25C412.353 61.5606 413.641 63.3693 415.327 64.6761C417.012 65.964 419.077 66.608 421.52 66.608C424.058 66.608 426.179 65.9356 427.884 64.5909C429.588 63.2273 430.876 61.3807 431.747 59.0511C432.637 56.7216 433.082 54.0985 433.082 51.1818C433.082 48.303 432.647 45.7178 431.776 43.4261C430.923 41.1345 429.635 39.3258 427.912 38C426.207 36.6742 424.077 36.0114 421.52 36.0114C419.058 36.0114 416.974 36.6458 415.27 37.9148C413.584 39.1837 412.306 40.9545 411.435 43.2273C410.563 45.5 410.128 48.1515 410.128 51.1818ZM455.673 14.8182V73H447.179V14.8182H455.673ZM481.908 73.8807C477.608 73.8807 473.906 72.9621 470.8 71.125C467.713 69.2689 465.326 66.6648 463.641 63.3125C461.974 59.9413 461.141 55.9924 461.141 51.4659C461.141 46.9962 461.974 43.0568 463.641 39.6477C465.326 36.2386 467.675 33.5777 470.686 31.6648C473.716 29.7519 477.258 28.7955 481.311 28.7955C483.773 28.7955 486.16 29.2027 488.47 30.017C490.781 30.8314 492.855 32.1098 494.692 33.8523C496.529 35.5947 497.978 37.858 499.038 40.642C500.099 43.4072 500.629 46.7689 500.629 50.7273V53.7386H465.942V47.375H492.305C492.305 45.1402 491.851 43.161 490.942 41.4375C490.033 39.6951 488.754 38.322 487.107 37.3182C485.478 36.3144 483.565 35.8125 481.368 35.8125C478.982 35.8125 476.898 36.3996 475.118 37.5739C473.357 38.7292 471.993 40.2443 471.027 42.1193C470.08 43.9754 469.607 45.9924 469.607 48.1705V53.142C469.607 56.0587 470.118 58.5398 471.141 60.5852C472.182 62.6307 473.631 64.1932 475.487 65.2727C477.343 66.3333 479.512 66.8636 481.993 66.8636C483.603 66.8636 485.071 66.6364 486.396 66.1818C487.722 65.7083 488.868 65.0076 489.834 64.0795C490.8 63.1515 491.538 62.0057 492.05 60.642L500.089 62.0909C499.446 64.4583 498.29 66.5322 496.624 68.3125C494.976 70.0739 492.902 71.447 490.402 72.4318C487.921 73.3977 485.089 73.8807 481.908 73.8807ZM24.0909 161.881C19.8674 161.881 16.2311 160.924 13.1818 159.011C10.1515 157.08 7.82197 154.419 6.19318 151.028C4.56439 147.638 3.75 143.756 3.75 139.381C3.75 134.949 4.58333 131.038 6.25 127.648C7.91667 124.239 10.2652 121.578 13.2955 119.665C16.3258 117.752 19.8958 116.795 24.0057 116.795C27.3201 116.795 30.2746 117.411 32.8693 118.642C35.464 119.854 37.5568 121.559 39.1477 123.756C40.7576 125.953 41.714 128.519 42.017 131.455H33.75C33.2955 129.409 32.2538 127.648 30.625 126.17C29.0152 124.693 26.8561 123.955 24.1477 123.955C21.7803 123.955 19.7064 124.58 17.9261 125.83C16.1648 127.061 14.7917 128.822 13.8068 131.114C12.822 133.386 12.3295 136.076 12.3295 139.182C12.3295 142.364 12.8125 145.11 13.7784 147.42C14.7443 149.731 16.108 151.521 17.8693 152.79C19.6496 154.059 21.7424 154.693 24.1477 154.693C25.7576 154.693 27.2159 154.4 28.5227 153.812C29.8485 153.206 30.9564 152.345 31.8466 151.227C32.7557 150.11 33.3902 148.765 33.75 147.193H42.017C41.714 150.015 40.7955 152.534 39.2614 154.75C37.7273 156.966 35.6723 158.708 33.0966 159.977C30.5398 161.246 27.5379 161.881 24.0909 161.881ZM47.1009 161V117.364H55.3111V124.295H55.7656C56.5611 121.947 57.9626 120.1 59.9702 118.756C61.9967 117.392 64.2884 116.71 66.8452 116.71C67.3755 116.71 68.0005 116.729 68.7202 116.767C69.4588 116.805 70.0365 116.852 70.4531 116.909V125.034C70.1122 124.939 69.5062 124.835 68.6349 124.722C67.7637 124.589 66.8925 124.523 66.0213 124.523C64.0137 124.523 62.224 124.949 60.652 125.801C59.099 126.634 57.8679 127.799 56.9588 129.295C56.0497 130.773 55.5952 132.458 55.5952 134.352V161H47.1009ZM80.5014 177.364C79.2325 177.364 78.0772 177.259 77.0355 177.051C75.9938 176.862 75.2173 176.653 74.706 176.426L76.7514 169.466C78.3045 169.883 79.687 170.063 80.8991 170.006C82.1113 169.949 83.1813 169.494 84.1094 168.642C85.0563 167.79 85.8897 166.398 86.6094 164.466L87.6605 161.568L71.6946 117.364H80.7855L91.8366 151.227H92.2912L103.342 117.364H112.462L94.4787 166.824C93.6454 169.097 92.5848 171.019 91.2969 172.591C90.009 174.182 88.4749 175.375 86.6946 176.17C84.9143 176.966 82.8499 177.364 80.5014 177.364ZM116.445 177.364V117.364H124.74V124.438H125.45C125.943 123.528 126.653 122.477 127.581 121.284C128.509 120.091 129.797 119.049 131.445 118.159C133.092 117.25 135.27 116.795 137.979 116.795C141.501 116.795 144.645 117.686 147.411 119.466C150.176 121.246 152.344 123.812 153.916 127.165C155.507 130.517 156.303 134.551 156.303 139.267C156.303 143.983 155.517 148.027 153.945 151.398C152.373 154.75 150.214 157.335 147.467 159.153C144.721 160.953 141.587 161.852 138.064 161.852C135.412 161.852 133.244 161.407 131.558 160.517C129.892 159.627 128.585 158.585 127.638 157.392C126.691 156.199 125.962 155.138 125.45 154.21H124.939V177.364H116.445ZM124.768 139.182C124.768 142.25 125.214 144.939 126.104 147.25C126.994 149.561 128.282 151.369 129.967 152.676C131.653 153.964 133.717 154.608 136.161 154.608C138.698 154.608 140.82 153.936 142.524 152.591C144.229 151.227 145.517 149.381 146.388 147.051C147.278 144.722 147.723 142.098 147.723 139.182C147.723 136.303 147.287 133.718 146.416 131.426C145.564 129.134 144.276 127.326 142.553 126C140.848 124.674 138.717 124.011 136.161 124.011C133.698 124.011 131.615 124.646 129.911 125.915C128.225 127.184 126.946 128.955 126.075 131.227C125.204 133.5 124.768 136.152 124.768 139.182ZM182.189 117.364V124.182H158.354V117.364H182.189ZM164.746 106.909H173.24V148.188C173.24 149.835 173.486 151.076 173.979 151.909C174.471 152.723 175.106 153.282 175.882 153.585C176.678 153.869 177.539 154.011 178.467 154.011C179.149 154.011 179.746 153.964 180.257 153.869C180.768 153.775 181.166 153.699 181.45 153.642L182.984 160.659C182.492 160.848 181.791 161.038 180.882 161.227C179.973 161.436 178.837 161.549 177.473 161.568C175.238 161.606 173.155 161.208 171.223 160.375C169.291 159.542 167.729 158.254 166.536 156.511C165.342 154.769 164.746 152.581 164.746 149.949V106.909ZM205.497 161.881C201.406 161.881 197.836 160.943 194.787 159.068C191.738 157.193 189.37 154.57 187.685 151.199C185.999 147.828 185.156 143.888 185.156 139.381C185.156 134.854 185.999 130.896 187.685 127.506C189.37 124.116 191.738 121.483 194.787 119.608C197.836 117.733 201.406 116.795 205.497 116.795C209.588 116.795 213.158 117.733 216.207 119.608C219.257 121.483 221.624 124.116 223.31 127.506C224.995 130.896 225.838 134.854 225.838 139.381C225.838 143.888 224.995 147.828 223.31 151.199C221.624 154.57 219.257 157.193 216.207 159.068C213.158 160.943 209.588 161.881 205.497 161.881ZM205.526 154.75C208.177 154.75 210.374 154.049 212.116 152.648C213.859 151.246 215.147 149.381 215.98 147.051C216.832 144.722 217.259 142.155 217.259 139.352C217.259 136.568 216.832 134.011 215.98 131.682C215.147 129.333 213.859 127.449 212.116 126.028C210.374 124.608 208.177 123.898 205.526 123.898C202.855 123.898 200.639 124.608 198.878 126.028C197.135 127.449 195.838 129.333 194.986 131.682C194.152 134.011 193.736 136.568 193.736 139.352C193.736 142.155 194.152 144.722 194.986 147.051C195.838 149.381 197.135 151.246 198.878 152.648C200.639 154.049 202.855 154.75 205.526 154.75ZM267.298 161.881C262.999 161.881 259.296 160.962 256.19 159.125C253.103 157.269 250.717 154.665 249.031 151.312C247.365 147.941 246.531 143.992 246.531 139.466C246.531 134.996 247.365 131.057 249.031 127.648C250.717 124.239 253.065 121.578 256.077 119.665C259.107 117.752 262.649 116.795 266.702 116.795C269.164 116.795 271.55 117.203 273.861 118.017C276.171 118.831 278.245 120.11 280.082 121.852C281.92 123.595 283.368 125.858 284.429 128.642C285.49 131.407 286.02 134.769 286.02 138.727V141.739H251.332V135.375H277.696C277.696 133.14 277.241 131.161 276.332 129.438C275.423 127.695 274.145 126.322 272.497 125.318C270.868 124.314 268.955 123.812 266.759 123.812C264.372 123.812 262.289 124.4 260.509 125.574C258.747 126.729 257.384 128.244 256.418 130.119C255.471 131.975 254.997 133.992 254.997 136.17V141.142C254.997 144.059 255.509 146.54 256.531 148.585C257.573 150.631 259.022 152.193 260.878 153.273C262.734 154.333 264.902 154.864 267.384 154.864C268.993 154.864 270.461 154.636 271.787 154.182C273.113 153.708 274.259 153.008 275.224 152.08C276.19 151.152 276.929 150.006 277.44 148.642L285.48 150.091C284.836 152.458 283.681 154.532 282.014 156.312C280.366 158.074 278.293 159.447 275.793 160.432C273.312 161.398 270.48 161.881 267.298 161.881ZM297.134 117.364L306.764 134.352L316.48 117.364H325.77L312.162 139.182L325.884 161H316.594L306.764 144.693L296.963 161H287.645L301.224 139.182L287.815 117.364H297.134ZM347.153 161.881C342.93 161.881 339.294 160.924 336.244 159.011C333.214 157.08 330.884 154.419 329.256 151.028C327.627 147.638 326.812 143.756 326.812 139.381C326.812 134.949 327.646 131.038 329.312 127.648C330.979 124.239 333.328 121.578 336.358 119.665C339.388 117.752 342.958 116.795 347.068 116.795C350.383 116.795 353.337 117.411 355.932 118.642C358.527 119.854 360.619 121.559 362.21 123.756C363.82 125.953 364.777 128.519 365.08 131.455H356.812C356.358 129.409 355.316 127.648 353.688 126.17C352.078 124.693 349.919 123.955 347.21 123.955C344.843 123.955 342.769 124.58 340.989 125.83C339.227 127.061 337.854 128.822 336.869 131.114C335.884 133.386 335.392 136.076 335.392 139.182C335.392 142.364 335.875 145.11 336.841 147.42C337.807 149.731 339.17 151.521 340.932 152.79C342.712 154.059 344.805 154.693 347.21 154.693C348.82 154.693 350.278 154.4 351.585 153.812C352.911 153.206 354.019 152.345 354.909 151.227C355.818 150.11 356.453 148.765 356.812 147.193H365.08C364.777 150.015 363.858 152.534 362.324 154.75C360.79 156.966 358.735 158.708 356.159 159.977C353.602 161.246 350.6 161.881 347.153 161.881ZM378.658 135.091V161H370.163V102.818H378.544V124.466H379.084C380.107 122.117 381.669 120.252 383.771 118.869C385.874 117.487 388.62 116.795 392.01 116.795C395.002 116.795 397.616 117.411 399.851 118.642C402.105 119.873 403.847 121.71 405.078 124.153C406.328 126.578 406.953 129.608 406.953 133.244V161H398.459V134.267C398.459 131.066 397.635 128.585 395.987 126.824C394.339 125.044 392.048 124.153 389.112 124.153C387.105 124.153 385.305 124.58 383.714 125.432C382.143 126.284 380.902 127.534 379.993 129.182C379.103 130.811 378.658 132.78 378.658 135.091ZM426.987 161.966C424.222 161.966 421.722 161.455 419.487 160.432C417.252 159.39 415.482 157.884 414.175 155.915C412.887 153.945 412.243 151.53 412.243 148.67C412.243 146.208 412.716 144.182 413.663 142.591C414.61 141 415.889 139.741 417.499 138.812C419.108 137.884 420.908 137.184 422.896 136.71C424.885 136.237 426.911 135.877 428.976 135.631C431.589 135.328 433.711 135.081 435.339 134.892C436.968 134.684 438.152 134.352 438.891 133.898C439.629 133.443 439.999 132.705 439.999 131.682V131.483C439.999 129.002 439.298 127.08 437.896 125.716C436.514 124.352 434.449 123.67 431.703 123.67C428.843 123.67 426.589 124.305 424.942 125.574C423.313 126.824 422.186 128.216 421.561 129.75L413.578 127.932C414.525 125.28 415.908 123.14 417.726 121.511C419.563 119.864 421.675 118.67 424.061 117.932C426.447 117.174 428.957 116.795 431.589 116.795C433.332 116.795 435.179 117.004 437.129 117.42C439.099 117.818 440.936 118.557 442.641 119.636C444.364 120.716 445.775 122.259 446.874 124.267C447.972 126.256 448.521 128.841 448.521 132.023V161H440.226V155.034H439.885C439.336 156.133 438.512 157.212 437.413 158.273C436.315 159.333 434.904 160.214 433.18 160.915C431.457 161.616 429.393 161.966 426.987 161.966ZM428.834 155.148C431.182 155.148 433.19 154.684 434.857 153.756C436.542 152.828 437.821 151.616 438.692 150.119C439.582 148.604 440.027 146.985 440.027 145.261V139.636C439.724 139.939 439.137 140.223 438.266 140.489C437.413 140.735 436.438 140.953 435.339 141.142C434.241 141.312 433.171 141.473 432.129 141.625C431.088 141.758 430.216 141.871 429.516 141.966C427.868 142.174 426.362 142.525 424.999 143.017C423.654 143.509 422.574 144.22 421.76 145.148C420.964 146.057 420.567 147.269 420.567 148.784C420.567 150.886 421.343 152.477 422.896 153.557C424.449 154.617 426.429 155.148 428.834 155.148ZM464.33 135.091V161H455.835V117.364H463.989V124.466H464.528C465.532 122.155 467.104 120.299 469.244 118.898C471.403 117.496 474.121 116.795 477.398 116.795C480.371 116.795 482.975 117.42 485.21 118.67C487.445 119.902 489.178 121.739 490.409 124.182C491.64 126.625 492.256 129.646 492.256 133.244V161H483.761V134.267C483.761 131.104 482.938 128.633 481.29 126.852C479.642 125.053 477.379 124.153 474.5 124.153C472.53 124.153 470.778 124.58 469.244 125.432C467.729 126.284 466.527 127.534 465.636 129.182C464.765 130.811 464.33 132.78 464.33 135.091ZM517.943 178.273C514.477 178.273 511.494 177.818 508.994 176.909C506.513 176 504.487 174.797 502.915 173.301C501.343 171.805 500.169 170.167 499.392 168.386L506.693 165.375C507.205 166.208 507.886 167.089 508.739 168.017C509.61 168.964 510.784 169.769 512.261 170.432C513.758 171.095 515.68 171.426 518.028 171.426C521.248 171.426 523.909 170.64 526.011 169.068C528.114 167.515 529.165 165.034 529.165 161.625V153.045H528.625C528.114 153.973 527.375 155.006 526.409 156.142C525.462 157.278 524.155 158.263 522.489 159.097C520.822 159.93 518.653 160.347 515.983 160.347C512.536 160.347 509.43 159.542 506.665 157.932C503.919 156.303 501.741 153.907 500.131 150.744C498.54 147.562 497.744 143.652 497.744 139.011C497.744 134.371 498.53 130.394 500.102 127.08C501.693 123.765 503.871 121.227 506.636 119.466C509.402 117.686 512.536 116.795 516.04 116.795C518.748 116.795 520.936 117.25 522.602 118.159C524.269 119.049 525.566 120.091 526.494 121.284C527.441 122.477 528.17 123.528 528.682 124.438H529.307V117.364H537.631V161.966C537.631 165.716 536.759 168.794 535.017 171.199C533.275 173.604 530.917 175.384 527.943 176.54C524.989 177.695 521.655 178.273 517.943 178.273ZM517.858 153.301C520.301 153.301 522.366 152.733 524.051 151.597C525.756 150.441 527.044 148.794 527.915 146.653C528.805 144.494 529.25 141.909 529.25 138.898C529.25 135.962 528.814 133.377 527.943 131.142C527.072 128.907 525.794 127.165 524.108 125.915C522.422 124.646 520.339 124.011 517.858 124.011C515.301 124.011 513.17 124.674 511.466 126C509.761 127.307 508.473 129.087 507.602 131.341C506.75 133.595 506.324 136.114 506.324 138.898C506.324 141.758 506.759 144.267 507.631 146.426C508.502 148.585 509.79 150.271 511.494 151.483C513.218 152.695 515.339 153.301 517.858 153.301ZM563.83 161.881C559.53 161.881 555.828 160.962 552.722 159.125C549.634 157.269 547.248 154.665 545.562 151.312C543.896 147.941 543.062 143.992 543.062 139.466C543.062 134.996 543.896 131.057 545.562 127.648C547.248 124.239 549.597 121.578 552.608 119.665C555.638 117.752 559.18 116.795 563.233 116.795C565.695 116.795 568.081 117.203 570.392 118.017C572.703 118.831 574.777 120.11 576.614 121.852C578.451 123.595 579.9 125.858 580.96 128.642C582.021 131.407 582.551 134.769 582.551 138.727V141.739H547.864V135.375H574.227C574.227 133.14 573.773 131.161 572.864 129.438C571.955 127.695 570.676 126.322 569.028 125.318C567.4 124.314 565.487 123.812 563.29 123.812C560.903 123.812 558.82 124.4 557.04 125.574C555.278 126.729 553.915 128.244 552.949 130.119C552.002 131.975 551.528 133.992 551.528 136.17V141.142C551.528 144.059 552.04 146.54 553.062 148.585C554.104 150.631 555.553 152.193 557.409 153.273C559.265 154.333 561.434 154.864 563.915 154.864C565.525 154.864 566.992 154.636 568.318 154.182C569.644 153.708 570.79 153.008 571.756 152.08C572.722 151.152 573.46 150.006 573.972 148.642L582.011 150.091C581.367 152.458 580.212 154.532 578.545 156.312C576.898 158.074 574.824 159.447 572.324 160.432C569.843 161.398 567.011 161.881 563.83 161.881Z" fill="#1E0654"/>
<circle cx="57" cy="16" r="8" fill="#A32AFF"/>
<circle cx="324" cy="16" r="8" fill="#FED601"/>
</svg>
