<svg width="111" height="39" viewBox="0 0 111 39" fill="none" xmlns="http://www.w3.org/2000/svg">
<path id="Vector" d="M88.2674 3.8255L97.5093 2.13423V38.5973H88.2674V3.8255ZM101.758 3.8255V38.5772H111V2.13423L101.758 3.8255ZM75.1291 38.5772H84.371V11.9195H75.1291V38.5772ZM14.0586 15.6846C12.8838 15.604 10.1817 15.4228 10.1817 12.9262C10.1817 9.90604 14.0781 9.90604 15.5271 9.90604C18.0921 9.90604 21.4207 10.6913 23.7899 11.4161C23.7899 11.4161 25.1214 11.8993 26.2374 12.3825L26.3353 12.4027V4.14765L26.1983 4.10738C23.3983 3.10067 20.148 2.13423 14.0977 2.13423C3.68107 2.13423 0 8.37584 0 13.7114C0 16.7919 1.29229 24.0403 13.2166 24.8859C14.2348 24.9463 16.9173 25.1074 16.9173 27.7047C16.9173 29.8389 14.7243 31.1074 11.0236 31.1074C6.97054 31.1074 3.05451 30.0403 0.665726 29.0336V37.5503C4.22932 38.5168 8.26283 39 12.9817 39C23.1633 39 27.7255 33.1007 27.7255 27.2416C27.7255 20.5973 22.6347 16.2886 14.0586 15.6846ZM69.9208 11.5369C61.3838 11.8188 57.0566 15.7651 57.0566 23.5973V38.5973H66.3768V26.3557C66.3768 21.6644 66.9642 19.651 72.3879 19.4698V11.6577C71.4481 11.4765 69.9208 11.5369 69.9208 11.5369ZM44.8582 11.8993C44.6624 12.4228 43.1743 16.7315 39.5911 21.1812V2.13423L30.0556 4.06711V38.5772H39.5911V27.906C42.3519 32.1745 43.7225 38.5772 43.7225 38.5772H55.1378C54.0021 33.745 49.0679 24.8456 49.0679 24.8456C53.493 19.0671 55.4511 12.906 55.7643 11.8792H44.8582V11.8993ZM79.7305 9.36242C82.2367 9.36242 84.2926 7.26846 84.2926 4.69128C84.2926 2.11409 82.2563 0 79.7305 0C77.2242 0 75.1879 2.09396 75.1879 4.69128C75.1879 7.26846 77.2242 9.36242 79.7305 9.36242Z" fill="url(#paint0_linear_12262_16297)"/>
<defs>
<linearGradient id="paint0_linear_12262_16297" x1="0.0195862" y1="19.4874" x2="111.006" y2="19.4874" gradientUnits="userSpaceOnUse">
<stop stop-color="#872166"/>
<stop offset="0.0001" stop-color="#C73C9A"/>
<stop offset="1" stop-color="#A540B4"/>
</linearGradient>
</defs>
</svg>
