<svg width="120" height="51" viewBox="0 0 120 51" fill="none" xmlns="http://www.w3.org/2000/svg">
<path fill-rule="evenodd" clip-rule="evenodd" d="M119.001 26.4106C119.001 17.9484 114.902 11.2712 107.068 11.2712C99.2009 11.2712 94.4409 17.9484 94.4409 26.3445C94.4409 36.2941 100.06 41.3186 108.126 41.3186C112.059 41.3186 115.034 40.4261 117.282 39.17V32.5589C115.034 33.6828 112.456 34.3769 109.184 34.3769C105.977 34.3769 103.135 33.253 102.771 29.3525H118.935C118.935 28.9228 119.001 27.2039 119.001 26.4106ZM102.672 23.2703C102.672 19.535 104.953 17.9814 107.035 17.9814C109.051 17.9814 111.2 19.535 111.2 23.2703H102.672Z" fill="#635BFF"/>
<path fill-rule="evenodd" clip-rule="evenodd" d="M81.6799 11.2712C78.4405 11.2712 76.358 12.7917 75.201 13.8495L74.7713 11.8001H67.4991V50.3427L75.763 48.5908L75.796 39.2361C76.986 40.0955 78.738 41.3186 81.6468 41.3186C87.5637 41.3186 92.9518 36.5586 92.9518 26.08C92.9187 16.4939 87.4646 11.2712 81.6799 11.2712ZM79.6966 34.0464C77.7463 34.0464 76.5893 33.3522 75.796 32.4928L75.763 20.2292C76.6224 19.2706 77.8124 18.6095 79.6966 18.6095C82.7046 18.6095 84.7871 21.9811 84.7871 26.3114C84.7871 30.7408 82.7377 34.0464 79.6966 34.0464Z" fill="#635BFF"/>
<path fill-rule="evenodd" clip-rule="evenodd" d="M56.1295 9.32094L64.4264 7.53594V0.825695L56.1295 2.57763V9.32094Z" fill="#635BFF"/>
<path d="M64.4264 11.8332H56.1295V40.7567H64.4264V11.8332Z" fill="#635BFF"/>
<path fill-rule="evenodd" clip-rule="evenodd" d="M47.238 14.2793L46.7091 11.8332H39.5691V40.7567H47.833V21.1549C49.7832 18.6096 53.0888 19.0724 54.1135 19.436V11.8332C53.0557 11.4366 49.1882 10.7093 47.238 14.2793Z" fill="#635BFF"/>
<path fill-rule="evenodd" clip-rule="evenodd" d="M30.7089 4.66024L22.6434 6.37912L22.6103 32.8565C22.6103 37.7487 26.2795 41.3518 31.1717 41.3518C33.8822 41.3518 35.8655 40.8559 36.9564 40.2609V33.5507C35.8986 33.9804 30.6758 35.5009 30.6758 30.6087V18.8741H36.9564V11.8333H30.6758L30.7089 4.66024Z" fill="#635BFF"/>
<path fill-rule="evenodd" clip-rule="evenodd" d="M8.36369 20.2292C8.36369 18.94 9.42147 18.4442 11.1734 18.4442C13.6856 18.4442 16.8589 19.2045 19.3711 20.5598V12.7917C16.6275 11.7009 13.917 11.2712 11.1734 11.2712C4.46315 11.2712 0.000671387 14.7751 0.000671387 20.6259C0.000671387 29.7492 12.5617 28.2947 12.5617 32.2283C12.5617 33.7489 11.2395 34.2447 9.38841 34.2447C6.64481 34.2447 3.14094 33.1208 0.36428 31.6003V39.4675C3.43843 40.7897 6.54564 41.3516 9.38841 41.3516C16.2639 41.3516 20.9909 37.9469 20.9909 32.03C20.9578 22.1795 8.36369 23.9314 8.36369 20.2292Z" fill="#635BFF"/>
</svg>
