<svg width="16" height="25" viewBox="0 0 16 25" fill="none" xmlns="http://www.w3.org/2000/svg">
<path d="M7.01402 11.5459H0.750945C0.614187 11.5459 0.480025 11.5772 0.362943 11.6364C0.00792861 11.816 -0.106153 12.2028 0.108134 12.5003L4.78316 25L11.4796 25L7.74503 16.1915C7.74503 16.0177 7.9131 15.8768 8.12044 15.8768H14.5552C14.6888 15.8768 14.8201 15.8469 14.9353 15.7902C15.2929 15.6143 15.4126 15.2287 15.2026 14.929L6.87449 0.310648C6.73966 0.118202 6.49329 0 6.22701 0C5.81233 0 5.47618 0.281723 5.47618 0.629248L7.38944 11.2313C7.38944 11.405 7.22136 11.5459 7.01402 11.5459Z" fill="white"/>
</svg>
