<svg width="18" height="25" viewBox="0 0 18 25" fill="none" xmlns="http://www.w3.org/2000/svg">
<path d="M7.8557 13.4541H0.841058C0.687889 13.4541 0.537628 13.4228 0.406496 13.3636C0.00888005 13.184 -0.118891 12.7972 0.12111 12.4997L5.35714 1.23334e-05L12.8571 0L8.67443 8.80854C8.67443 8.98231 8.86268 9.12317 9.09489 9.12317H16.3018C16.4515 9.12317 16.5985 9.15307 16.7276 9.20978C17.1281 9.38574 17.2621 9.77133 17.027 10.071L7.69942 24.6894C7.54842 24.8818 7.27249 25 6.97425 25C6.50981 25 6.13332 24.7183 6.13332 24.3708L8.27617 13.7687C8.27617 13.595 8.08792 13.4541 7.8557 13.4541Z" fill="white"/>
</svg>
