<svg width="34" height="28" viewBox="0 0 34 28" fill="none" xmlns="http://www.w3.org/2000/svg">
<path d="M2.76857 14.2846H0.685915C0.107401 14.2846 -0.201137 13.6387 0.145971 13.1828L0.531647 12.651C1.5344 11.2453 2.69143 9.91563 3.88702 8.66193L3.92559 8.62394C4.31127 8.16805 4.96692 8.16805 5.35259 8.62394C6.58676 9.87764 7.70522 11.2073 8.74654 12.613L9.13222 13.1449C9.47933 13.6007 9.17078 14.2466 8.59227 14.2466H6.50962C6.62532 19.8313 11.292 24.3522 17 24.3522C19.0441 24.3522 20.9339 23.7823 22.5537 22.7945C23.2865 22.3387 24.2121 22.4906 24.8292 23.0605C25.6777 23.8963 25.5234 25.3019 24.4821 25.9098C22.3223 27.2395 19.7383 27.9993 17 27.9993C9.24792 28.0753 2.92284 21.9208 2.76857 14.2846ZM9.17078 5.0148C9.78786 5.62265 10.7135 5.73663 11.4463 5.28074C13.0661 4.29297 14.9559 3.72311 17 3.72311C22.708 3.72311 27.3747 8.24403 27.4904 13.8287H25.4077C24.8292 13.8287 24.5207 14.4745 24.8678 14.9304L25.2535 15.4623C26.2948 16.868 27.4132 18.1976 28.6474 19.4513C29.0331 19.9072 29.6887 19.9072 30.0744 19.4513L30.113 19.4134C31.3471 18.1597 32.4656 16.83 33.4683 15.4243L33.854 14.8924C34.2011 14.4365 33.8926 13.7907 33.3141 13.7907H31.2314C31.1157 6.15453 24.7906 0 17 0C14.2617 0 11.6777 0.759818 9.51789 2.0895C8.51514 2.77334 8.32229 4.179 9.17078 5.0148Z" fill="white"/>
</svg>
