<svg width="32" height="24" viewBox="0 0 32 24" fill="none" xmlns="http://www.w3.org/2000/svg">
<path d="M16.1004 15.3662L16.0996 15.367C16.0742 15.3949 16.0354 15.413 15.9887 15.413C15.9421 15.413 15.9033 15.3949 15.8778 15.367L9.69077 8.58597C9.63419 8.52396 9.62506 8.44622 9.65328 8.3775C9.66724 8.3435 9.68815 8.31869 9.7099 8.30327C9.72929 8.28952 9.75718 8.27732 9.80168 8.27732L13.8416 8.27732L14.3416 8.27732L14.3416 7.77732L14.3416 0.787254C14.3416 0.77697 14.3434 0.767965 14.3459 0.760871L17.6325 0.760871C17.634 0.765927 17.6358 0.774444 17.6358 0.787255L17.6358 7.77732L17.6358 8.27732L18.1358 8.27732L22.204 8.27732C22.2561 8.27732 22.3115 8.30644 22.3443 8.38347C22.3764 8.45876 22.3646 8.53132 22.3152 8.58566C22.3151 8.58576 22.315 8.58587 22.3149 8.58597L16.1004 15.3662Z" fill="white" stroke="white"/>
<path d="M8.82609 2.86958H4.65217C2.99532 2.86958 1.65217 4.21273 1.65217 5.86958V19.4348C1.65217 21.0916 2.99532 22.4348 4.65217 22.4348H27.3478C29.0047 22.4348 30.3478 21.0916 30.3478 19.4348V5.86958C30.3478 4.21272 29.0047 2.86958 27.3478 2.86958H23.1739" stroke="white" stroke-width="2"/>
</svg>
