<svg width="27" height="27" viewBox="0 0 27 27" fill="none" xmlns="http://www.w3.org/2000/svg">
<path fill-rule="evenodd" clip-rule="evenodd" d="M13.2367 0.0226783C13.1417 0.0469272 10.2397 1.48078 6.78784 3.20907C0.3092 6.45278 0.236708 6.49275 0.0792865 6.90988C-0.0871173 7.35097 0.0505545 7.94078 0.395223 8.26344C0.479807 8.34264 1.45963 8.86425 2.57264 9.42261L4.5962 10.4378L2.51345 11.4821C0.236363 12.6238 0.191508 12.6554 0.0450845 13.2201C-0.0150282 13.4518 -0.0150282 13.558 0.0450845 13.7897C0.191508 14.3543 0.236363 14.386 2.51345 15.5277L4.5962 16.5719L2.57264 17.5872C1.45963 18.1455 0.479807 18.6671 0.395223 18.7463C0.0505545 19.069 -0.0871173 19.6588 0.0792865 20.0999C0.236766 20.5172 0.306782 20.5558 6.84542 23.8292C12.9119 26.8662 13.1925 27 13.4958 27C13.7991 27 14.0797 26.8662 20.1462 23.8292C26.6848 20.5558 26.7549 20.5172 26.9123 20.0999C27.0787 19.6588 26.9411 19.069 26.5964 18.7463C26.5118 18.6671 25.532 18.1455 24.419 17.5872L22.3954 16.5719L24.4782 15.5277C26.7553 14.386 26.8001 14.3543 26.9465 13.7897C27.0067 13.558 27.0067 13.4518 26.9465 13.2201C26.8001 12.6554 26.7553 12.6238 24.4782 11.4821L22.3954 10.4378L24.4377 9.41374C26.1358 8.56226 26.5154 8.34967 26.6904 8.15245C27.0802 7.7132 27.1032 7.1458 26.752 6.63116C26.6128 6.42715 26.1073 6.163 20.2356 3.22566C16.2411 1.2274 13.7843 0.0296476 13.6398 0.00994899C13.5131 -0.0072729 13.3317 -0.00157063 13.2367 0.0226783ZM18.2893 4.98754L23.0249 7.35627L18.2604 9.73946L13.4958 12.1226L8.73125 9.73946L3.96674 7.35627L8.68806 4.99071C11.2848 3.68967 13.4419 2.6237 13.4815 2.62197C13.5212 2.62025 15.6847 3.68472 18.2893 4.98754ZM10.2737 13.2745C13.0079 14.6392 13.1758 14.7146 13.4856 14.717C13.7993 14.7194 13.9302 14.6608 16.7348 13.2635L19.6572 11.8075L21.3268 12.641C22.2451 13.0995 22.9964 13.4879 22.9964 13.5043C22.9964 13.5206 20.8653 14.5998 18.2605 15.9025L13.5246 18.271L8.78871 15.9068C6.18395 14.6065 4.05283 13.5254 4.05283 13.5044C4.05283 13.4671 7.26546 11.8408 7.34733 11.8366C7.37002 11.8355 8.68686 12.4825 10.2737 13.2745ZM13.4958 20.8433C13.87 20.8433 13.8709 20.8429 16.7491 19.3987L19.6282 17.9541L21.3265 18.8039L23.0249 19.6537L18.2603 22.0366L13.4958 24.4194L8.73131 22.0366L3.96674 19.6537L5.6651 18.8039L7.36346 17.9541L10.2425 19.3987C13.1207 20.8429 13.1217 20.8433 13.4958 20.8433Z" fill="white"/>
</svg>
