<svg width="15" height="15" viewBox="0 0 15 15" fill="none" xmlns="http://www.w3.org/2000/svg">
<path fill-rule="evenodd" clip-rule="evenodd" d="M7.17465 0.0258887C7.01929 0.0643886 6.85258 0.149644 6.70403 0.266575C6.45135 0.465486 6.36025 0.627934 6.03718 1.45569C5.8747 1.87204 5.66826 2.39843 5.57844 2.62547C5.48863 2.8525 5.32143 3.27757 5.20688 3.57005C4.9858 4.13467 4.91209 4.25812 4.7422 4.34855C4.61195 4.41787 4.53969 4.42541 2.66389 4.56571C1.8586 4.62592 1.12849 4.68869 1.04143 4.7052C0.440728 4.81908 0 5.3889 0 6.05165C0 6.38235 0.107267 6.6977 0.296105 6.92212C0.367019 7.00641 1.037 7.60783 2.07197 8.51622C3.03898 9.365 3.06639 9.39131 3.12908 9.53174C3.16533 9.61293 3.19113 9.72254 3.19126 9.79599C3.19142 9.86501 3.09792 10.317 2.98353 10.8005C2.56172 12.583 2.37636 13.3888 2.35953 13.513C2.33471 13.6964 2.38968 14.0155 2.4802 14.2133C2.63469 14.551 2.95317 14.8334 3.30528 14.9449C3.45418 14.9921 3.53385 15.0002 3.74461 14.9897C4.11466 14.9711 4.01718 15.0254 6.09348 13.6791C7.10247 13.0249 7.46838 12.7939 7.49624 12.7939C7.51201 12.7939 7.94187 13.0628 8.45146 13.3915C11.1475 15.1303 10.9311 15.013 11.3995 14.9894C11.6411 14.9773 11.6784 14.9674 11.8829 14.8618C12.2482 14.6729 12.4965 14.3597 12.5957 13.9624C12.6717 13.6577 12.6563 13.5527 12.3326 12.1739C11.7299 9.60726 11.7813 9.85337 11.8137 9.68935C11.8451 9.53007 11.9381 9.37929 12.0815 9.25479C12.8258 8.60882 14.4829 7.13509 14.6089 7.00707C15.0151 6.59434 15.1119 6.01109 14.8663 5.45646C14.7578 5.21156 14.5155 4.94195 14.3029 4.82959C14.0409 4.69106 14.042 4.69119 10.6707 4.43892C10.5546 4.43023 10.4181 4.4105 10.3673 4.39508C10.2378 4.35579 10.086 4.24315 10.0262 4.1421C9.99833 4.09501 9.69421 3.33822 9.35032 2.46035C9.00647 1.58248 8.69203 0.796106 8.65161 0.712859C8.43177 0.260273 7.99988 -0.00600645 7.49552 0.00010289C7.37008 0.00164398 7.22569 0.0132297 7.17465 0.0258887Z" fill="white"/>
</svg>
