<svg width="20" height="16" viewBox="0 0 20 16" fill="none" xmlns="http://www.w3.org/2000/svg">
<path d="M1.62857 8.16262H0.403479C0.0631773 8.16262 -0.118316 7.79356 0.0858655 7.53306L0.312734 7.22913C0.902591 6.42589 1.58319 5.66607 2.28649 4.94967L2.30917 4.92796C2.53604 4.66745 2.92172 4.66745 3.14858 4.92796C3.87456 5.64436 4.53248 6.40418 5.14502 7.20742L5.37189 7.51135C5.57607 7.77186 5.39458 8.14091 5.05428 8.14091H3.82919C3.89725 11.3321 6.64235 13.9155 10 13.9155C11.2024 13.9155 12.3141 13.5899 13.2669 13.0255C13.6979 12.7649 14.2424 12.8518 14.6054 13.1774C15.1045 13.655 15.0138 14.4583 14.4012 14.8056C13.1308 15.5654 11.6108 15.9996 10 15.9996C5.43995 16.043 1.71932 12.5261 1.62857 8.16262ZM5.39458 2.8656C5.75757 3.21295 6.30205 3.27807 6.7331 3.01756C7.68595 2.45313 8.7976 2.12749 10 2.12749C13.3576 2.12749 16.1027 4.71087 16.1708 7.90211H14.9457C14.6054 7.90211 14.4239 8.27116 14.6281 8.53167L14.855 8.8356C15.4675 9.63884 16.1254 10.3987 16.8514 11.1151C17.0783 11.3756 17.464 11.3756 17.6908 11.1151L17.7135 11.0933C18.4395 10.3769 19.0974 9.61713 19.6873 8.81389L19.9141 8.50996C20.1183 8.24946 19.9368 7.8804 19.5965 7.8804H18.3714C18.3034 3.51687 14.5827 0 10 0C8.38924 0 6.86922 0.434182 5.59876 1.194C5.0089 1.58476 4.89547 2.388 5.39458 2.8656Z" fill="white"/>
</svg>
