<svg width="30" height="28" viewBox="0 0 30 28" fill="none" xmlns="http://www.w3.org/2000/svg">
<path d="M27.4299 8.49096L20.7472 4.12261C20.1396 3.74652 19.3875 4.29618 19.59 4.96156L20.0528 7.40559L11.6054 7.42057C11.2004 7.4495 10.9111 7.79665 10.9111 8.17274V10.0821C10.9111 10.4871 11.2004 10.8053 11.6054 10.8342L20.0528 10.8492L19.59 13.2933C19.3875 13.9876 20.1686 14.5372 20.7472 14.1322L27.4299 9.76386C27.8927 9.47456 27.8927 8.80918 27.4299 8.49096Z" fill="#FED601"/>
<path d="M18.1716 17.4667L9.72417 17.4517L10.187 15.0077C10.3895 14.3134 9.60845 13.7638 9.02986 14.1688L2.34715 18.5371C1.88428 18.8264 1.88428 19.5207 2.34715 19.81L9.02986 24.1784C9.63738 24.5545 10.3895 24.0048 10.187 23.3394L9.72417 20.8954L18.1716 20.8804C18.5766 20.8515 18.8659 20.5043 18.8659 20.1282V18.2189C18.8659 17.8428 18.5766 17.5246 18.1716 17.4667Z" fill="#FED601"/>
</svg>
