<svg width="17" height="16" viewBox="0 0 17 16" fill="none" xmlns="http://www.w3.org/2000/svg">
<path fill-rule="evenodd" clip-rule="evenodd" d="M5.31399 5.14351L5.27251 5.11065L5.23102 5.07779V3.71183V2.34587L5.26999 2.30887L5.30897 2.27188L8.90329 2.27188L12.4976 2.27188V1.18099C12.4976 0.170554 12.4949 0.0540704 12.5441 0.024651C12.5532 0.0192445 12.564 0.0167784 12.5769 0.0122448C12.5864 0.00890856 12.5938 0.0049543 12.6016 0.00246101C12.6724 -0.0200958 12.7814 0.0769263 14.8519 1.83299L16.9991 3.65405V3.7097V3.76535L14.8586 5.58002C13.6813 6.57808 12.7049 7.40048 12.6888 7.40756C12.6365 7.43066 12.5911 7.42268 12.543 7.38191L12.4976 7.3434V6.24345V5.14351H8.9058L5.31399 5.14351ZM11.6851 13.7231L11.7266 13.6902L11.7681 13.6574V12.2914V10.9255L11.7291 10.8885L11.6902 10.8515H8.09586H4.50154V9.76058C4.50154 8.75014 4.50428 8.63366 4.45502 8.60424C4.44597 8.59883 4.43516 8.59637 4.42225 8.59183C4.41275 8.5885 4.40539 8.58454 4.39755 8.58205C4.3267 8.55949 4.21778 8.65652 2.14721 10.4126L0 12.2336V12.2893V12.3449L2.14057 14.1596C3.31789 15.1577 4.29427 15.9801 4.31031 15.9871C4.36269 16.0102 4.40805 16.0023 4.45613 15.9615L4.50154 15.923V14.823V13.7231H8.09335H11.6851Z" fill="#EC5B43"/>
</svg>
