<svg width="92" height="56" viewBox="0 0 92 56" fill="none" xmlns="http://www.w3.org/2000/svg">
<ellipse cx="28.0254" cy="28" rx="28.0254" ry="28" fill="#FF4E37"/>
<ellipse cx="63.9747" cy="28" rx="28.0254" ry="28" fill="#FF4E37"/>
<path fill-rule="evenodd" clip-rule="evenodd" d="M46.0001 49.485C39.8555 44.3488 35.9473 36.6303 35.9473 27.9999C35.9473 19.3695 39.8554 11.6511 46 6.51489C52.1447 11.6511 56.0529 19.3696 56.0529 28C56.0529 36.6304 52.1447 44.3488 46.0001 49.485Z" fill="#CD3C29"/>
<path d="M63.0626 12.6003C62.9634 13.7058 63.6042 14.7096 64.652 15.0564C66.9484 15.8393 69.051 17.2306 70.7152 19.2409C75.3625 24.8548 74.6876 33.1528 69.2547 37.8474L67.5591 35.799C67.0881 35.2301 66.1977 35.4564 66.0291 36.1717L65.8167 36.9873C65.2733 39.1644 64.8679 41.3551 64.632 43.5972C64.4948 44.3505 65.0286 44.9953 65.7938 45.0007L65.8628 45.0075C68.1084 45.1929 70.335 45.2023 72.5426 45.0356L73.383 44.9786C74.1168 44.9461 74.5048 44.1129 74.0338 43.5439L72.3382 41.4956C79.8015 35.1183 80.7429 23.8493 74.4 16.1871C72.1706 13.4939 69.3147 11.5758 66.2403 10.5422C64.7471 10.1169 63.1989 11.0802 63.0626 12.6003Z" fill="white"/>
<path d="M29.1777 44.5022C29.2769 43.3968 28.636 42.3929 27.5882 42.0461C25.2918 41.2632 23.1892 39.872 21.525 37.8616C16.8777 32.2477 17.5526 23.9497 22.9855 19.2552L24.6812 21.3035C25.1522 21.8725 26.0426 21.6462 26.2112 20.9309L26.4235 20.1153C26.9669 17.9381 27.3723 15.7475 27.6083 13.5053C27.7454 12.7521 27.2116 12.1072 26.4464 12.1018L26.3774 12.0951C24.1318 11.9096 21.9052 11.9002 19.6976 12.067L18.8572 12.1239C18.1234 12.1565 17.7354 12.9897 18.2065 13.5587L19.9021 15.607C12.4388 21.9843 11.4973 33.2532 17.8402 40.9154C20.0697 43.6086 22.9255 45.5268 25.9999 46.5603C27.4931 46.9856 29.0413 46.0223 29.1777 44.5022Z" fill="white"/>
</svg>
