<svg width="109" height="60" viewBox="0 0 109 60" fill="none" xmlns="http://www.w3.org/2000/svg">
<path d="M44.0995 17.6023L36.8771 26.3398C36.4175 26.8984 36.7786 27.816 37.4352 27.816L42.1626 27.816L42.1626 40.1842C42.1626 40.5831 42.4252 40.8624 42.7207 40.8624L46.5945 40.8624C46.9228 40.8624 47.1526 40.5432 47.1526 40.1842L47.1526 27.816L51.8471 27.816C52.5365 27.816 52.8648 26.8984 52.4052 26.3398L45.2157 17.6023C44.9202 17.2433 44.3949 17.2433 44.0995 17.6023Z" fill="#EC5B43"/>
<path d="M64.4335 40.5939L57.2111 31.8564C56.7515 31.2978 57.1126 30.3802 57.7692 30.3802L62.4966 30.3802L62.4966 18.012C62.4966 17.6131 62.7592 17.3338 63.0547 17.3338L66.9285 17.3338C67.2568 17.3338 67.4866 17.6529 67.4866 18.012L67.4866 30.3802L72.1811 30.3802C72.8705 30.3802 73.1988 31.2978 72.7392 31.8564L65.5496 40.5939C65.2542 40.9529 64.7289 40.9529 64.4335 40.5939Z" fill="#EC5B43"/>
<path fill-rule="evenodd" clip-rule="evenodd" d="M27.502 0C23.0566 0 18.8938 2.17958 16.3613 5.83302L0.0712891 29.3333L16.3835 53.9354C18.8948 57.7229 23.1368 60 27.6813 60H80.9058C85.4502 60 89.6922 57.7229 92.2035 53.9354L108.516 29.3333L92.2257 5.83302C89.6932 2.17957 85.5304 0 81.085 0H27.502ZM29.3122 2.66699C24.8026 2.66699 20.5883 4.90957 18.0691 8.64985L4.1377 29.3337L18.0983 51.0972C20.5913 54.9835 24.8909 57.3337 29.5081 57.3337H79.0784C83.6956 57.3337 87.9952 54.9835 90.4882 51.0972L104.449 29.3337L90.5174 8.64985C87.9982 4.90958 83.7839 2.66699 79.2743 2.66699H29.3122Z" fill="#EC5B43"/>
</svg>
