<svg width="27" height="22" viewBox="0 0 27 22" fill="none" xmlns="http://www.w3.org/2000/svg">
<path d="M2.35758 12.8684C2.19961 11.9633 1.46352 11.2236 0.544697 11.2236V11.2236C0.0852894 11.2236 -0.159726 10.7162 0.115918 10.358L0.42219 9.94005C1.2185 8.8356 2.13731 7.79085 3.08675 6.8058L3.11738 6.77595C3.42366 6.41775 3.94432 6.41775 4.25059 6.77595C5.23066 7.761 6.11885 8.80575 6.94578 9.9102L7.25206 10.3281C7.5277 10.6863 7.28268 11.1938 6.82327 11.1938V11.1938C5.91552 11.1938 5.1686 11.9482 5.37645 12.8318C6.22346 16.4328 9.54733 19.1339 13.5 19.1339C15.1232 19.1339 16.624 18.6861 17.9103 17.91C18.4922 17.5518 19.2273 17.6712 19.7173 18.119C20.3911 18.7757 20.2686 19.8801 19.4417 20.3577C17.7266 21.4025 15.6745 21.9995 13.5 21.9995C7.9179 22.0536 3.26755 18.0826 2.35758 12.8684ZM7.28268 3.9402C7.77271 4.4178 8.50777 4.50735 9.08969 4.14915C10.376 3.37305 11.8768 2.9253 13.5 2.9253C17.4527 2.9253 20.7765 5.62636 21.6236 9.22733C21.8314 10.111 21.0845 10.8654 20.1767 10.8654V10.8654C19.7173 10.8654 19.4723 11.3729 19.7479 11.7311L20.0542 12.149C20.8812 13.2534 21.7693 14.2982 22.7494 15.2832C23.0557 15.6414 23.5763 15.6414 23.8826 15.2832L23.9132 15.2534C24.8933 14.2683 25.7815 13.2236 26.5778 12.1191L26.8841 11.7012C27.1597 11.343 26.9147 10.8356 26.4553 10.8356V10.8356C25.5378 10.8356 24.8041 10.0945 24.6501 9.19003C23.7624 3.97569 19.1096 0 13.5 0C11.3255 0 9.27345 0.597 7.55833 1.64175C6.76202 2.17905 6.60888 3.2835 7.28268 3.9402Z" fill="white"/>
</svg>
