<svg width="21" height="23" viewBox="0 0 21 23" fill="none" xmlns="http://www.w3.org/2000/svg">
<path d="M3.5186 22.0651C4.08897 22.0651 4.46922 21.6397 4.46922 21.0017V18.8751H5.41983C5.9902 18.8751 6.37045 18.4497 6.37045 17.8117V5.05173C6.37045 4.41373 5.9902 3.9884 5.41983 3.9884H4.46922V1.86173C4.46922 1.22373 4.08897 0.798401 3.5186 0.798401C2.94823 0.798401 2.56798 1.22373 2.56798 1.86173V3.9884H1.61737C1.04699 3.9884 0.666748 4.41373 0.666748 5.05173V17.8117C0.666748 18.4497 1.04699 18.8751 1.61737 18.8751H2.56798V21.0017C2.56798 21.6397 2.94823 22.0651 3.5186 22.0651Z" fill="white"/>
<path d="M10.6667 0.798401C10.0963 0.798401 9.71605 1.22712 9.71605 1.8702V4.01379H8.76544C8.19507 4.01379 7.81482 4.4425 7.81482 5.08558V13.6599C7.81482 14.303 8.19507 14.7317 8.76544 14.7317H12.5679C13.1383 14.7317 13.5185 14.303 13.5185 13.6599V5.08558C13.5185 4.4425 13.1383 4.01379 12.5679 4.01379H11.6173V1.8702C11.6173 1.22712 11.237 0.798401 10.6667 0.798401Z" fill="white"/>
<path d="M17.8149 0.798401C17.2445 0.798401 16.8642 1.22373 16.8642 1.86173V12.4951H15.9136C15.3433 12.4951 14.963 12.9204 14.963 13.5584V21.0017C14.963 21.6397 15.3433 22.0651 15.9136 22.0651H19.7161C20.2865 22.0651 20.6667 21.6397 20.6667 21.0017V13.5584C20.6667 12.9204 20.2865 12.4951 19.7161 12.4951H18.7655V1.86173C18.7655 1.22373 18.3852 0.798401 17.8149 0.798401Z" fill="white"/>
</svg>
