<svg width="20" height="20" viewBox="0 0 20 20" fill="none" xmlns="http://www.w3.org/2000/svg">
<path d="M3.31973 20C3.86708 20 4.23198 19.6 4.23198 19V17H5.14422C5.69156 17 6.05646 16.6 6.05646 16V3.99998C6.05646 3.39998 5.69156 2.99998 5.14422 2.99998H4.23198V0.999985C4.23198 0.399985 3.86708 -1.52588e-05 3.31973 -1.52588e-05C2.77239 -1.52588e-05 2.40749 0.399985 2.40749 0.999985V2.99998H1.49525C0.947905 2.99998 0.583008 3.39998 0.583008 3.99998V16C0.583008 16.6 0.947905 17 1.49525 17H2.40749V19C2.40749 19.6 2.77239 20 3.31973 20Z" fill="#A32AFF"/>
<path d="M10.1791 -1.52588e-05C9.63176 -1.52588e-05 9.26687 0.403168 9.26687 1.00794V3.02386H8.35462C7.80728 3.02386 7.44238 3.42704 7.44238 4.03182V12.0955C7.44238 12.7003 7.80728 13.1034 8.35462 13.1034H12.0036C12.5509 13.1034 12.9158 12.7003 12.9158 12.0955V4.03182C12.9158 3.42704 12.5509 3.02386 12.0036 3.02386H11.0914V1.00794C11.0914 0.403168 10.7265 -1.52588e-05 10.1791 -1.52588e-05Z" fill="#FED601"/>
<path d="M17.039 -1.52588e-05C16.4916 -1.52588e-05 16.1267 0.399985 16.1267 0.999985V11H15.2145C14.6671 11 14.3022 11.4 14.3022 12V19C14.3022 19.6 14.6671 20 15.2145 20H18.8635C19.4108 20 19.7757 19.6 19.7757 19V12C19.7757 11.4 19.4108 11 18.8635 11H17.9512V0.999985C17.9512 0.399985 17.5863 -1.52588e-05 17.039 -1.52588e-05Z" fill="#A32AFF"/>
</svg>
