<svg width="13" height="15" viewBox="0 0 13 15" fill="none" xmlns="http://www.w3.org/2000/svg">
<path d="M3.23616 0.0985135L0.0899417 3.29435C-0.110272 3.49865 0.0470387 3.83428 0.333059 3.83428L2.3924 3.83428L2.3924 8.35806C2.3924 8.50399 2.50681 8.60614 2.63552 8.60614L4.32304 8.60614C4.46605 8.60614 4.56615 8.4894 4.56615 8.35806L4.56615 3.83428L6.61119 3.83428C6.91152 3.83428 7.05452 3.49865 6.85431 3.29435L3.72239 0.0985134C3.59368 -0.0328228 3.36487 -0.0328228 3.23616 0.0985135Z" fill="white"/>
<path d="M7.66227 6.14195L7.66227 10.6657L5.61723 10.6657C5.3169 10.6657 5.1739 11.0014 5.37411 11.2057L8.50603 14.4015C8.63473 14.5328 8.86355 14.5328 8.99226 14.4015L12.1242 11.2057C12.3244 11.0014 12.1671 10.6657 11.8811 10.6657L9.85032 10.6657L9.85032 6.14195C9.85032 5.99602 9.73591 5.89387 9.6072 5.89387L7.91968 5.89387C7.77667 5.89387 7.66227 6.01061 7.66227 6.14195Z" fill="white"/>
</svg>
