<svg width="21" height="31" viewBox="0 0 21 31" fill="none" xmlns="http://www.w3.org/2000/svg">
<path fill-rule="evenodd" clip-rule="evenodd" d="M20.8957 10.5732C20.6531 10.037 20.3124 9.87636 19.4178 9.87636C18.9953 9.87636 18.7399 9.85031 18.6748 9.80062C18.584 9.73137 18.5742 9.37212 18.5595 5.60468L18.5435 1.48448L18.4083 1.20455C18.2176 0.809619 17.8353 0.44583 17.4604 0.302774C17.1665 0.190559 16.997 0.181773 15.1289 0.181773C13.263 0.181773 13.0911 0.19068 12.7984 0.30235C12.4162 0.448314 12.0406 0.820768 11.8508 1.24212L11.7144 1.54507L11.6847 5.66527L11.655 9.78547L10.883 9.82262C10.0713 9.8617 9.76475 9.94447 9.49551 10.1974C9.18576 10.4882 9.10298 11.0371 9.30156 11.4831C9.44924 11.8147 13.9248 17.9211 14.1815 18.1411C14.4698 18.3882 14.7178 18.4803 15.0945 18.4803C15.4521 18.4803 15.6476 18.412 15.956 18.1794C16.1963 17.9981 20.7326 11.8523 20.8943 11.4889C21.0348 11.1734 21.0352 10.8816 20.8957 10.5732ZM18.734 12.0058C18.5612 12.2509 17.7587 13.3513 16.9505 14.451C15.3998 16.5612 15.2439 16.7272 14.9287 16.6049C14.821 16.5631 14.2239 15.7945 13.0251 14.1545C12.0645 12.8402 11.2476 11.7059 11.2098 11.6339C11.092 11.4093 11.1739 11.3305 11.5249 11.3305C11.7618 11.3305 11.9373 11.2829 12.2073 11.1453C12.5924 10.9489 12.7959 10.7439 13.0088 10.3378C13.1394 10.0888 13.1396 10.0829 13.156 5.97247C13.1675 3.10184 13.1922 1.83228 13.2376 1.77653C13.3275 1.66589 16.9092 1.65899 17.0173 1.76926C17.0713 1.82434 17.0886 2.80628 17.0886 5.81784C17.0886 10.2241 17.0835 10.1594 17.4728 10.6797C17.7385 11.0346 18.2926 11.3305 18.6915 11.3305C19.1523 11.3305 19.1571 11.4058 18.734 12.0058ZM17.9018 20.122C17.7441 19.6627 17.3133 19.5725 17.087 19.9513C16.9733 20.1414 16.9702 20.2839 16.9702 25.3574C16.9702 30.4309 16.9733 30.5734 17.087 30.7635C17.3133 31.1423 17.7441 31.0521 17.9018 30.5928C18.0035 30.2966 18.0035 20.4182 17.9018 20.122ZM14.6951 20.122C14.5373 19.6627 14.1066 19.5725 13.8803 19.9513C13.7666 20.1414 13.7635 20.2839 13.7635 25.3574C13.7635 30.4309 13.7666 30.5734 13.8803 30.7635C14.1066 31.1423 14.5373 31.0521 14.6951 30.5928C14.7968 30.2966 14.7968 20.4182 14.6951 20.122ZM11.7293 19.7674C11.6631 19.5569 7.12723 13.3511 6.83827 13.0758C6.5967 12.8456 6.24165 12.7086 5.89479 12.7119C5.54704 12.7152 5.31752 12.795 5.04459 13.0073C4.80433 13.1943 0.255729 19.3649 0.0996676 19.7156C-0.105977 20.1776 0.0133849 20.7126 0.395221 21.0405C0.654193 21.2628 0.926763 21.3274 1.60825 21.3277C1.9288 21.3279 2.24282 21.3563 2.306 21.3908C2.41776 21.4518 2.42085 21.5605 2.42085 25.4236C2.42085 28.244 2.44092 29.476 2.49009 29.678C2.61438 30.1884 2.9344 30.5875 3.43037 30.8506C3.69623 30.9917 3.70846 30.9924 5.86509 30.9924L8.03259 30.9924L8.32951 30.8311C8.70778 30.6257 8.97008 30.3456 9.143 29.9623L9.27965 29.6594L9.29598 25.5695C9.31088 21.8354 9.32092 21.473 9.41124 21.4038C9.47739 21.3532 9.74319 21.3281 10.2133 21.3281C11.1536 21.3281 11.4419 21.2074 11.691 20.7095C11.8131 20.4653 11.8286 20.0836 11.7293 19.7674ZM9.38374 19.8828C8.73741 19.9418 8.29815 20.2453 7.9934 20.8434L7.85444 21.116L7.83799 25.232C7.82653 28.1026 7.80183 29.3722 7.75646 29.4279C7.66649 29.5386 4.08478 29.5455 3.9767 29.4352C3.92272 29.3801 3.90544 28.3982 3.90544 25.3866C3.90544 20.9942 3.90859 21.0347 3.53073 20.5293C3.25121 20.1554 2.87484 19.9393 2.36931 19.8628C2.13634 19.8276 1.94578 19.7729 1.94578 19.7414C1.94578 19.6223 2.12809 19.3618 3.8495 17.0214C5.69193 14.5166 5.73374 14.4709 6.06641 14.5999C6.16463 14.638 6.80395 15.4567 7.91347 16.965C8.84674 18.2338 9.66315 19.3596 9.7277 19.4669C9.91677 19.781 9.86926 19.8385 9.38374 19.8828ZM7.52178 0.443103C7.46002 0.225399 7.21441 -6.02587e-07 7.03887 -6.1026e-07C6.97474 -6.13064e-07 6.84474 0.0847058 6.74997 0.188196L6.5777 0.376392L6.5777 5.67636L6.5777 10.9763L6.75127 11.1534C6.84676 11.2509 6.97675 11.3305 7.04017 11.3305C7.22415 11.3305 7.45913 11.1018 7.52546 10.8582C7.60355 10.5713 7.60004 0.719217 7.52178 0.443103ZM4.30295 0.429833C4.14523 -0.0293875 3.71446 -0.119608 3.48815 0.259148C3.37449 0.449343 3.3714 0.592278 3.37123 5.71538L3.37099 10.9763L3.54457 11.1534C3.64005 11.2509 3.77005 11.3305 3.83347 11.3305C4.01744 11.3305 4.25242 11.1018 4.31875 10.8582C4.41109 10.519 4.39618 0.701342 4.30295 0.429833Z" fill="white"/>
</svg>
