<svg width="50" height="44" viewBox="0 0 50 44" fill="none" xmlns="http://www.w3.org/2000/svg">
<path d="M22.6352 17.9418H17.9052L11.0013 6.09079C9.86998 4.1501 10.541 1.66624 12.5012 0.546083C13.1459 0.176887 13.85 0.00195312 14.5454 0.00195312C15.9605 0.00195312 17.3376 0.729715 18.0963 2.03253L25.0002 13.8816L22.6352 17.9418Z" fill="#FCBC05"/>
<path d="M37.4997 43.4553C35.5413 44.5764 33.0349 43.9105 31.9026 41.9688L24.9987 30.1198L18.0948 41.9688C16.9635 43.9095 14.458 44.5764 12.4997 43.4553C11.186 42.7034 10.4507 41.3387 10.4507 39.9363C10.4507 39.2472 10.6272 38.5494 10.9998 37.9086L17.9037 26.0596H32.0957L38.9996 37.9086C40.1309 39.8513 39.458 42.3342 37.4997 43.4553Z" fill="#E94335"/>
<path d="M50.0004 21.9996C50.0004 24.2419 48.166 26.0598 45.9033 26.0598H32.0965L29.7305 21.9996L27.3665 17.9404L25.0005 13.8802L31.9044 2.03112C33.0357 0.0884946 35.5421 -0.576445 37.5014 0.544675C39.4598 1.66483 40.1327 4.14869 39.0014 6.08938L32.0965 17.9414H45.9033C48.1669 17.9414 50.0004 19.7583 50.0004 21.9996Z" fill="#1973E8"/>
<path d="M22.6349 17.9414L20.2689 22.0006L17.9049 26.0608H4.09611C1.83447 26.0608 0 24.2429 0 22.0006C0 20.8805 0.457398 19.8657 1.19957 19.1302C1.94175 18.3966 2.96383 17.9414 4.09611 17.9414H22.6349Z" fill="#34A853"/>
<path d="M32.0954 26.0595H17.9043L20.2683 21.9993L22.6343 17.941L24.9994 13.8799L27.3653 17.941L29.7294 21.9993L32.0954 26.0595Z" fill="#174FA7"/>
</svg>
