<svg width="338" height="173" viewBox="0 0 338 173" fill="none" xmlns="http://www.w3.org/2000/svg">
<path d="M325.721 1H12.2792C6.0495 1 1 6.04986 1 12.2792V160.689C1 166.919 6.0495 171.968 12.2792 171.968H325.721C331.95 171.968 337 166.919 337 160.689V12.2792C337 6.04986 331.95 1 325.721 1Z" fill="white" stroke="#1E0654" stroke-width="2"/>
<path fill-rule="evenodd" clip-rule="evenodd" d="M139.463 36.5537C144.205 27.1425 153.29 20.7326 163.492 19.5997C176.189 18.1894 188.806 24.4582 194.686 35.0975L196.367 38.138L199.625 38.3253C206.072 38.6971 212.092 42.6817 215.205 48.6386C216.876 51.8363 217.37 59.0984 216.117 62.0572L215.26 64.0832L218.415 64.3416C221.073 64.5591 221.822 64.879 223.174 66.3722C224.927 68.3076 225.137 69.5352 224.102 71.7777C222.996 74.1711 220.93 74.8378 214.609 74.8378H208.916V85.463V96.0879H166.71H124.504V85.463V74.8378H121.077C117.39 74.8378 114.707 73.8244 113.757 72.0724C113.001 70.676 113.013 68.3501 113.786 66.9247C114.497 65.6144 117.571 64.2125 119.733 64.2125C121.102 64.2125 121.188 64.0826 120.751 62.6745C119.077 57.2791 121.286 51.489 126.077 48.7091C128.318 47.4089 129.358 47.1667 132.463 47.2199L136.172 47.2835L136.825 43.8873C137.184 42.0195 138.372 38.7196 139.463 36.5537ZM193.012 37.3695C189.162 29.9749 180.847 23.7905 172.723 22.279C157.91 19.523 143.374 28.7145 139.535 43.2649C139.058 45.0729 138.667 47.7628 138.667 49.2419V51.9324L136.425 50.8023C131.819 48.4832 126.37 49.9942 123.939 54.2644C122.215 57.2915 122.536 61.627 124.69 64.4142C125.523 65.4923 126.205 66.5174 126.205 66.6914C126.205 66.8659 124.229 67.0124 121.814 67.0168C116.77 67.0269 115.865 67.4084 115.865 69.5251C115.865 71.5736 116.779 72.0231 120.964 72.0331L124.504 72.0416V70.0843V68.1269H129.036C133.493 68.1269 133.569 68.1034 133.569 66.7289C133.569 65.9599 133.798 65.3309 134.08 65.3309C134.36 65.3309 134.678 67.6176 134.787 70.4126C134.973 75.1744 135.085 75.5789 136.574 76.8433C138.682 78.6326 142.538 78.7216 144.103 77.019C145.018 76.0229 145.226 74.686 145.466 68.2555C145.666 62.888 145.956 60.5997 146.457 60.4358C146.978 60.2654 147.165 61.2463 147.165 64.166V68.1269H165.011H182.856V64.2125C182.856 61.1054 183.031 60.2978 183.706 60.2978C184.419 60.2978 184.556 61.5125 184.556 67.8726C184.556 75.17 184.607 75.4981 185.946 76.8196C186.999 77.8608 187.926 78.1885 189.77 78.1755C194.088 78.1434 195.32 76.2853 195.32 69.7946C195.32 66.399 195.5 65.2961 196.027 65.4678C196.418 65.5942 196.817 66.2447 196.916 66.9125C197.089 68.0701 197.375 68.1269 203.007 68.1269H208.916V70.0843V72.0416H214.751C220.884 72.0416 221.946 71.6702 221.946 69.5251C221.946 67.4476 220.848 67.0086 215.655 67.0086H210.725L212.511 63.7929C214.073 60.9816 214.296 60.0501 214.285 56.3833C214.275 53.1695 213.982 51.6512 213.037 49.8873C209.801 43.8528 205.363 41.0644 198.935 41.0275L194.904 41.0045L193.012 37.3695ZM148.236 48.7599C147.906 48.3662 147.807 47.769 148.017 47.4329C148.276 47.0196 148.622 47.0039 149.086 47.3854C149.465 47.6946 150.334 47.8037 151.019 47.6269C152.29 47.2987 152.762 48.1844 151.669 48.8504C151.262 49.0992 151.277 49.4517 151.719 49.9773C152.621 51.0511 151.847 52.1695 150.798 51.3089C150.186 50.8084 149.809 50.8084 149.199 51.3089C148.191 52.1349 147.288 51.0052 148.22 50.0848C148.657 49.6536 148.662 49.266 148.236 48.7599ZM185.159 48.2969C184.817 48.0883 184.693 47.6671 184.886 47.3606C185.097 47.0229 185.636 47.1628 186.255 47.7153C186.928 48.3165 187.403 48.4238 187.649 48.0313C188.309 46.9771 189.178 47.3937 188.796 48.581C188.592 49.2107 188.716 50.069 189.069 50.4883C189.475 50.971 189.506 51.3749 189.154 51.5891C188.849 51.7752 188.426 51.6516 188.215 51.3139C188.002 50.975 187.219 50.852 186.461 51.0394C185.241 51.3425 185.13 51.2328 185.437 50.0276C185.627 49.2799 185.502 48.5067 185.159 48.2969ZM164.258 61.4162C163.001 61.4162 163.598 60.2789 165.436 59.1733C166.447 58.5637 168.13 58.0644 169.172 58.0632C171.459 58.0605 174.744 60.1406 173.849 61.0241C173.431 61.437 172.9 61.2995 172.077 60.5641C170.608 59.2515 167.403 59.1995 165.985 60.4656C165.4 60.9885 164.623 61.4162 164.258 61.4162ZM142.101 89.4605C142.748 89.8535 143.507 90.0494 144.376 90.0494C145.245 90.0494 146.004 89.8535 146.651 89.4605C147.299 89.0664 147.802 88.5167 148.16 87.8102C148.518 87.1026 148.698 86.2763 148.698 85.3312C148.698 84.3826 148.518 83.5526 148.16 82.8415C147.802 82.1303 147.299 81.5782 146.651 81.1852C146.004 80.7922 145.245 80.5951 144.376 80.5951C143.507 80.5951 142.748 80.7922 142.101 81.1852C141.453 81.5782 140.949 82.1303 140.592 82.8415C140.233 83.5526 140.054 84.3826 140.054 85.3312C140.054 86.2763 140.233 87.1026 140.592 87.8102C140.949 88.5167 141.453 89.0664 142.101 89.4605ZM145.782 88.1142C145.412 88.4074 144.945 88.5547 144.382 88.5547C143.814 88.5547 143.344 88.4074 142.969 88.1142C142.6 87.8197 142.324 87.4291 142.143 86.94C141.966 86.452 141.877 85.913 141.877 85.3253C141.877 84.7411 141.966 84.2056 142.143 83.7165C142.324 83.225 142.6 82.8296 142.969 82.5316C143.344 82.2336 143.814 82.0852 144.382 82.0852C144.945 82.0852 145.412 82.2336 145.782 82.5316C146.152 82.8296 146.426 83.225 146.603 83.7165C146.784 84.2056 146.874 84.7411 146.874 85.3253C146.874 85.913 146.784 86.452 146.603 86.94C146.426 87.4291 146.152 87.8197 145.782 88.1142ZM151.491 89.4605C152.139 89.8535 152.897 90.0494 153.766 90.0494C154.635 90.0494 155.394 89.8535 156.042 89.4605C156.689 89.0664 157.193 88.5167 157.551 87.8102C157.908 87.1026 158.088 86.2763 158.088 85.3312C158.088 84.3826 157.908 83.5526 157.551 82.8415C157.193 82.1303 156.689 81.5782 156.042 81.1852C155.394 80.7922 154.635 80.5951 153.766 80.5951C152.897 80.5951 152.139 80.7922 151.491 81.1852C150.843 81.5782 150.341 82.1303 149.982 82.8415C149.625 83.5526 149.446 84.3826 149.446 85.3312C149.446 86.2763 149.625 87.1026 149.982 87.8102C150.341 88.5167 150.843 89.0664 151.491 89.4605ZM155.173 88.1142C154.803 88.4074 154.336 88.5547 153.772 88.5547C153.206 88.5547 152.734 88.4074 152.36 88.1142C151.99 87.8197 151.714 87.4291 151.534 86.94C151.356 86.452 151.268 85.913 151.268 85.3253C151.268 84.7411 151.356 84.2056 151.534 83.7165C151.714 83.225 151.99 82.8296 152.36 82.5316C152.734 82.2336 153.206 82.0852 153.772 82.0852C154.336 82.0852 154.803 82.2336 155.173 82.5316C155.543 82.8296 155.816 83.225 155.993 83.7165C156.175 84.2056 156.265 84.7411 156.265 85.3253C156.265 85.913 156.175 86.452 155.993 86.94C155.816 87.4291 155.543 87.8197 155.173 88.1142ZM160.881 89.4605C161.53 89.8535 162.288 90.0494 163.157 90.0494C164.027 90.0494 164.785 89.8535 165.432 89.4605C166.08 89.0664 166.583 88.5167 166.941 87.8102C167.3 87.1026 167.479 86.2763 167.479 85.3312C167.479 84.3826 167.3 83.5526 166.941 82.8415C166.583 82.1303 166.08 81.5782 165.432 81.1852C164.785 80.7922 164.027 80.5951 163.157 80.5951C162.288 80.5951 161.53 80.7922 160.881 81.1852C160.234 81.5782 159.731 82.1303 159.374 82.8415C159.015 83.5526 158.836 84.3826 158.836 85.3312C158.836 86.2763 159.015 87.1026 159.374 87.8102C159.731 88.5167 160.234 89.0664 160.881 89.4605ZM164.563 88.1142C164.193 88.4074 163.726 88.5547 163.163 88.5547C162.596 88.5547 162.126 88.4074 161.75 88.1142C161.381 87.8197 161.105 87.4291 160.924 86.94C160.747 86.452 160.658 85.913 160.658 85.3253C160.658 84.7411 160.747 84.2056 160.924 83.7165C161.105 83.225 161.381 82.8296 161.75 82.5316C162.126 82.2336 162.596 82.0852 163.163 82.0852C163.726 82.0852 164.193 82.2336 164.563 82.5316C164.934 82.8296 165.207 83.225 165.385 83.7165C165.565 84.2056 165.655 84.7411 165.655 85.3253C165.655 85.913 165.565 86.452 165.385 86.94C165.207 87.4291 164.934 87.8197 164.563 88.1142ZM168.643 80.7139V93.2966H170.447V88.4419H170.557C170.665 88.6366 170.82 88.8586 171.021 89.1091C171.221 89.3584 171.499 89.5769 171.853 89.7645C172.212 89.9509 172.672 90.0447 173.236 90.0447C173.984 90.0447 174.65 89.8547 175.233 89.4784C175.817 89.0972 176.276 88.5547 176.609 87.8518C176.944 87.1442 177.11 86.2964 177.11 85.3074C177.11 84.3184 176.942 83.4731 176.603 82.7702C176.27 82.0674 175.809 81.5283 175.221 81.1555C174.634 80.7815 173.966 80.5951 173.217 80.5951C172.643 80.5951 172.18 80.6901 171.829 80.8813C171.48 81.0677 171.206 81.2861 171.009 81.5366C170.812 81.7872 170.661 82.0068 170.557 82.198H170.406V80.7139H168.643ZM170.695 86.9815C170.505 86.4971 170.412 85.9331 170.412 85.2896C170.412 84.6544 170.504 84.0988 170.688 83.6215C170.874 83.1454 171.145 82.7738 171.504 82.5078C171.866 82.2407 172.309 82.1077 172.831 82.1077C173.375 82.1077 173.827 82.2478 174.19 82.5256C174.555 82.8035 174.83 83.1822 175.01 83.6631C175.195 84.1439 175.288 84.6865 175.288 85.2896C175.288 85.9011 175.193 86.452 175.004 86.94C174.819 87.4291 174.546 87.8162 174.184 88.1023C173.822 88.3837 173.37 88.525 172.831 88.525C172.312 88.525 171.874 88.3896 171.516 88.1201C171.157 87.8458 170.884 87.4659 170.695 86.9815ZM183.594 83.2345L185.23 82.9483C185.045 82.2336 184.664 81.6637 184.089 81.2386C183.513 80.81 182.725 80.5951 181.723 80.5951C181.027 80.5951 180.409 80.7103 179.87 80.9406C179.331 81.1674 178.908 81.4832 178.603 81.8881C178.296 82.2929 178.143 82.7655 178.143 83.3057C178.143 83.9575 178.35 84.4953 178.759 84.9204C179.174 85.3454 179.814 85.6553 180.679 85.85L182.248 86.1896C182.691 86.2881 183.018 86.4354 183.232 86.6301C183.449 86.8248 183.558 87.0646 183.558 87.3508C183.558 87.7046 183.38 88.0049 183.027 88.2507C182.673 88.4929 182.2 88.614 181.609 88.614C181.065 88.614 180.625 88.5012 180.286 88.2745C179.949 88.0441 179.726 87.7046 179.617 87.2558L177.873 87.5182C178.021 88.3279 178.423 88.9536 179.08 89.3941C179.735 89.8322 180.582 90.0494 181.621 90.0494C182.369 90.0494 183.027 89.9295 183.594 89.6861C184.165 89.4439 184.61 89.1103 184.927 88.6852C185.249 88.2566 185.411 87.7687 185.411 87.2202C185.411 86.5719 185.202 86.0459 184.783 85.6411C184.365 85.2362 183.728 84.9358 182.876 84.7411L181.402 84.4075C180.892 84.2888 180.521 84.1356 180.292 83.9492C180.063 83.7628 179.949 83.5158 179.949 83.2107C179.949 82.8569 180.12 82.5696 180.461 82.3464C180.804 82.1208 181.23 82.0068 181.741 82.0068C182.115 82.0068 182.427 82.0674 182.676 82.1861C182.926 82.3048 183.124 82.458 183.268 82.6444C183.417 82.8308 183.525 83.0279 183.594 83.2345ZM186.883 89.6327C187.12 89.863 187.404 89.9782 187.734 89.9782C187.955 89.9782 188.157 89.9248 188.337 89.8179C188.519 89.7099 188.664 89.5674 188.772 89.3893C188.885 89.2065 188.94 89.0046 188.94 88.7874C188.94 88.4609 188.822 88.183 188.584 87.9527C188.347 87.7188 188.064 87.6013 187.734 87.6013C187.404 87.6013 187.12 87.7188 186.883 87.9527C186.645 88.183 186.527 88.4609 186.527 88.7874C186.527 89.1162 186.645 89.3988 186.883 89.6327ZM190.846 89.6327C191.083 89.863 191.367 89.9782 191.697 89.9782C191.918 89.9782 192.12 89.9248 192.3 89.8179C192.482 89.7099 192.627 89.5674 192.735 89.3893C192.848 89.2065 192.905 89.0046 192.905 88.7874C192.905 88.4609 192.785 88.183 192.549 87.9527C192.311 87.7188 192.027 87.6013 191.697 87.6013C191.367 87.6013 191.083 87.7188 190.846 87.9527C190.608 88.183 190.49 88.4609 190.49 88.7874C190.49 89.1162 190.608 89.3988 190.846 89.6327ZM194.809 89.6327C195.047 89.863 195.33 89.9782 195.66 89.9782C195.882 89.9782 196.083 89.9248 196.265 89.8179C196.445 89.7099 196.59 89.5674 196.699 89.3893C196.812 89.2065 196.868 89.0046 196.868 88.7874C196.868 88.4609 196.749 88.183 196.512 87.9527C196.274 87.7188 195.99 87.6013 195.66 87.6013C195.33 87.6013 195.047 87.7188 194.809 87.9527C194.572 88.183 194.454 88.4609 194.454 88.7874C194.454 89.1162 194.572 89.3988 194.809 89.6327Z" fill="#1E0654"/>
<path d="M78.09 111.364H80.7044V122.721C80.7044 123.93 80.4207 125.001 79.8531 125.934C79.2844 126.862 78.4866 127.593 77.4584 128.127C76.429 128.655 75.2227 128.919 73.8408 128.919C72.4635 128.919 71.2596 128.655 70.2314 128.127C69.2021 127.593 68.4042 126.862 67.8367 125.934C67.2692 125.001 66.9854 123.93 66.9854 122.721V111.364H69.5903V122.511C69.5903 123.292 69.7624 123.987 70.1044 124.593C70.4534 125.2 70.945 125.679 71.5802 126.027C72.2154 126.37 72.9693 126.542 73.8408 126.542C74.717 126.542 75.4733 126.37 76.1085 126.027C76.7496 125.679 77.2387 125.2 77.5759 124.593C77.9191 123.987 78.09 123.292 78.09 122.511V111.364ZM85.6245 120.943V128.633H83.1027V115.681H85.5236V117.788H85.6827C85.9807 117.103 86.4473 116.552 87.0825 116.135C87.7236 115.72 88.531 115.512 89.5033 115.512C90.3855 115.512 91.1584 115.697 91.8221 116.069C92.4858 116.433 92.9999 116.979 93.3656 117.704C93.7301 118.429 93.9129 119.326 93.9129 120.394V128.633H91.3923V120.698C91.3923 119.759 91.1477 119.025 90.6586 118.497C90.1694 117.963 89.4974 117.695 88.6426 117.695C88.0584 117.695 87.5384 117.822 87.0825 118.075C86.6337 118.328 86.2763 118.7 86.0116 119.188C85.7539 119.672 85.6245 120.256 85.6245 120.943ZM99.8766 128.919C99.0562 128.919 98.3141 128.768 97.6505 128.464C96.9868 128.155 96.462 127.708 96.0737 127.124C95.6914 126.538 95.5003 125.822 95.5003 124.973C95.5003 124.242 95.6404 123.64 95.9218 123.169C96.2032 122.696 96.5819 122.322 97.0604 122.047C97.5377 121.771 98.0719 121.564 98.662 121.423C99.2521 121.282 99.854 121.175 100.467 121.103C101.243 121.013 101.872 120.939 102.356 120.883C102.839 120.821 103.19 120.723 103.41 120.588C103.63 120.453 103.739 120.234 103.739 119.93V119.872C103.739 119.134 103.531 118.564 103.114 118.16C102.705 117.755 102.092 117.553 101.276 117.553C100.428 117.553 99.7591 117.741 99.2699 118.117C98.7855 118.488 98.4519 118.902 98.2655 119.358L95.8968 118.817C96.177 118.03 96.5878 117.395 97.128 116.912C97.673 116.423 98.2999 116.069 99.0075 115.849C99.7163 115.625 100.461 115.512 101.243 115.512C101.76 115.512 102.308 115.574 102.888 115.697C103.472 115.816 104.017 116.034 104.522 116.355C105.034 116.676 105.453 117.134 105.78 117.73C106.105 118.32 106.269 119.087 106.269 120.032V128.633H103.806V126.862H103.704C103.542 127.188 103.297 127.508 102.972 127.823C102.645 128.137 102.226 128.4 101.715 128.608C101.203 128.815 100.59 128.919 99.8766 128.919ZM100.425 126.896C101.122 126.896 101.718 126.758 102.212 126.482C102.713 126.207 103.092 125.847 103.351 125.403C103.615 124.953 103.747 124.472 103.747 123.961V122.291C103.657 122.382 103.482 122.466 103.225 122.544C102.972 122.618 102.682 122.682 102.356 122.739C102.029 122.789 101.712 122.836 101.403 122.881C101.094 122.921 100.835 122.955 100.627 122.982C100.138 123.045 99.6914 123.149 99.2865 123.295C98.8876 123.441 98.567 123.652 98.3248 123.927C98.0886 124.197 97.971 124.557 97.971 125.007C97.971 125.631 98.2014 126.103 98.662 126.423C99.1239 126.738 99.7104 126.896 100.425 126.896ZM108.641 128.633V111.364H111.163V117.78H111.315C111.461 117.51 111.672 117.198 111.948 116.844C112.223 116.49 112.605 116.18 113.093 115.917C113.583 115.646 114.23 115.512 115.033 115.512C116.079 115.512 117.013 115.776 117.833 116.304C118.653 116.833 119.297 117.594 119.764 118.589C120.236 119.584 120.472 120.782 120.472 122.182C120.472 123.582 120.238 124.782 119.772 125.782C119.305 126.777 118.665 127.545 117.85 128.084C117.035 128.618 116.104 128.885 115.058 128.885C114.271 128.885 113.628 128.754 113.128 128.489C112.633 128.225 112.246 127.915 111.964 127.562C111.683 127.208 111.467 126.893 111.315 126.618H111.104V128.633H108.641ZM111.112 122.156C111.112 123.067 111.245 123.866 111.508 124.551C111.773 125.237 112.155 125.774 112.655 126.162C113.156 126.544 113.769 126.735 114.493 126.735C115.247 126.735 115.876 126.536 116.382 126.137C116.888 125.732 117.27 125.184 117.529 124.493C117.794 123.8 117.926 123.023 117.926 122.156C117.926 121.302 117.796 120.534 117.537 119.855C117.284 119.175 116.902 118.637 116.39 118.244C115.885 117.851 115.253 117.654 114.493 117.654C113.763 117.654 113.144 117.841 112.639 118.219C112.139 118.595 111.759 119.121 111.5 119.796C111.241 120.47 111.112 121.257 111.112 122.156ZM124.637 111.364V128.633H122.117V111.364H124.637ZM132.425 128.894C131.148 128.894 130.049 128.622 129.128 128.076C128.211 127.525 127.502 126.752 127.002 125.757C126.507 124.756 126.26 123.584 126.26 122.24C126.26 120.914 126.507 119.745 127.002 118.733C127.502 117.722 128.199 116.931 129.093 116.363C129.993 115.796 131.044 115.512 132.248 115.512C132.978 115.512 133.687 115.633 134.372 115.874C135.058 116.116 135.673 116.495 136.219 117.013C136.764 117.53 137.194 118.201 137.509 119.029C137.824 119.849 137.981 120.846 137.981 122.022V122.916H127.685V121.027H135.51C135.51 120.363 135.376 119.775 135.106 119.264C134.836 118.747 134.456 118.339 133.967 118.042C133.484 117.744 132.916 117.594 132.264 117.594C131.556 117.594 130.937 117.769 130.409 118.117C129.886 118.46 129.481 118.91 129.195 119.467C128.914 120.018 128.773 120.616 128.773 121.263V122.739C128.773 123.604 128.925 124.341 129.229 124.947C129.537 125.555 129.968 126.018 130.519 126.339C131.07 126.653 131.713 126.811 132.45 126.811C132.927 126.811 133.363 126.744 133.757 126.608C134.15 126.468 134.491 126.26 134.777 125.985C135.064 125.71 135.282 125.369 135.434 124.965L137.821 125.395C137.63 126.098 137.287 126.713 136.793 127.241C136.304 127.764 135.687 128.172 134.945 128.464C134.209 128.75 133.369 128.894 132.425 128.894ZM150.735 115.681V117.704H143.66V115.681H150.735ZM145.557 112.577H148.078V124.83C148.078 125.319 148.151 125.687 148.297 125.934C148.443 126.176 148.632 126.342 148.863 126.431C149.099 126.516 149.354 126.558 149.63 126.558C149.833 126.558 150.009 126.544 150.161 126.516C150.312 126.488 150.431 126.466 150.515 126.449L150.97 128.532C150.824 128.587 150.616 128.643 150.347 128.7C150.077 128.762 149.74 128.795 149.335 128.801C148.671 128.813 148.053 128.694 147.479 128.447C146.906 128.199 146.443 127.817 146.088 127.3C145.734 126.783 145.557 126.133 145.557 125.352V112.577ZM157.653 128.894C156.439 128.894 155.378 128.616 154.474 128.059C153.569 127.502 152.866 126.725 152.366 125.724C151.865 124.723 151.615 123.553 151.615 122.215C151.615 120.873 151.865 119.697 152.366 118.69C152.866 117.685 153.569 116.903 154.474 116.347C155.378 115.79 156.439 115.512 157.653 115.512C158.867 115.512 159.927 115.79 160.832 116.347C161.737 116.903 162.439 117.685 162.94 118.69C163.44 119.697 163.69 120.873 163.69 122.215C163.69 123.553 163.44 124.723 162.94 125.724C162.439 126.725 161.737 127.502 160.832 128.059C159.927 128.616 158.867 128.894 157.653 128.894ZM157.661 126.778C158.449 126.778 159.1 126.569 159.617 126.154C160.135 125.738 160.517 125.184 160.764 124.493C161.017 123.8 161.144 123.039 161.144 122.207C161.144 121.381 161.017 120.622 160.764 119.93C160.517 119.233 160.135 118.674 159.617 118.252C159.1 117.831 158.449 117.619 157.661 117.619C156.868 117.619 156.211 117.831 155.688 118.252C155.171 118.674 154.786 119.233 154.533 119.93C154.285 120.622 154.161 121.381 154.161 122.207C154.161 123.039 154.285 123.8 154.533 124.493C154.786 125.184 155.171 125.738 155.688 126.154C156.211 126.569 156.868 126.778 157.661 126.778ZM172.936 111.364V128.633H170.414V111.364H172.936ZM180.596 128.894C179.382 128.894 178.322 128.616 177.417 128.059C176.512 127.502 175.809 126.725 175.309 125.724C174.808 124.723 174.559 123.553 174.559 122.215C174.559 120.873 174.808 119.697 175.309 118.69C175.809 117.685 176.512 116.903 177.417 116.347C178.322 115.79 179.382 115.512 180.596 115.512C181.811 115.512 182.87 115.79 183.774 116.347C184.68 116.903 185.383 117.685 185.883 118.69C186.383 119.697 186.633 120.873 186.633 122.215C186.633 123.553 186.383 124.723 185.883 125.724C185.383 126.725 184.68 127.502 183.774 128.059C182.87 128.616 181.811 128.894 180.596 128.894ZM180.604 126.778C181.392 126.778 182.043 126.569 182.561 126.154C183.078 125.738 183.46 125.184 183.708 124.493C183.961 123.8 184.087 123.039 184.087 122.207C184.087 121.381 183.961 120.622 183.708 119.93C183.46 119.233 183.078 118.674 182.561 118.252C182.043 117.831 181.392 117.619 180.604 117.619C179.811 117.619 179.154 117.831 178.631 118.252C178.114 118.674 177.729 119.233 177.476 119.93C177.229 120.622 177.106 121.381 177.106 122.207C177.106 123.039 177.229 123.8 177.476 124.493C177.729 125.184 178.114 125.738 178.631 126.154C179.154 126.569 179.811 126.778 180.604 126.778ZM192.03 128.919C191.209 128.919 190.467 128.768 189.804 128.464C189.14 128.155 188.615 127.708 188.227 127.124C187.844 126.538 187.653 125.822 187.653 124.973C187.653 124.242 187.793 123.64 188.075 123.169C188.356 122.696 188.736 122.322 189.213 122.047C189.691 121.771 190.225 121.564 190.815 121.423C191.406 121.282 192.007 121.175 192.62 121.103C193.396 121.013 194.025 120.939 194.509 120.883C194.992 120.821 195.343 120.723 195.563 120.588C195.783 120.453 195.892 120.234 195.892 119.93V119.872C195.892 119.134 195.684 118.564 195.267 118.16C194.858 117.755 194.245 117.553 193.429 117.553C192.581 117.553 191.912 117.741 191.423 118.117C190.94 118.488 190.605 118.902 190.42 119.358L188.05 118.817C188.331 118.03 188.741 117.395 189.281 116.912C189.826 116.423 190.453 116.069 191.162 115.849C191.869 115.625 192.615 115.512 193.396 115.512C193.913 115.512 194.461 115.574 195.041 115.697C195.625 115.816 196.17 116.034 196.677 116.355C197.187 116.676 197.606 117.134 197.933 117.73C198.258 118.32 198.422 119.087 198.422 120.032V128.633H195.96V126.862H195.859C195.695 127.188 195.45 127.508 195.125 127.823C194.798 128.137 194.379 128.4 193.868 128.608C193.357 128.815 192.744 128.919 192.03 128.919ZM192.578 126.896C193.275 126.896 193.871 126.758 194.366 126.482C194.866 126.207 195.246 125.847 195.504 125.403C195.768 124.953 195.9 124.472 195.9 123.961V122.291C195.81 122.382 195.637 122.466 195.378 122.544C195.125 122.618 194.835 122.682 194.509 122.739C194.183 122.789 193.865 122.836 193.557 122.881C193.247 122.921 192.988 122.955 192.78 122.982C192.291 123.045 191.844 123.149 191.44 123.295C191.041 123.441 190.72 123.652 190.478 123.927C190.243 124.197 190.124 124.557 190.124 125.007C190.124 125.631 190.354 126.103 190.815 126.423C191.277 126.738 191.865 126.896 192.578 126.896ZM205.441 128.885C204.395 128.885 203.462 128.618 202.642 128.084C201.826 127.545 201.186 126.777 200.719 125.782C200.257 124.782 200.027 123.582 200.027 122.182C200.027 120.782 200.261 119.584 200.728 118.589C201.2 117.594 201.846 116.833 202.666 116.304C203.488 115.776 204.418 115.512 205.458 115.512C206.262 115.512 206.909 115.646 207.398 115.917C207.892 116.18 208.274 116.49 208.545 116.844C208.82 117.198 209.034 117.51 209.185 117.78H209.337V111.364H211.858V128.633H209.396V126.618H209.185C209.034 126.893 208.814 127.208 208.527 127.562C208.247 127.915 207.858 128.225 207.363 128.489C206.869 128.754 206.228 128.885 205.441 128.885ZM205.998 126.735C206.723 126.735 207.336 126.544 207.836 126.162C208.342 125.774 208.724 125.237 208.983 124.551C209.246 123.866 209.379 123.067 209.379 122.156C209.379 121.257 209.25 120.47 208.991 119.796C208.732 119.121 208.354 118.595 207.853 118.219C207.353 117.841 206.734 117.654 205.998 117.654C205.239 117.654 204.606 117.851 204.101 118.244C203.595 118.637 203.213 119.175 202.954 119.855C202.701 120.534 202.574 121.302 202.574 122.156C202.574 123.023 202.703 123.8 202.962 124.493C203.221 125.184 203.603 125.732 204.109 126.137C204.621 126.536 205.25 126.735 205.998 126.735ZM224.822 128.894C223.569 128.894 222.489 128.61 221.585 128.043C220.685 127.469 219.994 126.68 219.509 125.673C219.026 124.667 218.785 123.514 218.785 122.215C218.785 120.9 219.032 119.739 219.527 118.733C220.021 117.722 220.718 116.931 221.618 116.363C222.518 115.796 223.577 115.512 224.797 115.512C225.78 115.512 226.658 115.695 227.427 116.06C228.198 116.42 228.819 116.926 229.291 117.578C229.77 118.23 230.053 118.992 230.142 119.863H227.69C227.554 119.255 227.246 118.733 226.761 118.295C226.284 117.856 225.643 117.637 224.839 117.637C224.136 117.637 223.521 117.822 222.993 118.193C222.469 118.559 222.062 119.081 221.77 119.761C221.478 120.437 221.332 121.235 221.332 122.156C221.332 123.101 221.474 123.916 221.761 124.602C222.048 125.288 222.452 125.819 222.975 126.195C223.504 126.573 224.125 126.76 224.839 126.76C225.317 126.76 225.75 126.674 226.138 126.499C226.531 126.32 226.86 126.063 227.124 125.732C227.394 125.4 227.583 125.001 227.69 124.534H230.142C230.053 125.372 229.78 126.12 229.324 126.778C228.87 127.435 228.259 127.952 227.495 128.329C226.736 128.706 225.846 128.894 224.822 128.894ZM234.173 120.943V128.633H231.652V111.364H234.14V117.788H234.299C234.603 117.091 235.067 116.538 235.691 116.127C236.315 115.717 237.13 115.512 238.136 115.512C239.025 115.512 239.801 115.695 240.464 116.06C241.133 116.425 241.65 116.971 242.015 117.695C242.387 118.415 242.572 119.315 242.572 120.394V128.633H240.05V120.698C240.05 119.748 239.806 119.011 239.317 118.488C238.827 117.96 238.147 117.695 237.277 117.695C236.681 117.695 236.147 117.822 235.674 118.075C235.207 118.328 234.839 118.7 234.57 119.188C234.305 119.672 234.173 120.256 234.173 120.943ZM248.518 128.919C247.698 128.919 246.956 128.768 246.292 128.464C245.629 128.155 245.103 127.708 244.715 127.124C244.333 126.538 244.142 125.822 244.142 124.973C244.142 124.242 244.283 123.64 244.563 123.169C244.845 122.696 245.224 122.322 245.702 122.047C246.18 121.771 246.713 121.564 247.305 121.423C247.895 121.282 248.495 121.175 249.108 121.103C249.885 121.013 250.514 120.939 250.997 120.883C251.481 120.821 251.833 120.723 252.051 120.588C252.271 120.453 252.38 120.234 252.38 119.93V119.872C252.38 119.134 252.172 118.564 251.757 118.16C251.346 117.755 250.733 117.553 249.918 117.553C249.069 117.553 248.4 117.741 247.911 118.117C247.428 118.488 247.093 118.902 246.908 119.358L244.538 118.817C244.82 118.03 245.229 117.395 245.769 116.912C246.314 116.423 246.941 116.069 247.65 115.849C248.358 115.625 249.103 115.512 249.885 115.512C250.401 115.512 250.95 115.574 251.529 115.697C252.113 115.816 252.659 116.034 253.165 116.355C253.677 116.676 254.095 117.134 254.421 117.73C254.748 118.32 254.91 119.087 254.91 120.032V128.633H252.448V126.862H252.347C252.183 127.188 251.939 127.508 251.613 127.823C251.287 128.137 250.868 128.4 250.357 128.608C249.845 128.815 249.233 128.919 248.518 128.919ZM249.067 126.896C249.763 126.896 250.359 126.758 250.855 126.482C251.354 126.207 251.734 125.847 251.992 125.403C252.257 124.953 252.389 124.472 252.389 123.961V122.291C252.299 122.382 252.125 122.466 251.866 122.544C251.613 122.618 251.324 122.682 250.997 122.739C250.672 122.789 250.354 122.836 250.045 122.881C249.735 122.921 249.477 122.955 249.268 122.982C248.779 123.045 248.333 123.149 247.928 123.295C247.529 123.441 247.208 123.652 246.967 123.927C246.731 124.197 246.612 124.557 246.612 125.007C246.612 125.631 246.843 126.103 247.305 126.423C247.765 126.738 248.353 126.896 249.067 126.896ZM257.081 128.633V115.681H259.518V117.738H259.654C259.889 117.041 260.305 116.493 260.901 116.094C261.502 115.689 262.182 115.487 262.941 115.487C263.099 115.487 263.284 115.492 263.498 115.504C263.718 115.514 263.889 115.529 264.012 115.545V117.958C263.911 117.929 263.732 117.898 263.473 117.864C263.214 117.825 262.955 117.806 262.696 117.806C262.102 117.806 261.57 117.932 261.103 118.185C260.643 118.433 260.277 118.778 260.007 119.222C259.738 119.66 259.602 120.161 259.602 120.723V128.633H257.081ZM271.818 115.681V117.704H264.743V115.681H271.818ZM266.641 112.577H269.162V124.83C269.162 125.319 269.235 125.687 269.381 125.934C269.528 126.176 269.716 126.342 269.946 126.431C270.182 126.516 270.439 126.558 270.714 126.558C270.916 126.558 271.093 126.544 271.245 126.516C271.397 126.488 271.514 126.466 271.599 126.449L272.055 128.532C271.909 128.587 271.701 128.643 271.43 128.7C271.161 128.762 270.823 128.795 270.419 128.801C269.755 128.813 269.136 128.694 268.563 128.447C267.991 128.199 267.526 127.817 267.173 127.3C266.818 126.783 266.641 126.133 266.641 125.352V112.577Z" fill="#1E0654"/>
<path d="M90.205 150.003V137.051H94.8224C95.8292 137.051 96.6638 137.234 97.3263 137.601C97.9876 137.968 98.4839 138.47 98.8128 139.106C99.1417 139.739 99.3055 140.452 99.3055 141.245C99.3055 142.041 99.1393 142.757 98.8057 143.395C98.4768 144.027 97.9793 144.529 97.3133 144.899C96.652 145.266 95.8185 145.45 94.8152 145.45H91.6405V143.793H94.6383C95.2747 143.793 95.7912 143.683 96.1877 143.464C96.5843 143.241 96.8752 142.937 97.0604 142.553C97.2456 142.17 97.3394 141.733 97.3394 141.245C97.3394 140.756 97.2456 140.321 97.0604 139.941C96.8752 139.562 96.5819 139.264 96.1818 139.049C95.7852 138.835 95.2628 138.727 94.6134 138.727H92.1593V150.003H90.205ZM102.446 137.051V150.003H100.555V137.051H102.446ZM108.286 150.199C107.328 150.199 106.504 149.995 105.813 149.585C105.126 149.172 104.595 148.593 104.22 147.847C103.848 147.096 103.663 146.217 103.663 145.209C103.663 144.214 103.848 143.338 104.22 142.578C104.595 141.819 105.117 141.227 105.788 140.802C106.462 140.376 107.251 140.163 108.153 140.163C108.7 140.163 109.232 140.253 109.746 140.435C110.261 140.615 110.722 140.9 111.132 141.289C111.54 141.677 111.863 142.18 112.1 142.8C112.335 143.415 112.453 144.164 112.453 145.045V145.715H104.731V144.298H110.6C110.6 143.801 110.499 143.36 110.296 142.977C110.094 142.589 109.809 142.284 109.443 142.06C109.08 141.836 108.654 141.724 108.165 141.724C107.634 141.724 107.17 141.855 106.774 142.117C106.382 142.374 106.079 142.711 105.863 143.129C105.653 143.542 105.547 143.991 105.547 144.475V145.583C105.547 146.232 105.661 146.785 105.889 147.239C106.12 147.695 106.443 148.043 106.857 148.283C107.27 148.519 107.752 148.637 108.305 148.637C108.662 148.637 108.99 148.587 109.285 148.486C109.58 148.38 109.836 148.224 110.05 148.017C110.265 147.81 110.429 147.556 110.543 147.252L112.334 147.575C112.19 148.101 111.932 148.563 111.562 148.96C111.195 149.351 110.733 149.658 110.176 149.876C109.624 150.092 108.994 150.199 108.286 150.199ZM116.488 150.218C115.873 150.218 115.316 150.104 114.819 149.876C114.321 149.645 113.927 149.31 113.636 148.872C113.349 148.433 113.205 147.895 113.205 147.258C113.205 146.711 113.311 146.26 113.522 145.905C113.732 145.551 114.017 145.271 114.376 145.064C114.734 144.858 115.134 144.701 115.577 144.596C116.02 144.491 116.471 144.41 116.931 144.355C117.512 144.288 117.985 144.233 118.347 144.192C118.709 144.145 118.973 144.072 119.138 143.97C119.302 143.869 119.385 143.705 119.385 143.477V143.433C119.385 142.88 119.228 142.452 118.916 142.148C118.608 141.846 118.149 141.694 117.537 141.694C116.901 141.694 116.399 141.835 116.033 142.117C115.67 142.395 115.419 142.705 115.28 143.047L113.503 142.642C113.713 142.052 114.022 141.575 114.427 141.213C114.835 140.846 115.305 140.58 115.836 140.416C116.368 140.247 116.926 140.163 117.512 140.163C117.901 140.163 118.311 140.209 118.746 140.302C119.184 140.39 119.593 140.555 119.972 140.795C120.356 141.036 120.671 141.379 120.915 141.827C121.16 142.268 121.282 142.844 121.282 143.553V150.003H119.435V148.675H119.359C119.236 148.919 119.054 149.16 118.809 149.397C118.564 149.632 118.25 149.829 117.866 149.984C117.483 150.14 117.023 150.218 116.488 150.218ZM116.899 148.701C117.422 148.701 117.869 148.598 118.24 148.391C118.615 148.184 118.899 147.914 119.094 147.581C119.292 147.244 119.391 146.883 119.391 146.5V145.247C119.323 145.315 119.192 145.378 118.999 145.437C118.809 145.492 118.592 145.54 118.347 145.583C118.103 145.621 117.864 145.657 117.632 145.69C117.401 145.72 117.207 145.745 117.051 145.766C116.684 145.812 116.349 145.891 116.045 146C115.746 146.11 115.506 146.268 115.324 146.475C115.147 146.677 115.058 146.946 115.058 147.284C115.058 147.752 115.232 148.106 115.577 148.346C115.923 148.582 116.363 148.701 116.899 148.701ZM130.189 142.661L128.476 142.964C128.403 142.745 128.289 142.537 128.134 142.338C127.982 142.14 127.775 141.977 127.514 141.851C127.253 141.724 126.926 141.661 126.533 141.661C125.998 141.661 125.552 141.781 125.193 142.022C124.834 142.259 124.655 142.564 124.655 142.939C124.655 143.264 124.775 143.526 125.016 143.724C125.256 143.921 125.644 144.084 126.18 144.211L127.723 144.564C128.617 144.771 129.283 145.089 129.721 145.519C130.159 145.95 130.379 146.508 130.379 147.195C130.379 147.777 130.21 148.296 129.873 148.751C129.54 149.202 129.074 149.557 128.476 149.813C127.881 150.071 127.191 150.199 126.408 150.199C125.32 150.199 124.432 149.968 123.744 149.503C123.057 149.036 122.636 148.372 122.48 147.511L124.307 147.233C124.421 147.709 124.655 148.07 125.01 148.315C125.364 148.555 125.826 148.675 126.394 148.675C127.014 148.675 127.509 148.547 127.881 148.289C128.251 148.028 128.438 147.709 128.438 147.334C128.438 147.03 128.324 146.776 128.096 146.57C127.873 146.363 127.528 146.206 127.065 146.101L125.421 145.741C124.514 145.534 123.844 145.205 123.41 144.754C122.98 144.303 122.765 143.732 122.765 143.04C122.765 142.466 122.924 141.965 123.245 141.536C123.565 141.105 124.008 140.77 124.573 140.53C125.138 140.285 125.785 140.163 126.514 140.163C127.564 140.163 128.391 140.39 128.993 140.846C129.597 141.297 129.996 141.901 130.189 142.661ZM135.754 150.199C134.797 150.199 133.973 149.995 133.282 149.585C132.594 149.172 132.063 148.593 131.687 147.847C131.317 147.096 131.131 146.217 131.131 145.209C131.131 144.214 131.317 143.338 131.687 142.578C132.063 141.819 132.586 141.227 133.256 140.802C133.93 140.376 134.72 140.163 135.621 140.163C136.169 140.163 136.701 140.253 137.215 140.435C137.729 140.615 138.191 140.9 138.6 141.289C139.009 141.677 139.331 142.18 139.567 142.8C139.804 143.415 139.922 144.164 139.922 145.045V145.715H132.2V144.298H138.069C138.069 143.801 137.968 143.36 137.765 142.977C137.563 142.589 137.278 142.284 136.911 142.06C136.549 141.836 136.123 141.724 135.634 141.724C135.103 141.724 134.639 141.855 134.242 142.117C133.851 142.374 133.547 142.711 133.332 143.129C133.122 143.542 133.016 143.991 133.016 144.475V145.583C133.016 146.232 133.13 146.785 133.357 147.239C133.589 147.695 133.911 148.043 134.324 148.283C134.738 148.519 135.221 148.637 135.773 148.637C136.131 148.637 136.458 148.587 136.753 148.486C137.049 148.38 137.303 148.224 137.518 148.017C137.734 147.81 137.898 147.556 138.012 147.252L139.801 147.575C139.659 148.101 139.401 148.563 139.031 148.96C138.664 149.351 138.202 149.658 137.645 149.876C137.093 150.092 136.463 150.199 135.754 150.199ZM149.487 140.289V141.808H144.181V140.289H149.487ZM145.603 137.962H147.495V147.151C147.495 147.518 147.549 147.794 147.659 147.979C147.769 148.161 147.91 148.285 148.083 148.353C148.259 148.416 148.452 148.448 148.658 148.448C148.81 148.448 148.943 148.437 149.057 148.416C149.17 148.395 149.259 148.378 149.322 148.365L149.664 149.927C149.555 149.97 149.398 150.012 149.196 150.054C148.993 150.101 148.74 150.126 148.436 150.13C147.939 150.139 147.476 150.05 147.046 149.864C146.615 149.679 146.267 149.392 146.002 149.004C145.736 148.617 145.603 148.13 145.603 147.543V137.962ZM150.689 150.003V140.289H152.516V141.832H152.617C152.794 141.31 153.106 140.898 153.553 140.599C154.003 140.296 154.514 140.144 155.084 140.144C155.201 140.144 155.34 140.148 155.501 140.156C155.666 140.164 155.794 140.175 155.886 140.188V141.996C155.811 141.976 155.676 141.952 155.482 141.927C155.288 141.898 155.093 141.883 154.9 141.883C154.453 141.883 154.055 141.977 153.704 142.167C153.359 142.352 153.085 142.612 152.883 142.945C152.68 143.274 152.579 143.649 152.579 144.072V150.003H150.689ZM158.123 153.646C157.841 153.646 157.584 153.623 157.352 153.577C157.12 153.534 156.947 153.488 156.833 153.437L157.289 151.888C157.634 151.98 157.942 152.02 158.212 152.009C158.482 151.996 158.721 151.895 158.927 151.705C159.137 151.515 159.322 151.205 159.483 150.775L159.717 150.13L156.163 140.289H158.186L160.646 147.828H160.748L163.208 140.289H165.239L161.235 151.3C161.05 151.806 160.814 152.234 160.526 152.583C160.24 152.938 159.898 153.203 159.502 153.38C159.106 153.558 158.646 153.646 158.123 153.646ZM172.774 150.218C172.159 150.218 171.603 150.104 171.105 149.876C170.608 149.645 170.213 149.31 169.923 148.872C169.635 148.433 169.493 147.895 169.493 147.258C169.493 146.711 169.597 146.26 169.809 145.905C170.02 145.551 170.304 145.271 170.662 145.064C171.021 144.858 171.421 144.701 171.864 144.596C172.307 144.491 172.758 144.41 173.217 144.355C173.799 144.288 174.272 144.233 174.634 144.192C174.997 144.145 175.261 144.072 175.424 143.97C175.589 143.869 175.671 143.705 175.671 143.477V143.433C175.671 142.88 175.515 142.452 175.204 142.148C174.895 141.846 174.435 141.694 173.824 141.694C173.188 141.694 172.686 141.835 172.32 142.117C171.956 142.395 171.706 142.705 171.567 143.047L169.79 142.642C170.001 142.052 170.308 141.575 170.713 141.213C171.122 140.846 171.592 140.58 172.124 140.416C172.654 140.247 173.214 140.163 173.799 140.163C174.187 140.163 174.598 140.209 175.033 140.302C175.471 140.39 175.88 140.555 176.259 140.795C176.643 141.036 176.957 141.379 177.202 141.827C177.446 142.268 177.569 142.844 177.569 143.553V150.003H175.721V148.675H175.646C175.524 148.919 175.34 149.16 175.095 149.397C174.851 149.632 174.537 149.829 174.153 149.984C173.769 150.14 173.31 150.218 172.774 150.218ZM173.185 148.701C173.709 148.701 174.155 148.598 174.527 148.391C174.902 148.184 175.186 147.914 175.38 147.581C175.579 147.244 175.677 146.883 175.677 146.5V145.247C175.61 145.315 175.479 145.378 175.285 145.437C175.095 145.492 174.878 145.54 174.634 145.583C174.389 145.621 174.152 145.657 173.919 145.69C173.687 145.72 173.494 145.745 173.337 145.766C172.97 145.812 172.635 145.891 172.331 146C172.032 146.11 171.792 146.268 171.611 146.475C171.434 146.677 171.345 146.946 171.345 147.284C171.345 147.752 171.518 148.106 171.864 148.346C172.209 148.582 172.65 148.701 173.185 148.701ZM183.27 153.849C182.498 153.849 181.833 153.747 181.278 153.545C180.726 153.343 180.274 153.075 179.924 152.741C179.574 152.409 179.313 152.044 179.139 151.648L180.765 150.977C180.879 151.163 181.031 151.359 181.221 151.566C181.414 151.776 181.675 151.955 182.004 152.102C182.338 152.251 182.765 152.324 183.289 152.324C184.005 152.324 184.597 152.15 185.065 151.8C185.534 151.454 185.768 150.901 185.768 150.142V148.233H185.647C185.534 148.44 185.369 148.669 185.154 148.922C184.943 149.175 184.652 149.394 184.281 149.579C183.91 149.765 183.428 149.857 182.833 149.857C182.066 149.857 181.374 149.679 180.759 149.321C180.147 148.957 179.663 148.424 179.304 147.72C178.951 147.011 178.772 146.141 178.772 145.108C178.772 144.075 178.948 143.19 179.297 142.452C179.652 141.714 180.137 141.15 180.753 140.757C181.368 140.361 182.066 140.163 182.846 140.163C183.449 140.163 183.936 140.264 184.306 140.466C184.678 140.664 184.967 140.897 185.173 141.162C185.384 141.428 185.546 141.661 185.66 141.865H185.799V140.289H187.652V150.218C187.652 151.053 187.459 151.738 187.07 152.273C186.682 152.809 186.157 153.205 185.496 153.463C184.838 153.719 184.096 153.849 183.27 153.849ZM183.251 148.289C183.795 148.289 184.254 148.163 184.629 147.91C185.008 147.652 185.295 147.286 185.489 146.81C185.687 146.329 185.787 145.753 185.787 145.083C185.787 144.429 185.69 143.854 185.496 143.357C185.301 142.859 185.018 142.471 184.642 142.193C184.266 141.911 183.803 141.77 183.251 141.77C182.681 141.77 182.207 141.917 181.827 142.212C181.449 142.503 181.161 142.899 180.968 143.401C180.778 143.903 180.683 144.463 180.683 145.083C180.683 145.72 180.78 146.279 180.974 146.758C181.167 147.239 181.455 147.614 181.833 147.885C182.218 148.155 182.689 148.289 183.251 148.289ZM192.125 150.218C191.51 150.218 190.953 150.104 190.455 149.876C189.958 149.645 189.564 149.31 189.273 148.872C188.985 148.433 188.843 147.895 188.843 147.258C188.843 146.711 188.947 146.26 189.159 145.905C189.369 145.551 189.654 145.271 190.012 145.064C190.371 144.858 190.771 144.701 191.214 144.596C191.657 144.491 192.108 144.41 192.567 144.355C193.149 144.288 193.622 144.233 193.984 144.192C194.347 144.145 194.61 144.072 194.775 143.97C194.938 143.869 195.022 143.705 195.022 143.477V143.433C195.022 142.88 194.865 142.452 194.554 142.148C194.245 141.846 193.786 141.694 193.174 141.694C192.538 141.694 192.037 141.835 191.67 142.117C191.307 142.395 191.056 142.705 190.917 143.047L189.14 142.642C189.35 142.052 189.659 141.575 190.064 141.213C190.472 140.846 190.942 140.58 191.473 140.416C192.005 140.247 192.563 140.163 193.149 140.163C193.537 140.163 193.948 140.209 194.383 140.302C194.821 140.39 195.231 140.555 195.609 140.795C195.993 141.036 196.307 141.379 196.552 141.827C196.797 142.268 196.919 142.844 196.919 143.553V150.003H195.071V148.675H194.995C194.873 148.919 194.69 149.16 194.446 149.397C194.201 149.632 193.887 149.829 193.503 149.984C193.12 150.14 192.66 150.218 192.125 150.218ZM192.535 148.701C193.059 148.701 193.505 148.598 193.877 148.391C194.252 148.184 194.536 147.914 194.731 147.581C194.929 147.244 195.028 146.883 195.028 146.5V145.247C194.96 145.315 194.829 145.378 194.636 145.437C194.446 145.492 194.228 145.54 193.984 145.583C193.739 145.621 193.502 145.657 193.269 145.69C193.038 145.72 192.844 145.745 192.687 145.766C192.321 145.812 191.986 145.891 191.682 146C191.383 146.11 191.143 146.268 190.961 146.475C190.784 146.677 190.695 146.946 190.695 147.284C190.695 147.752 190.868 148.106 191.214 148.346C191.559 148.582 192 148.701 192.535 148.701ZM198.547 150.003V140.289H200.438V150.003H198.547ZM199.501 138.791C199.172 138.791 198.891 138.68 198.655 138.462C198.422 138.239 198.307 137.973 198.307 137.665C198.307 137.353 198.422 137.087 198.655 136.867C198.891 136.644 199.172 136.532 199.501 136.532C199.83 136.532 200.111 136.644 200.343 136.867C200.579 137.087 200.697 137.353 200.697 137.665C200.697 137.973 200.579 138.239 200.343 138.462C200.111 138.68 199.83 138.791 199.501 138.791ZM203.982 144.235V150.003H202.091V140.289H203.906V141.87H204.026C204.25 141.356 204.599 140.943 205.077 140.631C205.556 140.319 206.162 140.163 206.891 140.163C207.553 140.163 208.133 140.302 208.63 140.58C209.128 140.854 209.514 141.263 209.788 141.808C210.062 142.351 210.199 143.023 210.199 143.825V150.003H208.308V144.053C208.308 143.349 208.124 142.798 207.758 142.401C207.391 142.001 206.887 141.8 206.246 141.8C205.808 141.8 205.417 141.895 205.077 142.085C204.739 142.275 204.471 142.553 204.273 142.92C204.079 143.282 203.982 143.721 203.982 144.235ZM217.559 137.051V150.003H215.667V137.051H217.559ZM222.038 150.218C221.423 150.218 220.866 150.104 220.369 149.876C219.871 149.645 219.477 149.31 219.186 148.872C218.9 148.433 218.756 147.895 218.756 147.258C218.756 146.711 218.862 146.26 219.072 145.905C219.284 145.551 219.567 145.271 219.926 145.064C220.285 144.858 220.685 144.701 221.127 144.596C221.57 144.491 222.022 144.41 222.481 144.355C223.063 144.288 223.535 144.233 223.897 144.192C224.261 144.145 224.524 144.072 224.688 143.97C224.853 143.869 224.935 143.705 224.935 143.477V143.433C224.935 142.88 224.78 142.452 224.467 142.148C224.16 141.846 223.7 141.694 223.089 141.694C222.451 141.694 221.95 141.835 221.583 142.117C221.22 142.395 220.97 142.705 220.831 143.047L219.053 142.642C219.265 142.052 219.572 141.575 219.977 141.213C220.385 140.846 220.856 140.58 221.387 140.416C221.918 140.247 222.477 140.163 223.063 140.163C223.451 140.163 223.862 140.209 224.296 140.302C224.734 140.39 225.144 140.555 225.523 140.795C225.907 141.036 226.221 141.379 226.465 141.827C226.71 142.268 226.832 142.844 226.832 143.553V150.003H224.986V148.675H224.91C224.788 148.919 224.604 149.16 224.359 149.397C224.115 149.632 223.801 149.829 223.418 149.984C223.033 150.14 222.574 150.218 222.038 150.218ZM222.45 148.701C222.973 148.701 223.419 148.598 223.791 148.391C224.166 148.184 224.451 147.914 224.644 147.581C224.842 147.244 224.941 146.883 224.941 146.5V145.247C224.875 145.315 224.743 145.378 224.549 145.437C224.359 145.492 224.142 145.54 223.897 145.583C223.653 145.621 223.415 145.657 223.184 145.69C222.951 145.72 222.758 145.745 222.601 145.766C222.235 145.812 221.899 145.891 221.596 146C221.296 146.11 221.056 146.268 220.875 146.475C220.698 146.677 220.61 146.946 220.61 147.284C220.61 147.752 220.782 148.106 221.127 148.346C221.474 148.582 221.915 148.701 222.45 148.701ZM232.996 140.289V141.808H227.69V140.289H232.996ZM229.112 137.962H231.003V147.151C231.003 147.518 231.058 147.794 231.167 147.979C231.278 148.161 231.419 148.285 231.591 148.353C231.768 148.416 231.96 148.448 232.167 148.448C232.319 148.448 232.452 148.437 232.565 148.416C232.679 148.395 232.768 148.378 232.83 148.365L233.172 149.927C233.062 149.97 232.906 150.012 232.705 150.054C232.502 150.101 232.249 150.126 231.945 150.13C231.447 150.139 230.984 150.05 230.554 149.864C230.123 149.679 229.776 149.392 229.511 149.004C229.245 148.617 229.112 148.13 229.112 147.543V137.962ZM238.279 150.199C237.322 150.199 236.497 149.995 235.806 149.585C235.118 149.172 234.588 148.593 234.212 147.847C233.841 147.096 233.656 146.217 233.656 145.209C233.656 144.214 233.841 143.338 234.212 142.578C234.588 141.819 235.11 141.227 235.781 140.802C236.455 140.376 237.244 140.163 238.146 140.163C238.694 140.163 239.225 140.253 239.739 140.435C240.255 140.615 240.715 140.9 241.125 141.289C241.533 141.677 241.856 142.18 242.092 142.8C242.329 143.415 242.446 144.164 242.446 145.045V145.715H234.724V144.298H240.593C240.593 143.801 240.492 143.36 240.29 142.977C240.087 142.589 239.803 142.284 239.437 142.06C239.073 141.836 238.648 141.724 238.159 141.724C237.627 141.724 237.164 141.855 236.768 142.117C236.376 142.374 236.072 142.711 235.857 143.129C235.646 143.542 235.54 143.991 235.54 144.475V145.583C235.54 146.232 235.654 146.785 235.882 147.239C236.113 147.695 236.436 148.043 236.849 148.283C237.263 148.519 237.746 148.637 238.298 148.637C238.656 148.637 238.983 148.587 239.277 148.486C239.573 148.38 239.828 148.224 240.043 148.017C240.258 147.81 240.423 147.556 240.536 147.252L242.326 147.575C242.183 148.101 241.926 148.563 241.555 148.96C241.188 149.351 240.726 149.658 240.17 149.876C239.617 150.092 238.987 150.199 238.279 150.199ZM243.654 150.003V140.289H245.482V141.832H245.583C245.76 141.31 246.072 140.898 246.519 140.599C246.97 140.296 247.48 140.144 248.049 140.144C248.168 140.144 248.307 140.148 248.467 140.156C248.631 140.164 248.76 140.175 248.853 140.188V141.996C248.777 141.976 248.641 141.952 248.448 141.927C248.254 141.898 248.06 141.883 247.866 141.883C247.419 141.883 247.021 141.977 246.671 142.167C246.325 142.352 246.051 142.612 245.849 142.945C245.646 143.274 245.545 143.649 245.545 144.072V150.003H243.654Z" fill="#1E0654" fill-opacity="0.5"/>
</svg>
