<svg width="178" height="35" viewBox="0 0 178 35" fill="none" xmlns="http://www.w3.org/2000/svg">
<g clip-path="url(#clip0_0_1)">
<path d="M48.0951 33.0016C44.7729 32.5401 41.9604 30.6048 40.7224 27.9283C39.9782 26.3196 39.9525 25.8974 39.9963 16.0203L40.0368 6.89195L40.4857 5.94441C41.2964 4.23335 42.8679 3.11405 44.6157 3.00276L45.5089 2.94588L45.5478 14.3821L45.5866 25.8182L45.9653 26.4586C46.4848 27.3373 47.0026 27.7957 48.0058 28.2649C49.7648 29.0877 52.0277 28.6698 53.2722 27.2923C54.3173 26.1355 54.2591 26.7477 54.3382 16.0705L54.4094 6.46504L54.8975 5.56483C55.7088 4.06844 57.033 3.15927 58.6094 3.01633L59.4611 2.93909V14.3581C59.4611 24.2849 59.4319 25.8901 59.2372 26.6413C58.4799 29.5638 55.9897 31.879 52.6981 32.7209C51.4398 33.0427 49.321 33.1719 48.0951 33.0016ZM99.5195 32.994C95.3048 32.4275 91.8892 29.7561 89.8419 25.4246C87.6199 20.7235 87.6538 14.4823 89.9263 9.91331C91.8909 5.96337 94.8756 3.53732 98.7297 2.75766C99.6672 2.56801 100.373 2.53109 101.931 2.59009C104.144 2.67383 105.695 3.03498 107.282 3.8358L108.129 4.26346V6.90934V9.55522L107.287 8.7756C105.914 7.50467 104.495 6.96775 102.502 6.9648C98.4299 6.95881 95.2838 9.86573 94.0893 14.7381C93.7594 16.0841 93.7572 19.0733 94.085 20.3899C95.0972 24.4527 97.6276 27.4051 100.807 28.2334C103.009 28.8069 105.953 28.1519 107.413 26.7637C107.754 26.4394 108.054 26.174 108.081 26.174C108.107 26.174 108.129 27.324 108.129 28.7295V31.2849L107.488 31.6606C105.567 32.7859 102.184 33.3521 99.5195 32.994ZM128.857 32.9858C124.501 32.4261 121.549 29.5773 120.573 24.9914C120.11 22.8134 120.175 19.9345 120.737 17.707C120.856 17.2374 121.243 16.252 121.598 15.5173C122.73 13.1697 124.748 11.5179 127.263 10.8786C128.508 10.562 131.01 10.5942 132.379 10.9445C136.294 11.9458 138.529 15.3377 138.624 20.4235L138.653 21.9657L132.306 22.8458C128.815 23.3298 125.863 23.7484 125.746 23.7759C125.561 23.8194 125.556 23.9411 125.712 24.6977C126.105 26.6049 127.13 28.0291 128.598 28.7093C129.268 29.0196 129.657 29.0913 130.921 29.1375C133.282 29.2239 135.063 28.7877 137.04 27.6389C137.484 27.381 137.886 27.1701 137.933 27.1701C137.981 27.1701 138.002 28.1467 137.981 29.3402L137.941 31.5103L137.262 31.8347C136.246 32.3199 134.143 32.8324 132.483 32.9989C130.818 33.166 130.243 33.164 128.857 32.9858ZM129.783 19.4776C132.074 19.16 133.978 18.8715 134.013 18.8365C134.114 18.7351 133.764 17.0074 133.526 16.439C133.21 15.6835 132.345 14.7916 131.61 14.4647C131.145 14.2579 130.636 14.1753 129.759 14.1644C128.683 14.1511 128.455 14.1965 127.695 14.5763C126.259 15.2945 125.5 16.6909 125.268 19.0399C125.183 19.9108 125.2 20.055 125.392 20.055C125.515 20.055 127.491 19.7951 129.783 19.4776ZM148.497 33.0048C145.114 32.583 142.558 30.906 141.312 28.2903C140.513 26.613 140.279 25.5647 140.191 23.2568C139.971 17.5012 142.137 13.5493 146.374 11.9788C147.145 11.6928 147.682 11.6097 149.112 11.5547C150.09 11.517 151.222 11.5475 151.627 11.6224L152.363 11.7585L152.41 9.18294C152.463 6.2113 152.585 5.79047 153.745 4.55035C154.575 3.66226 155.651 3.12035 156.788 3.01724L157.65 2.93909V17.7584C157.65 25.9089 157.602 32.5777 157.543 32.5779C157.485 32.578 156.54 32.67 155.445 32.7822C152.786 33.0545 149.691 33.1536 148.497 33.0048ZM152.278 29.3526C152.337 29.317 152.385 26.059 152.385 22.1127V14.9375L151.994 14.8341C151.778 14.7772 151.122 14.7328 150.535 14.7355C149.677 14.7393 149.293 14.8188 148.577 15.1409C146.584 16.037 145.614 18.0513 145.456 21.6203C145.255 26.1395 146.556 28.9077 149.133 29.4432C149.711 29.5635 152.041 29.4963 152.278 29.3526ZM173.73 32.9889C171.292 32.6201 169.688 31.1141 169.327 28.8539C169.238 28.2965 169.177 25.2813 169.177 21.4239V14.9321H168.038H166.9V12.7975V10.663H168.038H169.177V9.25936C169.177 6.79341 169.573 5.55711 170.736 4.3971C171.561 3.57357 172.565 3.10354 173.695 3.01185L174.584 2.93965V6.80131V10.663H176.292H178V12.7975V14.9321H176.292H174.584V21.1293C174.584 27.9164 174.6 28.0529 175.405 28.2641C175.933 28.4024 176.82 28.4035 177.466 28.2665L178 28.1533V30.3599V32.5666L177.255 32.7876C176.268 33.0808 174.868 33.1608 173.73 32.9889ZM61.915 22.4405L61.9515 12.1611L63.0899 11.7802C65.4092 11.0042 67.2335 10.7393 70.2762 10.7366C72.481 10.7346 73.2351 10.785 73.9467 10.9818C76.4662 11.6785 78.0616 13.0819 78.7612 15.2167C78.994 15.9273 79.022 16.7703 79.0657 24.3767L79.1138 32.754L78.217 32.6908C76.526 32.5715 75.0281 31.5249 74.2304 29.9054L73.7627 28.9559L73.6915 22.6199L73.6204 16.2839L73.2628 15.6454C73.0275 15.2251 72.687 14.8846 72.2667 14.6492C71.6878 14.3251 71.4751 14.2917 69.9916 14.2917C68.9943 14.2917 68.1467 14.3655 67.8215 14.4806L67.2879 14.6695V23.6947V32.7199H64.5832H61.8785L61.915 22.4405ZM80.9489 21.708V10.663H83.5845H86.2201L86.1816 19.9482L86.143 29.2335L85.7934 29.945C85.0333 31.4916 83.4508 32.5923 81.8384 32.6959L80.949 32.7531L80.9489 21.708ZM109.694 22.5481V12.3764L110.296 12.0692C111.238 11.5885 112.786 11.1 114.089 10.8718C115.293 10.6609 118.83 10.5885 119.833 10.7543L120.367 10.8425V12.9584C120.367 14.1222 120.343 15.0744 120.313 15.0744C120.283 15.0744 119.891 14.9058 119.441 14.6999C118.777 14.3957 118.419 14.327 117.538 14.3338C116.942 14.3386 116.165 14.4296 115.813 14.5365L115.173 14.7309L115.102 21.8433L115.03 28.9556L114.564 29.9035C113.734 31.5878 112.061 32.7199 110.4 32.7199H109.694V22.5481ZM160.069 21.6914V10.663H162.706H165.343L165.303 19.8059L165.263 28.9489L164.85 29.8442C164.097 31.4757 162.303 32.7199 160.704 32.7199H160.069L160.069 21.6914ZM82.7653 8.10213C80.9421 7.55317 80.162 5.66728 81.1675 4.23972C81.8028 3.33765 82.6457 2.9448 83.8124 3.00688C84.5651 3.04694 84.8719 3.13823 85.3371 3.46061C86.0105 3.92726 86.4987 4.82208 86.4987 5.58957C86.4987 7.35965 84.5825 8.64929 82.7653 8.10213ZM161.581 8.04246C159.385 7.22913 159.177 4.45454 161.227 3.33785C162.556 2.61412 164.26 2.99937 165.104 4.21433C165.691 5.05972 165.692 6.16585 165.106 6.99544C164.368 8.03979 162.818 8.50039 161.581 8.04246Z" fill="white"/>
<path d="M13.6402 34.1247C11.512 33.6797 9.17951 32.6806 7.48523 31.4882C7.11328 31.2264 6.77358 31.0122 6.73033 31.0122C6.68708 31.0122 6.27451 31.2684 5.8135 31.5815C5.35249 31.8945 4.84594 32.1507 4.68784 32.1507C4.32566 32.1507 3.54912 31.4726 3.19625 30.8483C3.04816 30.5863 3.01294 30.4519 3.11798 30.5498C3.63077 31.0273 4.16543 30.7198 8.5884 27.4034C15.0265 22.5759 22.1166 16.5875 29.5069 9.73514C32.209 7.22979 32.4953 6.87342 32.4953 6.01554V5.38874L32.883 5.85571C33.6911 6.82921 33.733 7.77366 33.0108 8.7422L32.6059 9.28525L33.0972 10.3485C33.7298 11.7178 34.223 13.6761 34.4278 15.6328C34.9453 20.5751 33.0916 25.7542 29.5069 29.381C27.0271 31.89 23.7379 33.6279 20.3517 34.2184C18.5961 34.5246 15.335 34.479 13.6402 34.1247ZM3.65472 27.9216C3.20016 27.3947 2.27554 25.9227 1.77774 24.9335C0.713705 22.819 0.143872 20.5901 0.0211398 18.0627C-0.380648 9.78844 4.98055 2.55205 13.0604 0.462598C14.965 -0.0299315 17.9949 -0.14586 20.0372 0.195644C22.7422 0.647944 25.1682 1.65167 27.3724 3.23043L28.5108 4.04584L24.384 4.13439C19.3238 4.24297 16.0015 4.54479 15.2113 4.9677C14.8296 5.17197 14.7159 5.6402 14.9591 6.0064C15.0716 6.17595 15.7975 6.70154 16.5721 7.17439C17.6156 7.81144 17.9926 8.11944 18.0273 8.36349C18.0616 8.60398 17.6433 9.25623 16.4771 10.7807C13.2012 15.0631 11.5902 17.2735 7.95481 22.4741C5.90313 25.4091 4.14549 27.8925 4.04893 27.9927C3.90674 28.1404 3.83184 28.1269 3.65472 27.9216Z" fill="#E2001A"/>
</g>
<defs>
<clipPath id="clip0_0_1">
<rect width="178" height="34.422" fill="white"/>
</clipPath>
</defs>
</svg>
