<svg width="17" height="17" viewBox="0 0 17 17" fill="none" xmlns="http://www.w3.org/2000/svg">
<path fill-rule="evenodd" clip-rule="evenodd" d="M8.17465 1.02589C8.01929 1.06439 7.85258 1.14964 7.70403 1.26657C7.45135 1.46549 7.36025 1.62793 7.03718 2.45569C6.8747 2.87204 6.66826 3.39843 6.57844 3.62547C6.48863 3.8525 6.32143 4.27757 6.20688 4.57005C5.9858 5.13467 5.91209 5.25812 5.7422 5.34855C5.61195 5.41787 5.53969 5.42541 3.66389 5.56571C2.8586 5.62592 2.12849 5.68869 2.04143 5.7052C1.44073 5.81908 1 6.3889 1 7.05165C1 7.38235 1.10727 7.6977 1.29611 7.92212C1.36702 8.00641 2.037 8.60783 3.07197 9.51622C4.03898 10.365 4.06639 10.3913 4.12908 10.5317C4.16533 10.6129 4.19113 10.7225 4.19126 10.796C4.19142 10.865 4.09792 11.317 3.98353 11.8005C3.56172 13.583 3.37636 14.3888 3.35953 14.513C3.33471 14.6964 3.38968 15.0155 3.4802 15.2133C3.63469 15.551 3.95317 15.8334 4.30528 15.9449C4.45418 15.9921 4.53385 16.0002 4.74461 15.9897C5.11466 15.9711 5.01718 16.0254 7.09348 14.6791C8.10247 14.0249 8.46838 13.7939 8.49624 13.7939C8.51201 13.7939 8.94187 14.0628 9.45146 14.3915C12.1475 16.1303 11.9311 16.013 12.3995 15.9894C12.6411 15.9773 12.6784 15.9674 12.8829 15.8618C13.2482 15.6729 13.4965 15.3597 13.5957 14.9624C13.6717 14.6577 13.6563 14.5527 13.3326 13.1739C12.7299 10.6073 12.7813 10.8534 12.8137 10.6893C12.8451 10.5301 12.9381 10.3793 13.0815 10.2548C13.8258 9.60882 15.4829 8.13509 15.6089 8.00707C16.0151 7.59434 16.1119 7.01109 15.8663 6.45646C15.7578 6.21156 15.5155 5.94195 15.3029 5.82959C15.0409 5.69106 15.042 5.69119 11.6707 5.43892C11.5546 5.43023 11.4181 5.4105 11.3673 5.39508C11.2378 5.35579 11.086 5.24315 11.0262 5.1421C10.9983 5.09501 10.6942 4.33822 10.3503 3.46035C10.0065 2.58248 9.69203 1.79611 9.65161 1.71286C9.43177 1.26027 8.99988 0.993994 8.49552 1.0001C8.37008 1.00164 8.22569 1.01323 8.17465 1.02589Z" stroke="white" stroke-width="1.5"/>
</svg>
