<svg width="112" height="36" viewBox="0 0 112 36" fill="none" xmlns="http://www.w3.org/2000/svg">
<g id="Visa_Inc._logo 1" clip-path="url(#clip0_12262_16278)">
<g id="g4158">
<path id="polygon9" d="M48.5332 35.4805H39.4604L45.1352 0.631531H54.2075L48.5332 35.4805Z" fill="#00579F"/>
<path id="path11" d="M81.4231 1.48366C79.6336 0.778539 76.7952 0 73.2856 0C64.3259 0 58.0166 4.74514 57.9779 11.5293C57.9035 16.5346 62.4952 19.3147 65.9294 20.9836C69.4395 22.689 70.6328 23.8021 70.6328 25.3222C70.597 27.6568 67.7964 28.733 65.1842 28.733C61.5619 28.733 59.6211 28.1782 56.6716 26.8793L55.4769 26.3225L54.2073 34.1453C56.3352 35.1081 60.2556 35.9626 64.3259 36C73.8457 36 80.0434 31.3283 80.1168 24.0987C80.1531 20.1316 77.7284 17.0919 72.5012 14.6079C69.3279 13.0134 67.3846 11.9382 67.3846 10.3068C67.4218 8.8236 69.0283 7.30446 72.6103 7.30446C75.5598 7.23006 77.727 7.93419 79.3687 8.63882L80.1893 9.00887L81.4231 1.48366Z" fill="#00579F"/>
<path id="path13" d="M93.4809 23.1347C94.2281 21.1327 97.1032 13.3843 97.1032 13.3843C97.0655 13.4587 97.8489 11.3453 98.2969 10.0479L98.931 13.0507C98.931 13.0507 100.649 21.3924 101.022 23.1347C99.6042 23.1347 95.273 23.1347 93.4809 23.1347ZM104.68 0.631531H97.6623C95.4982 0.631531 93.854 1.26126 92.9203 3.52296L79.4438 35.48H88.9636C88.9636 35.48 90.5309 31.1788 90.8678 30.2525C91.9122 30.2525 101.173 30.2525 102.517 30.2525C102.777 31.4759 103.599 35.48 103.599 35.48H112L104.68 0.631531Z" fill="#00579F"/>
<path id="path15" d="M31.8825 0.631531L22.9972 24.3952L22.0263 19.5756C20.3836 14.0145 15.2317 7.97246 9.48254 4.96819L17.6211 35.4435H27.2153L41.4762 0.631531H31.8825Z" fill="#00579F"/>
<path id="path17" d="M14.7466 0.631531H0.149335L0 1.33566C11.3867 4.22759 18.928 11.1985 22.0263 19.5771L18.8531 3.5609C18.3306 1.33517 16.7251 0.70495 14.7466 0.631531Z" fill="#FAA61A"/>
</g>
</g>
<defs>
<clipPath id="clip0_12262_16278">
<rect width="112" height="36" fill="white"/>
</clipPath>
</defs>
</svg>
