<svg width="20" height="20" viewBox="0 0 20 20" fill="none" xmlns="http://www.w3.org/2000/svg">
<path d="M16.4286 10.2326H20V13.0233H16.4286C16.2391 13.0233 16.0574 12.9498 15.9235 12.8189C15.7895 12.6881 15.7143 12.5106 15.7143 12.3256V10.9302C15.7143 10.7452 15.7895 10.5677 15.9235 10.4369C16.0574 10.3061 16.2391 10.2326 16.4286 10.2326ZM16.4286 14.4186C15.8603 14.4186 15.3152 14.1981 14.9133 13.8056C14.5115 13.4131 14.2857 12.8807 14.2857 12.3256V10.9302C14.2857 10.3751 14.5115 9.84276 14.9133 9.45024C15.3152 9.05772 15.8603 8.83721 16.4286 8.83721H20V8.13953C19.9996 7.79746 19.9995 7.23122 19.9995 6.65342C19.9996 5.54798 19.1031 4.65194 17.9977 4.65158C17.7764 4.65151 17.565 4.65138 17.381 4.65116H2.85714C2.76116 4.65111 2.66543 4.64153 2.57143 4.62256C1.86869 4.55499 1.21664 4.23508 0.741583 3.72479C0.266522 3.21451 0.00226518 2.55017 0 1.86046V16.5116C0.000419617 16.8538 0.000528741 17.4203 0.000499681 17.9982C0.000444112 19.1035 0.89649 19.9996 2.00173 19.9995C2.60984 19.9995 3.21171 19.9996 3.57143 20H16.4286C16.7883 19.9996 17.3902 19.9995 17.9983 19.9995C19.1035 19.9996 19.9996 19.1035 19.9995 17.9982C19.9995 17.4203 19.9996 16.8538 20 16.5116V14.4186H16.4286ZM20 2.7907C20 2.59694 20 2.31337 20 2.00029C20 0.895722 19.1044 0 17.9998 0C17.6605 0 17.351 0 17.1429 0H2.61905C2.24017 0 1.8768 0.14701 1.6089 0.408688C1.34099 0.670367 1.19048 1.02528 1.19048 1.39535C1.19048 1.95045 1.41624 2.48282 1.8181 2.87534C2.21997 3.26786 2.76501 3.48837 3.33333 3.48837H20V2.7907Z" fill="#FED601"/>
<path d="M16.4286 14.4186C15.8603 14.4186 15.3152 14.1981 14.9133 13.8056C14.5115 13.413 14.2857 12.8807 14.2857 12.3256V10.9302C14.2857 10.3751 14.5115 9.84275 14.9133 9.45024C15.3152 9.05772 15.8603 8.8372 16.4286 8.8372H20V8.13953C19.9996 7.79746 19.9995 7.23121 19.9995 6.65341C19.9996 5.54798 19.1031 4.65194 17.9977 4.65158C17.7764 4.6515 17.565 4.65137 17.381 4.65116H2.85714C2.76116 4.65111 2.66543 4.64152 2.57143 4.62255C1.86869 4.55498 1.21664 4.23507 0.741583 3.72479C0.266522 3.2145 0.00226518 2.55016 0 1.86046V16.5116C0.000419617 16.8538 0.000528741 17.4203 0.000499681 17.9982C0.000444112 19.1035 0.89649 19.9996 2.00173 19.9995C2.60984 19.9995 3.21171 19.9996 3.57143 20H16.4286C16.7883 19.9996 17.3902 19.9995 17.9983 19.9995C19.1035 19.9996 19.9996 19.1035 19.9995 17.9982C19.9995 17.4203 19.9996 16.8538 20 16.5116V14.4186H16.4286Z" fill="#A32AFF"/>
</svg>
