<svg width="34" height="22" viewBox="0 0 34 22" fill="none" xmlns="http://www.w3.org/2000/svg">
<path fill-rule="evenodd" clip-rule="evenodd" d="M16.0191 0.0279428C14.5011 0.157846 13.1159 0.480008 11.8186 1.00481C10.5311 1.52567 8.94924 2.48556 7.94515 3.35527C7.6823 3.58294 7.15807 4.08194 6.78018 4.46422C6.23412 5.0166 6.08059 5.2032 6.03214 5.37328C5.91694 5.77764 5.9753 5.86252 7.33947 7.275C8.44946 8.42429 8.5977 8.56001 8.74309 8.56001C8.8851 8.56001 9.00558 8.45872 9.69753 7.75723C10.1331 7.3157 10.6357 6.83264 10.8145 6.68379C12.1072 5.60734 13.7882 4.85398 15.5664 4.5541C16.0899 4.46583 17.8993 4.46651 18.4338 4.55519C19.9071 4.79962 21.2773 5.34099 22.433 6.13515C23.0903 6.5868 23.3932 6.84941 24.2261 7.68922C24.8791 8.34776 25.0654 8.50809 25.1775 8.50809C25.2922 8.50809 25.5349 8.28489 26.5465 7.24904C27.2229 6.55653 27.8077 5.91481 27.8463 5.82291C27.9358 5.60942 27.9355 5.37375 27.8454 5.19562C27.751 5.00876 26.3823 3.62899 25.8921 3.22635C23.9601 1.63969 21.6407 0.57933 19.2135 0.173007C18.3309 0.0252431 16.8411 -0.0424084 16.0191 0.0279428ZM2.51219 8.98487C2.3819 9.02345 2.05235 9.32796 1.24379 10.157C0.642997 10.7729 0.116704 11.3525 0.0741963 11.4449C-0.0226915 11.6557 -0.0249552 11.9493 0.0689646 12.1321C0.108555 12.2092 2.25347 14.4481 4.83538 17.1074C9.89397 22.3176 9.63213 22.0742 10.0522 21.9564C10.1994 21.9152 10.8671 21.2518 13.554 18.4777C16.0353 15.9159 16.9034 15.05 16.9905 15.05C17.0775 15.05 17.9453 15.9154 20.4248 18.4749C24.0215 22.1876 23.8886 22.0691 24.3211 21.9502C24.4933 21.9029 25.1618 21.2342 29.1865 17.0838C31.7526 14.4375 33.8862 12.1986 33.9277 12.1087C34.0229 11.9026 34.0242 11.6588 33.9311 11.4779C33.8 11.223 31.6291 9.04515 31.4429 8.9817C31.0316 8.84168 31.151 8.73488 27.5242 12.4846C25.6899 14.381 24.1626 15.9326 24.1302 15.9326C24.0977 15.9326 22.565 14.3808 20.7243 12.4843C17.7601 9.43019 17.3531 9.02926 17.1654 8.97817C16.9933 8.93134 16.9176 8.93576 16.763 9.0018C16.6281 9.05932 15.6024 10.0835 13.2514 12.5078C11.4249 14.3915 9.89729 15.9326 9.85679 15.9326C9.8163 15.9326 8.2836 14.3851 6.45073 12.4936C3.31184 9.25434 2.97243 8.92869 2.73856 8.93207C2.71089 8.93248 2.60902 8.95626 2.51219 8.98487Z" fill="white"/>
</svg>
