<svg width="22" height="23" viewBox="0 0 22 23" fill="none" xmlns="http://www.w3.org/2000/svg">
<path d="M17.75 11.9318H21.5V14.9318H17.75C17.5511 14.9318 17.3603 14.8527 17.2197 14.7121C17.079 14.5714 17 14.3807 17 14.1818V12.6818C17 12.4828 17.079 12.2921 17.2197 12.1514C17.3603 12.0108 17.5511 11.9318 17.75 11.9318ZM17.75 16.4318C17.1533 16.4318 16.581 16.1947 16.159 15.7727C15.7371 15.3508 15.5 14.7785 15.5 14.1818V12.6818C15.5 12.085 15.7371 11.5127 16.159 11.0908C16.581 10.6688 17.1533 10.4318 17.75 10.4318H21.5V9.68176C21.4995 9.28442 21.4994 8.60569 21.4995 7.93397C21.4996 6.82854 20.6032 5.93252 19.4977 5.93224C19.2293 5.93217 18.9709 5.93202 18.75 5.93176H3.5C3.39922 5.93171 3.2987 5.9214 3.2 5.90101C2.46213 5.82837 1.77748 5.48447 1.27866 4.93591C0.779849 4.38736 0.502378 3.67319 0.5 2.93176V18.6818C0.500476 19.0792 0.500572 19.7582 0.500515 20.43C0.500421 21.5353 1.39648 22.4313 2.50172 22.4312C3.1736 22.4312 3.85256 22.4313 4.25 22.4318H17.75C18.1474 22.4313 18.8264 22.4312 19.4983 22.4312C20.6035 22.4313 21.4996 21.5353 21.4995 20.43C21.4994 19.7582 21.4995 19.0792 21.5 18.6818V16.4318H17.75ZM21.5 3.93176C21.5 3.69289 21.5 3.32704 21.5 2.93199C21.5 1.82743 20.6043 0.931763 19.4998 0.931763C19.1047 0.931763 18.7389 0.931763 18.5 0.931763H3.25C2.85218 0.931763 2.47064 1.0898 2.18934 1.3711C1.90804 1.65241 1.75 2.03394 1.75 2.43176C1.75 3.0285 1.98705 3.6008 2.40901 4.02275C2.83097 4.44471 3.40326 4.68176 4 4.68176H21.5V3.93176Z" fill="white"/>
</svg>
