<svg width="74" height="63" viewBox="0 0 74 63" fill="none" xmlns="http://www.w3.org/2000/svg">
<path fill-rule="evenodd" clip-rule="evenodd" d="M32.4773 0.125979C22.505 1.40079 13.7816 6.38267 7.6094 14.328C3.65277 19.4211 1.15256 25.4647 0.200437 32.2368C-0.0393647 33.9421 -0.0726412 39.5715 0.147624 41.1643C0.698074 45.1442 1.60833 48.3073 3.3667 52.3506C4.16661 54.1899 5.90384 57.406 6.09748 57.406C6.18851 57.406 6.74422 57.0885 9.61347 55.3974C11.4898 54.2916 11.8171 54.0791 12.4315 53.5683C12.7121 53.335 13.3401 52.9101 13.827 52.6241C16.6959 50.9381 16.698 50.9368 16.698 50.6943C16.698 50.5202 15.2787 48.0042 15.0345 47.7455C14.9873 47.6956 13.7267 48.3487 12.0823 49.275C11.2853 49.724 10.5847 50.0914 10.5253 50.0916C10.4095 50.0919 9.60875 48.1723 9.07247 46.6089C8.4457 44.7817 7.91618 42.3021 7.52492 39.3627L7.46405 38.9056H10.2026H12.9411V37.0232V35.1409H10.2002H7.45922L7.52599 34.5762C7.88505 31.5384 8.3258 29.354 8.98294 27.3556C9.48423 25.8312 10.2713 23.9573 10.411 23.9557C10.4965 23.9549 11.1655 24.3064 14.4319 26.0684C14.8045 26.2693 14.9352 26.2958 15.0567 26.1947C15.2286 26.0517 16.5558 23.8456 16.7025 23.4587C16.8174 23.1561 16.7753 23.1237 14.7659 21.9652C13.0608 20.9822 12.4886 20.6098 12.436 20.4487C12.3505 20.1866 14.6008 17.4498 16.0787 16.0188C17.7214 14.4282 20.3364 12.3595 20.5428 12.4873C20.5946 12.5194 20.9654 13.1161 21.367 13.8133C22.5408 15.8517 23.1431 16.7483 23.3367 16.7457C23.5982 16.7422 26.1911 15.1002 26.2266 14.9158C26.2432 14.8291 26.0219 14.3468 25.7347 13.8439C25.4476 13.3411 25.079 12.6877 24.9157 12.3919C24.7523 12.0961 24.4541 11.5579 24.2531 11.196C23.8287 10.4324 23.786 10.5012 25.0317 9.94132C27.5693 8.80096 31.2779 7.84754 34.329 7.5511L35.0535 7.48076L35.0662 10.0976C35.0733 11.537 35.0733 12.7508 35.0662 12.7952C35.0592 12.8396 35.911 12.8759 36.9588 12.8758L38.8642 12.8757L38.9018 10.2137C38.9225 8.74954 38.9544 7.53583 38.9728 7.51636C39.0321 7.45355 41.0869 7.71492 42.2991 7.9395C44.1116 8.27541 45.6817 8.70846 47.3958 9.34543C48.9125 9.90894 49.974 10.4073 49.974 10.5557C49.974 10.6227 49.4421 11.6394 48.7918 12.815C48.1416 13.9906 47.6253 14.9683 47.6446 14.9875C47.89 15.2334 50.4541 16.7481 50.625 16.7481C50.8097 16.7481 50.9117 16.5987 52.1867 14.4611C52.8135 13.4104 53.3705 12.5233 53.4246 12.4897C53.6502 12.35 56.2356 14.4183 58.0613 16.199C59.3709 17.4761 61.567 20.1627 61.567 20.4874C61.567 20.5482 61.3255 20.7531 61.0303 20.9429C60.7351 21.1328 60.4936 21.3369 60.4936 21.3967C60.4936 21.4564 60.7749 21.9718 61.1187 22.5417C62.3693 24.6151 62.3042 24.5612 63.0777 24.1657C63.3135 24.0451 63.5486 23.9726 63.6001 24.0045C63.7439 24.0935 64.6189 26.2454 65.0014 27.4504C65.6363 29.4509 66.1621 31.9975 66.3448 33.9578C66.3806 34.3423 66.4322 34.7659 66.4593 34.8989L66.5088 35.1409H63.7695H61.0303V37.0232V38.9056H63.7297H66.429L66.3594 39.8134C66.2221 41.603 65.5925 44.5368 64.8922 46.6499C64.4784 47.8988 63.6239 49.9609 63.4844 50.0472C63.4283 50.082 62.5512 49.6518 61.5354 49.0914C59.3992 47.913 58.9823 47.6965 58.9405 47.7445C58.8439 47.8554 57.9075 49.3767 57.628 49.8767C57.0634 50.8866 57.0548 50.8508 57.9969 51.3856C59.7612 52.3869 61.4789 53.4425 62.0737 53.8911C62.8027 54.4408 67.5398 57.4166 67.7855 57.4792C68.0051 57.5353 68.6388 56.5317 69.6656 54.5018C71.9283 50.0285 73.0757 46.4209 73.7586 41.6324C73.9884 40.0209 74.0802 35.5088 73.9183 33.7728C72.8448 22.2542 66.755 12.1131 57.1513 5.85089C52.6806 2.93579 48.0537 1.18384 42.2991 0.227086C40.8338 -0.0165391 34.1316 -0.0854857 32.4773 0.125979ZM59.2591 23.606C58.3401 23.9766 51.9262 26.7164 46.8959 28.8874L41.6173 31.1655L41.2068 30.8843C39.7296 29.8726 37.7865 29.4129 36.0151 29.656C33.1915 30.0433 30.802 32.0168 29.8949 34.7107C29.5741 35.6631 29.4927 37.5745 29.7259 38.673C30.0418 40.1608 31.1072 41.8534 32.3469 42.837C33.0931 43.4291 34.2415 44.0088 35.1029 44.2282C35.9573 44.4458 38.0251 44.4441 38.8684 44.225C40.8398 43.7128 42.6852 42.1983 43.64 40.309C44.1626 39.275 44.2979 38.6855 44.3618 37.1653L44.4235 35.6939L48.2991 32.7878C50.4306 31.1895 53.986 28.5232 56.1999 26.8626C58.7885 24.9211 60.2252 23.7769 60.2252 23.657C60.2252 23.4073 59.8071 23.3852 59.2591 23.606ZM22.1105 55.7215C22.0803 55.8006 22.0696 57.4585 22.0871 59.4054L22.1188 62.9454L36.9857 62.9727L51.8525 63L51.823 59.2887L51.7934 55.5775H36.9796C24.7024 55.5775 22.1563 55.6021 22.1105 55.7215Z" fill="white"/>
</svg>
